<?xml version="1.0" encoding="UTF-8"?>
<svg id="_图层_1" data-name="图层 1" xmlns="http://www.w3.org/2000/svg" viewBox="0 0 19 26">
  <defs>
    <style>
      .cls-1 {
        fill: #011833;
      }

      .cls-2 {
        fill: #93989c;
      }

      .cls-3 {
        fill: #881c21;
      }

      .cls-4 {
        fill: #f5f6f7;
      }
    </style>
  </defs>
  <g>
    <rect class="cls-4" x=".13" y=".12" width="18.75" height="25.75" rx="1.88" ry="1.88"/>
    <path class="cls-2" d="M17,.25c.96,0,1.75,.79,1.75,1.75V24c0,.96-.79,1.75-1.75,1.75H2c-.96,0-1.75-.79-1.75-1.75V2C.25,1.04,1.04,.25,2,.25h15M17,0H2C.9,0,0,.9,0,2V24C0,25.1,.9,26,2,26h15c1.1,0,2-.9,2-2V2C19,.9,18.1,0,17,0h0Z"/>
  </g>
  <g>
    <g>
      <path class="cls-3" d="M9.5,9.5c-1.93,0-3.5,1.57-3.5,3.5s1.57,3.5,3.5,3.5,3.5-1.57,3.5-3.5-1.57-3.5-3.5-3.5Zm0,.29c1.08,0,1.35,.33,1.28,.91-.07,.58-.7,1.22-.86,1.22-.04,0-.08,0-.11,0l.23-.85h-.03s-.23,.84-.23,.84c-.08,0-.15-.03-.27-.03v-1.15h-.03v1.15c-.12,0-.19,.03-.27,.03l-.23-.85h-.03s.23,.85,.23,.85c-.03,0-.07,0-.11,0-.16,0-.79-.64-.86-1.22-.07-.58,.21-.91,1.28-.91Zm-3.05,2.21c.33-1.02,.73-1.18,1.26-.94,.53,.24,.94,1.04,.89,1.19-.01,.04-.03,.07-.04,.1l-.73-.48v.03s.72,.48,.72,.48c-.03,.07-.08,.13-.12,.25l-1.09-.36v.03s1.08,.36,1.08,.36c-.04,.12-.04,.19-.05,.27l-.88-.04v.03s.87,.04,.87,.04c0,.03-.02,.07-.03,.11-.05,.15-.85,.55-1.42,.44-.57-.12-.8-.48-.47-1.5Zm2.74,3.6c-.29,.51-.7,.61-1.57-.02-.87-.63-.9-1.06-.51-1.49,.39-.43,1.28-.57,1.41-.48,.03,.02,.06,.05,.08,.07l-.68,.55,.02,.02,.68-.55c.06,.05,.1,.12,.2,.19l-.68,.93,.03,.02,.68-.93c.1,.07,.17,.09,.24,.13l-.31,.82,.03,.02,.31-.82s.06,.04,.09,.06c.13,.09,.26,.98-.02,1.49Zm-.56-2.61c0-.48,.39-.87,.87-.87s.87,.39,.87,.87-.39,.87-.87,.87-.87-.39-.87-.87Zm2.76,2.59c-.87,.63-1.29,.53-1.57,.02-.29-.51-.15-1.4-.02-1.49,.03-.02,.06-.04,.09-.06l.31,.82,.03-.02-.31-.82c.07-.04,.14-.06,.24-.13l.68,.93,.03-.02-.68-.93c.1-.07,.14-.14,.2-.19l.69,.55,.02-.02-.68-.55s.05-.04,.08-.07c.13-.09,1.01,.05,1.41,.48,.39,.43,.37,.86-.51,1.49Zm.7-2.08c-.57,.12-1.37-.29-1.42-.44-.01-.04-.02-.07-.03-.11l.88-.04v-.03s-.88,.04-.88,.04c-.02-.08-.01-.15-.05-.27l1.09-.36v-.03s-1.1,.36-1.1,.36c-.04-.11-.09-.18-.12-.25l.74-.48v-.03s-.75,.48-.75,.48c-.01-.03-.03-.06-.04-.1-.05-.15,.36-.95,.89-1.19,.53-.24,.93-.08,1.26,.94,.33,1.02,.1,1.39-.47,1.5Z"/>
      <path class="cls-3" d="M9.5,12.55c-.25,0-.45,.2-.45,.45s.2,.45,.45,.45,.45-.2,.45-.45-.2-.45-.45-.45Z"/>
    </g>
    <path class="cls-1" d="M9.5,6.15c-3.78,0-6.85,3.07-6.85,6.85s3.07,6.85,6.85,6.85,6.85-3.07,6.85-6.85-3.07-6.85-6.85-6.85Zm6.34,4.99c.06,.21-.29,.64-.65,.74-.32,.09-1.48,.3-1.55,.32-.06,.01-.11-.03-.14-.13-.03-.11,0-.17,.05-.18,.05-.01,1.23-.36,1.33-.39,.1-.03,.18-.1,.17-.12,0-.03-.11-.04-.21-.01-.1,.03-1.28,.38-1.33,.39-.05,.01-.1-.02-.14-.13-.03-.1-.01-.16,.04-.19s1.15-.47,1.47-.57c.36-.11,.89,.06,.95,.27Zm-.78-1.71c.12,.19-.1,.7-.41,.9-.28,.18-1.34,.71-1.39,.74-.06,.03-.11,0-.17-.09-.06-.1-.05-.16,0-.19s1.08-.69,1.17-.75,.15-.15,.13-.17-.12,0-.21,.05-1.12,.72-1.17,.75c-.04,.03-.1,.01-.17-.08-.06-.09-.06-.15,0-.19,.05-.04,.97-.78,1.25-.96,.32-.21,.87-.19,.99,0Zm-1.23-1.42c.17,.15,.1,.69-.14,.98-.22,.25-1.08,1.06-1.13,1.1-.05,.04-.11,.03-.19-.04-.09-.08-.09-.14-.06-.18,.03-.04,.84-.97,.91-1.05,.07-.08,.1-.18,.08-.2-.02-.02-.12,.03-.19,.11-.07,.08-.87,1.01-.91,1.05-.03,.04-.1,.04-.18-.03-.08-.07-.1-.13-.06-.18,.04-.05,.71-1.02,.93-1.28,.24-.29,.78-.43,.95-.28Zm-2.41-.48c.15-.34,.63-.63,.83-.54,.2,.09,.3,.64,.14,.98-.14,.3-.74,1.32-.77,1.37-.03,.06-.09,.06-.19,.02-.11-.05-.13-.11-.11-.15,.02-.05,.53-1.17,.58-1.26,.04-.1,.04-.2,.02-.21-.02-.01-.1,.06-.15,.15s-.56,1.22-.58,1.26c-.02,.05-.08,.07-.19,.02-.1-.04-.13-.1-.11-.16,.02-.06,.39-1.18,.53-1.49Zm-1.62-.32c.05-.37,.42-.78,.64-.75,.22,.03,.46,.53,.41,.9-.05,.33-.34,1.48-.36,1.54-.01,.06-.07,.09-.18,.07-.11-.02-.15-.07-.15-.12,0-.05,.18-1.27,.2-1.37,.01-.1-.01-.2-.04-.21-.03,0-.08,.08-.1,.19s-.19,1.32-.2,1.37-.06,.09-.17,.07c-.1-.02-.15-.05-.15-.12,0-.06,.05-1.24,.09-1.57Zm-1.24-.75c.22-.03,.59,.38,.64,.75,.05,.33,.09,1.51,.09,1.57,0,.06-.05,.1-.15,.12-.11,.02-.17-.02-.17-.07s-.18-1.27-.2-1.37c-.01-.1-.07-.19-.1-.19-.03,0-.06,.1-.04,.21,.01,.1,.19,1.32,.2,1.37s-.03,.1-.15,.12c-.1,.02-.16,0-.18-.07-.01-.06-.31-1.21-.36-1.54-.06-.37,.19-.87,.41-.9Zm-1.8,.53c.2-.09,.67,.19,.83,.54,.14,.31,.51,1.43,.53,1.49,.02,.06-.02,.11-.11,.16-.11,.05-.16,.03-.19-.02-.02-.05-.53-1.17-.58-1.26-.04-.1-.12-.16-.15-.15-.03,.01-.03,.12,.02,.21,.04,.1,.55,1.22,.58,1.26,.02,.05,0,.11-.11,.15-.1,.04-.16,.04-.19-.02-.03-.06-.63-1.07-.77-1.37-.16-.34-.07-.89,.14-.98Zm-1.58,1.02c.17-.15,.7,0,.95,.28,.22,.25,.89,1.22,.93,1.28,.04,.05,.02,.11-.06,.18-.09,.08-.15,.07-.18,.03-.03-.04-.84-.97-.91-1.05-.07-.08-.16-.12-.19-.11-.02,.02,0,.12,.08,.2,.07,.08,.87,1.01,.91,1.05,.03,.04,.03,.1-.06,.18-.08,.07-.14,.08-.19,.04s-.91-.85-1.13-1.1c-.25-.28-.31-.83-.14-.98Zm-1.23,1.42c.12-.19,.67-.2,.99,0,.28,.18,1.2,.92,1.25,.96,.05,.04,.05,.1,0,.19-.06,.1-.12,.11-.17,.08-.04-.03-1.08-.69-1.17-.75-.09-.06-.19-.07-.21-.05-.01,.02,.04,.11,.13,.17,.09,.06,1.12,.72,1.17,.75,.04,.03,.06,.09,0,.19-.06,.09-.11,.12-.17,.09-.06-.03-1.11-.56-1.39-.74-.32-.2-.53-.71-.41-.9Zm.17,1.43c.32,.1,1.41,.55,1.47,.57,.06,.02,.07,.08,.04,.19-.03,.11-.09,.14-.14,.13-.05-.01-1.23-.36-1.33-.39-.1-.03-.2-.01-.21,.01,0,.03,.07,.1,.17,.12,.1,.03,1.28,.38,1.33,.39,.05,.01,.08,.07,.05,.18-.03,.1-.08,.15-.14,.13-.06-.01-1.22-.22-1.55-.32-.36-.1-.71-.53-.65-.74,.06-.21,.59-.38,.95-.27Zm-1.22,2.14c0-.22,.46-.53,.83-.53,.33,0,1.51,.13,1.57,.13,.06,0,.1,.06,.1,.17,0,.12-.04,.16-.1,.16s-1.28,0-1.39,0-.2,.04-.2,.07,.1,.07,.2,.07,1.34,0,1.39,0,.1,.04,.1,.16c0,.11-.03,.16-.1,.17-.06,0-1.24,.13-1.57,.13-.38,0-.83-.31-.83-.53Zm.27,1.86c-.06-.21,.29-.64,.65-.74,.32-.09,1.48-.3,1.55-.32,.06-.01,.11,.03,.14,.13,.03,.11,0,.17-.05,.18-.05,.01-1.23,.36-1.33,.39-.1,.03-.18,.1-.17,.12s.11,.04,.21,.01c.1-.03,1.28-.38,1.33-.39,.05-.01,.1,.02,.14,.13,.03,.1,.01,.16-.04,.19-.06,.02-1.15,.47-1.47,.57-.36,.11-.89-.06-.95-.27Zm.78,1.71c-.12-.19,.1-.7,.41-.9,.28-.18,1.34-.71,1.39-.74,.06-.03,.11,0,.17,.09,.06,.1,.05,.16,0,.19-.04,.03-1.08,.69-1.17,.75-.09,.06-.15,.15-.13,.17,.01,.02,.12,0,.21-.05,.09-.06,1.12-.72,1.17-.75,.04-.03,.1-.01,.17,.08,.06,.09,.06,.15,0,.19-.05,.04-.97,.78-1.25,.96-.32,.21-.87,.19-.99,0Zm1.23,1.42c-.17-.15-.1-.69,.14-.98,.22-.25,1.08-1.06,1.13-1.1,.05-.04,.11-.03,.19,.04,.09,.08,.09,.14,.06,.18-.03,.04-.84,.97-.91,1.05-.07,.08-.1,.18-.08,.2s.12-.03,.19-.11c.07-.08,.87-1.01,.91-1.05,.03-.04,.1-.04,.18,.03,.08,.07,.1,.13,.06,.18-.04,.05-.71,1.02-.93,1.28-.24,.29-.78,.43-.95,.28Zm2.41,.48c-.15,.34-.63,.63-.83,.54-.2-.09-.3-.64-.14-.98,.14-.3,.74-1.32,.77-1.37,.03-.06,.09-.06,.19-.02,.11,.05,.13,.11,.11,.15-.02,.05-.53,1.17-.58,1.26s-.04,.2-.02,.21c.03,.01,.1-.06,.15-.15,.04-.1,.56-1.22,.58-1.26,.02-.05,.08-.07,.19-.02,.1,.04,.13,.1,.11,.16-.02,.06-.39,1.18-.53,1.49Zm1.62,.32c-.05,.37-.42,.78-.64,.75-.22-.03-.46-.53-.41-.9,.05-.33,.34-1.48,.36-1.54,.01-.06,.07-.09,.18-.07,.11,.02,.15,.07,.15,.12,0,.05-.18,1.27-.2,1.37-.01,.1,.01,.2,.04,.21,.03,0,.08-.08,.1-.19,.01-.1,.19-1.32,.2-1.37s.06-.09,.17-.07c.1,.01,.15,.05,.15,.12,0,.06-.05,1.24-.09,1.58Zm-3.4-5.79c0-2.04,1.66-3.7,3.7-3.7s3.7,1.66,3.7,3.7-1.66,3.7-3.7,3.7-3.7-1.66-3.7-3.7Zm4.64,6.54c-.22,.03-.59-.38-.64-.75-.05-.33-.09-1.51-.09-1.58,0-.06,.05-.1,.15-.12,.11-.02,.17,.02,.17,.07s.18,1.27,.2,1.37,.07,.19,.1,.19c.03,0,.06-.1,.04-.21-.02-.1-.19-1.32-.2-1.37,0-.05,.03-.1,.15-.12,.1-.02,.16,0,.18,.07,.01,.06,.31,1.21,.36,1.54,.06,.37-.19,.87-.41,.9Zm1.8-.53c-.2,.09-.67-.19-.83-.54-.14-.31-.51-1.43-.53-1.49-.02-.06,.02-.11,.11-.16,.11-.05,.16-.03,.19,.02,.02,.05,.53,1.17,.58,1.26,.04,.1,.12,.16,.15,.15,.03-.01,.03-.12-.02-.21-.04-.1-.55-1.22-.58-1.26-.02-.05,0-.11,.11-.15,.1-.04,.16-.04,.19,.02,.03,.06,.63,1.07,.77,1.37,.16,.34,.07,.89-.14,.98Zm1.58-1.02c-.17,.15-.7,0-.95-.28-.22-.25-.89-1.22-.93-1.28-.04-.05-.02-.11,.06-.18,.09-.08,.15-.07,.18-.03,.03,.04,.84,.97,.91,1.05,.07,.08,.16,.12,.19,.11,.02-.02,0-.12-.08-.2-.07-.08-.87-1.01-.91-1.05s-.03-.1,.06-.18c.08-.07,.14-.08,.19-.04,.05,.04,.91,.85,1.13,1.1,.25,.28,.31,.83,.14,.98Zm1.23-1.42c-.12,.19-.67,.2-.99,0-.28-.18-1.2-.92-1.25-.96-.05-.04-.05-.1,0-.19,.06-.1,.12-.11,.17-.08,.04,.03,1.08,.69,1.17,.75s.19,.07,.21,.05-.04-.11-.13-.17-1.12-.72-1.17-.75c-.04-.03-.06-.09,0-.19,.06-.09,.11-.12,.17-.09,.06,.03,1.11,.56,1.39,.74,.32,.2,.53,.71,.41,.9Zm-.17-1.43c-.32-.1-1.41-.55-1.47-.57s-.07-.08-.04-.19c.03-.11,.09-.14,.14-.13,.05,.01,1.23,.36,1.33,.39,.1,.03,.2,.01,.21-.01,0-.03-.07-.1-.17-.12s-1.28-.38-1.33-.39c-.05-.01-.08-.07-.05-.18,.03-.1,.08-.15,.14-.13,.06,.01,1.22,.22,1.55,.32,.36,.1,.71,.53,.65,.74s-.59,.38-.95,.27Zm.38-1.6c-.34,0-1.51-.13-1.57-.13s-.1-.06-.1-.17c0-.12,.04-.16,.1-.16s1.28,0,1.39,0,.2-.04,.2-.07-.1-.07-.2-.07-1.34,0-1.39,0-.1-.04-.1-.16c0-.11,.03-.16,.1-.17s1.24-.13,1.57-.13c.38,0,.83,.31,.83,.53s-.46,.53-.83,.53Z"/>
    <path class="cls-1" d="M9.5,5.5c-4.14,0-7.5,3.36-7.5,7.5s3.36,7.5,7.5,7.5,7.5-3.36,7.5-7.5-3.36-7.5-7.5-7.5Zm0,14.6c-3.91,0-7.1-3.18-7.1-7.1s3.19-7.1,7.1-7.1,7.1,3.18,7.1,7.1-3.18,7.1-7.1,7.1Z"/>
  </g>
</svg>