<?xml version="1.0" encoding="UTF-8"?>
<svg id="_图层_1" data-name="图层 1" xmlns="http://www.w3.org/2000/svg" viewBox="0 0 19 26">
  <defs>
    <style>
      .cls-1 {
        fill: #005529;
      }

      .cls-2 {
        fill: #93989c;
      }

      .cls-3 {
        fill: #881c21;
      }

      .cls-4 {
        fill: #f5f6f7;
      }

      .cls-5 {
        fill: #231815;
      }
    </style>
  </defs>
  <g>
    <rect class="cls-4" x=".13" y=".13" width="18.75" height="25.75" rx="1.88" ry="1.88"/>
    <path class="cls-2" d="M17,.25c.96,0,1.75,.79,1.75,1.75V24c0,.96-.79,1.75-1.75,1.75H2c-.96,0-1.75-.79-1.75-1.75V2C.25,1.04,1.04,.25,2,.25h15M17,0H2C.9,0,0,.9,0,2V24C0,25.1,.9,26,2,26h15c1.1,0,2-.9,2-2V2C19,.9,18.1,0,17,0h0Z"/>
  </g>
  <g>
    <path class="cls-3" d="M4.94,14.76s-.02,.07-.07,.07c-.1,0-.44-.24-1.03-.73-.2-.15-.43-.29-.71-.42-.28-.13-.51-.24-.68-.31-.17-.07-.26-.12-.26-.15,0-.05,.1-.07,.29-.07,.39,.02,.79,.16,1.19,.4,.4,.24,.71,.48,.93,.71,.22,.23,.33,.4,.33,.5Zm-2.24-3.12c.15,0,.39,.06,.73,.18,.34,.12,.78,.38,1.3,.77,.53,.39,.95,.88,1.26,1.47,.1,.24,.15,.38,.15,.4,0,.07-.02,.11-.07,.11l-.4-.4c-1.37-1.34-2.37-2.14-3.01-2.38-.07-.02-.11-.06-.11-.11,0-.02,.05-.04,.15-.04Zm1.61,3.7c-.2,0-.53-.06-1.01-.17-.48-.11-.71-.23-.71-.35,0-.05,.13-.07,.4-.07,.12,0,.3,.04,.53,.13,.23,.09,.43,.17,.61,.26,.17,.09,.26,.14,.26,.16s-.02,.04-.07,.04Zm.95-.92s.02-.04,.07-.04c.07,0,.27,.16,.59,.48,.32,.32,.48,.56,.48,.73s-.07,.26-.22,.26c-.2,0-.44-.06-.73-.18-.29-.12-.44-.22-.44-.29,0-.02,.04-.04,.11-.04s.2,.02,.38,.07c.18,.05,.29,.07,.31,.07,.05,0,.07-.02,.07-.07,0-.1-.1-.28-.31-.53-.21-.26-.31-.41-.31-.46Z"/>
    <path class="cls-3" d="M8.64,23.19c0,.07-.05,.11-.15,.11-.05,0-.12-.03-.2-.09-.09-.06-.15-.08-.2-.06-.02,0-.24,.14-.66,.42-.42,.28-.68,.42-.81,.42-.07,0-.11-.04-.11-.11,0-.02,.12-.15,.35-.37,.23-.22,.35-.34,.35-.37s-.02-.04-.07-.04c-.15,0-.32,.02-.53,.06-.21,.04-.32,.05-.35,.05-.07,0-.11-.02-.11-.07,0-.17,.45-.31,1.36-.4,.17-.02,.28-.09,.33-.18,.05-.1,.07-.35,.07-.77,0-.17-.02-.35-.06-.53-.04-.18-.05-.29-.05-.31,0-.05,.04-.07,.11-.07,.27,0,.46,.1,.59,.29,.02,.05,.04,.15,.04,.29,0,.51-.06,.95-.18,1.32,.2,.15,.29,.28,.29,.4Z"/>
    <path class="cls-3" d="M10.51,22.28c0,.34,.03,.57,.09,.68,.06,.11,.21,.18,.44,.22,.23,.04,.43,.1,.6,.2,0,.02,.02,.05,.06,.07,.04,.02,.05,.05,.05,.07,0,.05-.06,.07-.18,.07-.05,0-.23-.02-.53-.07-.31-.05-.51-.07-.61-.07-.02,0-.15,.09-.38,.28-.23,.18-.41,.28-.53,.28-.05,0-.07-.04-.07-.11,0-.02,.05-.09,.15-.18,.2-.24,.26-.37,.18-.37-.02,0-.18,.06-.46,.18-.28,.12-.47,.18-.57,.18-.07,0-.11-.02-.11-.07,0-.07,.22-.25,.66-.53,.44-.28,.66-.61,.66-.97,0-.1,0-.21-.02-.35-.01-.13-.03-.28-.05-.44-.02-.16-.04-.29-.04-.38-.02-.07,0-.11,.07-.11h.04c.42,0,.62,.12,.62,.37,0,.1-.01,.28-.04,.53-.02,.26-.04,.43-.04,.53Z"/>
    <path class="cls-5" d="M5.63,7.9s-.05-.13-.16-.26c-.11-.12-.24-.27-.39-.44-.15-.17-.26-.29-.33-.37-1-1.37-1.5-2.22-1.5-2.57,0-.07,.04-.11,.11-.11,.05,0,.11,.04,.18,.11,1.42,2.13,2.2,3.19,2.35,3.19,.05,0,.07-.02,.07-.07,0-.07-.32-.54-.97-1.39-.65-.86-.97-1.42-.97-1.69,0-.07,.04-.11,.11-.11,.05,0,.39,.46,1.03,1.39,.64,.93,1,1.39,1.1,1.39,.05,0,.07-.01,.07-.04,0-.1-.29-.56-.86-1.38-.57-.82-.86-1.29-.86-1.41,0-.07,.04-.11,.11-.11,.1,0,.38,.39,.84,1.17,.46,.78,.73,1.17,.81,1.17,.05,0,.07-.02,.07-.07s-.13-.32-.4-.81c-.27-.49-.4-.81-.4-.95,0-.1,.02-.15,.07-.15,.07,0,.28,.36,.62,1.08,.34,.72,.53,1.08,.55,1.08,.05,0,.07-.05,.07-.15s-.15-.48-.44-1.14c-.29-.66-.44-1.04-.44-1.14,0-.07,.04-.11,.11-.11,.05,0,.23,.35,.55,1.06l.51,1.06c.15,.2,.24,.26,.29,.18,0-.02-.15-.56-.46-1.6-.31-1.04-.46-1.73-.46-2.07,0-.15,.04-.22,.11-.22,.1,0,.29,.57,.57,1.7,.28,1.14,.46,1.71,.53,1.71,.1,0,.15-.06,.15-.18,0-.1-.11-.52-.33-1.26-.22-.75-.33-1.36-.33-1.85,0-.24,.02-.37,.07-.37,.17,0,.35,.52,.55,1.56,.2,1.04,.32,1.56,.37,1.56,.07,0,.11-.12,.11-.37,0-.1-.04-.46-.13-1.1-.09-.64-.13-1.06-.13-1.28,0-.39,.04-.59,.11-.59,.1,0,.2,.3,.29,.9,.1,.6,.15,1.18,.15,1.74,0,.37,.06,.55,.18,.55,.07,0,.11-.2,.11-.59,0-.22-.02-.57-.05-1.06-.04-.49-.06-.82-.06-.99,0-.29,.04-.44,.11-.44,.12,0,.21,.49,.28,1.47,.06,.98,.13,1.47,.2,1.47,.12,0,.18-.37,.18-1.1s.02-1.14,.07-1.14c.17,0,.26,.39,.26,1.17,0,.1,0,.26-.02,.48-.01,.22-.02,.38-.02,.48,0,.22,.06,.28,.18,.18,.05-.02,.07-.06,.07-.11,.02-.05,.07-.24,.15-.59,.07-.34,.15-.64,.24-.88,.09-.24,.18-.37,.28-.37,.07,0,.11,.09,.11,.26,0,.12-.06,.39-.18,.79-.12,.4-.18,.68-.18,.82,0,.05,.04,.07,.11,.07s.28-.51,.62-1.54c.34-1.03,.56-1.54,.66-1.54,.07,0,.11,.18,.11,.55-.02,.2-.1,.49-.24,.88-.13,.39-.26,.74-.37,1.05-.11,.31-.16,.47-.16,.5,0,.07,.04,.11,.11,.11s.31-.5,.72-1.49c.4-.99,.67-1.48,.79-1.48,.05,0,.07,.05,.07,.15,0,.27-.17,.77-.49,1.5s-.5,1.15-.5,1.25c.02,.02,.05,.04,.07,.04,.07,0,.34-.41,.79-1.23,.45-.82,.7-1.23,.75-1.23,.07,0,.11,.05,.11,.15,0,.12-.11,.42-.33,.88-.15,.27-.3,.53-.46,.79-.16,.26-.27,.45-.35,.57-.07,.12-.11,.2-.11,.22,0,.05,.04,.07,.11,.07,.1,0,.33-.31,.7-.94,.37-.62,.57-.93,.62-.93,.07,0,.11,.05,.11,.15,0,.2-.17,.55-.51,1.06l-.55,.77c0,.07,.02,.11,.07,.11s.25-.24,.6-.73c.35-.49,.58-.73,.68-.73,.05,0,.07,.05,.07,.15,0,.15-.23,.47-.68,.97-.45,.5-.68,.78-.68,.82l.07,.07c.17,0,.66-.4,1.47-1.21,.73-.81,1.14-1.21,1.21-1.21,.05,0,.07,.05,.07,.15,0,.27-.4,.76-1.19,1.47-.79,.71-1.19,1.08-1.19,1.1,0,.05,.02,.07,.07,.07,.2,0,.73-.39,1.6-1.17,.87-.78,1.35-1.17,1.45-1.17,.05,0,.07,.04,.07,.11,0,.17-.46,.64-1.39,1.41-.93,.77-1.39,1.18-1.39,1.23,0,.07,0,.11,.02,.11h.09c.07,0,.5-.29,1.28-.86,.78-.57,1.23-.86,1.36-.86,.05,0,.07,.02,.07,.07,0,.1-.07,.21-.22,.33-.73,.54-1.39,.99-1.98,1.36-.22,.15-.33,.26-.33,.33s.02,.11,.07,.11c.02,0,.35-.2,.97-.59,.62-.39,1.03-.59,1.23-.59,.12,0,.15,.06,.07,.18-.02,.07-.18,.19-.48,.35-.29,.16-.61,.33-.95,.51-.34,.18-.56,.31-.66,.39-.12,.12-.09,.18,.11,.18,.05,0,.32-.13,.81-.4,.49-.27,.82-.4,.99-.4,.12,0,.18,.05,.18,.15,0,.05-.3,.21-.9,.48-.6,.27-.9,.45-.9,.55,0,.07,.05,.11,.15,.11,.02,0,.3-.07,.83-.2,.52-.13,.82-.2,.9-.2,.2,0,.29,.05,.29,.15s-.38,.23-1.14,.4c-.76,.17-1.14,.29-1.14,.37,0,.1,.04,.15,.11,.15,.12,0,.45-.07,.99-.2,.54-.13,.87-.2,.99-.2s.18,.04,.18,.11-.06,.13-.16,.16c-.11,.04-.34,.09-.68,.15-.34,.06-.67,.14-.99,.24-.07,.02-.13,.06-.17,.11-.04,.05-.04,.09,0,.13,.04,.04,.09,.05,.17,.05,.12,0,.39-.05,.81-.15,.42-.1,.66-.15,.73-.15,.12,0,.18,.04,.18,.11,0,.15-.55,.31-1.65,.48-.05,0-.09,.02-.13,.07-.04,.05-.04,.1,0,.15,.04,.05,.1,.07,.2,.07,.07,0,.27-.04,.6-.11,.33-.07,.56-.11,.68-.11,.07,0,.11,.01,.11,.04,0,.12-.27,.24-.81,.35-.54,.11-.81,.2-.81,.27s.09,.11,.26,.11c.12,0,.32-.04,.59-.11l.4-.07c.12,0,.18,.04,.18,.11,0,.12-.35,.23-1.04,.33-.7,.1-1.04,.23-1.04,.4,.02,.02,.06,.04,.11,.04s.18-.02,.39-.07c.21-.05,.36-.07,.46-.07,.15,0,.22,.05,.22,.15,0,.07-.17,.13-.51,.18-.34,.05-.56,.07-.66,.07-.12,0-.18,.04-.18,.11,0,.05,.04,.07,.11,.07,.1,0,.23-.01,.4-.04,.17-.02,.27-.04,.29-.04,.1,0,.15,.04,.15,.11,0,.17-.34,.26-1.03,.26-.07,.02-.11,.11-.11,.26,.05,0,.13,0,.26-.02,.12-.01,.21-.02,.28-.04,.06-.01,.1,0,.13,.02,0,.07-.06,.13-.17,.17-.11,.04-.26,.08-.44,.13-.18,.05-.34,.12-.46,.22-.24,.22-.51,.35-.79,.38-.28,.04-.47,.07-.57,.09-.02,0-.24,.18-.64,.53-.4,.35-.8,.53-1.19,.53-.1,0-.27-.04-.51-.13-.24-.09-.43-.13-.55-.13-.07,0-.22,.04-.44,.11-.22,.07-.4,.11-.55,.11-.27,0-.51-.1-.73-.31-.22-.21-.34-.32-.37-.35-.02,0-.14-.03-.35-.09-.21-.06-.38-.12-.51-.18-.13-.06-.2-.13-.2-.2,0-.05,.02-.07,.07-.07,.07,0,.18,.03,.33,.09,.15,.06,.24,.09,.29,.09s.07-.02,.07-.07c0-.07-.21-.16-.62-.26-.42-.1-.62-.2-.62-.29,0-.05,.04-.07,.11-.07,.1,0,.26,.02,.48,.07l.33,.11c.12,0,.18-.01,.18-.04,0-.15-.09-.22-.26-.22-1-.17-1.5-.35-1.5-.55,0-.07,.04-.11,.11-.11s.3,.07,.68,.22c.38,.15,.62,.22,.72,.22,.07,0,.11-.02,.11-.07,0-.07-.09-.15-.27-.22-.18-.07-.42-.16-.7-.26-.28-.1-.51-.2-.68-.29-.46-.29-.93-.67-1.39-1.14-.46-.46-.7-.76-.7-.88,0-.1,.04-.15,.11-.15,.05,0,.31,.21,.77,.64,.46,.43,.77,.64,.92,.64,.05,0,.07-.04,.07-.11,0-.05-.08-.13-.24-.26-.16-.12-.36-.29-.6-.51-.24-.22-.45-.45-.62-.7-.07-.1-.12-.18-.13-.26-.01-.07-.01-.13,0-.18,.01-.05,.03-.07,.06-.07,.05,0,.3,.25,.75,.75,.45,.5,.75,.75,.9,.75,.05,0,.07-.02,.07-.07s-.27-.38-.81-.99c-.54-.61-.81-1-.81-1.17,0-.07,.02-.11,.07-.11s.32,.29,.82,.86c.5,.57,.84,.86,1.01,.86l.04-.07s-.29-.37-.88-1.03c-.59-.66-.88-1.12-.88-1.39,0-.05,.01-.07,.04-.07,.07,0,.38,.35,.92,1.05,.54,.7,.87,1.04,.99,1.04,.07,0,.11-.02,.11-.07,0-.07-.14-.29-.42-.64-.28-.35-.59-.73-.92-1.14-.33-.4-.54-.68-.64-.82-.15-.24-.13-.37,.04-.37,.05,0,.34,.34,.88,1.03,.54,.68,.88,1.03,1.03,1.03,.05,0,.07-.01,.07-.04Zm.81,1.91c-.2,0-.4,.08-.62,.24-.22,.16-.33,.43-.33,.82,0,.1,.02,.2,.05,.29,.04,.1,.13,.2,.29,.31,.16,.11,.36,.17,.6,.17,.68,0,1.03-.28,1.03-.84,0-.27-.1-.5-.31-.7-.21-.2-.45-.29-.71-.29Zm.04,.55c.24,0,.37,.15,.37,.44,0,.2-.13,.29-.4,.29-.24,0-.37-.1-.37-.29,0-.29,.13-.44,.4-.44Zm1.8-1.94c0-.27-.1-.51-.29-.72-.2-.21-.42-.31-.66-.31-.32,0-.59,.09-.81,.27-.22,.18-.33,.43-.33,.75,0,.64,.35,.95,1.06,.95,.27,0,.51-.1,.71-.29,.21-.2,.31-.42,.31-.66Zm-1.43,0c0-.1,.05-.2,.15-.29,.1-.1,.2-.15,.29-.15s.19,.05,.27,.15c.09,.1,.13,.2,.13,.29,0,.22-.15,.33-.44,.33-.27,0-.4-.11-.4-.33Zm2.35,4.55c0-.64-.31-.95-.92-.95s-.88,.26-.88,.77c0,.24,.09,.46,.28,.66,.18,.2,.43,.29,.75,.29,.51,0,.77-.26,.77-.77Zm-.4-3.3c-.27,0-.49,.1-.66,.31-.17,.21-.26,.45-.26,.71,0,.61,.39,.92,1.17,.92,.29,0,.52-.11,.68-.33,.16-.22,.24-.43,.24-.62,0-.66-.39-.99-1.17-.99Zm-.84,3.23c0-.24,.12-.37,.37-.37s.37,.13,.37,.4c0,.2-.11,.29-.33,.29-.27,0-.4-.11-.4-.33Zm2.13-6.49c0-.17-.08-.34-.24-.51-.16-.17-.36-.26-.61-.26-.71,0-1.06,.34-1.06,1.03,0,.2,.09,.35,.28,.46,.18,.11,.36,.17,.53,.17,.27,0,.52-.1,.75-.29,.23-.2,.35-.39,.35-.59Zm-.81,4.29c0,.2-.11,.29-.33,.29-.27,0-.4-.1-.4-.29,0-.27,.12-.4,.37-.4s.37,.13,.37,.4Zm-.15-3.89c-.27,0-.4-.12-.4-.37s.16-.37,.48-.37c.22,0,.33,.11,.33,.33,0,.27-.13,.4-.4,.4Zm.88,2.68c.07,0,.18-.02,.31-.05,.13-.04,.29-.15,.46-.33,.17-.18,.26-.42,.26-.72,0-.32-.09-.54-.27-.68-.18-.13-.36-.2-.53-.2-.22,0-.48,.07-.77,.22-.29,.15-.44,.39-.44,.73,0,.27,.1,.51,.29,.72,.2,.21,.43,.31,.7,.31Zm.07-1.32c.27,0,.4,.12,.4,.37s-.13,.37-.4,.37-.4-.12-.4-.37,.13-.37,.4-.37Zm1.47,4.69c0-.27-.12-.46-.35-.59-.23-.12-.46-.18-.68-.18-.54,0-.81,.34-.81,1.03,0,.54,.27,.81,.81,.81,.12,0,.24-.02,.37-.06,.12-.04,.26-.14,.42-.31,.16-.17,.24-.4,.24-.7Zm-.88-.15c.22,0,.33,.1,.33,.29,0,.29-.12,.44-.37,.44-.22,0-.33-.13-.33-.4,0-.22,.12-.33,.37-.33Zm-.33-2.31c0,.27,.1,.48,.29,.62,.2,.15,.42,.22,.66,.22,.61,0,.92-.28,.92-.84,0-.22-.08-.42-.24-.61-.16-.18-.36-.27-.6-.27-.32,0-.57,.09-.75,.26-.18,.17-.28,.38-.28,.62Zm1.21-3.12c.17,0,.37-.07,.61-.22,.23-.15,.35-.38,.35-.7,0-.51-.27-.77-.81-.77-.66,0-.99,.28-.99,.84,0,.27,.08,.48,.24,.62,.16,.15,.36,.22,.6,.22Zm-.22,2.75c.24,0,.37,.15,.37,.44,0,.22-.13,.33-.4,.33-.22,0-.33-.12-.33-.37,0-.27,.12-.4,.37-.4Zm.26-3.23c-.22,0-.33-.11-.33-.33,0-.27,.12-.4,.37-.4s.37,.11,.37,.33c0,.27-.13,.4-.4,.4Zm.26,5.28c0,.17,.11,.33,.33,.48,.22,.15,.4,.22,.55,.22,.22,0,.42-.08,.6-.24,.18-.16,.27-.32,.27-.49,0-.22-.09-.42-.27-.61-.18-.18-.4-.28-.64-.28-.22,0-.42,.1-.59,.29-.17,.2-.26,.4-.26,.62Zm.18-4.03c0,.56,.29,.84,.88,.84,.24,0,.47-.08,.68-.24,.21-.16,.31-.36,.31-.6,0-.59-.28-.88-.84-.88-.29,0-.54,.09-.73,.28-.2,.18-.29,.38-.29,.6Zm1.03,3.92c0,.07-.04,.15-.11,.22-.07,.07-.13,.11-.18,.11-.24,0-.37-.09-.37-.26,0-.27,.11-.4,.33-.4s.33,.11,.33,.33Zm-.37-3.89c0-.27,.12-.4,.37-.4,.22,0,.33,.12,.33,.37s-.13,.37-.4,.37c-.2,0-.29-.11-.29-.33Zm.88,2.86c.66,0,.99-.27,.99-.81,0-.22-.07-.43-.22-.62-.15-.2-.35-.29-.62-.29-.2,0-.4,.07-.62,.22-.22,.15-.33,.37-.33,.66,0,.22,.07,.42,.22,.59,.15,.17,.34,.26,.59,.26Zm.15-.44c-.29,0-.44-.11-.44-.33,0-.12,.05-.23,.15-.31,.1-.09,.2-.13,.29-.13,.2,0,.29,.13,.29,.4,0,.24-.1,.37-.29,.37Z"/>
    <path class="cls-1" d="M10.76,20.11c-.2,0-.49-.04-.88-.11-.39-.07-.67-.11-.84-.11-.12,0-.37,.07-.73,.22-.37,.15-.66,.22-.88,.22-.12,0-.38-.03-.77-.09-.39-.06-.67-.09-.84-.09-1.44,0-2.71,.21-3.81,.62-.05-.1-.07-.24-.07-.44,0-1.03,.34-1.91,1.03-2.66,.68-.75,1.37-1.12,2.05-1.12,.2,0,.42,.04,.66,.11,.24,.07,.38,.11,.4,.11,.1,0,.15-.04,.15-.11,0-.02-.03-.08-.09-.17-.06-.09-.09-.14-.09-.16,0-.12,.02-.18,.07-.18s.11,.05,.18,.15c.07,.1,.14,.26,.2,.49,.06,.23,.09,.48,.09,.75,0,.12,0,.34-.02,.66-.01,.32-.02,.51-.02,.59,0,.83,.26,1.25,.77,1.25,.17,0,.46-.08,.88-.24,.41-.16,.76-.24,1.03-.24,.07,0,.16,0,.26,.02,.1,.01,.17,.02,.22,.02,.39,0,.59-.27,.59-.81,0-.17-.1-.34-.31-.5-.21-.16-.41-.24-.6-.24-.24,0-.53,.21-.86,.62-.33,.42-.6,.62-.83,.62-.39,0-.59-.29-.59-.88,0-.24,.07-.59,.2-1.03,.13-.44,.2-.77,.2-.99,0-.29-.07-.51-.2-.64-.13-.13-.28-.21-.42-.24-.15-.02-.22-.05-.22-.07,0-.05,.07-.07,.22-.07,.24,0,.46,.13,.66,.39,.2,.26,.32,.39,.37,.39s.15-.11,.29-.33c.15-.22,.37-.43,.66-.64,.29-.21,.65-.31,1.06-.31,.49,0,.89,.23,1.21,.68,.32,.45,.49,.68,.51,.68l.55-.15c.37-.12,.82-.18,1.36-.18,.73,0,1.5,.38,2.31,1.14,.81,.76,1.21,1.7,1.21,2.82l-.11,.62s-.5-.07-1.36-.22c-.86-.15-1.55-.22-2.09-.22-.86,0-1.49,.01-1.91,.04-.42,.02-.7,.04-.84,.04Zm-6.89-.29c0-.1-.15-.15-.44-.15-.22,0-.41,.02-.57,.07-.16,.05-.27,.11-.33,.18-.06,.07-.09,.13-.09,.18,0,.1,.05,.15,.15,.15,.12,0,.37-.05,.73-.17,.37-.11,.55-.2,.55-.27Zm-1.21-.62c0,.1,.12,.15,.37,.15,.17,0,.37-.04,.6-.11,.23-.07,.35-.13,.35-.18,0-.12-.15-.18-.44-.18-.59,0-.88,.11-.88,.33Zm1.06-1.1c-.44,0-.66,.07-.66,.22,0,.12,.22,.18,.66,.18,.39,0,.59-.06,.59-.18,0-.15-.2-.22-.59-.22Zm-.11-.48c0,.15,.27,.22,.81,.22,.17,0,.26-.04,.26-.11,0-.2-.21-.29-.62-.29-.29,0-.44,.06-.44,.18Zm.55-.55c0,.12,.23,.18,.7,.18,.15,0,.22-.04,.22-.11,0-.15-.18-.22-.55-.22-.24,0-.37,.05-.37,.15Zm1.98,2.49c-1.25,0-1.87,.06-1.87,.18,0,.1,.16,.15,.48,.15,.1,0,.28,0,.55-.02,.27-.01,.48-.02,.62-.02,.32,0,.48-.05,.48-.15s-.09-.15-.26-.15Zm.11-.4c0-.19-.48-.29-1.43-.29-.29,0-.44,.06-.44,.18,0,.05,.01,.08,.04,.09,.02,.01,.08,.02,.16,.04,.09,.01,.17,.02,.26,.02h.42c.2,0,.38,.01,.55,.04,.29,.02,.44,0,.44-.07Zm-.04-.59c0-.2-.33-.29-.99-.29-.32,0-.48,.06-.48,.18s.38,.18,1.14,.18c.22,0,.33-.02,.33-.07Zm-1.17-.66s.16,.07,.48,.13c.32,.06,.5,.09,.55,.09,.1,0,.15-.01,.15-.04,0-.05-.04-.1-.11-.15-.07-.05-.18-.1-.33-.15-.15-.05-.29-.07-.44-.07-.2,0-.29,.06-.29,.18Zm.26-.55c0,.07,.13,.15,.38,.22,.26,.07,.45,.11,.57,.11,.05,0,.07-.02,.07-.07s-.09-.12-.28-.22c-.18-.1-.36-.15-.53-.15-.15,0-.22,.04-.22,.11Zm.99-.22c0-.17-.17-.26-.51-.26-.15,0-.22,.02-.22,.07,0,.07,.09,.13,.26,.18,.17,.05,.29,.07,.37,.07s.11-.02,.11-.07Zm.77-.7c0,.07-.04,.11-.11,.11s-.16-.07-.26-.22c-.1-.15-.15-.27-.15-.37,0-.05,.02-.07,.07-.07,.1,0,.2,.07,.29,.2,.1,.13,.15,.25,.15,.35Zm.84,1.61c0-.15-.09-.22-.26-.22-.2,0-.29,.18-.29,.55,0,.15,.05,.22,.15,.22,.05,0,.13-.07,.24-.2,.11-.13,.17-.25,.17-.35Zm.44,.37c0-.12-.04-.18-.11-.18-.1,0-.21,.08-.35,.24-.13,.16-.2,.29-.2,.39s.05,.15,.15,.15c.07,0,.18-.07,.31-.22,.13-.15,.2-.27,.2-.37Zm-.18-.66s.1-.05,.17-.15c.06-.1,.09-.17,.09-.22,0-.2-.09-.29-.26-.29-.29,0-.44,.12-.44,.37,0,.2,.15,.29,.44,.29Zm.77-1.94c0-.1-.07-.15-.22-.15-.24,0-.37,.11-.37,.33,0,.12,.07,.18,.22,.18,.24,0,.37-.12,.37-.37Zm-.29,1.25c.17,0,.26-.1,.26-.29,0-.17-.09-.26-.26-.26-.2,0-.29,.1-.29,.29,0,.17,.1,.26,.29,.26Zm.07,.48s-.1,.04-.16,.11c-.06,.07-.09,.13-.09,.18,0,.17,.09,.26,.26,.26s.26-.11,.26-.33c0-.15-.09-.22-.26-.22Zm.48-2.35c-.2,0-.29,.07-.29,.22s.1,.22,.29,.22c.05,.02,.1,.02,.15-.02,.05-.04,.07-.09,.07-.16,0-.17-.07-.26-.22-.26Zm0,1.36c.17,0,.26-.09,.26-.26s-.09-.26-.26-.26-.26,.09-.26,.26,.09,.26,.26,.26Zm.33,.73c0-.2-.09-.29-.26-.29-.22,0-.33,.09-.33,.26,0,.2,.1,.29,.29,.29s.29-.09,.29-.26Zm.18-.84c-.2,0-.29,.1-.29,.29-.02,.07,0,.14,.09,.2,.09,.06,.15,.09,.2,.09,.2,0,.29-.09,.29-.26,0-.22-.1-.33-.29-.33Zm-.04-.37c.22,0,.33-.1,.33-.29,0-.15-.09-.22-.26-.22-.2,0-.29,.1-.29,.29,0,.15,.07,.22,.22,.22Zm.07-1.06c-.17,0-.26,.06-.26,.18s.09,.18,.26,.18c.15,0,.22-.06,.22-.18s-.07-.18-.22-.18Zm1.06,4.84c.15,0,.59-.06,1.34-.17,.75-.11,1.44-.16,2.07-.16,.34,0,.51-.05,.51-.15,0-.2-.23-.29-.7-.29-.27,0-.68,.05-1.25,.15-.56,.1-.9,.15-1.03,.15-.1,0-.15-.01-.15-.04,0-.12,.32-.25,.95-.39,.64-.13,1.09-.2,1.36-.2s.4-.06,.4-.18-.12-.18-.37-.18-.62,.06-1.12,.18c-.5,.12-.81,.18-.93,.18-.07,0-.11-.02-.11-.07,0-.17,.56-.34,1.69-.51,.27-.02,.4-.1,.4-.22,0-.07-.07-.11-.22-.11-.17,0-.48,.07-.93,.2-.45,.13-.71,.2-.79,.2-.15,0-.13-.06,.04-.18,.05-.05,.1-.09,.15-.11,.15-.05,.31-.1,.48-.17,.17-.06,.3-.1,.38-.13,.09-.02,.17-.05,.26-.07,.09-.02,.14-.06,.16-.09,.02-.04,.04-.07,.04-.09,0-.07-.06-.11-.18-.11-.15,0-.4,.07-.75,.2-.35,.13-.56,.2-.6,.2-.07,0-.11-.01-.11-.04,0-.07,.23-.21,.68-.42,.45-.21,.68-.34,.68-.38,0-.07-.05-.11-.15-.11-.07,0-.28,.09-.62,.27-.34,.18-.56,.28-.66,.28-.05,0-.07-.02-.07-.07,0-.1,.2-.25,.6-.46,.4-.21,.6-.35,.6-.42,0-.05-.05-.07-.15-.07-.17,0-.39,.07-.64,.2-.26,.13-.47,.26-.64,.39l-.29,.18c-.1,0-.15-.05-.15-.15,0-.02,.04-.1,.13-.24,.09-.13,.13-.23,.13-.28,0-.1-.07-.15-.22-.15s-.42,.22-.81,.66c-.39,.44-.59,.7-.59,.77,0,.02,.17,.14,.49,.35,.33,.21,.5,.51,.5,.9,0,.37-.11,.66-.33,.88,.2,.05,.37,.07,.51,.07Zm-.22-3.67c0-.15-.11-.22-.33-.22-.05,0-.11,.04-.18,.11-.07,.07-.11,.15-.11,.22,0,.15,.1,.22,.29,.22,.07,0,.15-.04,.22-.11,.07-.07,.11-.15,.11-.22Zm-.22-1.06c-.17,0-.26,.1-.26,.29,0,.12,.07,.18,.22,.18,.22,0,.33-.09,.33-.26,0-.15-.1-.22-.29-.22Zm.66,.66c0-.12-.06-.18-.18-.18-.15,0-.22,.06-.22,.18,0,.15,.06,.22,.18,.22,.15,0,.22-.07,.22-.22Zm1.17-.7c.68-.76,1.39-1.37,2.13-1.83,.73-.46,1.3-.7,1.69-.7,.15,0,.22,.05,.22,.15,0,.05-.02,.09-.07,.11-.12,.1-.38,.24-.77,.42-.39,.18-.65,.31-.77,.39-.49,.32-.93,.62-1.34,.92-.4,.29-.68,.5-.84,.6-.16,.11-.26,.16-.31,.16-.1,0-.07-.07,.07-.22Zm1.25,1.54c0,.1,.05,.15,.15,.15,.64,0,.95-.09,.95-.26,0-.1-.1-.15-.29-.15-.12,0-.29,.03-.5,.09-.21,.06-.31,.12-.31,.16Zm.04-1.58s.14-.14,.42-.35c.28-.21,.62-.42,1.03-.62,.4-.21,.71-.31,.94-.31s.33,.04,.33,.11-.82,.45-2.46,1.14c-.2,.1-.28,.11-.26,.04Zm1.39,1.91c-.56,0-.84,.1-.84,.29,0,.07,.07,.11,.22,.11,.07,0,.21,0,.4-.02,.2-.01,.32-.02,.37-.02,.15,0,.22-.05,.22-.15,0-.15-.12-.22-.37-.22Zm-.73-1.54s.08-.08,.24-.17c.16-.09,.36-.16,.6-.24,.24-.07,.45-.11,.62-.11,.22,0,.37,.07,.44,.22,.02,.05,.01,.08-.04,.09-.05,.01-.16,.02-.33,.02-.27,.02-.52,.05-.75,.09-.23,.04-.4,.07-.5,.09-.1,.02-.16,.04-.18,.04-.07,0-.11-.01-.11-.04Zm.37,2.49c0,.1,.32,.15,.95,.15,.22,0,.33-.04,.33-.11,0-.15-.2-.22-.59-.22-.46,0-.7,.06-.7,.18Zm1.83,.84c0-.22-.32-.33-.95-.33-.2,0-.33,.01-.4,.04-.07,.02-.1,.07-.07,.15,0,.07,.18,.14,.53,.2,.35,.06,.58,.09,.68,.09,.15,0,.22-.05,.22-.15Zm-.22,.59c-.2-.05-.4-.07-.62-.07s-.33,.04-.33,.11c0,.22,.38,.37,1.14,.44,.12,.02,.18-.01,.18-.11,0-.2-.12-.32-.37-.37Z"/>
  </g>
</svg>