<?xml version="1.0" encoding="UTF-8"?>
<svg id="_图层_1" data-name="图层 1" xmlns="http://www.w3.org/2000/svg" viewBox="0 0 19 26">
  <defs>
    <style>
      .cls-1 {
        fill: #93989c;
      }

      .cls-2 {
        fill: #f5f6f7;
      }

      .cls-3 {
        fill: #231815;
      }
    </style>
  </defs>
  <g>
    <rect class="cls-2" x=".12" y=".12" width="18.75" height="25.75" rx="1.88" ry="1.88"/>
    <path class="cls-1" d="M17,.25c.96,0,1.75,.79,1.75,1.75V24c0,.96-.79,1.75-1.75,1.75H2c-.96,0-1.75-.79-1.75-1.75V2C.25,1.04,1.04,.25,2,.25h15m0-.25H2C.9,0,0,.9,0,2V24c0,1.1,.9,2,2,2h15c1.1,0,2-.9,2-2V2c0-1.1-.9-2-2-2h0Z"/>
  </g>
  <path class="cls-3" d="M4.16,10.73c.05-.12,.14-.18,.28-.18,.09,0,.4,.12,.93,.36,1.16-.24,2.22-.5,3.17-.78-.02-.14-.04-.4-.04-.78-.07,0-.25,.04-.53,.11-.28,.07-.52,.11-.71,.11-.45,0-.75-.17-.89-.5,.09-.02,.39-.07,.87-.12,.49-.06,.88-.15,1.19-.27v-.11c0-.83-.21-1.55-.64-2.17-.43-.62-.64-1.26-.64-1.92,.66,.31,1.34,.55,2.03,.73,.69,.18,1.13,.32,1.32,.41,.19,.1,.28,.29,.28,.57,0,.14-.07,.25-.2,.32-.13,.07-.27,.14-.43,.2-.15,.06-.31,.23-.46,.52-.15,.28-.26,.68-.3,1.18,.36-.09,.63-.23,.82-.41,.19-.18,.33-.27,.43-.27,.21,0,.44,.08,.69,.23,.25,.15,.37,.29,.37,.41s-.1,.21-.3,.28c-.2,.07-.52,.15-.96,.23-.44,.08-.8,.17-1.09,.27,0,.09-.01,.24-.04,.43-.02,.19-.04,.32-.04,.39l3.03-.53c.21,0,.51,.21,.89,.62,.38,.42,.57,.77,.57,1.05,0,.24-.26,.39-.78,.46-.17,.45-.43,.9-.78,1.35-.36,.45-.53,.78-.53,1,0,.38-.11,.57-.32,.57-.14,0-.32-.08-.53-.25-.31,.02-.55,.07-.71,.14,.64,.81,1.43,1.44,2.37,1.89,.94,.45,1.8,.83,2.58,1.14,.78,.31,1.33,.7,1.64,1.18-.36-.05-.72-.15-1.09-.32-.37-.17-.62-.25-.77-.25-.1,0-.33,.11-.71,.34-.38,.23-.7,.34-.96,.34-.33,0-.67-.17-1-.52-.33-.34-.78-.95-1.34-1.82-.56-.87-.99-1.5-1.3-1.91-.05,.02-.14,.04-.28,.04,0,.26-.01,.59-.04,1-.02,.4-.04,.71-.04,.93,0,.67,.09,1.53,.27,2.58,.18,1.06,.27,1.64,.27,1.76,0,1.09-.23,1.64-.68,1.64-.26,0-.51-.33-.75-1-.24-.66-.36-1.26-.36-1.78,0-.24-.58-1.15-1.75-2.74-1.28,1.05-2.29,1.57-3.03,1.57-.4,0-.69-.04-.85-.11,1.59-.81,2.75-1.52,3.49-2.14l-.14-.46,.32,.25c.43-.36,.81-.87,1.14-1.53-.24-.02-.46-.17-.68-.43-.02-.02-.02-.07,.02-.12,.04-.06,.05-.1,.05-.12,0-.05-.17-.27-.52-.68-.34-.4-.71-.85-1.1-1.34-.39-.49-.64-.83-.73-1.02Zm4.38-.14c-.97,.19-1.86,.46-2.67,.82,.4,.4,.64,.67,.71,.78,.21-.12,.55-.21,1.01-.27,.46-.06,.79-.11,.98-.16,0-.12,0-.31-.02-.57-.01-.26-.02-.46-.02-.61Zm.07,3.92s-.14,0-.27-.02c-.13-.01-.23-.02-.3-.02-.28,.5-.8,1.2-1.53,2.1,.12,.12,.29,.32,.52,.61,.23,.28,.43,.5,.61,.66,.18,.15,.33,.23,.44,.23,.21,0,.39-1.19,.53-3.56Zm-.04-2.07c-.81,.05-1.34,.14-1.6,.29,.17,.38,.37,.69,.61,.93,.12,.02,.3,.04,.53,.05,.24,.01,.4,.02,.5,.02,0-.17,0-.39-.02-.68-.01-.28-.02-.49-.02-.61Zm3.42-1.92c0-.19-.28-.28-.85-.28s-1.19,.08-1.85,.25c-.02,.17-.04,.39-.05,.66-.01,.27-.02,.46-.02,.55,.33-.05,.6-.14,.8-.28,.2-.14,.43-.21,.69-.21,.09,0,.18,.02,.27,.07,.08,.05,.18,.12,.28,.21,.11,.09,.2,.17,.27,.21,.31-.55,.46-.94,.46-1.18Zm-.71,1.67c-.19-.09-.32-.14-.39-.14-.12,0-.38,.05-.78,.14-.4,.09-.69,.15-.85,.18-.02,.12-.04,.32-.04,.61s.01,.51,.04,.68c.36,0,.8-.06,1.32-.18,.07-.09,.19-.3,.36-.62,.17-.32,.28-.54,.36-.66Z"/>
</svg>