<?xml version="1.0" encoding="UTF-8"?>
<svg id="_图层_1" data-name="图层 1" xmlns="http://www.w3.org/2000/svg" viewBox="0 0 19 26">
  <defs>
    <style>
      .cls-1 {
        fill: #011833;
      }

      .cls-2 {
        fill: #93989c;
      }

      .cls-3 {
        fill: #f5f6f7;
      }
    </style>
  </defs>
  <g>
    <rect class="cls-3" x=".13" y=".12" width="18.75" height="25.75" rx="1.88" ry="1.88"/>
    <path class="cls-2" d="M17,.25c.96,0,1.75,.79,1.75,1.75V24c0,.96-.79,1.75-1.75,1.75H2c-.96,0-1.75-.79-1.75-1.75V2C.25,1.04,1.04,.25,2,.25h15M17,0H2C.9,0,0,.9,0,2V24C0,25.1,.9,26,2,26h15c1.1,0,2-.9,2-2V2C19,.9,18.1,0,17,0h0Z"/>
  </g>
  <g>
    <path class="cls-1" d="M9.5,4.03c-2.1,0-3.81,1.7-3.81,3.81s1.7,3.81,3.81,3.81,3.81-1.7,3.81-3.81-1.7-3.81-3.81-3.81Zm.35,1.1c.23-.46,.48-.51,.76-.46,.16,.02,.35,.09,.59,.23,.24,.14,.39,.27,.49,.4,.18,.22,.26,.46-.02,.89-.25,.38-1.07,.79-1.22,.78s-.26-.13-.17-.27l.43-.75c.06,0,.12-.04,.16-.1,.05-.09,.03-.21-.06-.26-.09-.05-.21-.02-.26,.08-.03,.06-.04,.13,0,.18l-.43,.75c-.08,.14-.24,.11-.32-.02-.09-.12-.14-1.04,.07-1.45Zm-2.54,.16c.1-.13,.25-.26,.5-.4,.24-.14,.43-.2,.59-.23,.28-.04,.53,0,.76,.46,.2,.41,.15,1.32,.07,1.45-.09,.12-.24,.16-.32,.02l-.43-.75c.03-.06,.03-.13,0-.18-.05-.09-.17-.13-.26-.08-.09,.05-.12,.17-.06,.26,.03,.06,.09,.1,.16,.1l.43,.75c.08,.14-.02,.26-.17,.27s-.97-.4-1.22-.78c-.28-.43-.2-.67-.02-.89Zm-1.11,3.17c-.06-.15-.1-.35-.1-.63s.04-.47,.1-.63c.1-.27,.27-.46,.78-.43,.46,.03,1.22,.53,1.29,.67,.06,.14,.01,.29-.15,.29h-.87c-.04-.05-.1-.09-.16-.09-.11,0-.2,.08-.2,.19,0,.1,.09,.19,.2,.19,.07,0,.13-.03,.16-.09h.87c.16,0,.21,.15,.15,.29-.06,.14-.83,.64-1.29,.67-.51,.03-.68-.16-.78-.43Zm2.96,2.08c-.23,.46-.48,.51-.76,.46-.16-.02-.35-.09-.59-.23-.24-.14-.39-.27-.49-.4-.18-.22-.26-.46,.02-.89,.25-.38,1.07-.79,1.22-.78,.15,.01,.26,.13,.17,.27l-.43,.75c-.06,0-.12,.04-.16,.1-.05,.09-.03,.21,.06,.26,.09,.05,.21,.02,.26-.08,.03-.06,.04-.13,0-.18l.43-.75c.08-.14,.24-.11,.32,.02,.09,.12,.14,1.04-.07,1.45Zm-.51-2.71c0-.47,.38-.86,.86-.86s.86,.38,.86,.86-.38,.86-.86,.86-.86-.38-.86-.86Zm3.05,2.55c-.1,.13-.25,.26-.5,.4-.24,.14-.43,.2-.59,.23-.28,.04-.53,0-.76-.46-.2-.41-.15-1.32-.07-1.45s.24-.16,.32-.02l.43,.75c-.03,.06-.03,.13,0,.18,.05,.09,.17,.13,.26,.08,.09-.05,.12-.17,.06-.26-.03-.06-.09-.1-.16-.1l-.43-.75c-.08-.14,.02-.26,.17-.27,.15-.01,.97,.4,1.22,.78,.28,.43,.2,.67,.02,.89Zm.32-1.49c-.46-.03-1.22-.53-1.29-.67-.06-.14-.01-.29,.15-.29h.87c.04,.05,.1,.09,.16,.09,.11,0,.2-.08,.2-.19,0-.1-.09-.19-.2-.19-.07,0-.13,.03-.16,.09h-.87c-.16,0-.21-.15-.15-.29s.83-.64,1.29-.67c.51-.03,.68,.16,.78,.43,.06,.15,.1,.35,.1,.63s-.04,.47-.1,.63c-.1,.27-.27,.46-.78,.43Z"/>
    <path class="cls-1" d="M9.5,7.43c-.23,0-.41,.18-.41,.41s.18,.41,.41,.41,.41-.18,.41-.41-.18-.41-.41-.41Z"/>
    <path class="cls-1" d="M9.5,3.28c-2.51,0-4.55,2.04-4.55,4.55s2.04,4.55,4.55,4.55,4.55-2.04,4.55-4.55-2.04-4.55-4.55-4.55Zm0,8.64c-2.26,0-4.09-1.83-4.09-4.09s1.83-4.09,4.09-4.09,4.09,1.83,4.09,4.09-1.83,4.09-4.09,4.09Z"/>
  </g>
  <g>
    <path class="cls-1" d="M9.5,17.76c-.23,0-.41,.18-.41,.41s.18,.41,.41,.41,.41-.18,.41-.41-.18-.41-.41-.41Z"/>
    <path class="cls-1" d="M9.5,14.36c-2.1,0-3.81,1.7-3.81,3.81s1.7,3.81,3.81,3.81,3.81-1.7,3.81-3.81-1.7-3.81-3.81-3.81Zm.35,1.1c.23-.46,.48-.51,.76-.46,.16,.02,.35,.09,.59,.23,.24,.14,.39,.27,.49,.4,.18,.22,.26,.46-.02,.89-.25,.38-1.07,.79-1.22,.78s-.26-.13-.17-.27l.43-.75c.06,0,.12-.04,.16-.1,.05-.09,.03-.21-.06-.26-.09-.05-.21-.02-.26,.08-.03,.06-.04,.13,0,.18l-.43,.75c-.08,.14-.24,.11-.32-.02-.09-.12-.14-1.04,.07-1.45Zm-2.54,.16c.1-.13,.25-.26,.5-.4,.24-.14,.43-.2,.59-.23,.28-.04,.53,0,.76,.46,.2,.41,.15,1.32,.07,1.45-.09,.12-.24,.16-.32,.02l-.43-.75c.03-.06,.03-.13,0-.18-.05-.09-.17-.13-.26-.08-.09,.05-.12,.17-.06,.26,.03,.06,.09,.1,.16,.1l.43,.75c.08,.14-.02,.26-.17,.27-.15,.01-.97-.4-1.22-.78-.28-.43-.2-.67-.02-.89Zm-1.11,3.17c-.06-.15-.1-.35-.1-.63s.04-.47,.1-.63c.1-.27,.27-.46,.78-.43,.46,.03,1.22,.53,1.29,.67,.06,.14,.01,.29-.15,.29h-.87c-.04-.05-.1-.09-.16-.09-.11,0-.2,.08-.2,.19,0,.1,.09,.19,.2,.19,.07,0,.13-.03,.16-.09h.87c.16,0,.21,.15,.15,.29-.06,.14-.83,.64-1.29,.67-.51,.03-.68-.16-.78-.43Zm2.96,2.08c-.23,.46-.48,.51-.76,.46-.16-.02-.35-.09-.59-.23-.24-.14-.39-.27-.49-.4-.18-.22-.26-.46,.02-.89,.25-.38,1.07-.79,1.22-.78,.15,.01,.26,.13,.17,.27l-.43,.75c-.06,0-.12,.04-.16,.1-.05,.09-.03,.21,.06,.26,.09,.05,.21,.02,.26-.08,.03-.06,.04-.13,0-.18l.43-.75c.08-.14,.24-.11,.32,.02,.09,.12,.14,1.04-.07,1.45Zm-.51-2.71c0-.47,.38-.86,.86-.86s.86,.38,.86,.86-.38,.86-.86,.86-.86-.38-.86-.86Zm3.05,2.55c-.1,.13-.25,.26-.5,.4-.24,.14-.43,.2-.59,.23-.28,.04-.53,0-.76-.46-.2-.41-.15-1.32-.07-1.45s.24-.16,.32-.02l.43,.75c-.03,.06-.03,.13,0,.18,.05,.09,.17,.13,.26,.08,.09-.05,.12-.17,.06-.26-.03-.06-.09-.1-.16-.1l-.43-.75c-.08-.14,.02-.26,.17-.27,.15-.01,.97,.4,1.22,.78,.28,.43,.2,.67,.02,.89Zm.32-1.49c-.46-.03-1.22-.53-1.29-.67-.06-.14-.01-.29,.15-.29h.87c.04,.05,.1,.09,.16,.09,.11,0,.2-.08,.2-.19,0-.1-.09-.19-.2-.19-.07,0-.13,.03-.16,.09h-.87c-.16,0-.21-.15-.15-.29,.06-.14,.83-.64,1.29-.67,.51-.03,.68,.16,.78,.43,.06,.15,.1,.35,.1,.63s-.04,.47-.1,.63c-.1,.27-.27,.46-.78,.43Z"/>
    <path class="cls-1" d="M9.5,13.62c-2.51,0-4.55,2.04-4.55,4.55s2.04,4.55,4.55,4.55,4.55-2.04,4.55-4.55-2.04-4.55-4.55-4.55Zm0,8.64c-2.26,0-4.09-1.83-4.09-4.09s1.83-4.09,4.09-4.09,4.09,1.83,4.09,4.09-1.83,4.09-4.09,4.09Z"/>
  </g>
</svg>