<?xml version="1.0" encoding="UTF-8"?>
<svg id="_图层_1" data-name="图层 1" xmlns="http://www.w3.org/2000/svg" viewBox="0 0 19 26">
  <defs>
    <style>
      .cls-1 {
        fill: #005529;
      }

      .cls-2 {
        fill: #93989c;
      }

      .cls-3 {
        fill: #f5f6f7;
      }
    </style>
  </defs>
  <g>
    <rect class="cls-3" x=".12" y=".13" width="18.75" height="25.75" rx="1.88" ry="1.88"/>
    <path class="cls-2" d="M17,.25c.96,0,1.75,.79,1.75,1.75V24c0,.96-.79,1.75-1.75,1.75H2c-.96,0-1.75-.79-1.75-1.75V2C.25,1.04,1.04,.25,2,.25h15M17,0H2C.9,0,0,.9,0,2V24C0,25.1,.9,26,2,26h15c1.1,0,2-.9,2-2V2C19,.9,18.1,0,17,0h0Z"/>
  </g>
  <path class="cls-1" d="M10.75,10.23v-1.36s-.02-.23,.07-.34c.13-.17,.68-.4,.68-.98s-.55-.81-.68-.98c-.09-.12-.07-.34-.07-.34v-1.17s-.03-.38,.09-.52c.18-.2,.61-.38,.59-.82-.01-.36-.32-.61-.79-.68-.27-.04-.41-.4-1.14-.4s-.87,.36-1.14,.4c-.47,.07-.77,.32-.79,.68-.02,.43,.41,.61,.59,.82,.12,.14,.09,.52,.09,.52v1.17s.02,.23-.07,.34c-.13,.17-.68,.4-.68,.98s.55,.81,.68,.98c.09,.12,.07,.34,.07,.34v1.36s.03,.38-.09,.52c-.26,.28-.73,.52-.58,.9,.15,.4,.42,.65,.9,.58,.42-.07,.54-.3,1.03-.3s.61,.23,1.03,.3c.47,.07,.74-.18,.9-.58,.14-.38-.33-.62-.58-.9-.12-.13-.09-.52-.09-.52Zm-1.82-6.53c.04-.35,.25-.5,.57-.5s.52,.16,.57,.5c.04,.34-.1,.47-.15,.56s-.05,.27-.05,.27v1.92c0,.15-.1,.26-.22,.26h-.31c-.12,0-.22-.12-.22-.26v-1.92s0-.17-.05-.27c-.05-.09-.19-.22-.15-.56Zm.94,7.53c0,.12-.11,.22-.25,.22h-.24c-.14,0-.25-.1-.25-.22v-2.64c0-.12,.11-.22,.25-.22h.24c.14,0,.25,.1,.25,.22v2.64Zm.41-3.35c0,.13-.13,.24-.28,.24h-1c-.15,0-.28-.11-.28-.24v-.02c0-.13,.13-.24,.28-.24h1c.16,0,.28,.11,.28,.24v.02Zm0-.67c0,.13-.13,.24-.28,.24h-1c-.15,0-.28-.11-.28-.24v-.02c0-.13,.13-.24,.28-.24h1c.16,0,.28,.11,.28,.24v.02Z"/>
  <path class="cls-1" d="M10.75,21.36v-1.36s-.02-.23,.07-.34c.13-.17,.68-.4,.68-.98s-.55-.81-.68-.98c-.09-.12-.07-.34-.07-.34v-1.17s-.03-.38,.09-.52c.18-.2,.61-.38,.59-.82-.01-.36-.32-.61-.79-.68-.27-.04-.41-.4-1.14-.4s-.87,.36-1.14,.4c-.47,.07-.77,.32-.79,.68-.02,.43,.41,.61,.59,.82,.12,.14,.09,.52,.09,.52v1.17s.02,.23-.07,.34c-.13,.17-.68,.4-.68,.98s.55,.81,.68,.98c.09,.12,.07,.34,.07,.34v1.36s.03,.38-.09,.52c-.26,.28-.73,.52-.58,.9,.15,.4,.42,.65,.9,.58,.42-.07,.54-.3,1.03-.3s.61,.23,1.03,.3c.47,.07,.74-.18,.9-.58,.14-.38-.33-.62-.58-.9-.12-.13-.09-.52-.09-.52Zm-1.82-6.53c.04-.35,.25-.5,.57-.5s.52,.16,.57,.5c.04,.34-.1,.47-.15,.56s-.05,.27-.05,.27v1.92c0,.15-.1,.26-.22,.26h-.31c-.12,0-.22-.12-.22-.26v-1.92s0-.17-.05-.27c-.05-.09-.19-.22-.15-.56Zm.94,7.53c0,.12-.11,.22-.25,.22h-.24c-.14,0-.25-.1-.25-.22v-2.64c0-.12,.11-.22,.25-.22h.24c.14,0,.25,.1,.25,.22v2.64Zm.41-3.35c0,.13-.13,.24-.28,.24h-1c-.15,0-.28-.11-.28-.24v-.02c0-.13,.13-.24,.28-.24h1c.16,0,.28,.11,.28,.24v.02Zm0-.67c0,.13-.13,.24-.28,.24h-1c-.15,0-.28-.11-.28-.24v-.02c0-.13,.13-.24,.28-.24h1c.16,0,.28,.11,.28,.24v.02Z"/>
</svg>