<?xml version="1.0" encoding="UTF-8"?>
<svg id="_图层_1" data-name="图层 1" xmlns="http://www.w3.org/2000/svg" viewBox="0 0 19 26">
  <defs>
    <style>
      .cls-1 {
        fill: #93989c;
      }

      .cls-2 {
        fill: #f5f6f7;
      }

      .cls-3 {
        fill: #231815;
      }
    </style>
  </defs>
  <g>
    <rect class="cls-2" x=".12" y=".12" width="18.75" height="25.75" rx="1.88" ry="1.88"/>
    <path class="cls-1" d="M17,.25c.96,0,1.75,.79,1.75,1.75V24c0,.96-.79,1.75-1.75,1.75H2c-.96,0-1.75-.79-1.75-1.75V2C.25,1.04,1.04,.25,2,.25h15m0-.25H2C.9,0,0,.9,0,2V24c0,1.1,.9,2,2,2h15c1.1,0,2-.9,2-2V2c0-1.1-.9-2-2-2h0Z"/>
  </g>
  <path class="cls-3" d="M8.79,17.61c-.14,.05-.3,.1-.46,.14-.17,.05-.3,.09-.41,.12-.11,.04-.2,.05-.27,.05-.17,0-.31-.12-.43-.36,.12-.07,.34-.15,.68-.25,.33-.09,.63-.19,.89-.29-.02-.12-.05-.28-.07-.5-.02-.21-.05-.38-.07-.5-.21,.05-.4,.11-.57,.18-.17,.07-.29,.13-.37,.18-.08,.05-.15,.07-.2,.07-.19,0-.37-.11-.53-.32,.17-.14,.59-.33,1.28-.57-.05-.48-.3-.96-.75-1.46-.33,.1-.72,.27-1.17,.52-.45,.25-.68,.45-.68,.59,0,.36,.25,1.03,.75,2.03,.5,1,.75,1.69,.75,2.07,0,.17-.07,.32-.21,.45-.14,.13-.28,.2-.43,.2s-.28-.07-.43-.2c-.14-.13-.29-.33-.45-.61-.15-.27-.29-.53-.41-.77-.12-.24-.27-.55-.45-.94-.18-.39-.31-.69-.41-.91-.48-.9-.85-1.79-1.14-2.67l.21-.11c.17,0,.34,.04,.53,.12,.19,.08,.41,.2,.66,.36,.25,.15,.46,.27,.62,.34,1.14-.43,1.78-.68,1.92-.75-.38-.38-.79-.68-1.23-.89-.44-.21-.77-.36-1-.43-.23-.07-.34-.15-.34-.25s.03-.17,.09-.23c.06-.06,.11-.08,.16-.05,1.73,.74,2.69,1.27,2.88,1.6,.19-.09,.39-.18,.61-.25,.17-.85,.28-1.67,.36-2.46-.57,.14-1.14,.21-1.71,.21-.14,0-.27-.07-.39-.21,.07-.07,.38-.18,.93-.34,.55-.15,1-.34,1.35-.55,.12-1.23,.18-2.04,.18-2.42,0-.74-.13-1.1-.39-1.1h-.11c.33-.71,.78-1.33,1.35-1.85,.24,.1,.58,.47,1.01,1.12,.44,.65,.66,1.19,.66,1.62,0,.02,0,.07-.02,.14-.01,.07-.02,.12-.02,.14-.07,.02-.17,.04-.28,.04-.31,0-.59-.11-.85-.32-.05,.17-.12,.5-.23,1-.11,.5-.2,.87-.27,1.1,.19-.09,.46-.3,.82-.62,.36-.32,.59-.48,.71-.48,.14,0,.3,.15,.48,.46,.18,.31,.28,.56,.3,.75-.62,.33-1.51,.66-2.67,1-.21,.55-.43,1.16-.64,1.85,.4-.07,1.03-.43,1.89-1.07,.85-.64,1.44-1.04,1.74-1.21,.47,.43,.71,.72,.71,.89,0,.14-.03,.26-.09,.34-.06,.08-.15,.18-.27,.28-.12,.11-.21,.21-.29,.3,.43,0,.73,.02,.91,.05,.18,.04,.37,.14,.59,.32,.21,.18,.45,.48,.71,.91,.12,.19,.27,.4,.45,.62,.18,.23,.3,.41,.37,.55,.07,.14,.11,.31,.11,.5,0,.4-.45,1.4-1.35,2.99-.21,.36-.44,.76-.68,1.21-.24,.45-.42,.79-.53,1.02-.12,.23-.26,.45-.41,.68-.15,.23-.3,.38-.43,.46-.13,.08-.28,.12-.45,.12-.21,0-.42-.04-.61-.12-.19-.08-.38-.2-.57-.36-.19-.15-.53-.4-1.03-.75-.5-.34-1.06-.71-1.67-1.09,.24,0,.46,.04,.68,.11,.05-.28,.07-.81,.07-1.57Zm1.92-4.38c-1.14,.14-2.05,.37-2.74,.68,.33,.52,.57,1.03,.71,1.53,.47-.09,.88-.23,1.21-.39,.36-.66,.63-1.27,.82-1.82Zm-1.85-.64c-.05,.1-.11,.32-.18,.68,1.14-.31,1.93-.62,2.39-.93,.05-.14,.07-.25,.07-.32,0-.14-.1-.21-.28-.21-.07,0-.2,.05-.39,.14-.19,.09-.44,.21-.75,.34-.31,.13-.59,.23-.85,.3Zm2.96,2.85c-.74,0-1.39,.08-1.96,.25-.02,.07-.06,.42-.11,1.03,.33-.07,.62-.15,.87-.25,.25-.09,.43-.16,.53-.2,.11-.04,.18-.05,.23-.05,.31,0,.46,.19,.46,.57,0,.17-.07,.25-.21,.25-.59,0-1.22,.08-1.89,.25-.05,1.04-.13,1.76-.25,2.14,.83,.36,1.29,.53,1.39,.53,.07,0,.18-.08,.34-.25,.15-.17,.36-.45,.61-.86,.25-.4,.49-.87,.73-1.39,.09-.21,.22-.47,.37-.77,.15-.3,.26-.5,.3-.62,.05-.12,.11-.27,.18-.45,.07-.18,.12-.33,.14-.45,.02-.12,.04-.25,.04-.39,0-.21-.42-.77-1.25-1.67-.24-.05-.46-.05-.68,0-.07,.09-.18,.24-.32,.45-.14,.2-.28,.41-.41,.62-.13,.21-.24,.43-.34,.64,.5-.09,.84-.14,1.03-.14,.14,0,.27,.05,.39,.16,.12,.11,.18,.23,.18,.37s-.13,.21-.39,.21Z"/>
</svg>