<?xml version="1.0" encoding="UTF-8"?>
<svg id="_图层_1" data-name="图层 1" xmlns="http://www.w3.org/2000/svg" viewBox="0 0 19 26">
  <defs>
    <style>
      .cls-1 {
        fill: #93989c;
      }

      .cls-2 {
        fill: #f5f6f7;
      }

      .cls-3 {
        fill: #231815;
      }
    </style>
  </defs>
  <g>
    <rect class="cls-2" x=".12" y=".12" width="18.75" height="25.75" rx="1.88" ry="1.88"/>
    <path class="cls-1" d="M17,.25c.96,0,1.75,.79,1.75,1.75V24c0,.96-.79,1.75-1.75,1.75H2c-.96,0-1.75-.79-1.75-1.75V2C.25,1.04,1.04,.25,2,.25h15m0-.25H2C.9,0,0,.9,0,2V24c0,1.1,.9,2,2,2h15c1.1,0,2-.9,2-2V2c0-1.1-.9-2-2-2h0Z"/>
  </g>
  <path class="cls-3" d="M6.9,19.5c-.9,0-1.35-.24-1.35-.71,0-.12,.18-.28,.53-.5-.4-1.09-.8-2.14-1.19-3.15-.39-1.01-.67-1.72-.84-2.14-.17-.42-.26-.69-.28-.84,.02-.02,.05-.05,.09-.09,.04-.04,.06-.06,.07-.07,.01-.01,.04,0,.09,.02,.71,.48,1.16,.89,1.35,1.25,.81-.26,1.45-.52,1.92-.78-.14-1.28-.21-1.95-.21-1.99,0-.38,.07-.57,.21-.57,.19,0,.33,.25,.43,.75,.09,.5,.14,.94,.14,1.32,.78-.81,1.34-1.45,1.67-1.92,.07-.31,.12-.5,.14-.57l.53-.18c.4-.31,.65-.59,.75-.85-.12-.14-.52-.21-1.21-.21-.78,0-1.63,.07-2.55,.21-.91,.14-1.68,.29-2.3,.43-.62,.14-.95,.21-1,.21-.5,0-.76-.14-.78-.43,.47-.09,1.58-.34,3.31-.73,1.73-.39,3.2-.72,4.4-.98,1.2-.26,1.92-.39,2.15-.39,.19,0,.34,.03,.46,.09,.12,.06,.27,.15,.45,.28,.18,.13,.33,.23,.45,.3,1.02,.57,1.53,1.09,1.53,1.57,0,.31-.17,.46-.5,.46-.36,0-.94-.05-1.75-.16-.81-.11-1.38-.16-1.71-.16-.1,0-.28,.02-.57,.07-.19,.12-.3,.25-.32,.39,.43,.24,.64,.48,.64,.71,0,.17-.05,.28-.16,.34-.11,.06-.27,.11-.5,.14-.23,.04-.4,.08-.52,.12-.12,.24-.2,.53-.25,.89,.38-.07,.7-.18,.96-.32,.26-.14,.5-.21,.71-.21,.38,0,.98,.33,1.82,.98,.83,.65,1.25,1.19,1.25,1.62,0,.19-.08,.38-.25,.57-.17,.19-.39,.4-.66,.62-.27,.23-.64,.69-1.1,1.39-.46,.7-.92,1.56-1.37,2.58-.17,.43-.61,.64-1.32,.64-.19,0-.46-.02-.82-.07-.36-.05-.64-.07-.85-.07-.24,0-.53,.02-.89,.07-.36,.05-.63,.07-.82,.07Zm-1.32-5.73c.71,1.64,1.22,3.11,1.53,4.42h.61c-.02-.24-.08-.68-.18-1.32-.1-.64-.14-1.2-.14-1.67,0-.07,0-.22-.02-.45-.01-.23-.03-.51-.05-.85-.02-.34-.04-.62-.04-.84-.43,.12-1,.36-1.71,.71Zm2.39-.96c.02,.21,.07,.93,.14,2.15,.07,1.22,.13,2.31,.18,3.26,.05,0,.14,0,.28,.02,.14,.01,.24,.02,.28,.02,.05-.74,.1-1.47,.16-2.21,.06-.74,.12-1.45,.18-2.14,.06-.69,.1-1.18,.12-1.46-.12,.02-.34,.08-.66,.16-.32,.08-.55,.15-.69,.2Zm1.5-1.71c-.14-.05-.33-.01-.57,.11-.14,.24-.24,.51-.28,.82,.14-.02,.3-.06,.46-.11,.17-.05,.28-.08,.36-.11,0-.05,0-.14,.02-.29,.01-.14,.02-.25,.02-.32v-.11Zm.64,1.17c-.38,3.06-.61,5.08-.68,6.05,.21,.02,.4,.01,.57-.04,.33-.45,.82-1.31,1.46-2.58,.64-1.27,.96-2.04,.96-2.3,0-.31-.17-.59-.52-.85-.34-.26-.64-.39-.87-.39-.26,0-.57,.04-.93,.11Z"/>
</svg>