<?xml version="1.0" encoding="UTF-8"?>
<svg id="_图层_1" data-name="图层 1" xmlns="http://www.w3.org/2000/svg" viewBox="0 0 19 26">
  <defs>
    <style>
      .cls-1 {
        fill: #011833;
      }

      .cls-2 {
        fill: #93989c;
      }

      .cls-3 {
        fill: #f5f6f7;
      }
    </style>
  </defs>
  <g>
    <rect class="cls-3" x=".13" y=".12" width="18.75" height="25.75" rx="1.88" ry="1.88"/>
    <path class="cls-2" d="M17,.25c.96,0,1.75,.79,1.75,1.75V24c0,.96-.79,1.75-1.75,1.75H2c-.96,0-1.75-.79-1.75-1.75V2C.25,1.04,1.04,.25,2,.25h15M17,0H2C.9,0,0,.9,0,2V24C0,25.1,.9,26,2,26h15c1.1,0,2-.9,2-2V2C19,.9,18.1,0,17,0h0Z"/>
  </g>
  <g>
    <g>
      <path class="cls-1" d="M5.14,3.28c-1.88,0-3.41,1.53-3.41,3.41s1.53,3.41,3.41,3.41,3.41-1.53,3.41-3.41-1.53-3.41-3.41-3.41Zm0,6.22c-1.55,0-2.81-1.26-2.81-2.81s1.26-2.81,2.81-2.81,2.81,1.26,2.81,2.81-1.26,2.81-2.81,2.81Z"/>
      <g>
        <path class="cls-1" d="M5.14,6.49c-.11,0-.2,.09-.2,.2s.09,.2,.2,.2,.2-.09,.2-.2-.09-.2-.2-.2Z"/>
        <path class="cls-1" d="M5.14,4.49c-1.22,0-2.21,.99-2.21,2.21s.99,2.21,2.21,2.21,2.21-.99,2.21-2.21-.99-2.21-2.21-2.21Zm-.73,.61c.2-.12,.47-.18,.73-.18h0c.26,0,.53,.06,.73,.18,.08,.05,.1,.18,.07,.27-.03,.09-.18,.32-.24,.35s-.16,.04-.21,.03-.22-.07-.35-.07h0c-.12,0-.29,.06-.35,.07-.05,0-.15,0-.21-.03s-.21-.26-.24-.35c-.03-.09-.01-.23,.07-.27Zm-1.01,1.79c-.05-.23-.03-.5,.05-.75h0c.08-.25,.22-.48,.4-.64,.07-.07,.2-.04,.28,.02,.08,.06,.25,.27,.26,.34s-.01,.17-.03,.21c-.02,.05-.14,.19-.17,.31h0c-.04,.12-.03,.3-.04,.35,0,.05-.05,.14-.1,.19-.05,.05-.31,.12-.41,.12-.1,0-.22-.06-.24-.15Zm1.61,1.33c-.03,.09-.12,.19-.22,.18-.23-.03-.48-.13-.7-.28h0c-.21-.15-.39-.36-.48-.57-.04-.09,.03-.2,.1-.26,.08-.06,.33-.16,.4-.14,.07,.01,.15,.06,.19,.1,.04,.04,.14,.19,.24,.26h0c.1,.07,.28,.12,.32,.15s.12,.09,.15,.15c.03,.06,.02,.34-.01,.43Zm-.47-1.54c0-.33,.27-.6,.6-.6s.6,.27,.6,.6-.27,.6-.6,.6-.6-.27-.6-.6Zm1.64,1.43h0c-.21,.15-.46,.26-.7,.28-.1,.01-.18-.09-.22-.18-.03-.09-.04-.36-.01-.43,.03-.06,.11-.13,.15-.15,.04-.02,.22-.07,.32-.15h0c.1-.07,.2-.23,.24-.26,.04-.04,.12-.09,.19-.1,.07-.01,.32,.08,.4,.14s.15,.18,.1,.26c-.1,.21-.27,.42-.48,.57Zm.46-1.08c-.1,0-.36-.07-.41-.12-.05-.05-.09-.14-.1-.19,0-.05,0-.23-.04-.35h0c-.04-.12-.15-.26-.17-.31-.02-.05-.04-.14-.03-.21,.01-.07,.18-.28,.26-.34,.08-.06,.21-.08,.28-.02,.17,.16,.32,.39,.4,.64h0c.08,.25,.1,.52,.05,.75-.02,.09-.14,.15-.24,.15Z"/>
      </g>
    </g>
    <g>
      <path class="cls-1" d="M13.86,3.28c-1.88,0-3.41,1.53-3.41,3.41s1.53,3.41,3.41,3.41,3.41-1.53,3.41-3.41-1.53-3.41-3.41-3.41Zm0,6.22c-1.55,0-2.81-1.26-2.81-2.81s1.26-2.81,2.81-2.81,2.81,1.26,2.81,2.81-1.26,2.81-2.81,2.81Z"/>
      <g>
        <circle class="cls-1" cx="13.86" cy="6.69" r=".2"/>
        <path class="cls-1" d="M13.86,4.49c-1.22,0-2.21,.99-2.21,2.21s.99,2.21,2.21,2.21,2.21-.99,2.21-2.21-.99-2.21-2.21-2.21Zm-.73,.61c.2-.12,.47-.18,.73-.18h0c.26,0,.53,.06,.73,.18,.08,.05,.1,.18,.07,.27-.03,.09-.18,.32-.24,.35s-.16,.04-.21,.03c-.05,0-.22-.07-.35-.07h0c-.12,0-.29,.06-.35,.07-.05,0-.15,0-.21-.03-.06-.03-.21-.26-.24-.35-.03-.09-.01-.23,.07-.27Zm-1.01,1.79c-.05-.23-.03-.5,.05-.75h0c.08-.25,.22-.48,.4-.64,.07-.07,.2-.04,.28,.02,.08,.06,.25,.27,.26,.34s-.01,.17-.03,.21c-.02,.05-.14,.19-.17,.31h0c-.04,.12-.03,.3-.04,.35,0,.05-.05,.14-.1,.19-.05,.05-.31,.12-.41,.12-.1,0-.22-.06-.24-.15Zm1.61,1.33c-.03,.09-.12,.19-.22,.18-.23-.03-.48-.13-.7-.28h0c-.21-.15-.39-.36-.48-.57-.04-.09,.03-.2,.1-.26,.08-.06,.33-.16,.4-.14,.07,.01,.15,.06,.19,.1,.04,.04,.14,.19,.24,.26h0c.1,.07,.28,.12,.32,.15s.12,.09,.15,.15c.03,.06,.02,.34-.01,.43Zm-.47-1.54c0-.33,.27-.6,.6-.6s.6,.27,.6,.6-.27,.6-.6,.6-.6-.27-.6-.6Zm1.64,1.43h0c-.21,.15-.46,.26-.7,.28-.1,.01-.18-.09-.22-.18-.03-.09-.04-.36-.01-.43,.03-.06,.11-.13,.15-.15,.04-.02,.22-.07,.32-.15h0c.1-.07,.2-.23,.24-.26,.04-.04,.12-.09,.19-.1,.07-.01,.32,.08,.4,.14,.08,.06,.15,.18,.1,.26-.1,.21-.27,.42-.48,.57Zm.46-1.08c-.1,0-.36-.07-.41-.12-.05-.05-.09-.14-.1-.19,0-.05,0-.23-.04-.35h0c-.04-.12-.15-.26-.17-.31-.02-.05-.04-.14-.03-.21,.01-.07,.18-.28,.26-.34,.08-.06,.21-.08,.28-.02,.17,.16,.32,.39,.4,.64h0c.08,.25,.1,.52,.05,.75-.02,.09-.14,.15-.24,.15Z"/>
      </g>
    </g>
    <g>
      <path class="cls-1" d="M5.14,15.9c-1.88,0-3.41,1.53-3.41,3.41s1.53,3.41,3.41,3.41,3.41-1.53,3.41-3.41-1.53-3.41-3.41-3.41Zm0,6.22c-1.55,0-2.81-1.26-2.81-2.81s1.26-2.81,2.81-2.81,2.81,1.26,2.81,2.81-1.26,2.81-2.81,2.81Z"/>
      <g>
        <path class="cls-1" d="M5.14,19.11c-.11,0-.2,.09-.2,.2s.09,.2,.2,.2,.2-.09,.2-.2-.09-.2-.2-.2Z"/>
        <path class="cls-1" d="M5.14,17.1c-1.22,0-2.21,.99-2.21,2.21s.99,2.21,2.21,2.21,2.21-.99,2.21-2.21-.99-2.21-2.21-2.21Zm-.73,.61c.2-.12,.47-.18,.73-.18h0c.26,0,.53,.06,.73,.18,.08,.05,.1,.18,.07,.27-.03,.09-.18,.32-.24,.35s-.16,.04-.21,.03c-.05,0-.22-.07-.35-.07h0c-.12,0-.29,.06-.35,.07-.05,0-.15,0-.21-.03s-.21-.26-.24-.35c-.03-.09-.01-.23,.07-.27Zm-1.01,1.79c-.05-.23-.03-.5,.05-.75h0c.08-.25,.22-.48,.4-.64,.07-.07,.2-.04,.28,.02,.08,.06,.25,.27,.26,.34s-.01,.17-.03,.21c-.02,.05-.14,.19-.17,.31h0c-.04,.12-.03,.3-.04,.35,0,.05-.05,.14-.1,.19-.05,.05-.31,.12-.41,.12-.1,0-.22-.06-.24-.15Zm1.61,1.34c-.03,.09-.12,.19-.22,.18-.23-.03-.48-.13-.7-.28h0c-.21-.15-.39-.36-.48-.57-.04-.09,.03-.2,.1-.26,.08-.06,.33-.16,.4-.14,.07,.01,.15,.06,.19,.1,.04,.04,.14,.19,.24,.26h0c.1,.07,.28,.12,.32,.15s.12,.09,.15,.15c.03,.06,.02,.34-.01,.43Zm-.47-1.54c0-.33,.27-.6,.6-.6s.6,.27,.6,.6-.27,.6-.6,.6-.6-.27-.6-.6Zm1.64,1.43h0c-.21,.15-.46,.26-.7,.28-.1,.01-.18-.09-.22-.18-.03-.09-.04-.36-.01-.43,.03-.06,.11-.13,.15-.15,.04-.02,.22-.07,.32-.15h0c.1-.07,.2-.23,.24-.26,.04-.04,.12-.09,.19-.1,.07-.01,.32,.08,.4,.14,.08,.06,.15,.18,.1,.26-.1,.21-.27,.42-.48,.57Zm.46-1.08c-.1,0-.36-.07-.41-.12-.05-.05-.09-.14-.1-.19,0-.05,0-.23-.04-.35h0c-.04-.12-.15-.26-.17-.31-.02-.05-.04-.14-.03-.21,.01-.07,.18-.28,.26-.34,.08-.06,.21-.08,.28-.02,.17,.16,.32,.39,.4,.64h0c.08,.25,.1,.52,.05,.75-.02,.09-.14,.15-.24,.15Z"/>
      </g>
    </g>
    <g>
      <path class="cls-1" d="M13.86,15.9c-1.88,0-3.41,1.53-3.41,3.41s1.53,3.41,3.41,3.41,3.41-1.53,3.41-3.41-1.53-3.41-3.41-3.41Zm0,6.22c-1.55,0-2.81-1.26-2.81-2.81s1.26-2.81,2.81-2.81,2.81,1.26,2.81,2.81-1.26,2.81-2.81,2.81Z"/>
      <g>
        <circle class="cls-1" cx="13.86" cy="19.31" r=".2"/>
        <path class="cls-1" d="M13.86,17.1c-1.22,0-2.21,.99-2.21,2.21s.99,2.21,2.21,2.21,2.21-.99,2.21-2.21-.99-2.21-2.21-2.21Zm-.73,.61c.2-.12,.47-.18,.73-.18h0c.26,0,.53,.06,.73,.18,.08,.05,.1,.18,.07,.27-.03,.09-.18,.32-.24,.35s-.16,.04-.21,.03c-.05,0-.22-.07-.35-.07h0c-.12,0-.29,.06-.35,.07-.05,0-.15,0-.21-.03-.06-.03-.21-.26-.24-.35-.03-.09-.01-.23,.07-.27Zm-1.01,1.79c-.05-.23-.03-.5,.05-.75h0c.08-.25,.22-.48,.4-.64,.07-.07,.2-.04,.28,.02,.08,.06,.25,.27,.26,.34s-.01,.17-.03,.21c-.02,.05-.14,.19-.17,.31h0c-.04,.12-.03,.3-.04,.35,0,.05-.05,.14-.1,.19-.05,.05-.31,.12-.41,.12-.1,0-.22-.06-.24-.15Zm1.61,1.34c-.03,.09-.12,.19-.22,.18-.23-.03-.48-.13-.7-.28h0c-.21-.15-.39-.36-.48-.57-.04-.09,.03-.2,.1-.26,.08-.06,.33-.16,.4-.14,.07,.01,.15,.06,.19,.1,.04,.04,.14,.19,.24,.26h0c.1,.07,.28,.12,.32,.15s.12,.09,.15,.15c.03,.06,.02,.34-.01,.43Zm-.47-1.54c0-.33,.27-.6,.6-.6s.6,.27,.6,.6-.27,.6-.6,.6-.6-.27-.6-.6Zm1.64,1.43h0c-.21,.15-.46,.26-.7,.28-.1,.01-.18-.09-.22-.18-.03-.09-.04-.36-.01-.43s.11-.13,.15-.15c.04-.02,.22-.07,.32-.15h0c.1-.07,.2-.23,.24-.26,.04-.04,.12-.09,.19-.1,.07-.01,.32,.08,.4,.14,.08,.06,.15,.18,.1,.26-.1,.21-.27,.42-.48,.57Zm.46-1.08c-.1,0-.36-.07-.41-.12-.05-.05-.09-.14-.1-.19,0-.05,0-.23-.04-.35h0c-.04-.12-.15-.26-.17-.31-.02-.05-.04-.14-.03-.21,.01-.07,.18-.28,.26-.34,.08-.06,.21-.08,.28-.02,.17,.16,.32,.39,.4,.64h0c.08,.25,.1,.52,.05,.75-.02,.09-.14,.15-.24,.15Z"/>
      </g>
    </g>
  </g>
</svg>