<?xml version="1.0" encoding="UTF-8"?>
<svg id="_图层_1" data-name="图层 1" xmlns="http://www.w3.org/2000/svg" viewBox="0 0 19 26">
  <defs>
    <style>
      .cls-1 {
        fill: #93989c;
      }

      .cls-2 {
        fill: #f5f6f7;
      }

      .cls-3 {
        fill: #231815;
      }
    </style>
  </defs>
  <g>
    <rect class="cls-2" x=".12" y=".12" width="18.75" height="25.75" rx="1.88" ry="1.88"/>
    <path class="cls-1" d="M17,.25c.96,0,1.75,.79,1.75,1.75V24c0,.96-.79,1.75-1.75,1.75H2c-.96,0-1.75-.79-1.75-1.75V2C.25,1.04,1.04,.25,2,.25h15m0-.25H2C.9,0,0,.9,0,2V24c0,1.1,.9,2,2,2h15c1.1,0,2-.9,2-2V2c0-1.1-.9-2-2-2h0Z"/>
  </g>
  <path class="cls-3" d="M2.48,18.89c0-.19,.15-.46,.45-.8,.3-.34,.68-.93,1.14-1.74,.46-.82,.85-1.82,1.16-3.01-.83-.55-1.28-1.12-1.35-1.71,.47,.21,1.01,.36,1.6,.43,.02-.24,.09-.46,.21-.68,.07,.17,.12,.44,.14,.82,.66,.21,1,.48,1,.78,0,.33-.38,.5-1.14,.5-.14,.76-.28,1.44-.43,2.05-.14,.61-.24,1.03-.3,1.26-.06,.24-.09,.4-.09,.5,0,.19,.02,.32,.07,.39,.24-.02,.67-.23,1.3-.62,.63-.39,1.12-.73,1.48-1.02,.14-.24,.21-.75,.21-1.53,0-.17,0-.45-.02-.85-.01-.4-.02-.7-.02-.89,0-.66-.06-1.2-.18-1.62-.12-.42-.26-.69-.41-.84-.15-.14-.29-.3-.41-.46-.12-.17-.18-.36-.18-.57,0-.26,.09-.49,.28-.68,.38,.14,.78,.27,1.19,.37,.42,.11,.69,.19,.82,.25,.13,.06,.27,.17,.41,.34,.14,.17,.26,.42,.36,.75-.4,.26-.65,.66-.75,1.21-.1,.55-.17,1.78-.21,3.7,.24-.14,.52-.34,.84-.61,.32-.26,.54-.43,.66-.5,0-.57,.05-1.28,.14-2.12,.09-.84,.14-1.42,.14-1.73,0-.19-.01-.36-.04-.52-.02-.15-.06-.29-.11-.39-.05-.11-.09-.2-.12-.28-.04-.08-.1-.16-.18-.23-.08-.07-.14-.12-.18-.16-.04-.04-.11-.08-.21-.14-.11-.06-.17-.1-.2-.12,.09-.28,.22-.53,.37-.73,.15-.2,.36-.42,.62-.64,.26-.23,.46-.42,.61-.59,.21,.17,.5,.49,.87,.98,.37,.49,.55,.87,.55,1.16,0,.1-.07,.2-.2,.3-.13,.11-.27,.21-.41,.32s-.28,.34-.41,.71c-.13,.37-.2,.84-.2,1.41v2.07c.17-.12,.39-.26,.68-.43,.28-.17,.49-.29,.62-.37,.13-.08,.25-.21,.36-.39,.11-.18,.16-.39,.16-.62,0-.05,0-.09-.02-.14-.01-.05-.02-.09-.02-.14,.14-.14,.39-.21,.75-.21,.33,0,.68,.11,1.03,.34,.36,.23,.53,.49,.53,.8,0,.14-.15,.25-.45,.32-.3,.07-.8,.22-1.5,.44-.7,.23-1.4,.55-2.08,.98v.28c0,1.47,.13,2.41,.39,2.81,.26,.4,.85,.61,1.78,.61,.47,0,.96-.05,1.44-.16,.49-.11,.81-.16,.98-.16,.31,0,.46,.12,.46,.36,0,1-1.34,1.5-4.02,1.5-.62,0-1.12-.13-1.51-.39-.39-.26-.59-.62-.59-1.07,0-.17,0-.37,.02-.62,.01-.25,.02-.45,.02-.59,0-.26-.02-.6-.05-1.01-.04-.42-.05-.72-.05-.91-.45,.33-.95,.74-1.5,1.21,0,.1,.01,.21,.04,.36,.02,.14,.04,.26,.04,.36,0,.31-.1,.58-.3,.8-.2,.23-.37,.35-.52,.37-.07,0-.15-.04-.25-.12-.1-.08-.14-.17-.14-.27,0-.12-.08-.29-.25-.5-.45,.31-.96,.72-1.51,1.25-.56,.52-1.04,.91-1.46,1.18-.42,.26-.86,.39-1.34,.39-.43,0-.64-.25-.64-.75Z"/>
</svg>