<?xml version="1.0" encoding="UTF-8"?>
<svg id="_图层_1" data-name="图层 1" xmlns="http://www.w3.org/2000/svg" viewBox="0 0 19 26">
  <defs>
    <style>
      .cls-1 {
        fill: #93989c;
      }

      .cls-2 {
        fill: #881c21;
      }

      .cls-3 {
        fill: #f5f6f7;
      }

      .cls-4 {
        fill: #231815;
      }
    </style>
  </defs>
  <g>
    <rect class="cls-3" x=".12" y=".12" width="18.75" height="25.75" rx="1.88" ry="1.88"/>
    <path class="cls-1" d="M17,.25c.96,0,1.75,.79,1.75,1.75V24c0,.96-.79,1.75-1.75,1.75H2c-.96,0-1.75-.79-1.75-1.75V2C.25,1.04,1.04,.25,2,.25h15m0-.25H2C.9,0,0,.9,0,2V24c0,1.1,.9,2,2,2h15c1.1,0,2-.9,2-2V2c0-1.1-.9-2-2-2h0Z"/>
  </g>
  <path class="cls-4" d="M16.05,9.22c-.36-.24-.95-.52-1.76-.83-.82-.31-1.39-.55-1.73-.72-.1-.74-.14-1.23-.14-1.47,0-.07,.04-.25,.11-.54,.07-.29,.06-.47-.04-.54-.14-.34-.46-.53-.94-.58-.05,.31-.16,.54-.32,.68-.17,.14-.64,.34-1.4,.58,.12-.84,.56-1.45,1.33-1.83,1.01-.48,1.69-.72,2.05-.72,.22,0,.53,.06,.94,.18,.41,.12,.71,.18,.9,.18,.46,0,.68-.31,.68-.94,0-.48-.86-.72-2.59-.72-.02,0-.69,.29-2,.86-1.31,.58-2.24,.86-2.79,.86-.12-.19-.31-.37-.56-.54-.25-.17-.4-.28-.45-.32-.07,.07-.2,.16-.38,.27-.18,.11-.32,.21-.41,.31-.07,.1-.15,.25-.23,.45-.08,.2-.2,.38-.34,.52,.02,.05,.08,.14,.18,.27,.1,.13,.16,.25,.2,.34,.04,.1,.05,.2,.05,.32,0,.72-.52,1.56-1.55,2.52-1.03,.96-2.06,1.69-3.09,2.19,.07,.1,.2,.14,.4,.14,.38,0,.99-.25,1.83-.76,.84-.5,1.56-1.05,2.16-1.65,.17,.07,.25,.22,.25,.43,0,.17-.06,.38-.18,.65-.12,.26-.18,.48-.18,.65,0,.38,.12,.71,.36,.97,.24,.26,.56,.4,.97,.4,.14,0,.23-.02,.25-.07,0-.14,.05-.27,.14-.38,.1-.11,.26-.22,.49-.32,.23-.11,.46-.2,.7-.29,.24-.08,.59-.2,1.06-.36,.47-.16,.9-.32,1.31-.49,0,.17-.01,.31-.04,.43-.02,.12-.04,.19-.04,.22,0,.1,.08,.14,.25,.14,.05,0,.16-.02,.32-.05,.17-.04,.32-.05,.47-.05,.7,0,1.41,.23,2.16,.7,.74,.47,1.19,.7,1.33,.7,.22,0,.4-.09,.56-.27,.16-.18,.23-.39,.23-.63,0-.36-.18-.66-.54-.9Zm-7.84-3.67c.07-.29,.11-.61,.13-.95,.01-.35,.02-.55,.02-.59,.24,0,.47,.05,.7,.16,.23,.11,.34,.26,.34,.45,0,.17-.18,.68-.54,1.55-.29,.17-.54,.25-.76,.25-.1,0-.17-.11-.22-.32,.14-.07,.25-.25,.32-.54Zm-.5,3.35c-.14,.05-.28,.02-.4-.07,0-.02,0-.05,.02-.09,.01-.04,.02-.07,.02-.09,0-.1-.04-.29-.13-.59-.08-.3-.13-.55-.13-.74,0-.14,.01-.25,.04-.32,.12,.17,.43,.25,.94,.25,.05,0,.11,0,.18-.02,.07-.01,.12-.02,.14-.02-.19,.86-.42,1.43-.68,1.69Zm3.63-.86c-1.1,.58-1.93,.86-2.48,.86,0-.55,.2-1.2,.61-1.94,.17-.07,.37-.18,.59-.32,.23-.14,.42-.26,.58-.36,.16-.1,.27-.14,.34-.14,.24,0,.36,.23,.36,.68,0,.05,0,.16-.02,.34-.01,.18-.02,.32-.02,.41,0,.22,.01,.37,.04,.47Z"/>
  <path class="cls-2" d="M8.04,19.76c-.1,0-.29,.06-.58,.18l-.14,.29c-.12,.19-.23,.34-.32,.43-.36-.22-.54-.91-.54-2.09,0-.91,.05-1.57,.14-1.98,.89-.14,1.86-.36,2.93-.65,1.07-.29,1.73-.43,2-.43,.5,0,.76,.17,.76,.5l-.25,.94c-.17,.62-.25,1.27-.25,1.94,0,.38,.02,.79,.07,1.22,.46,.02,.95,.1,1.47,.22,.53,.12,1.07,.36,1.64,.72,.56,.36,.85,.78,.85,1.26,0,.41-.16,.72-.47,.94-.31,.22-.71,.32-1.19,.32-.12,0-.39,.08-.81,.23-.42,.16-.74,.23-.95,.23-.31,0-.88-.16-1.71-.49-.83-.32-1.41-.59-1.74-.81-.12,.05-.25,.13-.38,.23-.13,.11-.23,.16-.31,.16-.12,0-.5-.1-1.15-.29,0,.02,0,.1-.02,.22-.01,.12-.02,.21-.04,.27-.01,.06-.02,.13-.04,.22-.01,.08-.04,.15-.09,.2-.05,.05-.11,.07-.18,.07s-.15-.05-.23-.14c-.08-.1-.16-.22-.22-.38-.06-.16-.12-.31-.18-.45-.06-.14-.11-.3-.16-.47-.05-.17-.08-.28-.11-.32h-.43c-.46,0-.88-.07-1.26-.22-.38-.14-.58-.35-.58-.61,0-.02,0-.06,.02-.11,.01-.05,.02-.1,.02-.14,.22,0,.52,.02,.9,.07,.38,.05,.68,.07,.9,.07h.14c-.02-.19-.07-.46-.14-.81-.07-.35-.13-.64-.18-.86-.05-.23-.07-.4-.07-.52,0-.05,.05-.12,.14-.22,.29,.05,.5,.19,.63,.41,.13,.23,.25,.55,.34,.95,.1,.41,.22,.74,.36,1.01,.34,0,.79-.1,1.37-.29,0-.07,0-.24,.02-.5,.01-.26,.02-.44,.02-.54Zm4.5-4.93c-.72,0-1.79,.21-3.2,.63-1.42,.42-2.35,.63-2.81,.63-1.44,0-2.37-.26-2.81-.79,.43-.26,.76-.4,.97-.4,.24,0,.61,.06,1.1,.18,.49,.12,.9,.18,1.24,.18,.48,0,.8-.05,.97-.14,.17-.1,.25-.31,.25-.65,0-.07-.07-.13-.2-.16-.13-.04-.22-.09-.27-.16,0-.1,.02-.17,.05-.22,.04-.05,.1-.11,.18-.2,.08-.08,.15-.17,.2-.27,.05-.07,.14-.22,.27-.45,.13-.23,.24-.38,.32-.47,.08-.08,.19-.13,.31-.13,.17,0,.25,.12,.25,.36,0,.19-.02,.39-.05,.59-.04,.2-.1,.43-.18,.68-.08,.25-.14,.45-.16,.59,.05,.12,.13,.18,.25,.18,.14,0,.35-.28,.63-.83,.28-.55,.41-.95,.41-1.19,0-.14-.08-.28-.23-.41-.16-.13-.26-.23-.31-.31,.19-.43,.61-.77,1.26-1.01,.48,.17,.72,.61,.72,1.33,0,.24-.1,.53-.31,.86-.2,.34-.32,.65-.34,.94,.19-.02,.46-.07,.79-.14,.34-.07,.67-.13,1.01-.16,.34-.04,.7-.05,1.08-.05,.77,0,1.21,.08,1.33,.25-.17,.34-.43,.59-.79,.76-.31-.02-.96-.04-1.94-.04Zm-5.76,7.01c.1,.24,.18,.43,.25,.58,.34-.07,.72-.2,1.15-.4-.12-.14-.18-.34-.18-.58l-1.22,.4Zm.54-4.75v.65h.07l.07,.04,.65-.11c0-.19,.02-.43,.07-.72l-.86,.14Zm.72,1.19c-.14,.02-.3,.05-.47,.07-.14,0-.22,.01-.23,.04-.01,.02-.02,.07-.02,.14v.14s0,.13,.02,.25c.01,.12,.02,.2,.02,.25,.12,0,.35-.02,.68-.07v-.83Zm.9-1.51c0,.12-.02,.25-.05,.4-.04,.14-.05,.26-.05,.36,.24-.05,.52-.1,.83-.16,.31-.06,.54-.1,.68-.13,0-.12,0-.26,.02-.43,.01-.17,.02-.3,.02-.4-.22,.05-.47,.11-.76,.2-.29,.08-.52,.14-.68,.16Zm-.11,1.37v.79c.34-.02,.81-.13,1.44-.32,0-.36,.01-.64,.04-.83-.53,.17-1.02,.29-1.47,.36Zm.07,1.44v.97c.53-.1,.99-.23,1.4-.4,0-.41-.01-.72-.04-.94-.12,.05-.33,.11-.63,.18-.3,.07-.55,.13-.74,.18Zm.04,1.62c0,.38,.06,.58,.18,.58,.1,0,.2-.02,.31-.05,.11-.04,.25-.09,.43-.16,.18-.07,.35-.13,.52-.18-.05-.26-.06-.46-.04-.58-.14,.02-.61,.16-1.4,.4Zm3.02-.43s.02,.16,.05,.32c.04,.17,.05,.31,.05,.43s-.04,.25-.11,.4c-.46,.31-.9,.47-1.33,.47-.02-.02-.06-.1-.11-.22-.05-.12-.08-.2-.11-.25-.14,.05-.31,.13-.49,.25-.18,.12-.33,.2-.45,.25,.1,.14,.34,.29,.72,.45,.38,.16,.68,.23,.9,.23,.14,0,.28-.03,.41-.09,.13-.06,.28-.15,.43-.27,.16-.12,.28-.2,.38-.25,.12-.05,.35-.08,.7-.11,.35-.02,.61-.09,.79-.2,.18-.11,.27-.29,.27-.56,0-.19-.25-.38-.76-.56-.5-.18-.96-.28-1.37-.31Z"/>
</svg>