<?xml version="1.0" encoding="UTF-8"?>
<svg id="_图层_1" data-name="图层 1" xmlns="http://www.w3.org/2000/svg" viewBox="0 0 19 26">
  <defs>
    <style>
      .cls-1 {
        fill: #005529;
      }

      .cls-2 {
        fill: #93989c;
      }

      .cls-3 {
        fill: #881c21;
      }

      .cls-4 {
        fill: #f5f6f7;
      }
    </style>
  </defs>
  <g>
    <rect class="cls-4" x=".12" y=".13" width="18.75" height="25.75" rx="1.88" ry="1.88"/>
    <path class="cls-2" d="M17,.25c.96,0,1.75,.79,1.75,1.75V24c0,.96-.79,1.75-1.75,1.75H2c-.96,0-1.75-.79-1.75-1.75V2C.25,1.04,1.04,.25,2,.25h15M17,0H2C.9,0,0,.9,0,2V24C0,25.1,.9,26,2,26h15c1.1,0,2-.9,2-2V2C19,.9,18.1,0,17,0h0Z"/>
  </g>
  <g>
    <path class="cls-1" d="M5.69,21.7v-.12s-.02-.19,.05-.28c.1-.14,.55-.34,.55-.82s-.44-.67-.55-.82c-.07-.1-.05-.28-.05-.28v-.13s-.02-.32,.07-.43c.14-.17,.49-.32,.47-.68-.01-.3-.25-.5-.63-.57-.22-.04-.33-.33-.91-.33s-.7,.3-.91,.33c-.38,.06-.62,.26-.63,.57-.01,.36,.33,.51,.47,.68,.09,.11,.07,.43,.07,.43v.13s.02,.19-.05,.28c-.1,.14-.55,.34-.55,.82s.44,.67,.55,.82c.07,.1,.05,.28,.05,.28v.12s.02,.32-.07,.43c-.2,.23-.58,.43-.47,.75,.12,.33,.34,.54,.72,.48,.34-.05,.43-.25,.82-.25s.49,.19,.82,.25c.38,.06,.6-.15,.72-.48,.12-.32-.26-.51-.47-.75-.1-.11-.07-.43-.07-.43Zm-.67,.88c0,.1-.1,.18-.23,.18h-.19c-.13,0-.23-.08-.23-.18v-1.48c0-.1,.1-.18,.23-.18h.19c.13,0,.23,.08,.23,.18v1.48Zm0-2.01c0,.08-.09,.15-.19,.15h-.27c-.11,0-.19-.07-.19-.15v-.33c0-.08,.09-.15,.19-.15h.27c.11,0,.19,.07,.19,.15v.33Zm0-.87c0,.1-.1,.18-.23,.18h-.19c-.13,0-.23-.08-.23-.18v-1.48c0-.1,.1-.18,.23-.18h.19c.13,0,.23,.08,.23,.18v1.48Z"/>
    <path class="cls-1" d="M15.31,21.7v-.12s-.02-.19,.05-.28c.1-.14,.55-.34,.55-.82s-.44-.67-.55-.82c-.07-.1-.05-.28-.05-.28v-.13s-.02-.32,.07-.43c.14-.17,.49-.32,.47-.68-.01-.3-.25-.5-.63-.57-.22-.04-.33-.33-.91-.33s-.7,.3-.91,.33c-.38,.06-.62,.26-.63,.57-.01,.36,.33,.51,.47,.68,.09,.11,.07,.43,.07,.43v.13s.02,.19-.05,.28c-.1,.14-.55,.34-.55,.82s.44,.67,.55,.82c.07,.1,.05,.28,.05,.28v.12s.02,.32-.07,.43c-.2,.23-.58,.43-.47,.75,.12,.33,.34,.54,.72,.48,.34-.05,.43-.25,.82-.25s.49,.19,.82,.25c.38,.06,.6-.15,.72-.48,.12-.32-.26-.51-.47-.75-.1-.11-.07-.43-.07-.43Zm-.67,.88c0,.1-.1,.18-.23,.18h-.19c-.13,0-.23-.08-.23-.18v-1.48c0-.1,.1-.18,.23-.18h.19c.13,0,.23,.08,.23,.18v1.48Zm0-2.01c0,.08-.09,.15-.19,.15h-.27c-.11,0-.19-.07-.19-.15v-.33c0-.08,.09-.15,.19-.15h.27c.11,0,.19,.07,.19,.15v.33Zm0-.87c0,.1-.1,.18-.23,.18h-.19c-.13,0-.23-.08-.23-.18v-1.48c0-.1,.1-.18,.23-.18h.19c.13,0,.23,.08,.23,.18v1.48Z"/>
    <path class="cls-1" d="M10.5,21.7v-.12s-.02-.19,.05-.28c.1-.14,.55-.34,.55-.82s-.44-.67-.55-.82c-.07-.1-.05-.28-.05-.28v-.13s-.02-.32,.07-.43c.14-.17,.49-.32,.47-.68-.01-.3-.25-.5-.63-.57-.22-.04-.33-.33-.91-.33s-.7,.3-.91,.33c-.38,.06-.62,.26-.63,.57-.01,.36,.33,.51,.47,.68,.09,.11,.07,.43,.07,.43v.13s.02,.19-.05,.28c-.1,.14-.55,.34-.55,.82s.44,.67,.55,.82c.07,.1,.05,.28,.05,.28v.12s.02,.32-.07,.43c-.2,.23-.58,.43-.47,.75,.12,.33,.34,.54,.72,.48,.34-.05,.43-.25,.82-.25s.49,.19,.82,.25c.38,.06,.6-.15,.72-.48,.12-.32-.26-.51-.47-.75-.1-.11-.07-.43-.07-.43Zm-.67,.88c0,.1-.1,.18-.23,.18h-.19c-.13,0-.23-.08-.23-.18v-1.48c0-.1,.1-.18,.23-.18h.19c.13,0,.23,.08,.23,.18v1.48Zm0-2.01c0,.08-.09,.15-.19,.15h-.27c-.11,0-.19-.07-.19-.15v-.33c0-.08,.09-.15,.19-.15h.27c.11,0,.19,.07,.19,.15v.33Zm0-.87c0,.1-.1,.18-.23,.18h-.19c-.13,0-.23-.08-.23-.18v-1.48c0-.1,.1-.18,.23-.18h.19c.13,0,.23,.08,.23,.18v1.48Z"/>
    <path class="cls-3" d="M10.5,7.08v-.12s-.02-.19,.05-.28c.1-.14,.55-.34,.55-.82s-.44-.67-.55-.82c-.07-.1-.05-.28-.05-.28v-.13s-.02-.32,.07-.43c.14-.17,.49-.32,.47-.68-.01-.3-.25-.5-.63-.56-.22-.04-.33-.33-.91-.33s-.7,.3-.91,.33c-.38,.06-.62,.26-.63,.56-.01,.36,.33,.51,.47,.68,.09,.11,.07,.43,.07,.43v.13s.02,.19-.05,.28c-.1,.14-.55,.34-.55,.82s.44,.67,.55,.82c.07,.1,.05,.28,.05,.28v.12s.02,.32-.07,.43c-.2,.23-.58,.43-.47,.75,.12,.33,.34,.54,.72,.48,.34-.05,.43-.25,.82-.25s.49,.19,.82,.25c.38,.06,.6-.15,.72-.48,.12-.32-.26-.51-.47-.75-.1-.11-.07-.43-.07-.43Zm-.67,.88c0,.1-.1,.18-.23,.18h-.19c-.13,0-.23-.08-.23-.18v-1.48c0-.1,.1-.18,.23-.18h.19c.13,0,.23,.08,.23,.18v1.48Zm0-2.01c0,.08-.09,.15-.19,.15h-.27c-.11,0-.19-.07-.19-.15v-.33c0-.08,.09-.15,.19-.15h.27c.11,0,.19,.07,.19,.15v.33Zm0-.87c0,.1-.1,.18-.23,.18h-.19c-.13,0-.23-.08-.23-.18v-1.48c0-.1,.1-.18,.23-.18h.19c.13,0,.23,.08,.23,.18v1.48Z"/>
    <path class="cls-1" d="M5.69,14.39v-.12s-.02-.19,.05-.28c.1-.14,.55-.34,.55-.82s-.44-.67-.55-.82c-.07-.1-.05-.28-.05-.28v-.13s-.02-.32,.07-.43c.14-.17,.49-.32,.47-.68-.01-.3-.25-.5-.63-.57-.22-.04-.33-.33-.91-.33s-.7,.3-.91,.33c-.38,.06-.62,.26-.63,.57-.01,.36,.33,.51,.47,.68,.09,.11,.07,.43,.07,.43v.13s.02,.19-.05,.28c-.1,.14-.55,.34-.55,.82s.44,.67,.55,.82c.07,.1,.05,.28,.05,.28v.12s.02,.32-.07,.43c-.2,.23-.58,.43-.47,.75,.12,.33,.34,.54,.72,.48,.34-.05,.43-.25,.82-.25s.49,.19,.82,.25c.38,.06,.6-.15,.72-.48,.12-.32-.26-.51-.47-.75-.1-.11-.07-.43-.07-.43Zm-.67,.88c0,.1-.1,.18-.23,.18h-.19c-.13,0-.23-.08-.23-.18v-1.48c0-.1,.1-.18,.23-.18h.19c.13,0,.23,.08,.23,.18v1.48Zm0-2.01c0,.08-.09,.15-.19,.15h-.27c-.11,0-.19-.07-.19-.15v-.33c0-.08,.09-.15,.19-.15h.27c.11,0,.19,.07,.19,.15v.33Zm0-.87c0,.1-.1,.18-.23,.18h-.19c-.13,0-.23-.08-.23-.18v-1.48c0-.1,.1-.18,.23-.18h.19c.13,0,.23,.08,.23,.18v1.48Z"/>
    <path class="cls-1" d="M15.31,14.39v-.12s-.02-.19,.05-.28c.1-.14,.55-.34,.55-.82s-.44-.67-.55-.82c-.07-.1-.05-.28-.05-.28v-.13s-.02-.32,.07-.43c.14-.17,.49-.32,.47-.68-.01-.3-.25-.5-.63-.57-.22-.04-.33-.33-.91-.33s-.7,.3-.91,.33c-.38,.06-.62,.26-.63,.57-.01,.36,.33,.51,.47,.68,.09,.11,.07,.43,.07,.43v.13s.02,.19-.05,.28c-.1,.14-.55,.34-.55,.82s.44,.67,.55,.82c.07,.1,.05,.28,.05,.28v.12s.02,.32-.07,.43c-.2,.23-.58,.43-.47,.75,.12,.33,.34,.54,.72,.48,.34-.05,.43-.25,.82-.25s.49,.19,.82,.25c.38,.06,.6-.15,.72-.48,.12-.32-.26-.51-.47-.75-.1-.11-.07-.43-.07-.43Zm-.67,.88c0,.1-.1,.18-.23,.18h-.19c-.13,0-.23-.08-.23-.18v-1.48c0-.1,.1-.18,.23-.18h.19c.13,0,.23,.08,.23,.18v1.48Zm0-2.01c0,.08-.09,.15-.19,.15h-.27c-.11,0-.19-.07-.19-.15v-.33c0-.08,.09-.15,.19-.15h.27c.11,0,.19,.07,.19,.15v.33Zm0-.87c0,.1-.1,.18-.23,.18h-.19c-.13,0-.23-.08-.23-.18v-1.48c0-.1,.1-.18,.23-.18h.19c.13,0,.23,.08,.23,.18v1.48Z"/>
    <path class="cls-1" d="M10.5,14.39v-.12s-.02-.19,.05-.28c.1-.14,.55-.34,.55-.82s-.44-.67-.55-.82c-.07-.1-.05-.28-.05-.28v-.13s-.02-.32,.07-.43c.14-.17,.49-.32,.47-.68-.01-.3-.25-.5-.63-.57-.22-.04-.33-.33-.91-.33s-.7,.3-.91,.33c-.38,.06-.62,.26-.63,.57-.01,.36,.33,.51,.47,.68,.09,.11,.07,.43,.07,.43v.13s.02,.19-.05,.28c-.1,.14-.55,.34-.55,.82s.44,.67,.55,.82c.07,.1,.05,.28,.05,.28v.12s.02,.32-.07,.43c-.2,.23-.58,.43-.47,.75,.12,.33,.34,.54,.72,.48,.34-.05,.43-.25,.82-.25s.49,.19,.82,.25c.38,.06,.6-.15,.72-.48,.12-.32-.26-.51-.47-.75-.1-.11-.07-.43-.07-.43Zm-.67,.88c0,.1-.1,.18-.23,.18h-.19c-.13,0-.23-.08-.23-.18v-1.48c0-.1,.1-.18,.23-.18h.19c.13,0,.23,.08,.23,.18v1.48Zm0-2.01c0,.08-.09,.15-.19,.15h-.27c-.11,0-.19-.07-.19-.15v-.33c0-.08,.09-.15,.19-.15h.27c.11,0,.19,.07,.19,.15v.33Zm0-.87c0,.1-.1,.18-.23,.18h-.19c-.13,0-.23-.08-.23-.18v-1.48c0-.1,.1-.18,.23-.18h.19c.13,0,.23,.08,.23,.18v1.48Z"/>
  </g>
</svg>