<?xml version="1.0" encoding="UTF-8"?>
<svg id="_图层_1" data-name="图层 1" xmlns="http://www.w3.org/2000/svg" viewBox="0 0 19 26">
  <defs>
    <style>
      .cls-1 {
        fill: #011833;
      }

      .cls-2 {
        fill: #93989c;
      }

      .cls-3 {
        fill: #f5f6f7;
      }
    </style>
  </defs>
  <g>
    <rect class="cls-3" x=".13" y=".12" width="18.75" height="25.75" rx="1.88" ry="1.88"/>
    <path class="cls-2" d="M17,.25c.96,0,1.75,.79,1.75,1.75V24c0,.96-.79,1.75-1.75,1.75H2c-.96,0-1.75-.79-1.75-1.75V2C.25,1.04,1.04,.25,2,.25h15M17,0H2C.9,0,0,.9,0,2V24C0,25.1,.9,26,2,26h15c1.1,0,2-.9,2-2V2C19,.9,18.1,0,17,0h0Z"/>
  </g>
  <g>
    <g>
      <circle class="cls-1" cx="6.92" cy="15.88" r=".17"/>
      <path class="cls-1" d="M6.92,14c-1.04,0-1.88,.84-1.88,1.88s.84,1.88,1.88,1.88,1.88-.84,1.88-1.88-.84-1.88-1.88-1.88Zm-.62,.52c.17-.1,.4-.15,.62-.15h0c.22,0,.45,.05,.62,.15,.07,.04,.08,.15,.06,.23-.02,.08-.15,.27-.21,.3-.05,.03-.14,.03-.18,.03-.04,0-.19-.06-.29-.06h0c-.1,0-.25,.05-.29,.06-.04,0-.13,0-.18-.03-.05-.03-.18-.22-.21-.3-.02-.08-.01-.19,.06-.23Zm-.86,1.53c-.04-.19-.02-.43,.05-.64h0c.07-.21,.19-.41,.34-.54,.06-.06,.17-.03,.24,.02,.07,.05,.21,.23,.22,.29,0,.06,0,.14-.03,.18-.02,.04-.12,.16-.15,.26h0c-.03,.1-.03,.26-.03,.3,0,.04-.04,.12-.08,.16-.04,.04-.27,.1-.35,.1-.08,0-.19-.05-.2-.13Zm1.37,1.14c-.03,.08-.1,.16-.19,.15-.2-.02-.41-.11-.59-.24h0c-.18-.13-.33-.31-.41-.49-.03-.07,.02-.17,.09-.22,.07-.05,.28-.13,.34-.12,.06,0,.13,.05,.16,.08,.03,.03,.12,.16,.2,.22h0c.08,.06,.24,.1,.27,.12,.04,.02,.1,.08,.13,.13s.02,.29-.01,.36Zm-.4-1.31c0-.28,.23-.51,.51-.51s.51,.23,.51,.51-.23,.51-.51,.51-.51-.23-.51-.51Zm1.4,1.22h0c-.18,.13-.39,.22-.59,.24-.08,.01-.16-.07-.18-.15-.03-.08-.04-.31-.01-.36,.03-.05,.09-.11,.13-.13,.04-.02,.19-.06,.27-.12h0c.08-.06,.17-.19,.2-.22,.03-.03,.1-.07,.16-.08,.06,0,.28,.07,.34,.12,.07,.05,.12,.15,.09,.22-.08,.18-.23,.36-.41,.49Zm.39-.92c-.08,0-.31-.06-.35-.1-.04-.04-.08-.12-.08-.16,0-.04,0-.2-.03-.3h0c-.03-.1-.13-.22-.15-.26-.02-.04-.04-.12-.03-.18,0-.06,.15-.24,.22-.29,.07-.05,.18-.07,.24-.02,.15,.13,.27,.33,.34,.54h0c.07,.21,.09,.44,.05,.64-.02,.08-.12,.13-.2,.13Z"/>
    </g>
    <g>
      <circle class="cls-1" cx="6.92" cy="10.73" r=".17"/>
      <path class="cls-1" d="M6.92,8.85c-1.04,0-1.88,.84-1.88,1.88s.84,1.88,1.88,1.88,1.88-.84,1.88-1.88-.84-1.88-1.88-1.88Zm-.62,.52c.17-.1,.4-.15,.62-.15h0c.22,0,.45,.05,.62,.15,.07,.04,.08,.15,.06,.23-.02,.08-.15,.27-.21,.3-.05,.03-.14,.04-.18,.03-.04,0-.19-.06-.29-.06h0c-.1,0-.25,.05-.29,.06-.04,0-.13,0-.18-.03-.05-.03-.18-.22-.21-.3-.02-.08-.01-.19,.06-.23Zm-.86,1.53c-.04-.19-.02-.43,.05-.64h0c.07-.21,.19-.41,.34-.54,.06-.06,.17-.03,.24,.02,.07,.05,.21,.23,.22,.29,0,.06,0,.14-.03,.18-.02,.04-.12,.16-.15,.26h0c-.03,.1-.03,.26-.03,.3,0,.04-.04,.12-.08,.16-.04,.04-.27,.1-.35,.1-.08,0-.19-.05-.2-.13Zm1.37,1.14c-.03,.08-.1,.16-.19,.15-.2-.02-.41-.11-.59-.24h0c-.18-.13-.33-.31-.41-.49-.03-.07,.02-.17,.09-.22,.07-.05,.28-.13,.34-.12,.06,0,.13,.05,.16,.08,.03,.03,.12,.16,.2,.22h0c.08,.06,.24,.1,.27,.12,.04,.02,.1,.08,.13,.13s.02,.29-.01,.36Zm-.4-1.31c0-.28,.23-.51,.51-.51s.51,.23,.51,.51-.23,.51-.51,.51-.51-.23-.51-.51Zm1.4,1.22h0c-.18,.13-.39,.22-.59,.24-.08,.01-.16-.07-.18-.15-.03-.08-.04-.31-.01-.36,.03-.05,.09-.11,.13-.13,.04-.02,.19-.06,.27-.12h0c.08-.06,.17-.19,.2-.22,.03-.03,.1-.07,.16-.08,.06,0,.28,.07,.34,.12,.07,.05,.12,.15,.09,.22-.08,.18-.23,.36-.41,.49Zm.39-.92c-.08,0-.31-.06-.35-.1-.04-.04-.08-.12-.08-.16,0-.04,0-.2-.03-.3h0c-.03-.1-.13-.22-.15-.26-.02-.04-.04-.12-.03-.18,0-.06,.15-.24,.22-.29,.07-.05,.18-.07,.24-.02,.15,.13,.27,.33,.34,.54h0c.07,.21,.09,.44,.05,.64-.02,.08-.12,.13-.2,.13Z"/>
    </g>
    <g>
      <circle class="cls-1" cx="6.92" cy="5.57" r=".17"/>
      <path class="cls-1" d="M6.92,3.7c-1.04,0-1.88,.84-1.88,1.88s.84,1.88,1.88,1.88,1.88-.84,1.88-1.88-.84-1.88-1.88-1.88Zm-.62,.52c.17-.1,.4-.15,.62-.15h0c.22,0,.45,.05,.62,.15,.07,.04,.08,.15,.06,.23-.02,.08-.15,.27-.21,.3-.05,.03-.14,.03-.18,.03-.04,0-.19-.06-.29-.06h0c-.1,0-.25,.05-.29,.06-.04,0-.13,0-.18-.03-.05-.03-.18-.22-.21-.3-.02-.08-.01-.19,.06-.23Zm-.86,1.53c-.04-.19-.02-.43,.05-.64h0c.07-.21,.19-.41,.34-.54,.06-.06,.17-.03,.24,.02,.07,.05,.21,.23,.22,.29,0,.06,0,.14-.03,.18-.02,.04-.12,.16-.15,.26h0c-.03,.1-.03,.26-.03,.3,0,.04-.04,.12-.08,.16-.04,.04-.27,.1-.35,.1-.08,0-.19-.05-.2-.13Zm1.37,1.14c-.03,.08-.1,.16-.19,.15-.2-.02-.41-.11-.59-.24h0c-.18-.13-.33-.31-.41-.49-.03-.07,.02-.17,.09-.22,.07-.05,.28-.13,.34-.12,.06,0,.13,.05,.16,.08,.03,.03,.12,.16,.2,.22h0c.08,.06,.24,.1,.27,.12,.04,.02,.1,.08,.13,.13s.02,.29-.01,.36Zm-.4-1.31c0-.28,.23-.51,.51-.51s.51,.23,.51,.51-.23,.51-.51,.51-.51-.23-.51-.51Zm1.4,1.22h0c-.18,.13-.39,.22-.59,.24-.08,.01-.16-.07-.18-.15-.03-.08-.04-.31-.01-.36,.03-.05,.09-.11,.13-.13,.04-.02,.19-.06,.27-.12h0c.08-.06,.17-.19,.2-.22,.03-.03,.1-.07,.16-.08,.06,0,.28,.07,.34,.12,.07,.05,.12,.15,.09,.22-.08,.18-.23,.36-.41,.49Zm.39-.92c-.08,0-.31-.06-.35-.1-.04-.04-.08-.12-.08-.16,0-.04,0-.2-.03-.3h0c-.03-.1-.13-.22-.15-.26-.02-.04-.04-.12-.03-.18,0-.06,.15-.24,.22-.29,.07-.05,.18-.07,.24-.02,.15,.13,.27,.33,.34,.54h0c.07,.21,.09,.44,.05,.64-.02,.08-.12,.13-.2,.13Z"/>
    </g>
    <circle class="cls-1" cx="6.92" cy="21.03" r=".17"/>
    <path class="cls-1" d="M6.92,19.15c-1.04,0-1.88,.84-1.88,1.88s.84,1.88,1.88,1.88,1.88-.84,1.88-1.88-.84-1.88-1.88-1.88Zm-.62,.52c.17-.1,.4-.15,.62-.15h0c.22,0,.45,.05,.62,.15,.07,.04,.08,.15,.06,.23-.02,.08-.15,.27-.21,.3-.05,.03-.14,.03-.18,.03-.04,0-.19-.06-.29-.06h0c-.1,0-.25,.05-.29,.06-.04,0-.13,0-.18-.03-.05-.03-.18-.22-.21-.3-.02-.08-.01-.19,.06-.23Zm-.86,1.53c-.04-.19-.02-.43,.05-.64h0c.07-.21,.19-.41,.34-.54,.06-.06,.17-.03,.24,.02,.07,.05,.21,.23,.22,.29,0,.06,0,.14-.03,.18-.02,.04-.12,.16-.15,.26h0c-.03,.1-.03,.26-.03,.3,0,.04-.04,.12-.08,.16-.04,.04-.27,.1-.35,.1-.08,0-.19-.05-.2-.13Zm1.37,1.14c-.03,.08-.1,.16-.19,.15-.2-.02-.41-.11-.59-.24h0c-.18-.13-.33-.31-.41-.49-.03-.07,.02-.17,.09-.22,.07-.05,.28-.13,.34-.12,.06,0,.13,.05,.16,.08,.03,.03,.12,.16,.2,.22h0c.08,.06,.24,.1,.27,.12,.04,.02,.1,.08,.13,.13s.02,.29-.01,.36Zm-.4-1.31c0-.28,.23-.51,.51-.51s.51,.23,.51,.51-.23,.51-.51,.51-.51-.23-.51-.51Zm1.4,1.22h0c-.18,.13-.39,.22-.59,.24-.08,.01-.16-.07-.18-.15-.03-.08-.04-.31-.01-.36,.03-.05,.09-.11,.13-.13,.04-.02,.19-.06,.27-.12h0c.08-.06,.17-.19,.2-.22,.03-.03,.1-.07,.16-.08,.06,0,.28,.07,.34,.12,.07,.05,.12,.15,.09,.22-.08,.18-.23,.36-.41,.49Zm.39-.92c-.08,0-.31-.06-.35-.1-.04-.04-.08-.12-.08-.16,0-.04,0-.2-.03-.3h0c-.03-.1-.13-.22-.15-.26-.02-.04-.04-.12-.03-.18s.15-.24,.22-.29c.07-.05,.18-.07,.24-.02,.15,.13,.27,.33,.34,.54h0c.07,.21,.09,.44,.05,.64-.02,.08-.12,.13-.2,.13Z"/>
    <path class="cls-1" d="M11.9,21.03c0,.09,.08,.17,.17,.17s.17-.08,.17-.17-.08-.17-.17-.17-.17,.08-.17,.17Z"/>
    <path class="cls-1" d="M12.08,19.15c-1.04,0-1.88,.84-1.88,1.88s.84,1.88,1.88,1.88,1.88-.84,1.88-1.88-.84-1.88-1.88-1.88Zm-.62,.52c.17-.1,.4-.15,.62-.15h0c.22,0,.45,.05,.62,.15,.07,.04,.08,.15,.06,.23-.02,.08-.15,.27-.21,.3-.05,.03-.14,.03-.18,.03-.04,0-.19-.06-.29-.06h0c-.1,0-.25,.05-.29,.06-.04,0-.13,0-.18-.03-.05-.03-.18-.22-.21-.3-.02-.08-.01-.19,.06-.23Zm-.86,1.53c-.04-.19-.02-.43,.05-.64h0c.07-.21,.19-.41,.34-.54,.06-.06,.17-.03,.24,.02,.07,.05,.21,.23,.22,.29,0,.06,0,.14-.03,.18-.02,.04-.12,.16-.15,.26h0c-.03,.1-.03,.26-.03,.3,0,.04-.04,.12-.08,.16-.04,.04-.27,.1-.35,.1-.08,0-.19-.05-.2-.13Zm1.37,1.14c-.03,.08-.1,.16-.19,.15-.2-.02-.41-.11-.59-.24h0c-.18-.13-.33-.31-.41-.49-.03-.07,.02-.17,.09-.22,.07-.05,.28-.13,.34-.12,.06,0,.13,.05,.16,.08,.03,.03,.12,.16,.2,.22h0c.08,.06,.24,.1,.27,.12,.04,.02,.1,.08,.13,.13s.02,.29-.01,.36Zm-.4-1.31c0-.28,.23-.51,.51-.51s.51,.23,.51,.51-.23,.51-.51,.51-.51-.23-.51-.51Zm1.4,1.22h0c-.18,.13-.39,.22-.59,.24-.08,.01-.16-.07-.18-.15-.03-.08-.04-.31-.01-.36,.03-.05,.09-.11,.13-.13s.19-.06,.27-.12h0c.08-.06,.17-.19,.2-.22,.03-.03,.1-.07,.16-.08s.28,.07,.34,.12c.07,.05,.12,.15,.09,.22-.08,.18-.23,.36-.41,.49Zm.39-.92c-.08,0-.31-.06-.35-.1-.04-.04-.08-.12-.08-.16,0-.04,0-.2-.03-.3h0c-.03-.1-.13-.22-.15-.26-.02-.04-.04-.12-.03-.18s.15-.24,.22-.29c.07-.05,.18-.07,.24-.02,.15,.13,.27,.33,.34,.54h0c.07,.21,.09,.44,.05,.64-.02,.08-.12,.13-.2,.13Z"/>
    <path class="cls-1" d="M11.9,15.88c0,.09,.08,.17,.17,.17s.17-.08,.17-.17-.08-.17-.17-.17-.17,.08-.17,.17Z"/>
    <path class="cls-1" d="M12.08,14c-1.04,0-1.88,.84-1.88,1.88s.84,1.88,1.88,1.88,1.88-.84,1.88-1.88-.84-1.88-1.88-1.88Zm-.62,.52c.17-.1,.4-.15,.62-.15h0c.22,0,.45,.05,.62,.15,.07,.04,.08,.15,.06,.23-.02,.08-.15,.27-.21,.3-.05,.03-.14,.03-.18,.03-.04,0-.19-.06-.29-.06h0c-.1,0-.25,.05-.29,.06-.04,0-.13,0-.18-.03-.05-.03-.18-.22-.21-.3-.02-.08-.01-.19,.06-.23Zm-.86,1.53c-.04-.19-.02-.43,.05-.64h0c.07-.21,.19-.41,.34-.54,.06-.06,.17-.03,.24,.02,.07,.05,.21,.23,.22,.29,0,.06,0,.14-.03,.18-.02,.04-.12,.16-.15,.26h0c-.03,.1-.03,.26-.03,.3,0,.04-.04,.12-.08,.16-.04,.04-.27,.1-.35,.1-.08,0-.19-.05-.2-.13Zm1.37,1.14c-.03,.08-.1,.16-.19,.15-.2-.02-.41-.11-.59-.24h0c-.18-.13-.33-.31-.41-.49-.03-.07,.02-.17,.09-.22,.07-.05,.28-.13,.34-.12,.06,0,.13,.05,.16,.08,.03,.03,.12,.16,.2,.22h0c.08,.06,.24,.1,.27,.12,.04,.02,.1,.08,.13,.13s.02,.29-.01,.36Zm-.4-1.31c0-.28,.23-.51,.51-.51s.51,.23,.51,.51-.23,.51-.51,.51-.51-.23-.51-.51Zm1.4,1.22h0c-.18,.13-.39,.22-.59,.24-.08,.01-.16-.07-.18-.15-.03-.08-.04-.31-.01-.36,.03-.05,.09-.11,.13-.13s.19-.06,.27-.12h0c.08-.06,.17-.19,.2-.22,.03-.03,.1-.07,.16-.08s.28,.07,.34,.12c.07,.05,.12,.15,.09,.22-.08,.18-.23,.36-.41,.49Zm.39-.92c-.08,0-.31-.06-.35-.1-.04-.04-.08-.12-.08-.16,0-.04,0-.2-.03-.3h0c-.03-.1-.13-.22-.15-.26-.02-.04-.04-.12-.03-.18s.15-.24,.22-.29c.07-.05,.18-.07,.24-.02,.15,.13,.27,.33,.34,.54h0c.07,.21,.09,.44,.05,.64-.02,.08-.12,.13-.2,.13Z"/>
    <path class="cls-1" d="M11.9,5.57c0,.09,.08,.17,.17,.17s.17-.08,.17-.17-.08-.17-.17-.17-.17,.08-.17,.17Z"/>
    <path class="cls-1" d="M12.08,3.7c-1.04,0-1.88,.84-1.88,1.88s.84,1.88,1.88,1.88,1.88-.84,1.88-1.88-.84-1.88-1.88-1.88Zm-.62,.52c.17-.1,.4-.15,.62-.15h0c.22,0,.45,.05,.62,.15,.07,.04,.08,.15,.06,.23s-.15,.27-.21,.3c-.05,.03-.14,.03-.18,.03-.04,0-.19-.06-.29-.06h0c-.1,0-.25,.05-.29,.06-.04,0-.13,0-.18-.03-.05-.03-.18-.22-.21-.3-.02-.08-.01-.19,.06-.23Zm-.86,1.53c-.04-.19-.02-.43,.05-.64h0c.07-.21,.19-.41,.34-.54,.06-.06,.17-.03,.24,.02,.07,.05,.21,.23,.22,.29,0,.06,0,.14-.03,.18-.02,.04-.12,.16-.15,.26h0c-.03,.1-.03,.26-.03,.3,0,.04-.04,.12-.08,.16-.04,.04-.27,.1-.35,.1s-.19-.05-.2-.13Zm1.37,1.14c-.03,.08-.1,.16-.19,.15-.2-.02-.41-.11-.59-.24h0c-.18-.13-.33-.31-.41-.49-.03-.07,.02-.17,.09-.22,.07-.05,.28-.13,.34-.12,.06,0,.13,.05,.16,.08,.03,.03,.12,.16,.2,.22h0c.08,.06,.24,.1,.27,.12s.1,.08,.13,.13c.03,.05,.02,.29-.01,.36Zm-.4-1.31c0-.28,.23-.51,.51-.51s.51,.23,.51,.51-.23,.51-.51,.51-.51-.23-.51-.51Zm1.4,1.22h0c-.18,.13-.39,.22-.59,.24-.08,.01-.16-.07-.18-.15-.03-.08-.04-.31-.01-.36,.03-.05,.09-.11,.13-.13,.04-.02,.19-.06,.27-.12h0c.08-.06,.17-.19,.2-.22,.03-.03,.1-.07,.16-.08s.28,.07,.34,.12c.07,.05,.12,.15,.09,.22-.08,.18-.23,.36-.41,.49Zm.39-.92c-.08,0-.31-.06-.35-.1-.04-.04-.08-.12-.08-.16,0-.04,0-.2-.03-.3h0c-.03-.1-.13-.22-.15-.26-.02-.04-.04-.12-.03-.18,0-.06,.15-.24,.22-.29,.07-.05,.18-.07,.24-.02,.15,.13,.27,.33,.34,.54h0c.07,.21,.09,.44,.05,.64-.02,.08-.12,.13-.2,.13Z"/>
    <path class="cls-1" d="M14.98,10.73c0-1.13-.65-2.09-1.59-2.58,.94-.48,1.59-1.45,1.59-2.58,0-1.6-1.3-2.9-2.9-2.9-1.13,0-2.09,.65-2.58,1.59-.48-.94-1.45-1.59-2.58-1.59-1.6,0-2.9,1.3-2.9,2.9,0,1.13,.65,2.09,1.59,2.58-.94,.48-1.59,1.45-1.59,2.58s.65,2.09,1.59,2.58c-.94,.48-1.59,1.45-1.59,2.58s.65,2.09,1.59,2.58c-.94,.48-1.59,1.45-1.59,2.58,0,1.6,1.3,2.9,2.9,2.9,1.13,0,2.09-.65,2.58-1.59,.48,.94,1.45,1.59,2.58,1.59,1.6,0,2.9-1.3,2.9-2.9,0-1.13-.65-2.09-1.59-2.58,.94-.48,1.59-1.45,1.59-2.58s-.65-2.09-1.59-2.58c.94-.48,1.59-1.45,1.59-2.58Zm-2.9-7.54c1.32,0,2.39,1.07,2.39,2.39s-1.07,2.39-2.39,2.39-2.39-1.07-2.39-2.39,1.07-2.39,2.39-2.39Zm-1.31,4.97c-.54,.28-.98,.72-1.26,1.26-.28-.54-.72-.98-1.26-1.26,.54-.28,.98-.72,1.26-1.26,.28,.54,.72,.98,1.26,1.26Zm0,5.15c-.54,.28-.98,.72-1.26,1.26-.28-.54-.72-.98-1.26-1.26,.54-.28,.98-.72,1.26-1.26,.28,.54,.72,.98,1.26,1.26ZM4.53,5.57c0-1.32,1.07-2.39,2.39-2.39s2.39,1.07,2.39,2.39-1.07,2.39-2.39,2.39-2.39-1.07-2.39-2.39Zm0,5.15c0-1.32,1.07-2.39,2.39-2.39s2.39,1.07,2.39,2.39-1.07,2.39-2.39,2.39-2.39-1.07-2.39-2.39Zm0,5.15c0-1.32,1.07-2.39,2.39-2.39s2.39,1.07,2.39,2.39-1.07,2.39-2.39,2.39-2.39-1.07-2.39-2.39Zm2.39,7.54c-1.32,0-2.39-1.07-2.39-2.39s1.07-2.39,2.39-2.39,2.39,1.07,2.39,2.39-1.07,2.39-2.39,2.39Zm1.31-4.97c.54-.28,.98-.72,1.26-1.26,.28,.54,.72,.98,1.26,1.26-.54,.28-.98,.72-1.26,1.26-.28-.54-.72-.98-1.26-1.26Zm6.23,2.58c0,1.32-1.07,2.39-2.39,2.39s-2.39-1.07-2.39-2.39,1.07-2.39,2.39-2.39,2.39,1.07,2.39,2.39Zm0-5.15c0,1.32-1.07,2.39-2.39,2.39s-2.39-1.07-2.39-2.39,1.07-2.39,2.39-2.39,2.39,1.07,2.39,2.39Zm-2.39-2.76c-1.32,0-2.39-1.07-2.39-2.39s1.07-2.39,2.39-2.39,2.39,1.07,2.39,2.39-1.07,2.39-2.39,2.39Z"/>
    <path class="cls-1" d="M11.9,10.73c0,.09,.08,.17,.17,.17s.17-.08,.17-.17-.08-.17-.17-.17-.17,.08-.17,.17Z"/>
    <path class="cls-1" d="M12.08,8.85c-1.04,0-1.88,.84-1.88,1.88s.84,1.88,1.88,1.88,1.88-.84,1.88-1.88-.84-1.88-1.88-1.88Zm-.62,.52c.17-.1,.4-.15,.62-.15h0c.22,0,.45,.05,.62,.15,.07,.04,.08,.15,.06,.23-.02,.08-.15,.27-.21,.3-.05,.03-.14,.04-.18,.03-.04,0-.19-.06-.29-.06h0c-.1,0-.25,.05-.29,.06-.04,0-.13,0-.18-.03-.05-.03-.18-.22-.21-.3-.02-.08-.01-.19,.06-.23Zm-.86,1.53c-.04-.19-.02-.43,.05-.64h0c.07-.21,.19-.41,.34-.54,.06-.06,.17-.03,.24,.02,.07,.05,.21,.23,.22,.29,0,.06,0,.14-.03,.18-.02,.04-.12,.16-.15,.26h0c-.03,.1-.03,.26-.03,.3,0,.04-.04,.12-.08,.16-.04,.04-.27,.1-.35,.1-.08,0-.19-.05-.2-.13Zm1.37,1.14c-.03,.08-.1,.16-.19,.15-.2-.02-.41-.11-.59-.24h0c-.18-.13-.33-.31-.41-.49-.03-.07,.02-.17,.09-.22,.07-.05,.28-.13,.34-.12,.06,0,.13,.05,.16,.08,.03,.03,.12,.16,.2,.22h0c.08,.06,.24,.1,.27,.12,.04,.02,.1,.08,.13,.13s.02,.29-.01,.36Zm-.4-1.31c0-.28,.23-.51,.51-.51s.51,.23,.51,.51-.23,.51-.51,.51-.51-.23-.51-.51Zm1.4,1.22h0c-.18,.13-.39,.22-.59,.24-.08,.01-.16-.07-.18-.15-.03-.08-.04-.31-.01-.36,.03-.05,.09-.11,.13-.13s.19-.06,.27-.12h0c.08-.06,.17-.19,.2-.22,.03-.03,.1-.07,.16-.08s.28,.07,.34,.12c.07,.05,.12,.15,.09,.22-.08,.18-.23,.36-.41,.49Zm.39-.92c-.08,0-.31-.06-.35-.1-.04-.04-.08-.12-.08-.16,0-.04,0-.2-.03-.3h0c-.03-.1-.13-.22-.15-.26-.02-.04-.04-.12-.03-.18s.15-.24,.22-.29c.07-.05,.18-.07,.24-.02,.15,.13,.27,.33,.34,.54h0c.07,.21,.09,.44,.05,.64-.02,.08-.12,.13-.2,.13Z"/>
  </g>
</svg>