<?xml version="1.0" encoding="UTF-8"?>
<svg id="_图层_1" data-name="图层 1" xmlns="http://www.w3.org/2000/svg" viewBox="0 0 19 26">
  <defs>
    <style>
      .cls-1 {
        fill: #005529;
      }

      .cls-2 {
        fill: #93989c;
      }

      .cls-3 {
        fill: #f5f6f7;
      }
    </style>
  </defs>
  <g>
    <rect class="cls-3" x=".12" y=".13" width="18.75" height="25.75" rx="1.88" ry="1.88"/>
    <path class="cls-2" d="M17,.25c.96,0,1.75,.79,1.75,1.75V24c0,.96-.79,1.75-1.75,1.75H2c-.96,0-1.75-.79-1.75-1.75V2C.25,1.04,1.04,.25,2,.25h15M17,0H2C.9,0,0,.9,0,2V24C0,25.1,.9,26,2,26h15c1.1,0,2-.9,2-2V2C19,.9,18.1,0,17,0h0Z"/>
  </g>
  <path class="cls-1" d="M15.83,10.03v-1.26s-.02-.23,.06-.34c.11-.17,.61-.4,.61-.98s-.49-.81-.61-.98c-.08-.12-.06-.34-.06-.34v-1.07s-.02-.38,.08-.52c.16-.2,.54-.38,.53-.82-.01-.36-.28-.61-.7-.68-.24-.04-.36-.4-1.02-.4s-.78,.36-1.02,.4c-.42,.07-.69,.32-.7,.68-.02,.43,.37,.61,.53,.82,.11,.14,.08,.52,.08,.52v1.07s.02,.23-.06,.34c-.11,.17-.61,.4-.61,.98s.49,.81,.61,.98c.08,.12,.06,.34,.06,.34v.46c-.07,.07-.18,.12-.34,.04l-.59-.49s-.18-.13-.22-.36c-.04-.2,.41-.77,0-1.18-.36-.36-.92-.07-1.07-.05-.18,.03-.34,.03-.51-.15-.05-.05-.07-.2-.03-.29,.06-.11,.34-.2,.34-.7,0-.38-.6-.55-.91-.55-.28,0-.24,.13-.77,.13s-.49-.13-.77-.13c-.31,0-.91,.17-.91,.55,0,.5,.27,.59,.34,.7,.05,.09,.03,.24-.03,.29-.18,.17-.34,.18-.51,.15-.15-.02-.71-.32-1.07,.05-.41,.41,.04,.98,0,1.18-.04,.23-.22,.36-.22,.36l-.59,.49c-.16,.08-.27,.03-.34-.04v-.46s-.02-.23,.06-.34c.11-.17,.61-.4,.61-.98s-.49-.81-.61-.98c-.08-.12-.06-.34-.06-.34v-1.07s-.02-.38,.08-.52c.16-.2,.54-.38,.53-.82-.01-.36-.28-.61-.7-.68-.24-.04-.36-.4-1.02-.4s-.78,.36-1.02,.4c-.42,.07-.69,.32-.7,.68-.02,.43,.37,.61,.53,.82,.11,.14,.08,.52,.08,.52v1.07s.02,.23-.06,.34c-.11,.17-.61,.4-.61,.98s.49,.81,.61,.98c.08,.12,.06,.34,.06,.34v1.26s.03,.38-.08,.52c-.23,.28-.65,.52-.52,.9,.14,.4,.38,.65,.8,.58,.38-.07,.48-.3,.92-.3s.54,.23,.92,.3c.42,.07,.66-.18,.8-.58,.01-.03,0-.06,0-.09h.02s-.04-.49,.22-.75l1.03-.88s.07-.06,.2-.11c.3-.12,.52,.17,.88,.19,.86,.04,.69-.82,.62-1.08-.11-.45,.3-.65,.52-.65s.67,.2,.52,.65c-.08,.26-.23,1.12,.62,1.08,.36-.02,.58-.31,.88-.19,.13,.05,.2,.11,.2,.11l1.03,.88c.26,.25,.22,.76,.22,.76h.02s0,.05,0,.08c.14,.4,.38,.65,.8,.58,.38-.07,.48-.3,.92-.3s.54,.23,.92,.3c.42,.07,.66-.18,.8-.58,.13-.38-.29-.62-.52-.9-.11-.13-.08-.52-.08-.52ZM3.78,3.71c.04-.35,.22-.5,.51-.5s.47,.16,.51,.5c.04,.34-.09,.47-.13,.56-.04,.09-.04,.27-.04,.27v1.82c0,.15-.09,.26-.19,.26h-.27c-.1,0-.19-.12-.19-.26v-1.82s0-.17-.04-.27c-.04-.09-.17-.22-.13-.56Zm.83,7.34c0,.12-.1,.22-.22,.22h-.22c-.12,0-.22-.1-.22-.22v-2.55c0-.12,.1-.22,.22-.22h.22c.12,0,.22,.1,.22,.22v2.55Zm.36-3.26c0,.13-.11,.24-.24,.24h-.9c-.13,0-.24-.11-.24-.24v-.02c0-.13,.11-.24,.24-.24h.9c.13,0,.24,.11,.24,.24v.02Zm0-.67c0,.13-.11,.24-.24,.24h-.9c-.13,0-.24-.11-.24-.24v-.02c0-.13,.11-.24,.24-.24h.9c.13,0,.24,.11,.24,.24v.02Zm2.24,2.03l-1.63,1.39c-.09,.08-.22,.07-.3-.02l-.02-.03c-.08-.09-.07-.22,.02-.29l1.63-1.39c.09-.08,.22-.07,.3,.02l.02,.03c.08,.09,.07,.22-.02,.29Zm.92-.21h-.01c-.1,.1-.26,.09-.35-.02l-.58-.66c-.09-.1-.08-.26,.03-.34h.01c.1-.1,.26-.09,.35,.02l.58,.66c.09,.1,.08,.26-.03,.34Zm2.47-.95l-1.11-.96-1.11,.96c-.07,.06-.18,.06-.25-.01l-.08-.08c-.06-.07-.06-.18,.01-.24l1.14-.99s.03-.02,.03-.03v-.62c0-.07,.07-.12,.14-.12h.2c.07,0,.14,.05,.14,.12v.62s.02,.01,.03,.03l1.14,.99c.07,.06,.08,.17,.02,.24l-.08,.08c-.06,.07-.17,.08-.25,.01Zm.61,.93c-.09,.1-.25,.11-.35,.03h-.01c-.1-.1-.12-.25-.03-.35l.58-.66c.09-.1,.25-.11,.35-.03h.01c.1,.1,.12,.25,.03,.35l-.58,.66Zm2.52,1.58l-.02,.03c-.08,.09-.21,.1-.3,.02l-1.63-1.39c-.09-.08-.1-.21-.02-.29l.02-.03c.08-.09,.21-.1,.3-.02l1.63,1.39c.09,.08,.1,.21,.02,.29Zm.47-6.79c.04-.35,.22-.5,.51-.5s.47,.16,.51,.5c.04,.34-.09,.47-.13,.56-.04,.09-.04,.27-.04,.27v1.82c0,.15-.09,.26-.19,.26h-.27c-.1,0-.19-.12-.19-.26v-1.82s0-.17-.04-.27c-.04-.09-.17-.22-.13-.56Zm.83,7.34c0,.12-.1,.22-.22,.22h-.22c-.12,0-.22-.1-.22-.22v-2.55c0-.12,.1-.22,.22-.22h.22c.12,0,.22,.1,.22,.22v2.55Zm.36-3.26c0,.13-.11,.24-.24,.24h-.9c-.13,0-.24-.11-.24-.24v-.02c0-.13,.11-.24,.24-.24h.9c.13,0,.24,.11,.24,.24v.02Zm0-.67c0,.13-.11,.24-.24,.24h-.9c-.13,0-.24-.11-.24-.24v-.02c0-.13,.11-.24,.24-.24h.9c.13,0,.24,.11,.24,.24v.02Z"/>
  <path class="cls-1" d="M15.83,21.36v-1.26s-.02-.23,.06-.34c.11-.17,.61-.4,.61-.98s-.49-.81-.61-.98c-.08-.12-.06-.34-.06-.34v-1.07s-.02-.38,.08-.52c.16-.2,.54-.38,.53-.82-.01-.36-.28-.61-.7-.68-.24-.04-.36-.4-1.02-.4s-.78,.36-1.02,.4c-.42,.07-.69,.32-.7,.68,0,0,.02,.48-.24,.74l-1.03,.88s-.07,.06-.2,.11c-.3,.12-.52-.17-.88-.19-.86-.04-.71,.82-.62,1.08,.14,.45-.3,.65-.52,.65s-.64-.2-.52-.65c.07-.26,.23-1.12-.62-1.08-.36,.02-.58,.31-.88,.19-.13-.05-.2-.11-.2-.11l-1.03-.88c-.26-.25-.24-.74-.24-.74-.01-.36-.28-.61-.7-.68-.24-.04-.36-.4-1.02-.4s-.78,.36-1.02,.4c-.42,.07-.69,.32-.7,.68-.02,.43,.37,.61,.53,.82,.11,.14,.08,.52,.08,.52v1.07s.02,.23-.06,.34c-.11,.17-.61,.4-.61,.98s.49,.81,.61,.98c.08,.12,.06,.34,.06,.34v1.26s.03,.38-.08,.52c-.23,.28-.65,.52-.52,.9,.14,.4,.38,.65,.8,.58,.38-.07,.48-.3,.92-.3s.54,.23,.92,.3c.42,.07,.66-.18,.8-.58,.13-.38-.29-.62-.52-.9-.11-.13-.08-.52-.08-.52v-1.26s-.02-.23,.06-.34c.11-.17,.61-.4,.61-.98s-.49-.81-.61-.98c-.08-.12-.06-.34-.06-.34v-.28c.07-.07,.18-.12,.34-.04l.59,.49s.18,.13,.22,.36c.04,.2-.41,.77,0,1.18,.36,.36,.92,.07,1.07,.05,.18-.03,.34-.03,.51,.15,.05,.05,.07,.2,.03,.29-.06,.11-.34,.2-.34,.7,0,.38,.6,.54,.91,.54,.28,0,.24-.13,.77-.13s.49,.13,.77,.13c.31,0,.91-.17,.91-.54,0-.5-.27-.59-.34-.7-.05-.09-.03-.24,.03-.29,.18-.17,.34-.18,.51-.15,.15,.02,.71,.32,1.07-.05,.41-.41-.04-.98,0-1.18,.04-.23,.22-.36,.22-.36l.59-.49c.16-.08,.27-.03,.34,.04v.28s.02,.23-.06,.34c-.11,.17-.61,.4-.61,.98s.49,.81,.61,.98c.08,.12,.06,.34,.06,.34v1.26s.03,.38-.08,.52c-.23,.28-.65,.52-.52,.9,.14,.4,.38,.65,.8,.58,.38-.07,.48-.3,.92-.3s.54,.23,.92,.3c.42,.07,.66-.18,.8-.58,.13-.38-.29-.62-.52-.9-.11-.13-.08-.52-.08-.52ZM3.78,15.04c.04-.35,.22-.5,.51-.5s.47,.16,.51,.5c.04,.34-.09,.47-.13,.56s-.04,.27-.04,.27v1.82c0,.15-.09,.26-.19,.26h-.27c-.1,0-.19-.12-.19-.26v-1.82s0-.17-.04-.27c-.04-.09-.17-.22-.13-.56Zm.83,7.31c0,.12-.1,.22-.22,.22h-.22c-.12,0-.22-.1-.22-.22v-2.53c0-.12,.1-.22,.22-.22h.22c.12,0,.22,.1,.22,.22v2.53Zm.36-3.23c0,.13-.11,.24-.24,.24h-.9c-.13,0-.24-.11-.24-.24v-.02c0-.13,.11-.24,.24-.24h.9c.13,0,.24,.11,.24,.24v.02Zm0-.67c0,.13-.11,.24-.24,.24h-.9c-.13,0-.24-.11-.24-.24v-.02c0-.13,.11-.24,.24-.24h.9c.13,0,.24,.11,.24,.24v.02Zm1.94-.86l-1.63-1.39c-.09-.08-.1-.21-.02-.29l.02-.03c.08-.09,.21-.1,.3-.02l1.63,1.39c.09,.08,.1,.21,.02,.29l-.02,.03c-.08,.09-.21,.1-.3,.02Zm.67,.88c-.09,.1-.25,.11-.35,.03h-.01c-.1-.1-.12-.25-.03-.35l.58-.66c.09-.1,.25-.11,.35-.03h.01c.1,.1,.12,.25,.03,.35l-.58,.66Zm3.33,.28l-1.14,.99s-.03,.02-.03,.03v.62c0,.07-.07,.12-.14,.12h-.2c-.07,0-.14-.05-.14-.12v-.62s-.02-.01-.03-.03l-1.14-.99c-.07-.06-.08-.17-.01-.24l.08-.08c.06-.07,.17-.08,.25-.01l1.11,.96,1.11-.96c.07-.06,.18-.06,.25,.01l.08,.08c.06,.07,.06,.18-.02,.24Zm.86-.27h-.01c-.1,.1-.26,.09-.35-.02l-.58-.66c-.09-.1-.08-.26,.03-.34h.01c.1-.1,.26-.09,.35,.02l.58,.66c.09,.1,.08,.26-.03,.34Zm1.94-2.28l-1.63,1.39c-.09,.08-.22,.07-.3-.02l-.02-.03c-.08-.09-.07-.22,.02-.29l1.63-1.39c.09-.08,.22-.07,.3,.02l.02,.03c.08,.09,.07,.22-.02,.29Zm.49-1.16c.04-.35,.22-.5,.51-.5s.47,.16,.51,.5c.04,.34-.09,.47-.13,.56-.04,.09-.04,.27-.04,.27v1.82c0,.15-.09,.26-.19,.26h-.27c-.1,0-.19-.12-.19-.26v-1.82s0-.17-.04-.27c-.04-.09-.17-.22-.13-.56Zm.83,7.31c0,.12-.1,.22-.22,.22h-.22c-.12,0-.22-.1-.22-.22v-2.53c0-.12,.1-.22,.22-.22h.22c.12,0,.22,.1,.22,.22v2.53Zm.36-3.23c0,.13-.11,.24-.24,.24h-.9c-.13,0-.24-.11-.24-.24v-.02c0-.13,.11-.24,.24-.24h.9c.13,0,.24,.11,.24,.24v.02Zm0-.67c0,.13-.11,.24-.24,.24h-.9c-.13,0-.24-.11-.24-.24v-.02c0-.13,.11-.24,.24-.24h.9c.13,0,.24,.11,.24,.24v.02Z"/>
</svg>