<?xml version="1.0" encoding="UTF-8"?>
<svg id="_图层_1" data-name="图层 1" xmlns="http://www.w3.org/2000/svg" viewBox="0 0 19 26">
  <defs>
    <style>
      .cls-1 {
        fill: #93989c;
      }

      .cls-2 {
        fill: #881c21;
      }

      .cls-3 {
        fill: #f5f6f7;
      }

      .cls-4 {
        fill: #231815;
      }
    </style>
  </defs>
  <g>
    <rect class="cls-3" x=".12" y=".13" width="18.75" height="25.75" rx="1.88" ry="1.88"/>
    <path class="cls-1" d="M17,.25c.96,0,1.75,.79,1.75,1.75V24c0,.96-.79,1.75-1.75,1.75H2c-.96,0-1.75-.79-1.75-1.75V2C.25,1.04,1.04,.25,2,.25h15M17,0H2C.9,0,0,.9,0,2V24C0,25.1,.9,26,2,26h15c1.1,0,2-.9,2-2V2C19,.9,18.1,0,17,0h0Z"/>
  </g>
  <path class="cls-4" d="M9.75,7.14c0,.55,.05,.88,.14,.97,.17,.24,.47,.47,.92,.7,.44,.23,.82,.34,1.13,.34,.36,0,.66-.08,.9-.25,.02-.14,.04-.37,.04-.68,0-.24-.02-.58-.07-1.03-.05-.44-.07-.79-.07-1.03,.19,0,.43,.35,.7,1.06,.28,.71,.44,1.07,.49,1.1,.34,.1,.66,.25,.97,.47,.31,.22,.47,.46,.47,.72,0,.38-.31,.71-.94,.99-.62,.28-1.24,.41-1.83,.41-1.1,0-1.98-.25-2.63-.76-.7-.55-1.04-1.15-1.04-1.8,0-1.01,.07-1.78,.2-2.32,.13-.54,.2-.83,.2-.88s-.02-.17-.07-.36c-.17,0-.28,.04-.32,.13-.05,.08-.1,.34-.14,.77-.07,.77-.8,1.62-2.18,2.55-1.38,.94-2.34,1.4-2.9,1.4-.12,0-.23-.05-.32-.14,.05-.07,.3-.22,.76-.43,.46-.22,1-.56,1.64-1.03,.64-.47,1.17-1.04,1.6-1.71-.05-.1-.2-.23-.45-.41-.25-.18-.38-.34-.38-.49,0-.1,.12-.21,.36-.34,.24-.13,.4-.28,.47-.45,0-.17-.03-.39-.09-.67-.06-.28-.09-.47-.09-.59,0-.31,.08-.53,.25-.65,.81,0,1.37,.29,1.65,.86,.02,0,.07,0,.14,.02,.07,.01,.13,.02,.18,.02,.17-.34,.28-.5,.32-.5,.07,0,.15,.01,.23,.04,.08,.02,.16,.04,.23,.04,.26,0,.65-.16,1.17-.47,.52-.31,.86-.47,1.03-.47,.31,0,.47,.29,.47,.86,0,.19-.23,.47-.68,.83-.02,.05-.11,.05-.25,.02-.14-.04-.24-.05-.29-.05-.55,0-1.03,.08-1.44,.25-.31,1.18-.47,2.16-.47,2.95Z"/>
  <path class="cls-2" d="M8.02,19.76c-.1,0-.29,.06-.58,.18l-.14,.29c-.12,.19-.23,.34-.32,.43-.36-.22-.54-.91-.54-2.09,0-.91,.05-1.57,.14-1.98,.89-.14,1.86-.36,2.93-.65,1.07-.29,1.73-.43,2-.43,.5,0,.76,.17,.76,.5l-.25,.94c-.17,.62-.25,1.27-.25,1.94,0,.38,.02,.79,.07,1.22,.46,.02,.95,.1,1.48,.22,.53,.12,1.07,.36,1.64,.72,.56,.36,.85,.78,.85,1.26,0,.41-.16,.72-.47,.94-.31,.22-.71,.32-1.19,.32-.12,0-.39,.08-.81,.23-.42,.16-.74,.23-.95,.23-.31,0-.88-.16-1.71-.49-.83-.32-1.41-.59-1.74-.81-.12,.05-.25,.13-.38,.23-.13,.11-.23,.16-.31,.16-.12,0-.5-.1-1.15-.29,0,.02,0,.1-.02,.22-.01,.12-.02,.21-.04,.27-.01,.06-.02,.13-.04,.22-.01,.08-.04,.15-.09,.2-.05,.05-.11,.07-.18,.07s-.15-.05-.23-.14c-.08-.1-.16-.22-.22-.38-.06-.16-.12-.31-.18-.45-.06-.14-.11-.3-.16-.47-.05-.17-.08-.28-.11-.32h-.43c-.46,0-.88-.07-1.26-.22-.38-.14-.58-.35-.58-.61,0-.02,0-.06,.02-.11,.01-.05,.02-.1,.02-.14,.22,0,.52,.02,.9,.07,.38,.05,.68,.07,.9,.07h.14c-.02-.19-.07-.46-.14-.81-.07-.35-.13-.64-.18-.86-.05-.23-.07-.4-.07-.52,0-.05,.05-.12,.14-.22,.29,.05,.5,.19,.63,.41,.13,.23,.25,.55,.34,.95,.1,.41,.22,.74,.36,1.01,.34,0,.79-.1,1.37-.29,0-.07,0-.24,.02-.5,.01-.26,.02-.44,.02-.54Zm4.5-4.93c-.72,0-1.79,.21-3.2,.63-1.42,.42-2.35,.63-2.81,.63-1.44,0-2.37-.26-2.81-.79,.43-.26,.76-.4,.97-.4,.24,0,.6,.06,1.1,.18,.49,.12,.9,.18,1.24,.18,.48,0,.8-.05,.97-.14,.17-.1,.25-.31,.25-.65,0-.07-.07-.13-.2-.16-.13-.04-.22-.09-.27-.16,0-.1,.02-.17,.05-.22,.04-.05,.1-.11,.18-.2,.08-.08,.15-.17,.2-.27,.05-.07,.14-.22,.27-.45,.13-.23,.24-.38,.32-.47,.08-.08,.19-.13,.31-.13,.17,0,.25,.12,.25,.36,0,.19-.02,.39-.05,.59-.04,.2-.1,.43-.18,.68-.08,.25-.14,.45-.16,.59,.05,.12,.13,.18,.25,.18,.14,0,.35-.28,.63-.83,.28-.55,.41-.95,.41-1.19,0-.14-.08-.28-.23-.41-.16-.13-.26-.23-.31-.31,.19-.43,.61-.77,1.26-1.01,.48,.17,.72,.61,.72,1.33,0,.24-.1,.53-.31,.86-.2,.34-.32,.65-.34,.94,.19-.02,.46-.07,.79-.14,.34-.07,.67-.13,1.01-.16,.34-.04,.7-.05,1.08-.05,.77,0,1.21,.08,1.33,.25-.17,.34-.43,.59-.79,.76-.31-.02-.96-.04-1.94-.04Zm-5.76,7.01c.1,.24,.18,.43,.25,.58,.34-.07,.72-.2,1.15-.4-.12-.14-.18-.34-.18-.58l-1.22,.4Zm.54-4.75v.65h.07l.07,.04,.65-.11c0-.19,.02-.43,.07-.72l-.86,.14Zm.72,1.19c-.14,.02-.3,.05-.47,.07-.14,0-.22,.01-.23,.04-.01,.02-.02,.07-.02,.14v.14s0,.13,.02,.25c.01,.12,.02,.2,.02,.25,.12,0,.35-.02,.68-.07v-.83Zm.9-1.51c0,.12-.02,.25-.05,.4-.04,.14-.05,.26-.05,.36,.24-.05,.52-.1,.83-.16,.31-.06,.54-.1,.68-.13,0-.12,0-.26,.02-.43,.01-.17,.02-.3,.02-.4-.22,.05-.47,.11-.76,.2-.29,.08-.52,.14-.68,.16Zm-.11,1.37v.79c.34-.02,.81-.13,1.44-.32,0-.36,.01-.64,.04-.83-.53,.17-1.02,.29-1.47,.36Zm.07,1.44v.97c.53-.1,.99-.23,1.4-.4,0-.41-.01-.72-.04-.94-.12,.05-.33,.11-.63,.18-.3,.07-.55,.13-.74,.18Zm.04,1.62c0,.38,.06,.58,.18,.58,.1,0,.2-.02,.31-.05,.11-.04,.25-.09,.43-.16,.18-.07,.35-.13,.52-.18-.05-.26-.06-.46-.04-.58-.14,.02-.61,.16-1.4,.4Zm3.02-.43s.02,.16,.05,.32c.04,.17,.05,.31,.05,.43s-.04,.25-.11,.4c-.46,.31-.9,.47-1.33,.47-.02-.02-.06-.1-.11-.22-.05-.12-.08-.2-.11-.25-.14,.05-.31,.13-.49,.25-.18,.12-.33,.2-.45,.25,.1,.14,.34,.29,.72,.45,.38,.16,.68,.23,.9,.23,.14,0,.28-.03,.41-.09,.13-.06,.28-.15,.43-.27,.16-.12,.28-.2,.38-.25,.12-.05,.35-.08,.7-.11,.35-.02,.61-.09,.79-.2,.18-.11,.27-.29,.27-.56,0-.19-.25-.38-.76-.56-.5-.18-.96-.28-1.37-.31Z"/>
</svg>