<?xml version="1.0" encoding="UTF-8"?>
<svg id="_图层_1" data-name="图层 1" xmlns="http://www.w3.org/2000/svg" viewBox="0 0 19 26">
  <defs>
    <style>
      .cls-1 {
        fill: #005529;
      }

      .cls-2 {
        fill: #93989c;
      }

      .cls-3 {
        fill: #881c21;
      }

      .cls-4 {
        fill: #f5f6f7;
      }
    </style>
  </defs>
  <g>
    <rect class="cls-4" x=".12" y=".12" width="18.75" height="25.75" rx="1.88" ry="1.88"/>
    <path class="cls-2" d="M17,.25c.96,0,1.75,.79,1.75,1.75V24c0,.96-.79,1.75-1.75,1.75H2c-.96,0-1.75-.79-1.75-1.75V2C.25,1.04,1.04,.25,2,.25h15M17,0H2C.9,0,0,.9,0,2V24C0,25.1,.9,26,2,26h15c1.1,0,2-.9,2-2V2C19,.9,18.1,0,17,0h0Z"/>
  </g>
  <g>
    <path class="cls-1" d="M.86,11.86c.02-.06,.03-.12,.07-.17,.09-.13,.23-.17,.37-.22,.19-.06,.39-.06,.59-.06,.12,0,.2,.05,.25,.16,.03,.06,.07,.12,.09,.18,.06,.13,.17,.18,.3,.22,.09,.02,.16,.06,.21,.14,.02,.03,.06,.04,.1,.07-.06,.03-.1,.05-.15,.07-.04,.02-.08,.03-.11,.05-.14,.11-.31,.17-.48,.2-.26,.05-.52,.01-.78-.03-.12-.02-.22-.07-.31-.15-.08-.08-.12-.17-.14-.28,0,0,0-.02,0-.02v-.16Z"/>
    <path class="cls-3" d="M8.09,15.7c.12,.04,.24,.08,.35,.13,.22,.09,.43,.19,.6,.35,.1,.09,.2,.11,.32,.12,.16,.03,.32,.03,.49,.03,.18,0,.35,.05,.52,.12,.17,.07,.32,.18,.44,.32,.06,.06,.1,.14,.15,.21,0,0,0,0-.01,.01-.01,0-.03-.02-.04-.03-.17-.12-.36-.17-.56-.19-.23-.02-.45-.02-.68-.03-.02,0-.04,0-.07,0,.04,.06,.08,.11,.1,.16,.02,.05,.04,.1,.05,.16,.01,.09,.01,.17,.01,.27,.48-.07,.82,.11,1,.57-.01,0-.02-.02-.03-.03-.13-.16-.31-.2-.5-.2-.14,0-.28,.02-.42,.03-.04,0-.06,.03-.08,.07-.02,.06-.04,.12-.07,.18-.03,.07-.07,.09-.14,.06-.11-.04-.18-.14-.17-.26,0-.17-.01-.35-.06-.51-.04-.15-.11-.28-.19-.4-.13-.19-.31-.35-.48-.51-.14-.13-.32-.2-.51-.25-.22-.05-.45-.1-.68-.14-.14-.02-.28-.03-.42-.04-.22,0-.43,0-.65-.01-.13,0-.25,.03-.37,.07-.2,.07-.39,.17-.56,.28-.13,.09-.26,.2-.34,.34-.05,.09-.12,.17-.16,.27-.06,.14-.08,.28-.05,.44,.03,.17,.11,.32,.21,.45,.06,.08,.14,.14,.22,.19,.21,.15,.43,.29,.68,.36,.19,.05,.38,.06,.57,.04,.03,0,.06,0,.09,0,.21-.01,.43-.03,.64-.04,.32-.02,.62-.09,.93-.15,.14-.02,.3-.02,.44-.02,.34,0,.68,.04,1.02,.11,.21,.04,.41,.1,.62,.15,.16,.04,.33,.08,.49,.14,.27,.1,.51,.26,.68,.5,.07,.09,.12,.19,.18,.28,.06,.09,.13,.18,.19,.28,.01,.02,.02,.03,.03,.06,0,0-.02-.02-.03-.02-.16-.16-.32-.32-.5-.45-.24-.17-.49-.3-.79-.32-.14,0-.28-.04-.42-.05-.14-.01-.28-.03-.42-.03-.12,0-.25,0-.37,0-.31,.01-.6,.07-.89,.18-.34,.12-.68,.23-1.03,.29-.2,.03-.4,.05-.61,.07-.26,.02-.51,0-.77-.03-.29-.03-.56-.08-.83-.18-.21-.08-.42-.17-.6-.3-.21-.15-.36-.35-.5-.57-.09-.15-.12-.31-.14-.48-.04-.28,.03-.55,.12-.81,.05-.15,.11-.29,.22-.41,.1-.11,.2-.22,.31-.33,.25-.23,.55-.36,.87-.47,.17-.06,.35-.09,.53-.13,.01,0,.02,0,.05-.02-.11-.08-.17-.2-.21-.32-.05-.13-.08-.27-.11-.41-.02-.08-.02-.17-.02-.25-.01-.23,.05-.44,.2-.61,.08-.09,.18-.17,.28-.23,.25-.16,.53-.25,.81-.33,.16-.04,.33-.05,.5-.07,.15-.01,.3-.02,.45,0,.23,.03,.45,.08,.68,.13,.11,.02,.22,.06,.34,.1,0-.04,.02-.08,.03-.11,.05-.23,.14-.45,.27-.65,.09-.13,.2-.24,.32-.33,.18-.14,.38-.25,.61-.28,.16-.02,.33-.02,.5-.02,.22,0,.43,.08,.63,.19,.12,.07,.24,.15,.35,.25,.27,.23,.5,.51,.69,.8,.09,.14,.18,.29,.23,.46,.01,.04,.01,.08,.02,.13,.09-.11,.22-.1,.33-.14,.12-.05,.24-.03,.37,0,.15,.03,.27,.1,.39,.17,.09,.05,.15,.13,.17,.23,.02,.06,.05,.12,.06,.18,0,.08,0,.16-.01,.23-.02,.12-.06,.24-.09,.37-.02,.11-.05,.21-.16,.27-.01,0-.02,.02-.03,.03,.05,.01,.09,.03,.13,.04,.07,.02,.13,.04,.16,.11,.02,.04,.06,.08,.09,.12,.04,.05,.07,.11,.04,.18-.04,.09-.02,.18-.03,.27,0,.04-.01,.08-.02,.12-.01,.04-.04,.07-.08,.1-.1,.07-.21,.07-.32,.1-.07,.02-.17-.07-.16-.15,0-.08,.02-.15,.03-.23,0-.04,.02-.09,0-.13-.02-.08-.11-.12-.19-.1-.06,.02-.13,.03-.19,.05-.13,.05-.25,0-.37-.03-.1-.04-.14-.13-.19-.21-.03-.04-.04-.1-.06-.15-.03-.09,0-.16,.04-.23,.03-.07,.07-.15,.1-.22,.04-.09,.12-.13,.19-.19,.1-.09,.21-.15,.33-.22,.05-.03,.08-.1,.12-.15-.13-.16-.29-.17-.46-.13-.05,.01-.11,.02-.16,.04-.02,.01-.05,.04-.05,.07-.03,.18-.08,.36-.17,.52-.03,.05-.09,.1-.14,.14-.07,.06-.13,0-.19-.03-.05-.04-.09-.09-.07-.17,.04-.18,.02-.34-.08-.5-.17-.26-.35-.52-.56-.75-.13-.15-.26-.3-.4-.44-.06-.06-.14-.1-.23-.12-.2-.06-.41-.07-.61-.06-.17,.01-.32,.08-.46,.17-.21,.12-.36,.3-.48,.5-.03,.04-.05,.09-.06,.14,0,.01,0,.04,.01,.05,.09,.07,.11,.18,.15,.28,.01,.03-.02,.08-.03,.12-.02,.05-.05,.11-.08,.16-.02,.03-.05,.06-.08,.08-.05,.04-.1,.08-.16,.11-.04,.02-.08,.02-.11-.01-.02-.03-.03-.07-.03-.11,0-.02,.01-.04,.02-.06,.04-.14-.04-.25-.1-.36,0-.01-.03-.02-.04-.03-.16-.1-.33-.15-.51-.18-.14-.02-.28-.04-.42-.04-.27,0-.53,.03-.78,.14-.23,.1-.43,.26-.6,.45-.03,.03-.04,.08-.05,.13-.03,.18-.04,.36,.03,.53,.02,.04,.06,.08,.09,.12,.15,.2,.35,.33,.6,.39,.1,.02,.21,.03,.32,.04,.17,.02,.34,.03,.51,.05,.04,0,.06,0,.07-.04,.03-.14,.1-.27,.18-.38,.12-.16,.26-.29,.43-.38,.21-.11,.42-.22,.63-.31,.16-.07,.33-.12,.51-.12,.07,0,.14-.02,.22-.02,.22,0,.43,.06,.63,.14,.04,.02,.08,.04,.12,.05,.11,.03,.16,.13,.23,.21,.13,.15,.1,.25-.03,.4-.05,.05-.13,.08-.2,.11-.02,0-.06-.02-.09-.03-.08-.04-.15-.08-.2-.16-.01-.02-.05-.04-.07-.05-.17-.1-.37-.12-.56-.12-.05,0-.1,0-.14,.02-.27,.07-.55,.14-.82,.22-.22,.07-.42,.19-.59,.34-.05,.05-.09,.11-.14,.16Z"/>
    <path class="cls-1" d="M6.83,9.12c.04-.06,.08-.12,.12-.17,.03-.03,.06-.06,.1-.08,.08-.06,.14-.14,.25-.15,.16-.02,.31-.08,.47-.06,.18,.02,.36,.03,.54,.07,.13,.03,.26,.1,.36,.18,.19,.16,.31,.38,.37,.63,.04,.18,.05,.36,.05,.54,0,.22-.03,.43-.12,.63-.07,.15-.16,.28-.29,.38-.19,.14-.41,.22-.64,.26-.05,.01-.1,.03-.16,.04-.09,.02-.18,.05-.26,.07,.01,.08,.03,.17,.04,.26,.02,.15,0,.29-.08,.42-.05,.08-.1,.16-.16,.23-.01,.02-.03,.04-.06,.05-.12,.07-.25,.09-.37,.01-.05-.03-.11-.06-.15-.1-.1-.1-.11-.22-.07-.35,.03-.09,.06-.18,.15-.23,.02-.02,.04-.07,.03-.11-.01-.13-.05-.24-.09-.36-.08-.2-.14-.4-.21-.6-.17-.5-.32-1.01-.45-1.53-.02-.1-.06-.19-.07-.29-.02-.13-.04-.26-.05-.39-.02-.18-.04-.36-.06-.54,0-.09-.02-.18-.02-.27-.04-.45-.04-.9-.03-1.34,0-.2,.03-.4,.06-.6,.04-.32,.13-.62,.22-.92,.07-.25,.13-.5,.21-.75,.1-.3,.23-.6,.41-.86,.11-.16,.23-.31,.36-.45,.22-.23,.48-.4,.77-.52,.11-.05,.22-.09,.33-.13,0,0,.02,0,.03,0-.08,.04-.16,.08-.24,.13-.17,.1-.3,.23-.42,.37-.28,.32-.48,.68-.66,1.06-.1,.21-.19,.43-.27,.66-.1,.28-.18,.56-.27,.84-.02,.08-.03,.16-.03,.24,0,.35-.02,.7-.02,1.05,0,.2,.02,.4,.04,.6,.02,.2,.04,.4,.07,.59,.03,.21,.07,.42,.11,.62,.06,.28,.12,.56,.18,.84,0,0,0,0,0,0Zm.51,1.73c.05-.02,.1-.05,.16-.07,.1-.03,.21-.07,.3-.13,.11-.08,.19-.18,.25-.3,.06-.11,.06-.24,.08-.36,0-.05,.02-.1,.03-.15,.02-.1-.04-.19-.07-.28,0-.03-.04-.05-.06-.06-.06-.02-.12-.04-.18-.05-.14-.03-.29,0-.41,.07-.09,.06-.19,.13-.25,.23-.02,.04-.05,.08-.08,.12-.07,.09-.11,.18-.04,.29,.01,.02,.02,.04,.02,.06,.08,.21,.16,.43,.25,.64Z"/>
    <path class="cls-1" d="M1.79,21.48c.16-.02,.32-.04,.48-.05,.23-.01,.46-.03,.69-.02,.18,0,.36,.04,.55,.05,.1,0,.2,0,.3,0,.01,0,.02,0,.04,0,.15,0,.31-.01,.46-.01,.42,.01,.84,.05,1.24,.21,.07,.03,.14,.06,.21,.09,.03,.01,.07,.01,.1,.02,.11,.02,.23,.03,.34,.06,.04,.01,.08,.06,.12,.08,.01,0,.04,.01,.05,0,.17-.09,.35-.14,.54-.16,.15-.01,.31,0,.47,0,.16,.01,.33,.04,.48,.08,.21,.06,.41,.13,.62,.21,.09,.03,.16,.09,.24,.14,.03,.02,.04,.05,.06,.08,.04,.07,.07,.14,.11,.21,.03,.06,0,.12-.01,.17-.02,.06-.05,.12-.09,.17-.05,.09-.18,.15-.28,.11-.04-.01-.08-.03-.12-.05-.03-.02-.06-.07-.05-.1,0-.05,0-.09-.03-.13-.02-.03-.04-.07-.06-.1-.03-.04-.06-.07-.1-.1-.18-.12-.39-.18-.6-.21-.17-.02-.34-.04-.5-.04-.21,0-.42,.04-.6,.15-.02,0-.03,.03-.04,.04-.04,.08-.07,.17-.11,.25-.01,.03-.03,.05-.05,.07-.16,.2-.36,.34-.6,.44-.04,.02-.08,.03-.11,.05-.2,.1-.39,.05-.59,0-.02,0-.04-.02-.05-.04-.04-.06-.08-.12-.11-.18-.01-.02-.03-.03-.04-.04-.2-.15-.4-.3-.59-.46-.28-.24-.56-.45-.89-.6-.31-.14-.64-.25-.97-.31-.16-.03-.32-.05-.48-.07,0,0,0,0,0-.01Z"/>
    <path class="cls-1" d="M16.26,22.88c-.01-.06-.03-.12-.04-.18-.02-.14-.08-.26-.15-.38-.14-.23-.34-.39-.57-.52-.17-.1-.36-.17-.54-.25-.21-.1-.42-.17-.65-.21-.16-.03-.32-.05-.47-.07-.31-.04-.62-.04-.94-.03-.18,0-.36,.02-.53,.04-.41,.05-.8,.19-1.18,.32-.4,.13-.78,.31-1.13,.55-.06,.04-.11,.08-.17,.13-.03,.02-.04,.05-.05,.09,0,.05-.03,.1-.05,.15-.02,.04-.05,.08-.07,.12-.04,.06-.11,.06-.17,.08-.08,.02-.17,.03-.25,.05-.16,.04-.31-.12-.29-.27,.03-.22,.14-.41,.24-.61,.04-.07,.1-.11,.16-.14,.07-.03,.14-.07,.21-.09,.05-.01,.11,0,.17,0,.02,0,.04,0,.05,0,.3-.23,.63-.41,.98-.54,.29-.11,.58-.21,.88-.29,.16-.05,.33-.06,.5-.09,.21-.03,.42-.05,.64-.06,.22,0,.44,0,.66,0,.15,0,.3,.02,.45,.04,.31,.04,.6,.11,.89,.23,.18,.07,.36,.15,.54,.24,.17,.08,.33,.19,.48,.32,.23,.21,.36,.47,.42,.77,.03,.18,.04,.35,0,.53,0,.02,0,.05,0,.07,0,0-.01,0-.02,0Z"/>
    <path class="cls-3" d="M15.02,17.88c-.07-.07-.11-.15-.2-.18-.23-.09-.48-.13-.72-.16-.46-.06-.91,.02-1.34,.19-.11,.04-.22,.09-.31,.16-.12,.08-.24,.09-.37,.1-.23,.03-.45,.07-.65,.2-.06,.04-.11,.09-.16,.14,0,0-.02,.02-.02,.03,0,0-.01,0-.02,0,.04-.1,.08-.2,.13-.3,.09-.18,.22-.31,.4-.41,.02,0,.03-.03,.05-.04,.25-.26,.54-.47,.87-.61,.26-.11,.53-.2,.81-.23,.13-.01,.26,0,.39,.01,.24,.02,.47,.08,.69,.16,.22,.08,.42,.19,.59,.36,.16,.16,.27,.35,.37,.54,.04,.07,.09,.16,.03,.24-.07,.1-.14,.18-.28,.21-.26,.05-.52,.1-.77,.18-.3,.09-.6,.19-.89,.3-.19,.08-.37,.19-.56,.28-.21,.11-.43,.2-.67,.23-.24,.03-.47,0-.68-.11-.01,0-.02-.01-.04-.03,.08,0,.15-.01,.23-.02,.35-.03,.67-.13,.94-.37,.16-.14,.35-.24,.55-.31,.29-.11,.59-.23,.88-.33,.18-.06,.37-.09,.56-.14,.07-.02,.13-.04,.2-.07Z"/>
    <path class="cls-1" d="M6.61,12.92s-.07-.02-.1-.04c-.27-.1-.56-.16-.85-.2-.35-.05-.7-.05-1.05-.04-.24,0-.48,.05-.71,.07-.14,.01-.25,.09-.36,.17-.15,.11-.3,.23-.43,.36-.2,.18-.28,.42-.33,.67,0,.05-.02,.1-.01,.16,.01,.12-.04,.22-.09,.32-.03,.06-.06,.1-.13,.12-.12,.04-.23,.08-.35,.12-.03,0-.07,0-.1-.02-.05-.02-.1-.04-.13-.08-.05-.08-.07-.17-.06-.27,.03-.18,.03-.35-.05-.52-.03-.07-.03-.14-.02-.21,.03-.21,.16-.36,.27-.53,.09-.13,.2-.25,.33-.33,.3-.21,.64-.33,.99-.4,.24-.05,.49-.07,.73-.05,.37,.02,.74,.05,1.11,.14,.42,.1,.81,.26,1.2,.46,.05,.03,.1,.06,.14,.08,0,0,0,0,0,.01Z"/>
    <path class="cls-1" d="M10.74,21.82c.15-.04,.3-.08,.45-.11,.18-.03,.36-.04,.55-.06,.21-.02,.41,.02,.61,.11,.14,.06,.25,.17,.35,.28,.05,.06,.06,.14,.09,.21,.07,.18,.1,.37,.13,.56,.03,.18,.02,.37,.1,.54,.05,.12,.12,.24,.2,.35,.09,.13,.21,.22,.34,.31,.15,.1,.31,.16,.49,.18,.18,.03,.35,.06,.53,.08,.17,.02,.34,.02,.51,.03,.1,0,.21,0,.31,.01,.31,.01,.63,.03,.94,.03,.33,0,.66-.03,.98-.15,.01,0,.03,0,.05,0-.06,.04-.11,.08-.17,.11-.28,.16-.58,.27-.9,.33-.2,.04-.41,.06-.62,.08-.23,.02-.46,.03-.69,.02-.22,0-.44-.03-.67-.05-.25-.02-.49-.08-.71-.18-.18-.07-.36-.15-.52-.26-.13-.08-.23-.2-.31-.34-.1-.17-.16-.34-.2-.53-.03-.15-.05-.3-.06-.45-.03-.25-.05-.51-.17-.73-.03-.06-.11-.11-.17-.15-.16-.09-.33-.13-.51-.15-.21-.03-.43-.04-.65-.06-.08,0-.17-.01-.25-.02,0,0,0,0,0-.01Z"/>
    <path class="cls-1" d="M7.51,20.43s0,.08,.02,.12c.02,.07,.01,.14,0,.22,0,.03,0,.05,0,.08,0,.05,.01,.11-.02,.15-.03,.04-.05,.08-.07,.12-.03,.05-.06,.08-.12,.1-.1,.03-.21,.08-.31,.11-.13,.04-.25-.01-.37-.07-.05-.03-.11-.05-.14-.09-.03-.04-.06-.11-.06-.16,0-.07,.04-.15,.08-.22,.01-.03,.06-.04,.09-.05,.07-.01,.14-.01,.2-.03,.03,0,.06-.02,.08-.04,.07-.06,.14-.12,.2-.18,.03-.03,.05-.08,.08-.14-.86-.15-1.7-.3-2.54-.41,.02,0,.04,0,.08,0-.09-.02-.17-.03-.25-.04,0,0,0,0,0,0,.02,0,.03,0,.05,0,.14,0,.27,0,.41,0,.12,0,.24,.02,.36,.02,.06,0,.13,0,.19,0,.17,0,.35-.01,.52,0,.16,0,.32,.01,.48,.02,.08,0,.17,0,.25,.01,.2,.02,.4,.03,.6,.05,.21,.03,.42,.06,.63,.1,.06,.01,.13,.04,.19,.07,.1,.05,.22,.07,.33,.09,.2,.04,.4,.11,.58,.22,.12,.08,.24,.18,.26,.34,.02,.11,.06,.22,.08,.33,.02,.15-.03,.28-.11,.4-.1,.14-.25,.2-.4,.28,.02-.06,.04-.1,.06-.14,.03-.1,0-.19-.06-.27-.07-.11-.16-.22-.25-.32-.06-.07-.13-.13-.19-.19-.11-.13-.26-.21-.41-.27-.16-.07-.33-.12-.5-.18Z"/>
    <path class="cls-1" d="M2.99,10.75c.02-.06,.04-.12,.05-.17,.03-.1,.05-.21,.08-.31,.02-.08,.05-.16,.09-.22,.02-.04,.08-.06,.13-.07,.11-.02,.22-.05,.32-.05,.17,0,.34,.01,.5,.11,.17,.11,.28,.26,.29,.47,0,.08-.04,.16-.07,.24-.05,.12-.05,.24,0,.37,.07,.14,.08,.3,.06,.46,0,.07-.03,.15,.04,.21,.02,.01,.02,.07,0,.09-.02,.02-.07,.03-.09,.02-.1-.03-.19-.07-.29-.1-.13-.04-.27-.08-.4-.12-.31-.09-.52-.29-.63-.59-.04-.1-.08-.2-.09-.31Z"/>
    <path class="cls-1" d="M13.87,21.72c.15,.06,.28,.1,.39,.19,.2,.15,.31,.36,.37,.6,.03,.13,.06,.26,.07,.4,0,.06-.02,.12-.03,.18-.01,.13-.07,.24-.16,.34-.09,.1-.12,.22-.16,.34-.02,.07-.06,.11-.13,.14-.09,.03-.18,.07-.26,.11-.12,.05-.23,.01-.34-.02-.13-.04-.19-.12-.24-.24-.04-.1-.04-.19-.02-.29,.06-.3,.23-.54,.41-.77,.1-.13,.17-.28,.17-.45,0-.11-.02-.21-.04-.32,0-.06-.02-.13-.04-.2Z"/>
    <path class="cls-1" d="M16.46,20.57s-.06-.09-.09-.14c-.18-.22-.43-.29-.69-.33-.23-.04-.46-.07-.69-.09-.24-.02-.47-.03-.71-.02-.48,.03-.95,.12-1.41,.29-.17,.06-.34,.13-.48,.24,0,0-.01,0-.01-.01,0,0,0,0,0-.02-.06,.03-.12,.06-.17,.08,0,0,0-.01,0-.02,.09-.06,.19-.13,.28-.19,.2-.12,.4-.24,.61-.34,.29-.15,.61-.24,.93-.3,.36-.06,.72-.04,1.08-.04,.28,0,.56,.03,.84,.11,.19,.05,.38,.11,.54,.23,.13,.1,.23,.24,.26,.42,.04,.21-.02,.39-.09,.58-.03,.08-.07,.16-.11,.23-.03,.06-.09,.08-.15,.05-.05-.03-.07-.08-.04-.14,.03-.07,.06-.15,.09-.23,.01-.04,0-.07-.04-.06-.05,0-.1,.02-.15,.04-.01,0-.02,.01-.04,.01-.08,0-.13,.06-.19,.1-.1,.06-.21,.13-.33,.17-.08,.03-.16,.02-.18-.1,0-.01-.01-.02-.02-.03-.11-.1-.07-.17,0-.27,.02-.03,.04-.06,.07-.09,.04-.05,.09-.09,.16-.1,.21-.05,.41-.02,.62-.03,.04,0,.08,0,.11,0,0,0,.01-.01,.02-.02Z"/>
    <path class="cls-1" d="M5.61,6.74c-.18,.03-.35,.03-.53-.05-.19-.09-.31-.24-.42-.41-.05-.07-.1-.15-.14-.23-.07-.14-.14-.28-.19-.43-.05-.17-.06-.35,0-.52,.02-.06,.05-.11,.08-.16,.06-.09,.15-.11,.24-.14,.09-.04,.19-.02,.28,.02,.06,.03,.11,.08,.16,.12,.05,.04,.11,.09,.16,.14,.05,.04,.08,.09,.09,.15,0,.05,.03,.09,.04,.13,.06,.17,0,.33-.06,.49-.1,.22-.05,.41,.06,.6,.06,.1,.13,.19,.2,.29Z"/>
    <path class="cls-1" d="M6.8,7.6c-.04-.08-.09-.16-.12-.24-.06-.16-.07-.32-.02-.48,.07-.22,.15-.44,.23-.65,0-.02,.03-.04,.05-.05,.08-.05,.16-.1,.24-.15,.06-.04,.13-.05,.2-.03,.1,.03,.2,.06,.3,.08,.1,.02,.16,.1,.21,.17,.02,.03,.05,.06,.06,.09,.01,.03,.01,.07,.02,.11,0,.03,0,.07,.02,.1,.04,.1,.04,.19-.04,.27-.06,.06-.09,.16-.2,.17-.02,0-.05,0-.07,0-.27,.06-.53,.17-.76,.32-.07,.04-.12,.1-.1,.19,0,.03,0,.06,0,.1,0,0-.02,0-.03,0Z"/>
    <path class="cls-1" d="M4.75,23.43c-.19,.09-.21,.27-.23,.44-.03,.17-.03,.35-.09,.52-.02,.07-.05,.12-.12,.14-.04,.01-.08,.03-.12,.06-.09,.05-.18,.07-.28,.04-.03,0-.06,0-.08,0-.1,.02-.16-.06-.24-.1-.12-.06-.13-.17-.16-.29-.04-.17-.01-.33,.06-.48,.04-.1,.11-.19,.2-.26,.14-.1,.29-.18,.45-.22,.19-.05,.38-.03,.54,.09,.02,.01,.04,.03,.07,.05Z"/>
    <path class="cls-1" d="M9.54,21.13c.07-.09,.14-.19,.22-.28,.07-.1,.16-.19,.22-.29,.05-.09,.07-.19,.1-.29,.06-.17,.09-.35,.09-.53,0-.1,0-.2,.02-.3,.01-.05,.04-.09,.09-.11,.09-.03,.17-.07,.26-.09,.03,0,.07,.01,.11,.02,.11,.02,.17,.08,.19,.2,.03,.16,.08,.32,.09,.49,0,.13-.01,.26-.08,.37-.06,.1-.13,.2-.19,.31-.07,.12-.18,.18-.29,.24-.15,.08-.32,.14-.5,.15-.04,0-.08,.04-.13,.06-.06,.03-.12,.05-.18,.08,0,0,0,0-.01-.01Z"/>
    <path class="cls-3" d="M11.51,16.06s-.06,0-.09,.02c-.12,.05-.21-.03-.31-.08,0,0-.01-.02-.02-.03-.05-.13-.07-.25-.02-.39,.03-.08,.12-.1,.18-.04,.02,.02,.04,.04,.06,.06,.06,.09,.15,.11,.26,.09,.05-.01,.11-.03,.16-.04,.11-.03,.21,0,.31,.03,.03,0,.05,.03,.07,.05,.06,.06,.12,.12,.18,.19,.03,.03,.05,.06,.06,.1,.09,.18,.03,.35-.05,.52-.04,.1-.08,.2-.13,.29-.02,.03-.05,.06-.08,.09-.03,.03-.07,.04-.11,.07-.1,.06-.18,.01-.27-.02-.2-.07-.28-.31-.24-.47,.03-.11,.07-.22,.11-.33,.03-.09,.02-.11-.07-.11Z"/>
    <path class="cls-1" d="M4.46,14.86c-.05,0-.1,0-.14,0-.15,.03-.3-.02-.43-.08-.13-.06-.24-.16-.33-.29-.11-.17-.13-.35-.17-.53-.04-.17,.03-.32,.07-.48,0-.01,0-.02,.01-.03,.11-.08,.21-.18,.35-.22,.1-.02,.19,.03,.27,.06,.01,0,.02,.03,.03,.05,.05,.11,.11,.22,.11,.35,0,.07,0,.15-.03,.22-.03,.09-.03,.18,0,.27,.03,.15,.06,.3,.11,.44,.03,.08,.08,.14,.13,.21,0,0,0,.01,.02,.03Z"/>
    <path class="cls-1" d="M15.07,22.45s.03,0,.04,0c.17,.02,.32,.1,.45,.2,.12,.1,.2,.23,.25,.38,.06,.16,.13,.32,.13,.49,0,.04,0,.08-.01,.11-.01,.05-.03,.1-.04,.15-.02,.06-.06,.1-.11,.14-.1,.07-.19,.15-.31,.18-.1,.03-.19-.01-.26-.06-.12-.08-.19-.2-.19-.34,0-.1,.03-.2,.05-.3,.02-.08,.05-.15,.08-.22,.04-.12,.03-.25,0-.37-.02-.12-.06-.24-.09-.37Z"/>
    <path class="cls-1" d="M16.62,24.08c-.06,0-.11-.03-.17-.05-.14-.06-.17-.18-.2-.31-.01-.04,0-.09,.01-.13,.05-.14,.1-.28,.15-.42,.02-.05,.02-.1,.03-.15,0-.04,.01-.05,.05-.05,.15,.01,.29,.08,.39,.18,.09,.1,.16,.22,.17,.36,0,.07,.02,.15,.05,.22,.02,.07,0,.11-.04,.16-.02,.03-.04,.07-.07,.09-.04,.03-.08,.06-.12,.07-.08,.02-.16,.02-.23,.03Z"/>
    <path class="cls-1" d="M4.35,23.11c-.06,0-.11-.01-.15,0-.16,.02-.31,.04-.47,.06-.12,.02-.23,.05-.34,.11-.05,.02-.1,.03-.15,.05,0,0-.02,0-.03,0-.09-.01-.19-.11-.22-.19-.04-.11,0-.21,.04-.31,.05-.12,.13-.17,.26-.21,.25-.07,.49-.01,.73,.07,.09,.03,.17,.09,.23,.16,.05,.07,.07,.17,.1,.26Z"/>
    <path class="cls-1" d="M5.07,11.06s-.02,0-.04-.01c.06-.09,.15-.12,.25-.14,.07-.01,.14-.01,.22-.01,.03,0,.06,.01,.08,.03,.06,.05,.11,.11,.16,.17,.06,.07,.03,.16,.02,.24,0,.05-.02,.1-.04,.14-.04,.08,0,.13,.05,.18,.05,.06,.05,.08-.01,.14-.02,.01-.03,.04-.05,.04-.03,.01-.06,.03-.09,.02-.18-.06-.35-.15-.48-.29-.05-.05-.09-.11-.08-.19,.01-.11,0-.21,.01-.33Z"/>
    <path class="cls-1" d="M5.17,14.06s-.04-.01-.06-.02c-.06-.03-.12-.07-.19-.1-.06-.03-.09-.07-.1-.14,0-.04-.02-.08-.03-.13-.04-.16,.02-.3,.08-.44,.03-.06,.11-.09,.16-.14,.01-.01,.03-.02,.04-.03,.08-.06,.15-.04,.2,.04,.02,.03,.03,.05,.05,.08,.03,.07,.08,.14,.09,.21,.01,.13,.08,.23,.12,.34,.01,.04,.01,.08,0,.11-.05,.09-.11,.17-.23,.18-.04,0-.08,.02-.12,.03Z"/>
    <path class="cls-3" d="M8.82,17.86c-.12,0-.24,.01-.36,0-.13-.01-.26-.04-.38-.08-.14-.05-.29-.11-.4-.22-.08-.08-.14-.16-.14-.28,0-.09,.02-.16,.07-.24,.02-.03,.04-.04,.08-.01,.22,.18,.44,.35,.66,.52,.13,.1,.28,.18,.42,.27,.01,0,.03,.02,.05,.02,0,0,0,0,0,.01Z"/>
    <path class="cls-1" d="M14.88,20.18s.08,0,.11,0c.08,0,.17,.15,.11,.21-.02,.02-.04,.04-.07,.05-.04,.02-.08,.05-.12,.07-.02,.01-.04,.02-.06,.03-.11,.03-.22,.06-.33,.1-.06,.02-.1,0-.14-.05-.03-.04-.03-.1,0-.14,.06-.06,.12-.1,.18-.15,.03-.03,.06-.05,.1-.07,.03-.02,.07-.03,.1-.04,.03,0,.07,0,.1,0Z"/>
  </g>
  <path class="cls-3" d="M13.77,2.14h.22c.18,.05,.24,.13,.19,.25-.04,.02-.08,.05-.1,.09-.03,.04-.06,.1-.09,.16-.03,.07-.06,.14-.08,.22-.03,.08-.06,.19-.12,.33,.07-.02,.17-.06,.31-.12,.13-.06,.24-.11,.31-.15,.08-.04,.16-.07,.26-.09,.1-.02,.19-.01,.29,.02h.16s.09,0,.14,.02c.05,.01,.1,.03,.14,.07,.04,.03,.08,.08,.11,.13-.04,.04-.08,.07-.13,.09-.05,.03-.1,.05-.14,.06-.04,.02-.11,.03-.19,.05s-.16,.04-.21,.05c-.05,.02-.14,.05-.24,.09-.11,.05-.2,.09-.28,.12-.08,.03-.18,.07-.31,.12-.12,.05-.26,.1-.42,.15l-.29,.64c.26-.08,.48-.15,.65-.21,.17-.06,.33-.14,.48-.24,.05,0,.12,0,.22,0,.1,0,.17-.01,.23-.01s.11,.01,.17,.03c.06,.02,.11,.06,.17,.11l-.06,.22c-.06,0-.12,0-.17,.02-.05,.02-.1,.04-.13,.06-.04,.02-.09,.05-.15,.09-.06,.04-.11,.06-.15,.08-.04,.02-.09,.03-.16,.04-.07,.01-.13,.02-.17,.03-.04,.01-.09,.03-.13,.05-.05,.02-.09,.05-.12,.09,.14,.11,.27,.24,.4,.39,.39-.12,.82-.24,1.28-.36,0-.13-.08-.29-.22-.49l.06,.02c.06,.05,.14,.1,.22,.14,.09,.04,.17,.07,.25,.1,.08,.03,.19,.07,.33,.1,.14,.04,.26,.08,.35,.13,0,.1-.08,.18-.23,.24-.15,.06-.3,.11-.44,.14-.14,.03-.28,.06-.41,.08-.13,.02-.24,.04-.31,.06-.08,.02-.16,.04-.25,.06-.09,.02-.18,.05-.27,.08,.06,.04,.15,.11,.26,.19,.11,.09,.2,.16,.27,.21,.07,.05,.15,.12,.26,.19,.11,.07,.21,.14,.32,.19,.05,.03,.12,.06,.21,.1,.08,.04,.18,.08,.29,.13,.52,.24,1.47,.33,1.44,.82-.03,.49-1.04,.26-1.54,0-.06-.03-.13-.06-.19-.1-.3-.17-.57-.36-.8-.57-.03,.24-.04,.59-.03,1.06,0,.47,.03,.84,.06,1.12-.06,.24-.19,.43-.39,.57-.07,0-.13-.02-.16-.05-.04-.03-.06-.06-.07-.09-.01-.03-.03-.08-.05-.14-.02-.06-.04-.11-.06-.13-.16,0-.31,0-.45,.02s-.29,.03-.43,.06c-.34,0-.89,.49-.98-.03,.23,.03,.43-.12,.64-.19,.15-.06,.32-.11,.48-.15,.33-.09,.6-.1,.81-.04,.03-.21,.04-.62,.03-1.23-.01-.61-.06-.94-.14-1-.33,.03-.58,.08-.77,.16-.19,.08-.36,.18-.5,.3-.14,.12-.26,.24-.34,.36-.08,.12-.13,.23-.14,.35,.05-.02,.1-.03,.17-.06,.07-.02,.15-.06,.25-.1,.1-.04,.19-.08,.28-.11,.09-.03,.17-.06,.26-.08,.28,.05,.45,.12,.52,.22-.04,.08-.09,.16-.16,.23-.06,.07-.14,.15-.24,.24-.1,.09-.18,.16-.23,.21-.05,.05-.09,.1-.11,.15l-.16,.14s.07-.17,.14-.35c.07-.17,.14-.35,.14-.35-.11,.02-.21,.03-.29,.04-.08,.01-.16,.02-.23,.02-.07,0-.14,0-.2,0-.06,0-.12-.01-.18-.03-.12,.41,.03,1.13-.29,1.16-.36,.05-.22-.5-.14-.94,.02-.09,.03-.17,.03-.24,.02-.07,.03-.15,.06-.24,.02-.1,.05-.2,.08-.33,.06-.25,.11-.44,.15-.59l.05,.07,.1,.32c.07-.09,.13-.17,.19-.24,.06-.06,.12-.12,.18-.16,.06-.04,.12-.08,.17-.11,.06-.03,.15-.08,.28-.16,.13-.07,.26-.13,.38-.19,.12-.05,.26-.08,.41-.09l.29,.06-.37-.47c-.08,.02-.19,.05-.34,.09s-.28,.07-.39,.11c-.11,.03-.24,.07-.38,.11-.14,.04-.29,.09-.45,.15-.1,.14-.2,.27-.28,.38-.04,.06-.08,.11-.12,.17s-.08,.11-.11,.17c-.42,.69-1.14,1.12-1.92,1.38,.55-.6,1.18-1.15,1.7-1.78,.05-.07,.1-.13,.15-.2-.07,.01-.14,.03-.2,.04-.3,.1-.58,.19-.87,.25-.14,.03-.06-.2,0-.29,.09-.14,.29-.17,.43-.28,.1-.06,.18-.11,.26-.16,.08-.05,.14-.09,.2-.13,.11-.07,.24-.16,.36-.27,.13-.1,.25-.22,.36-.34-.28,.08-.52,.17-.72,.25l-.31-.2-.05-.12h.26c.13-.04,.47-.17,1.02-.4l.23-.63-.57,.08c-.13-.02-.26-.05-.36-.09-.11-.04-.21-.08-.29-.13,.52-.09,.98-.21,1.37-.37,.1-.36,.17-.64,.19-.85h-.32s.09-.18,.09-.18c.24-.09,.43-.19,.55-.29Zm-1.22,3.23l-.88,.67c.26-.06,.49-.14,.68-.24l.2-.43Zm1.19-.52c-.21,.09-.41,.17-.62,.22l-.25,.57c.39-.12,.81-.25,1.24-.38l-.37-.42Z"/>
</svg>