<?xml version="1.0" encoding="UTF-8"?>
<svg id="_图层_1" data-name="图层 1" xmlns="http://www.w3.org/2000/svg" viewBox="0 0 19 26">
  <defs>
    <style>
      .cls-1 {
        fill: #005529;
      }

      .cls-2 {
        fill: #93989c;
      }

      .cls-3 {
        fill: #881c21;
      }

      .cls-4 {
        fill: #f5f6f7;
      }

      .cls-5 {
        fill: none;
      }
    </style>
  </defs>
  <g>
    <rect class="cls-4" x=".12" y=".12" width="18.75" height="25.75" rx="1.88" ry="1.88"/>
    <path class="cls-2" d="M17,.25c.96,0,1.75,.79,1.75,1.75V24c0,.96-.79,1.75-1.75,1.75H2c-.96,0-1.75-.79-1.75-1.75V2C.25,1.04,1.04,.25,2,.25h15M17,0H2C.9,0,0,.9,0,2V24C0,25.1,.9,26,2,26h15c1.1,0,2-.9,2-2V2C19,.9,18.1,0,17,0h0Z"/>
  </g>
  <g>
    <path class="cls-1" d="M7.44,12.91c.11-.18,.19-.37,.24-.57,.02-.06,.03-.12,.07-.16,.08-.12,.19-.22,.21-.37,.01-.1,.06-.19,.07-.28,.03-.13,0-.26-.04-.38-.09-.29-.21-.57-.35-.84-.06-.11-.11-.22-.15-.34-.03-.09-.05-.2-.07-.3-.02-.16-.04-.32-.05-.47,0-.07,0-.13,0-.2,0-.12,.01-.25,.02-.37,.02-.2,.04-.4,.06-.59,.02-.16,.02-.32,.05-.47,.06-.32,.12-.64,.19-.96,.05-.26,.14-.5,.29-.72,.01-.02,.06-.05,.06-.05,.05,.04,.11,.08,.14,.13,.03,.05,.02,.11,.03,.17,.03,.22,.06,.44,.08,.66,.02,.19,.04,.38,.04,.57,0,.2,0,.4-.02,.6-.01,.16-.04,.32-.08,.47-.02,.08-.06,.15-.08,.23-.04,.14-.07,.28-.12,.42-.02,.05-.08,.08-.12,.12,0,0-.03,0-.04-.02-.04-.05-.09-.11-.13-.16-.04-.04-.06-.08-.02-.14,.01-.02,.01-.04,.03-.07-.08,.05-.16,.08-.2,.16-.05,.09-.1,.18-.15,.28-.01,.02-.02,.06-.01,.08,.02,.11,.05,.22,.08,.33,0,.02,.02,.04,.04,.05,.06,.03,.12,.06,.19,.09,.05,.02,.11,.05,.16,.06,.14,0,.28-.02,.4-.09,.02-.01,.05-.04,.06-.06,.04-.09,.08-.18,.1-.29,.02-.12,.06-.25,.11-.36,.05-.11,.11-.21,.18-.31,.04-.06,.09-.11,.13-.17,.15-.22,.26-.45,.31-.71,.01-.07,.04-.15,.05-.22,.01-.07,.02-.15,.03-.22,0-.1,.01-.2,.01-.3,0-.08-.01-.17-.02-.25-.02-.16-.04-.32-.06-.48-.04-.23-.11-.46-.2-.68-.06-.15-.12-.3-.26-.41-.09-.07-.17-.15-.28-.18-.08-.03-.17-.05-.25-.08h-.09s-.02,0-.03,0c-.19,.02-.36,.09-.51,.18-.23,.15-.42,.35-.58,.58-.12,.17-.21,.36-.3,.55-.05,.12-.1,.24-.14,.37-.06,.21-.11,.43-.16,.65-.03,.16-.05,.32-.07,.48-.02,.16-.02,.32-.04,.48,0,.05-.01,.09-.02,.15-.02-.02-.04-.03-.06-.04-.18-.15-.38-.14-.58-.06-.17,.07-.31,.18-.42,.31-.22,.25-.38,.53-.53,.83-.12,.25-.16,.52-.2,.79-.02,.17-.04,.35-.04,.52,0,.2,0,.4,0,.6,0,.08,.02,.16,.04,.23,.06,.18,.14,.36,.24,.53,.14,.23,.28,.47,.47,.65,.05,.04,.11,.07,.17,.1,.05,.02,.1,.03,.15,.05,.02,0,.04,.02,.06,.04,.07,.08,.13,.16,.21,.23,.07,.07,.16,.12,.25,.17,.08,.05,.17,.07,.27,.08,.08,0,.16-.02,.25-.02-.12-.12-.21-.24-.28-.37-.1-.2-.21-.39-.33-.58-.1-.16-.2-.32-.25-.5-.1-.32-.19-.65-.28-.98-.02-.06-.04-.13-.03-.19,.02-.15,.05-.29,.09-.44,.06-.23,.14-.45,.31-.61,.08-.08,.29-.03,.32,.09,.01,.06,.01,.12,.01,.17,0,.07-.02,.14-.03,.2-.03,.12-.05,.25-.14,.36-.11,.14-.16,.3-.09,.48,.03,.08,.08,.11,.14,.16,.07,.05,.13,.04,.2,0,.06-.03,.14-.05,.17-.1,.07-.11,.12-.23,.18-.35,.03-.06,.04-.13,.05-.19,.04,.08,.08,.15,.13,.23,.09,.14,.19,.28,.28,.43,.11,.16,.12,.35,.17,.53,.03,.12,.04,.24,.06,.36,.04,.25,.08,.5,.08,.76,0,.03,0,.05,0,.07,.08-.04,.18-.09,.19-.12Z"/>
    <path class="cls-3" d="M9.46,12.7c-.09,0-.17,0-.26,.01-.23,.01-.46,.02-.69,.05-.24,.03-.48,.07-.72,.13-.12,.03-.61,.22-.64,.24-.14,.07-.26,.17-.39,.27-.16,.13-.29,.27-.34,.48-.01,.06-.02,.12,.02,.17,.07,.1,.13,.2,.21,.29,.07,.07,.15,.14,.25,.15,.09,.01,.19,0,.29,0,0,0,.02-.01,.02-.02,0,0,0-.02-.01-.03-.01,0-.03-.02-.04-.02-.08-.03-.14-.09-.17-.17-.03-.06-.04-.15-.02-.2,.04-.08,.1-.16,.18-.22,.15-.11,.31-.2,.49-.27,.39-.14,.78-.29,1.18-.42,.32-.11,.65-.2,.98-.29,.15-.04,.3-.08,.45-.11-.26-.02-.52-.03-.78-.04Z"/>
    <path class="cls-1" d="M2.04,19.21s.02,.03,.03,.04c.14,.05,.27,.12,.42,.14,.18,.03,.38,.04,.56,.04,.17,0,.33-.03,.5-.03,.27,0,.54,0,.81,.01,.08,0,.16,0,.24,.03,.15,.03,.31,.08,.46,.11,.01,0,.03,0,.05,0-.11-.15-.23-.26-.37-.36-.2-.14-.41-.24-.64-.32-.21-.07-.43-.13-.66-.14-.06,0-.13,0-.19-.01-.13-.01-.26-.02-.39-.05-.08-.01-.15-.05-.22-.07,0,0-.02-.02-.02-.03-.01-.05-.03-.09-.04-.14,0-.04,.09-.22,.12-.23,0,0,0,0,0,0,.14-.02,.27-.04,.41-.06,.05,0,.11,0,.16,.01,.12,.01,.23,.02,.35,.04,.34,.06,.66,.19,.97,.35,.19,.1,.39,.2,.57,.31,.23,.14,.46,.3,.68,.45,.03,.02,.07,.05,.1,.07,0,0,0,0,.01-.01-.03-.05-.05-.09-.08-.14-.24-.4-.53-.75-.9-1.05-.23-.18-.46-.35-.7-.52-.24-.17-.5-.29-.78-.39-.15-.05-.29-.11-.44-.13-.19-.03-.39-.02-.59-.03-.15,0-.3,0-.44,.06-.09,.03-.19,.04-.27,.09-.14,.09-.28,.19-.37,.33-.06,.08-.12,.16-.13,.27,0,.06-.03,.13-.04,.19v.13s0,.01,0,.02c.01,.17,.05,.33,.18,.46,.07,.07,.1,.16,.2,.19,.04,.01,.08,.03,.12,.05,.11,.04,.2,.09,.25,.21,.02,.04,.04,.07,.07,.11Z"/>
    <path class="cls-1" d="M10.88,23.19c-.28-.04-.55-.07-.83-.04-.15,.01-.31,.02-.46,.04-.22,.03-.44,.05-.66,.1-.34,.08-.68,.17-1.02,.26-.22,.06-.44,.11-.67,.09-.11-.01-.21-.03-.31-.08-.15-.08-.3-.16-.47-.2-.15-.03-.3-.03-.44,.03-.1,.04-.21,.06-.27,.15-.04,.07-.06,.15-.09,.23,.05,.11,.08,.23,.19,.3,.05,.04,.1,.08,.16,.12,.07,.05,.13,.11,.2,.15,.09,.05,.19,.09,.28,.12,.06,.02,.13,.04,.19,.06,.09,.02,.18,.03,.28,.04h.4s.03,0,.04,0c.13-.01,.26-.02,.39-.03,.31-.04,.6-.13,.89-.24,.28-.11,.57-.23,.86-.3,.22-.05,.43-.09,.65-.14,.16-.04,.32-.09,.49-.12,.24-.04,.48-.08,.72-.11,.18-.02,.36-.03,.54-.04,.04,0,.09,.01,.15,.02-.03-.02-.04-.03-.05-.03-.37-.16-.75-.29-1.15-.35Z"/>
    <path class="cls-3" d="M3,15.98c.04,.07,.09,.14,.13,.21,.08,.12,.18,.2,.31,.26,.22,.1,.44,.15,.68,.16,.21,0,.43,0,.64,0,.12,0,.22-.04,.31-.11,.06-.05,.06-.14,0-.19-.09-.07-.2-.09-.31-.09-.19,0-.37-.05-.54-.12-.12-.04-.23-.1-.34-.15-.13-.06-.25-.11-.34-.23-.01-.02-.02-.04-.02-.06,.04-.11,.07-.22,.13-.31,.05-.1,.11-.2,.19-.29,.08-.09,.19-.15,.29-.22,.17-.1,.35-.18,.54-.22,.16-.04,.33-.04,.49-.03,.18,0,.35,.04,.52,.09,.19,.05,.35,.16,.52,.26,.04,.02,.08,.04,.11,.07-.32-.05-1.17,.05-1.44,.18,.06,0,.1,0,.15,0,.19,.02,.37,.04,.56,.07,.24,.03,.48,.08,.72,.16,.16,.06,.31,.14,.41,.29,.01,.02,.02,.04,.02,.06,.02,.12,.08,.21,.19,.25,.05,.02,.1,.01,.14,.02,.1,.02,.17-.03,.25-.07,.04,.03,.09,.07,.14,.1,.06,.04,.17,.03,.22-.02,.06-.06,.08-.13,.03-.21-.02-.04-.05-.08-.08-.11-.04-.04-.07-.09-.07-.14,0-.05,0-.13,.02-.16,.05-.05,.13-.11,.2-.12,.16-.03,.32-.04,.49-.06,.04,0,.05,.01,.04,.05,0,.04-.02,.08-.02,.12,0,.11,0,.21,.01,.32,0,0,.02,0,.02,0,.02-.03,.03-.05,.05-.08,.03-.04,.05-.1,.09-.13,.13-.11,.28-.2,.45-.22,.18-.03,.37-.06,.55-.07,.13-.01,.23,.05,.3,.16,0,0,0,.02,0,.02-.04,.04-.02,.11-.04,.15-.03,.07-.09,.13-.16,.17-.06,.04-.14,.05-.21,.09-.03,.02-.06,.06-.06,.09,0,.03,.02,.07,.05,.09,.14,.07,.29,.09,.44,.03,.31-.11,.62-.23,.93-.33,.38-.12,.77-.2,1.16-.23,.06,0,.13-.01,.2-.02-.27-.07-.52-.11-.79-.12-.3-.01-.59,0-.88,.07-.01,0-.04,0-.04-.01-.01-.05-.02-.11-.04-.17,0-.04,0-.09-.03-.13-.03-.05-.07-.09-.11-.13-.08-.09-.14-.18-.27-.19-.02,0-.04,0-.06-.01-.38-.09-.77-.14-1.17-.14-.12,0-.24,0-.36,.01-.03,0-.05,0-.05-.04,.02-.14,.02-.29,.11-.42,.04-.06,.07-.12,.12-.17,.07-.07,.14-.13,.21-.19,.07-.07,.05-.16-.04-.19-.04-.01-.08-.01-.12,0-.09,.02-.18,.06-.26,.09-.04,.02-.08,.04-.11,.07-.12,.12-.2,.26-.28,.41-.08,.15-.07,.3-.06,.46,0,.04,0,.06-.04,.06-.17,.02-.32,.09-.47,.16-.04,.02-.08,.05-.11,.09-.04,.04-.08,.09-.11,.13-.12-.13-.23-.25-.35-.37-.1-.1-.22-.19-.34-.26-.15-.09-.32-.17-.48-.25-.11-.05-.22-.1-.34-.12-.21-.05-.41-.11-.63-.11-.16,0-.33,0-.49,0-.22,.02-.43,.08-.63,.18-.09,.04-.18,.07-.27,.12-.14,.09-.26,.19-.36,.32-.13,.15-.23,.31-.27,.5-.04,.18-.06,.35,.01,.53,.03,.07,.02,.13-.02,.19-.03,.05-.04,.11,0,.17Z"/>
    <path class="cls-1" d="M15.77,20.18s-.03-.06-.05-.07c-.15-.12-.3-.23-.45-.34-.12-.09-.27-.11-.41-.11-.12,0-.25,.02-.37,.07-.12,.06-.25,.12-.37,.19-.08,.05-.15,.12-.23,.17-.3,.19-.59,.4-.84,.66-.02,.02-.04,.03-.06,0-.13-.1-.27-.17-.43-.2-.16-.03-.32-.04-.48-.05-.15,0-.31,0-.46,.02-.1,0-.21,.03-.31,.04,0,0,0,0,0,.01,.02,0,.04,.01,.05,.02,.19,.07,.39,.14,.57,.22,.13,.05,.24,.14,.23,.3,0,0,0,.02,.01,.02,.16,.21,.35,.41,.55,.59,.17,.14,.34,.26,.56,.33,.15,.05,.31,.1,.47,.12,.16,.03,.33,.04,.5,.02,.09-.01,.17-.02,.26-.05,.22-.05,.4-.17,.59-.29,.12-.08,.26-.14,.36-.26,.04-.05,.09-.1,.14-.15,.1-.09,.15-.2,.19-.32,.04-.12,.04-.26,.05-.4,0-.04,0-.09,0-.13,.01-.08,.02-.16-.01-.24-.03-.06-.04-.13-.06-.19Zm-1.27,.76c-.06,.02-.12,.05-.18,.07-.06,.02-.13,.03-.19,.03-.23,.02-.46,.02-.71-.07,.41-.12,.81-.16,1.22-.2-.03,.08-.06,.15-.14,.17Z"/>
    <path class="cls-1" d="M8.77,9.87c-.04,.18-.06,.37-.07,.56-.01,.22,0,.44,0,.65,0,.2,.02,.4,.02,.6,0,.13,0,.26-.01,.39-.01,.11-.02,.24-.12,.32-.02,.02-.03,.04-.05,.07,.14,0,.27,0,.39-.08,.14-.08,.24-.2,.29-.34,.09-.21,.13-.44,.13-.68,0-.22,0-.44-.01-.66,0-.03-.01-.07,0-.1,.04-.14,.07-.29,.14-.42,.06-.1,.12-.21,.24-.26,.07-.03,.14-.07,.18-.14,.01-.02,.03-.04,.04-.06,0,0,0,0,.01,0,0,.06,0,.12-.02,.19-.03,.15-.07,.29-.09,.44-.04,.24-.11,.46-.26,.66-.03,.05-.07,.1-.1,.14-.03,.05-.05,.1,0,.15,.04,.04,.09,.06,.15,.04,.07-.02,.13-.04,.2-.05,.14-.03,.26-.09,.36-.2,.07-.08,.15-.16,.24-.22,.11-.08,.22-.16,.31-.27,.05-.07,.11-.13,.13-.22,.02-.1,.05-.2,.07-.3,.02-.12,.03-.24,.04-.36,.01-.13,0-.27-.04-.39-.04-.11-.11-.2-.17-.3-.03-.05-.08-.09-.09-.15-.05-.18-.13-.34-.21-.5-.01-.02-.04-.05-.06-.06-.1-.04-.19-.08-.29-.1-.05-.01-.11,0-.16,0-.09,.02-.18,.06-.26,.1-.05,.02-.12,.04-.15,.08-.09,.12-.17,.25-.25,.38-.13,.23-.25,.47-.37,.7-.06,.12-.11,.25-.13,.38Z"/>
    <path class="cls-1" d="M4.58,20.31c.14,0,.29,0,.43,.01,.13,0,.25,.02,.37,.05,.16,.03,.32,.08,.46,.17,.04,.02,.08,.05,.12,.07,0,0,.01,0,.02-.01-.02-.08-.04-.17-.07-.24-.09-.21-.25-.37-.44-.49-.17-.12-.37-.18-.57-.22-.14-.03-.28-.06-.42-.08-.13-.02-.27-.02-.4-.03-.1,0-.2,0-.3,.02-.1,.01-.21,.03-.31,.06-.2,.06-.4,.15-.58,.26-.04,.02-.08,.05-.11,.08-.05,.05-.09,.1-.13,.16-.06,.07-.09,.14-.11,.23,0,.05-.02,.1-.03,.16,0,.05-.02,.1-.01,.15,.02,.1,.05,.19,.08,.28,0,.02,.02,.04,.04,.05,.08,.05,.16,.12,.25,.15,.12,.04,.24,.05,.36,.06,.08,0,.17,0,.25,0,.11,0,.23,0,.34,0,.14-.02,.28-.06,.42-.07,.23-.03,.46-.04,.69-.06,.08,0,.15,0,.22,.05,.02,0,.04,.01,.07,.02-.04-.1-.06-.2-.11-.27-.06-.08-.14-.14-.23-.19-.15-.07-.3-.13-.45-.19-.04-.02-.09-.02-.13-.02-.17,0-.34,.01-.51,.02-.03,0-.06,0-.08,0,0,0,0-.02,0-.03,.1-.03,.21-.06,.31-.09,.18-.05,.37-.06,.56-.06Z"/>
    <path class="cls-1" d="M12.76,13.19s0,.05-.01,.07c0,0,0,0,.01,0,.04-.07,.09-.15,.13-.22,.2-.32,.43-.61,.71-.87,.1-.1,.21-.2,.32-.28,.15-.12,.3-.24,.49-.29,.06-.01,.13-.02,.19-.03,.12-.03,.23,0,.34,.06,.06,.03,.06,.04,0,.08-.16,.15-.32,.31-.44,.5-.05,.09-.14,.16-.22,.23-.1,.08-.18,.16-.2,.28,0,.02,0,.05,0,.08,.01,.04,.03,.08,.06,.12,.02,.04,.16,.11,.21,.1,.27-.07,.54-.13,.8-.24,.09-.04,.19-.08,.27-.14,.08-.05,.15-.12,.22-.18,.06-.06,.13-.11,.18-.19,.08-.14,.15-.27,.17-.43,.01-.11,.02-.23,.01-.34,0-.04,0-.09,0-.13-.01-.06-.04-.12-.05-.19-.03-.15-.15-.24-.26-.31-.11-.07-.25-.1-.37-.14-.07-.02-.15-.04-.22-.04-.16,.02-.31,.04-.46,.11-.18,.08-.35,.17-.51,.3-.1,.08-.18,.17-.28,.25-.18,.15-.34,.31-.47,.5-.11,.17-.21,.35-.31,.53-.13,.25-.22,.52-.3,.8Z"/>
    <path class="cls-1" d="M3.47,23.2c.18-.09,.37-.17,.56-.25,.38-.16,.76-.31,1.18-.35,0,0,0-.01-.01-.01-.26-.16-.56-.24-.86-.26-.22-.01-.44,0-.66,.04-.08,.02-.17,.01-.25,.04-.28,.12-.55,.25-.82,.37-.04,.02-.07,.05-.11,.08-.06,.04-.12,.1-.18,.12-.15,.06-.22,.2-.29,.32-.04,.07-.04,.17-.06,.26-.02,.13-.04,.27,.05,.39,.04,.06,.06,.13,.1,.19,.02,.03,.05,.06,.08,.07,.12,.04,.25,.08,.37,.12,.01,0,.02,0,.03,0,.11-.01,.21-.03,.32-.06,.18-.05,.33-.16,.48-.27,.11-.08,.21-.17,.33-.22,.18-.08,.35-.17,.52-.25,.17-.08,.33-.15,.5-.22,.01,0,.03-.01,.04-.02-.08-.02-.15-.03-.22-.03-.16,0-.32,0-.48,.01-.22,.01-.44,.06-.65,.13-.04,.01-.08,.02-.12,.02-.04,0-.07-.04-.05-.06,.06-.06,.11-.13,.19-.16Z"/>
    <path class="cls-3" d="M14.47,15.83c.06-.06,.14-.11,.16-.21,.01-.08,.04-.16,.06-.24,.02-.11,.03-.21-.02-.32-.02-.04-.03-.08-.04-.13-.03-.11-.07-.21-.17-.29-.04-.04-.08-.08-.12-.12-.03-.03-.06-.05-.09-.07-.03-.02-.06-.03-.09-.05-.04-.03-.08-.06-.12-.08-.33-.16-.69-.23-1.05-.23-.15,0-.3,0-.45,.01-.12,0-.24,.02-.36,.05-.12,.02-.24,.06-.34,.15-.1,.09-.21,.18-.32,.27-.28,.22-.58,.39-.92,.51-.06,.02-.12,.05-.18,.07,0,0,0,0,0,.01,.02,0,.04,0,.05,0,.09,0,.19,0,.28-.01,.14-.02,.28-.03,.42-.07,.3-.07,.58-.2,.86-.34,.15-.08,.32-.13,.5-.15,.08,0,.17-.02,.25-.02,.15,0,.31,.03,.45,.08,.08,.03,.15,.06,.22,.1,.07,.04,.12,.1,.19,.15,.11,.09,.14,.23,.05,.34-.05,.06-.09,.14-.12,.21-.07,.15-.01,.27,.05,.4,0,.01,.02,.02,.04,.02,.15,.08,.3,.09,.47,.07,.13-.02,.25-.04,.36-.14Z"/>
    <path class="cls-1" d="M10.68,12.31c-.01,.07-.02,.14-.03,.22,0,0,0,0,.01,0,.32-.58,.79-1.02,1.29-1.44,0,0,0,0,.01,0,0,.01,0,.03-.01,.04-.04,.11-.08,.21-.12,.32-.03,.08-.06,.17-.11,.24-.04,.07-.1,.12-.16,.18-.09,.08-.16,.17-.2,.29-.03,.08,0,.19,.08,.23,.04,.02,.08,.04,.13,.01,.23-.11,.46-.21,.65-.37,.13-.1,.26-.21,.38-.33,.13-.13,.25-.28,.37-.42,.02-.02,.04-.06,.05-.09,.03-.12,.07-.25,.05-.38,0-.05,.02-.11,0-.15-.05-.12-.1-.26-.25-.31-.07-.02-.13-.06-.2-.07-.09,0-.18,0-.26,.02-.24,.05-.46,.12-.66,.27-.14,.11-.28,.23-.41,.35-.2,.19-.32,.43-.43,.68-.09,.22-.15,.46-.19,.69Z"/>
    <path class="cls-1" d="M15.42,23.27s-.07-.07-.11-.1c-.11-.08-.22-.17-.34-.24-.28-.14-.59-.22-.9-.25-.23-.03-.45-.05-.68-.07-.19-.01-.37,0-.56-.01-.13,0-.25-.03-.38-.04-.09,0-.18-.02-.27-.03,0,0,0,0,0,.01,.11,.03,.22,.06,.33,.09,.45,.12,.88,.26,1.31,.43,.13,.05,.25,.1,.37,.16,.06,.03,.11,.05,.18,.07,.06,.01,.13,.03,.19,.06,.04,.02,.05,.06,.01,.09-.04,.03-.08,.07-.13,.08-.12,.04-.24,0-.34-.05-.22-.1-.44-.18-.67-.22-.07-.01-.13,0-.17,.05-.01,.02-.03,.03-.04,.04-.03,.03-.03,.06,0,.09,.04,.05,.08,.1,.14,.14,.22,.14,.43,.28,.66,.41,.23,.13,.48,.2,.74,.25,.09,.02,.19,.02,.29,.01,.06,0,.11-.02,.17-.04,.04-.01,.08-.03,.1-.06,.08-.1,.17-.19,.23-.3,.04-.07,.07-.17,.06-.25-.02-.12-.05-.25-.17-.34Z"/>
    <path class="cls-1" d="M11.15,21.75s.03,0,.05,0v-.02c-.1-.01-.2-.03-.3-.04-.2-.03-.41-.06-.61-.08-.19-.02-.38-.04-.57-.05-.21-.01-.42-.02-.63-.02-.15,0-.3-.01-.46,.02-.1,.02-.21,0-.32,.02-.23,.01-.47,.02-.7,.05-.2,.02-.41,.06-.61,.1-.32,.07-.64,.17-.94,.3-.1,.05-.21,.1-.31,.15,0,0,0,.01,0,.02,.02,0,.04,0,.06,0,.15,0,.29,0,.44-.01,.31,0,.63-.01,.94-.02,.17,0,.35-.01,.52-.02,.23-.01,.46-.02,.69-.03,.17,0,.34-.01,.5-.02,.17-.01,.33-.03,.5-.06,.35-.07,.69-.14,1.04-.21,.08-.02,.17-.05,.25-.05,.15-.01,.3-.01,.45-.01Z"/>
    <path class="cls-1" d="M9.35,22.34c-.16,0-.32-.02-.49-.02-.15,0-.31-.01-.46-.01-.17,0-.34,.01-.51,.03-.19,.02-.38,.05-.57,.1-.34,.08-.67,.22-.97,.4-.12,.07-.23,.15-.35,.23,0,0,0,.01,0,.02,.02,0,.04,.01,.06,.01,.05,0,.09,0,.14-.01,.21-.01,.43-.02,.64-.03,.14,0,.27-.01,.41-.02,.23-.01,.45-.03,.68-.05,.15-.01,.3-.02,.46-.03,.24-.03,.48-.05,.72-.09,.38-.07,.75-.17,1.1-.32,.12-.05,.23-.11,.36-.09,0,0,0,0,.02,0,0,0-.01,0-.02,0-.19-.02-.37-.03-.56-.05-.22-.02-.45-.03-.67-.05Z"/>
    <path class="cls-1" d="M6.74,21.63c.15-.02,.3-.03,.44-.04,.11,0,.22-.02,.33-.02,.18-.01,.36-.03,.54-.04,.14-.01,.28-.02,.43-.04,.17-.01,.35-.03,.52-.04,.12,0,.23-.01,.35-.02,.15-.01,.3-.03,.45-.04,.13-.01,.25-.02,.38-.04,.16-.02,.32-.04,.48-.05,.12-.01,.25-.03,.38-.04-.01,0-.02-.01-.03-.02-.14-.07-.3-.12-.45-.15-.22-.04-.45-.08-.67-.1-.23-.03-.47-.04-.7-.05-.4,0-.79-.01-1.19,.04-.27,.04-.54,.09-.81,.18-.38,.12-.74,.3-1.06,.54-.01,0-.02,.02-.03,.03,0,0,0,0,0,.01,.05,0,.11-.02,.16-.02,.16-.02,.32-.04,.49-.06Z"/>
    <path class="cls-3" d="M11.36,14.03s-.05,.1-.08,.14c-.08,.08-.16,.14-.24,.21-.05,.04-.06,.09-.03,.14,.02,.05,.08,.07,.14,.05,.18-.05,.37-.1,.53-.21,.05-.04,.12-.05,.15-.12,.01-.03,.02-.07,.04-.1,.09-.14,.1-.29,.12-.48-.02-.05-.04-.13-.06-.21-.01-.04-.03-.07-.05-.1-.07-.08-.15-.15-.23-.21-.16-.11-.35-.17-.54-.2-.22-.04-.45-.04-.68-.04-.04,0-.08,0-.11-.01-.05-.01-.09,0-.12,.04-.03,.04-.04,.09,0,.13,.02,.03,.06,.05,.1,.06,.02,.01,.06,0,.08,0,.21,.06,.42,.12,.62,.2,.16,.06,.33,.13,.42,.29,.02,.04,.05,.08,.02,.13,0,.02,0,.04,0,.07,.01,.05,0,.1-.03,.14-.01,.02-.02,.05-.03,.08Z"/>
    <path class="cls-3" d="M7.63,16.55c-.09,.03-.17,.07-.25,.12-.14,.09-.26,.21-.28,.38-.01,.08,0,.09,.08,.09h.06s0,0,0,0c.06,0,.12,0,.17-.03,.1-.05,.21-.1,.3-.16,.11-.07,.22-.15,.26-.29,0-.03,.02-.07-.02-.08-.1-.04-.2-.08-.31-.03Z"/>
    <path class="cls-5" d="M9.8,18.33c.03,.08,.07,.16,.08,.25,.06,.25,.08,.51,.07,.77,0,.07-.02,.14-.02,.21,.01,.15,0,.29-.13,.4,.17,.03,.34,.05,.49,.08-.03-.05-.07-.09-.08-.15-.02-.06-.03-.13-.03-.2,0-.13,.01-.25,.02-.38,.01-.24,.03-.48,.04-.73,0-.1,.02-.21,.02-.31,0-.02,.02-.06,.03-.07l-.2,.06-.29,.07Z"/>
    <path class="cls-5" d="M8.23,19.33c0,.19,.01,.38-.05,.56,0,.03,0,.04,.03,.04,.11,0,.21-.02,.33-.03-.05-.06-.07-.13-.07-.21,0-.15,0-.29,0-.44,0-.2,0-.4,.02-.59l-.33,.08c.03,.19,.06,.39,.07,.58Z"/>
    <path class="cls-5" d="M9.03,18.78c.02,.19,.03,.37,.03,.56,0,.08-.01,.15,0,.23,0,.13-.01,.25-.08,.37h.52s-.03-.01-.03-.03c-.03-.08-.08-.16-.09-.25-.02-.2-.03-.39-.04-.59,0-.1,0-.2,.01-.3,0-.08,.02-.16,.03-.24,0-.03,.01-.06,.02-.09l-.39,.1c.01,.08,.02,.16,.03,.24Z"/>
    <path class="cls-1" d="M16.96,17.47c-.02-.12-.02-.24-.07-.35-.06-.13-.16-.24-.31-.31-.22-.11-.45-.16-.69-.15-.23,0-.46,.03-.69,.07-.39,.06-.77,.15-1.15,.29-.25,.09-.49,.19-.72,.33-.3,.19-.6,.38-.89,.58-.19,.14-.37,.29-.55,.45-.16,.15-.3,.31-.43,.48-.2,.23-.35,.5-.48,.77,0,.01,0,.02,0,.04,0,0,0,0,0,0,.01-.01,.03-.03,.04-.04,.12-.11,.24-.23,.37-.33,.31-.23,.62-.45,.93-.67,.39-.26,.8-.49,1.23-.68,.28-.12,.57-.24,.86-.35,.28-.11,.58-.17,.88-.17,.09,0,.16,.03,.23,.08,.01,.01,.02,.04,.01,.05-.04,.06-.07,.12-.13,.16-.13,.09-.27,.18-.41,.24-.24,.12-.49,.22-.74,.32-.45,.18-.91,.31-1.37,.43-.16,.04-.31,.07-.46,.1,0,0,0,0,0,0,.16,.02,.32,.03,.48,.05,.12,.01,.25,.02,.38,.02,.23,.01,.46,.04,.69,.04,.41,0,.81,0,1.22-.03,.25-.02,.49-.07,.72-.16,.16-.07,.33-.14,.48-.23,.11-.06,.22-.14,.3-.23,.13-.14,.23-.31,.24-.51,0-.04,.02-.07,.02-.11,0-.07,0-.14-.02-.2Z"/>
    <path class="cls-1" d="M6.57,18.37c-.04,.15-.07,.29-.1,.44-.04,.22-.07,.45-.09,.67-.02,.2,.02,.4,.12,.58,.03,.05,.06,.09,.12,.1,.04,0,.07,.02,.11,.04,.22,.08,.47-.08,.45-.36,0-.07-.02-.14-.02-.21,0-.21,0-.42-.01-.62,0-.17-.03-.33-.05-.5-.23-.07-.42-.13-.51-.15,0,0,0,0,0,0Z"/>
    <path class="cls-1" d="M11.15,20.36s-.09-.06-.13-.08c-.15-.06-.29-.12-.43-.18,.04-.05,.09-.1,.14-.15,.01-.02,.02-.04,.03-.06,.01-.08,.02-.15,.02-.23,0-.07,0-.14,0-.22,0-.14,.01-.29,0-.43-.03-.25-.1-.49-.19-.72-.02-.05-.04-.1-.06-.15l-.13,.03-.09,.02s-.03,.05-.03,.07c0,.1-.01,.21-.02,.31-.02,.24-.03,.48-.04,.73,0,.13-.02,.25-.02,.38,0,.07,.01,.14,.03,.2,.02,.05,.06,.1,.08,.15-.15-.02-.31-.05-.49-.08,.13-.11,.14-.25,.13-.4,0-.07,.01-.14,.02-.21,0-.26-.02-.52-.07-.77-.02-.09-.05-.17-.08-.25l-.41,.1s-.01,.06-.02,.09c-.01,.08-.03,.16-.03,.24,0,.1-.01,.2-.01,.3,0,.2,.01,.39,.04,.59,0,.09,.06,.17,.09,.25,0,.01,.02,.02,.03,.03h-.52c.06-.12,.08-.24,.08-.37,0-.08,.01-.15,0-.23,0-.19-.02-.37-.03-.56,0-.08-.02-.16-.03-.24l-.51,.13c-.03,.2-.03,.39-.02,.59,0,.15,0,.29,0,.44,0,.08,.02,.15,.07,.21-.11,0-.22,.02-.33,.03-.03,0-.04-.01-.03-.04,.06-.18,.06-.37,.05-.56,0-.2-.04-.39-.07-.58h0c-.13,0-.33-.04-.55-.09,0,.02-.01,.04-.01,.05-.02,.16-.05,.31-.06,.47-.01,.18-.06,.35,0,.53,0,0,0,0,0,.01-.02,.06,0,.1,.03,.15,.02,.05,.05,.09,.07,.15-.01,0-.02,0-.02,0-.27,.07-.54,.17-.79,.31-.13,.08-.27,.17-.39,.26-.12,.09-.22,.19-.36,.23-.07,.02-.14,.07-.21,.1,0,0,0,0,0,.01,.02,0,.04-.01,.06-.02,.32-.11,.65-.19,.98-.24,.22-.03,.43-.06,.65-.08,.22-.02,.45-.05,.67-.06,.25-.01,.49,0,.74-.01,.19,0,.37,0,.56-.01,.24,0,.48-.01,.72-.02,.13,0,.27-.01,.4-.02,.23-.01,.46-.02,.68-.03,.02,0,.03,0,.05,0-.01-.01-.03-.01-.04-.01-.07,0-.13-.02-.19-.06Z"/>
    <path class="cls-3" d="M8.16,18.74l.33-.08,.51-.13,.39-.1,.41-.1,.29-.07,.2-.06,.09-.02,.34-.1s.35-.08,.52-.18c.15-.09,.25-.21,.32-.36,.04-.1,.06-.21,.07-.31,0-.11-.02-.23-.03-.34,0-.03,0-.04,.03-.04,.08,0,.17,.02,.25,.02,.25,.02,.5,.04,.75,.04,.21,0,.42-.02,.63-.03,.11,0,.22-.04,.32-.12,.07-.06,.14-.11,.22-.15,.07-.04,.12-.09,.16-.16,.02-.04,.05-.07,.03-.13-.05-.14-.16-.19-.28-.25-.15-.07-.31-.03-.46,.02-.1,.04-.2,.1-.3,.13-.18,.05-.37,.1-.56,.13-.23,.04-.47,.05-.71,.08-.09,0-.18,.02-.27,.02-.08,0-.16,.01-.24-.03-.07-.03-.15-.06-.22-.07-.1-.02-.2-.03-.3-.02-.1,.02-.2,0-.3,.01-.28,.01-.54,.09-.78,.22-.01,0-.04,0-.05,0-.07-.1-.18-.14-.29-.16-.07-.02-.21,.02-.24,.08-.02,.04-.04,.08-.06,.12-.05,.11-.03,.21,.02,.31,.03,.05,.08,.09,.13,.11,.13,.04,.27,.06,.4,.08,.05,0,.11-.01,.15-.03,.05-.02,.06-.12,.03-.19-.02-.05-.04-.1-.06-.15-.01-.03,0-.05,.03-.04,.05,0,.1,.01,.15,.02,.33,.05,.65,.12,.96,.23,.05,.02,.09,.06,.13,.1,.03,.02,.02,.05-.01,.07-.05,.03-.1,.06-.13,.1-.1,.12-.23,.18-.37,.24-.37,.14-.75,.22-1.14,.29-.33,.06-.64,.16-.92,.34-.07,.05-.14,.06-.22,.04-.28-.06-.55-.15-.78-.32-.17-.13-.36-.23-.55-.31-.24-.1-.48-.2-.74-.24-.08-.01-.15-.04-.2-.11,0-.01,0-.04,0-.05,.12-.18,.25-.35,.42-.48,.02-.02,.04-.03,.07-.03,.06-.01,.13-.02,.2-.02,.22-.01,.44-.03,.66-.03,.17,0,.34-.01,.5-.01,.21,0,.43,0,.64,.01,.04,0,.08,.01,.13,.02-.02,.01-.03,.02-.04,.02-.05,.03-.11,.04-.15,.08-.12,.11-.18,.4-.11,.55,.01,.03,.04,.05,.07,.06,.05,.02,.11,.04,.16,.06,.11,.04,.23-.03,.27-.12,.04-.1,.08-.21,.11-.31,.06-.16,.01-.25-.15-.33-.06-.03-.14-.04-.2-.06-.07-.02-.13-.05-.2-.08-.26-.09-.52-.16-.79-.2-.21-.03-.42-.05-.63-.06-.18,0-.37,0-.55,.01-.12,0-.24,.03-.36,.06-.17,.05-.34,.12-.49,.23-.12,.09-.22,.2-.28,.33-.07,.13-.12,.27-.16,.41-.03,.09-.05,.19-.04,.28,.01,.1,.06,.2,.1,.3,.01,.03,.04,.05,.06,.06,.21,.08,.42,.16,.63,.23,.26,.08,.57,.21,.84,.28,0,0,.02,0,.04,.01,.08,.03,.28,.09,.51,.15,.17,.05,.35,.1,.53,.14,.22,.05,.42,.09,.55,.09h0Z"/>
  </g>
  <path class="cls-3" d="M13.84,2.32s.09,.02,.13,.04,.08,.03,.13,.04c.05,.02,.09,.03,.12,.05,.04,.02,.07,.04,.1,.07-.03,.06-.07,.11-.13,.17-.05,.05-.12,.11-.21,.18-.09,.06-.15,.12-.2,.18-.05,.05-.09,.12-.11,.2,.16,.01,.3,.01,.43,.01,.12,0,.23-.02,.32-.04s.19-.05,.29-.09c.1-.04,.17-.06,.21-.07,.02,.01,.06,.03,.14,.06,.08,.03,.14,.06,.18,.09,.05,.03,.09,.07,.12,.12,.04,.05,.06,.11,.08,.18-.03,.03-.05,.05-.08,.07-.03,.02-.07,.04-.12,.06-.05,.03-.1,.05-.14,.07-.05,.02-.1,.05-.15,.09-.05,.04-.11,.08-.17,.14-.06,.05-.12,.12-.2,.2s-.15,.16-.22,.23c-.07,.08-.15,.17-.25,.29,.1,.05,.21,.1,.33,.16,.12,.06,.26,.14,.41,.22,.15,.08,.3,.16,.44,.24,.14,.08,.28,.15,.43,.22,.15,.06,.25,.11,.33,.14,.07,.03,.14,.05,.19,.07,.05,.02,.12,.05,.21,.09,.09,.04,.16,.07,.21,.09,.47,.19,.99,.25,1.39,.54-.46,.14-.9,.46-1.4,.45-.07-.03-.14-.05-.21-.09-.07-.03-.14-.07-.2-.1-.13-.08-.26-.15-.38-.24-.12-.08-.26-.18-.43-.3-.17-.11-.28-.19-.33-.23-.56-.42-.98-.71-1.26-.86-.32,.31-.62,.59-.89,.82-.27,.23-.53,.44-.77,.61-.24,.17-.49,.3-.73,.38-.24,.08-.57,.14-.98,.16h-.08c.07-.05,.18-.11,.33-.2,.15-.09,.25-.15,.31-.18,.06-.04,.17-.1,.33-.2,.16-.09,.32-.19,.48-.3,.16-.11,.35-.26,.58-.46,.23-.2,.54-.49,.93-.88-.07-.04-.18-.08-.31-.12-.14-.04-.24-.08-.32-.11-.08-.03-.15-.07-.22-.1-.07-.04-.13-.07-.18-.11-.09,.07-.16,.12-.21,.15-.05,.03-.11,.03-.17,.01-.02-.07-.03-.15-.02-.25,.01-.1,.04-.17,.08-.21,.06-.08,.14-.17,.26-.27,.12-.1,.28-.23,.48-.39,.2-.16,.37-.3,.5-.42,.13-.12,.24-.23,.33-.33l-.05-.15c.07-.06,.18-.13,.34-.2Zm-1.41,1.94c.21-.01,.42,0,.64,.04s.4,.09,.57,.15c.19-.21,.42-.49,.69-.84-.38-.07-.71-.04-.99,.08-.28,.12-.58,.31-.9,.57Zm1.44,1.87c.14,.05,.26,.1,.35,.13,.09,.03,.18,.07,.26,.12,.08,.05,.15,.1,.2,.16,.05,.06,.07,.14,.07,.23-.04,.05-.09,.1-.14,.13-.05,.03-.11,.06-.17,.09-.06,.02-.14,.05-.25,.07-.11,.03-.23,.06-.35,.11-.12,.04-.28,.12-.45,.23-.18,.11-.33,.26-.45,.45,.03,.06,.06,.11,.11,.15,.05,.04,.11,.07,.18,.09,.07,.02,.14,.04,.22,.05,.04,0,.09,.01,.16,.02,.59,.08,1.2,.32,1.52,.84,.06,.12,.03,.32-.09,.32-.64-.06-1.16-.46-1.74-.65-.07-.02-.14-.05-.2-.09s-.12-.08-.17-.14c-.1-.11-.14-.23-.12-.36,.01-.11,.04-.23,.09-.35s.11-.22,.17-.32c.06-.09,.13-.18,.2-.27,.07-.09,.13-.16,.18-.22,.05-.06,.09-.11,.12-.16,.03-.05,.05-.09,.06-.11-.07-.13-.21-.29-.44-.48l.07-.03c.21-.05,.43-.05,.64,0Z"/>
</svg>