<?xml version="1.0" encoding="UTF-8"?>
<svg id="_图层_1" data-name="图层 1" xmlns="http://www.w3.org/2000/svg" viewBox="0 0 19 26">
  <defs>
    <style>
      .cls-1 {
        fill: #005529;
      }

      .cls-2 {
        fill: #93989c;
      }

      .cls-3 {
        fill: #881c21;
      }

      .cls-4 {
        fill: #f5f6f7;
      }
    </style>
  </defs>
  <g>
    <rect class="cls-4" x=".12" y=".12" width="18.75" height="25.75" rx="1.88" ry="1.88"/>
    <path class="cls-2" d="M17,.25c.96,0,1.75,.79,1.75,1.75V24c0,.96-.79,1.75-1.75,1.75H2c-.96,0-1.75-.79-1.75-1.75V2C.25,1.04,1.04,.25,2,.25h15M17,0H2C.9,0,0,.9,0,2V24C0,25.1,.9,26,2,26h15c1.1,0,2-.9,2-2V2C19,.9,18.1,0,17,0h0Z"/>
  </g>
  <g>
    <path class="cls-1" d="M.78,21.44c.03-.11,.07-.21,.14-.3,.04-.07,.07-.15,.09-.23,.03-.08,.06-.14,.12-.2,.06-.06,.12-.12,.18-.18,.11-.14,.26-.23,.43-.28,.11-.03,.23-.04,.34-.07,.03,0,.06-.02,.08-.04,.06-.05,.12-.11,.17-.17,.06-.08,.14-.11,.24-.12,.08,0,.15-.02,.24-.03-.06-.06-.1-.1-.15-.15-.08-.08-.09-.14-.02-.27,.03-.06,.02-.09-.02-.13-.11-.11-.11-.17,0-.29,.16-.18,.31-.36,.47-.54,.02-.02,.05-.04,.09-.05,.1-.03,.21-.07,.32-.08,.15-.02,.3,0,.44,.05,.23,.08,.44,.2,.6,.39,.04,.05,.07,.13,.07,.2,.02,.18,.13,.25,.28,.31,.31,.13,.56,.34,.73,.64,.02,.04,.03,.04,.07,.02,.49-.35,.99-.71,1.48-1.05,.22-.15,.45-.29,.68-.44,.05-.03,.07,0,.09,.03,0,.01,0,.05-.02,.06-.09,.07-.19,.14-.29,.21-.26,.18-.51,.37-.77,.56-.01,0-.02,.02-.04,.03,.12,.02,.22,.03,.33,.05,.21,.05,.39,.14,.55,.28,.18,.16,.35,.33,.48,.54,.07,.11,.1,.24,.07,.37-.03,.11-.05,.23-.09,.34-.05,.12-.11,.23-.18,.33-.07,.1-.14,.2-.23,.27-.06,.04-.15,.05-.23,.04-.24-.03-.37-.19-.44-.4-.03-.09,.01-.19,.07-.27,.01-.02,.03-.03,.05-.05,.1-.1,.09-.21-.01-.31-.02-.02-.03-.04-.06-.06-.09-.07-.1-.15-.1-.27,0-.16,0-.34-.1-.48-.06-.09-.12-.18-.18-.28-.02-.03-.04-.03-.07,0-.28,.22-.56,.43-.83,.65-.08,.06-.08,.07,0,.12,.27,.18,.51,.39,.73,.64,.12,.13,.23,.27,.32,.43,.07,.14,.1,.3,.13,.45,.04,.16-.04,.31-.08,.46,0,.04-.05,.07-.07,.1-.11,.12-.23,.24-.34,.36-.02,.03-.05,.05-.08,0,0,0-.03,0-.05,0-.02,0-.03,.02-.05,.03-.16,.09-.19,.08-.32-.05-.04-.04-.07-.07-.11-.11-.09-.09-.11-.19-.06-.3,.09-.18,.12-.37,.12-.57,0-.09,0-.18,.01-.27,0-.01,0-.02,0-.03,.09-.08,.05-.18,.03-.28-.03-.15-.06-.3-.19-.4-.09-.08-.19-.15-.29-.22-.1-.06-.1-.06-.2,.03-.09,.08-.18,.15-.27,.23-.04,.04-.09,.08-.1,.12,0,.03,.05,.08,.09,.11,.13,.15,.27,.3,.38,.46,.05,.07,.06,.17,.09,.26,.03,.13,.06,.26,.08,.39,.01,.1-.01,.2-.09,.28-.12,.13-.13,.13,0,.25,.07,.07,.11,.15,.13,.24,.01,.05-.01,.12-.04,.17-.08,.14-.16,.28-.26,.41-.1,.14-.23,.23-.4,.28-.08,.02-.15,.08-.25,.06-.11-.02-.18-.09-.26-.15-.04-.03-.08-.08-.12-.12-.18-.19-.2-.35-.06-.56,.13-.18,.23-.38,.3-.59,.05-.16,.08-.31,.09-.48,.01-.21-.02-.41-.05-.61,0-.05-.02-.05-.05-.02-.13,.16-.26,.32-.39,.47-.04,.04-.07,.09-.11,.12-.15,.13-.24,.3-.34,.47-.18,.33-.33,.69-.44,1.05-.04,.12-.13,.19-.21,.26-.06,.05-.15,.06-.23,.1-.01,0-.03,.03-.03,.04,0,.04,.01,.07,.03,.11,.05,.12,.03,.26-.07,.35-.06,.06-.13,.12-.2,.17-.08,.06-.16,.05-.25,.03-.18-.04-.33-.14-.47-.26-.11-.1-.2-.22-.24-.36-.02-.05-.02-.11,0-.16,.03-.09,.08-.18,.13-.26,.03-.04,.01-.05-.01-.07-.09-.08-.15-.18-.14-.3,0-.05,.03-.1,.05-.14,.07-.12,.14-.23,.22-.34,.08-.12,.2-.17,.33-.2,.03,0,.05-.02,.06-.06,.06-.14,.09-.3,.21-.4,.13-.12,.26-.23,.4-.33,.05-.04,.13-.04,.2-.05,.06-.01,.13-.03,.19-.03,.05,0,.11,.02,.16,.03,.04,0,.09,.02,.13,.01,.32-.07,.56-.27,.78-.5,0,0,0,0,0-.01-.25-.04-.51-.06-.76,0-.02,0-.05,0-.07,.01-.11,.01-.2,.06-.27,.14-.07,.09-.19,.09-.3,.13-.09,.03-.18,.05-.23,.13-.03,.05-.06,.1-.08,.16-.06,.26-.25,.4-.44,.56-.04,.03-.09,.05-.14,.07-.02,0-.05,0-.06-.02-.06-.06-.12-.12-.19-.17-.02-.02-.07-.03-.09-.02-.22,.07-.43,.04-.62-.07-.1-.06-.17-.18-.26-.28-.02-.03-.04-.07-.06-.1v-.03Zm2.21-1.62c.07,.01,.15,.02,.21,.04,.09,.04,.18,.09,.27,.13,.07,.04,.14,.07,.2,.12,.1,.08,.19,.18,.24,.31,.01,.04,.04,.07,.09,.05,.05-.02,.11-.01,.16-.02,.13-.01,.26-.03,.39-.04,.1,0,.2-.01,.26,.09,0,.01,.02,.03,.04,.04,.01,0,.04,.01,.05,0,.11-.09,.22-.19,.33-.28,.03-.03,.05-.04,.01-.08,0,0,0-.03,0-.04,.08-.05,.04-.1,0-.15-.02-.02-.03-.05-.05-.08-.02-.03-.04-.06-.07-.08-.32-.2-.68-.29-1.06-.28-.19,0-.38,.04-.57,.07-.18,.03-.37,.06-.51,.19Z"/>
    <path class="cls-1" d="M10.95,2.12s.09,.02,.14,.03c.19,0,.33,.1,.47,.21,.1,.08,.19,.18,.29,.27,.05,.05,.09,.09,.13,.15,.07,.09,.13,.18,.19,.27,.02,.02,.04,.04,.06,.05,.12,.09,.25,.18,.37,.28,.09,.06,.11,.16,.13,.26,.02,.08,0,.15-.05,.22-.02,.03-.01,.05,0,.08,.2,.22,.4,.44,.61,.67,.06,.07,.06,.07,.12,0,.1-.15,.16-.32,.17-.5,0-.21-.03-.42-.15-.59-.04-.07-.12-.12-.19-.16-.16-.1-.33-.19-.49-.29-.13-.09-.27-.19-.3-.38,0-.04,0-.09,.03-.12,.05-.06,.1-.11,.16-.16,.03-.02,.07-.04,.1-.03,.07,.01,.14,.03,.2,.06,.07,.04,.14,.04,.21,0,.22-.11,.45-.08,.66,.02,.08,.04,.14,.12,.2,.19,.09,.1,.18,.2,.24,.32,.1,.21,.16,.43,.14,.66-.01,.23-.07,.44-.22,.62-.13,.16-.27,.29-.45,.37-.09,.04-.18,.07-.28,.1-.04,.01-.07,.01-.03,.07,.35,.44,.67,.9,.91,1.41,.19,.38,.32,.79,.4,1.21,0,.02,0,.04,0,.07,.24-.17,.46-.35,.6-.62,.07-.13,.07-.26,.1-.4,0-.02-.02-.06-.04-.08-.08-.09-.18-.15-.2-.28,0-.06-.02-.14,0-.2,.02-.08,0-.13-.05-.17-.1-.08-.13-.2-.14-.33,0,0,0,0,0-.01,.06-.14-.03-.23-.08-.34-.06-.15-.11-.31-.07-.47,.03-.12,.03-.26,.12-.36,.08-.11,.16-.22,.25-.32,.13-.16,.31-.23,.51-.24,.06,0,.12,.03,.18,.05,.18,.06,.32,.16,.43,.31,.05,.06,.09,.14,.12,.21,.07,.15,.19,.26,.29,.39,.05,.06,.09,.13,.12,.2,.03,.07,.05,.14,.08,.21,.02,.06,0,.1,0,.16-.05,.2-.19,.33-.33,.46-.01,.01-.02,.03-.03,.05-.05,.17-.09,.34-.16,.49-.07,.16-.16,.31-.26,.44-.16,.19-.33,.37-.53,.52-.23,.16-.48,.28-.75,.36-.15,.04-.15,.04-.12,.19,.01,.07,.02,.14,.02,.21,0,.15,.01,.31,.01,.46,0,.31-.03,.61-.11,.9-.08,.31-.16,.62-.24,.93,0,0,0,.02,0,.02,.02,0,.03,0,.05,0,.16-.08,.32-.15,.48-.23,.14-.07,.27-.17,.32-.33,.03-.09,.06-.18,.06-.27,0-.16-.02-.32-.02-.48,0-.3,.1-.56,.31-.78,.17-.17,.32-.37,.5-.53,.2-.17,.39-.19,.6-.02,.04,.03,.08,.07,.13,.1,.15,.11,.23,.27,.28,.44,.04,.12,.08,.25,.08,.37,0,.08-.04,.18-.09,.25-.06,.08-.15,.14-.22,.21-.01,.01-.02,.04-.01,.06,.07,.27,.02,.53-.07,.78-.03,.09-.12,.16-.2,.22-.09,.06-.2,.1-.3,.15-.09,.05-.19,.03-.27,0-.12-.04-.22-.02-.33,.04-.21,.11-.43,.17-.67,.2-.22,.03-.42,0-.64-.02-.02,0-.05,.02-.06,.04-.1,.24-.19,.48-.3,.71-.18,.39-.41,.76-.68,1.09-.23,.28-.5,.53-.76,.79-.09,.09-.1,.09-.19,0-.11-.11-.11-.11,0-.22,.11-.11,.23-.22,.35-.33,.21-.2,.38-.44,.55-.67,.2-.29,.37-.59,.52-.91,.17-.37,.32-.74,.42-1.14,.11-.43,.21-.85,.31-1.28,.03-.13,.05-.27,.06-.4,0-.16-.02-.32-.04-.47-.04-.28-.1-.55-.2-.82-.14-.39-.31-.76-.54-1.1-.2-.3-.41-.6-.63-.89-.1-.13-.22-.25-.34-.36-.18-.16-.42-.19-.65-.23-.28-.04-.56-.07-.84-.11-.02,0-.04-.01-.06-.02-.06-.06-.13-.12-.19-.18-.12-.13-.29-.16-.44-.24-.01,0-.04,0-.06,.01-.1,.05-.2,.06-.3,0-.11-.07-.22-.14-.31-.24-.04-.04-.08-.09-.1-.14-.05-.12-.13-.21-.22-.3-.08-.08-.12-.18-.16-.28,0-.01,0-.04,.02-.05,.13-.15,.29-.27,.45-.38,.02-.02,.06-.02,.09-.02,.21-.03,.42-.05,.63-.08h.14Z"/>
    <path class="cls-3" d="M13,15.98c.06,0,.12,.02,.18,.02,.15,0,.29,.01,.44,.01,.21,0,.4-.07,.58-.18,.12-.07,.18-.05,.28,.03,.11,.09,.13,.21,.16,.33,0,.02,0,.04-.02,.06-.02,.02-.05,.04-.08,.07,.17-.01,.36-.12,.44-.25,0,0,.01-.02,0-.03-.06-.06,0-.08,.03-.11,.09-.08,.15-.19,.28-.23,.03,0,.06,0,.09,0,.21,.11,.29,.31,.33,.53,0,.03-.01,.07-.03,.09-.05,.06-.11,.12-.16,.19,.06,.01,.12,.03,.18,.04,.22,.06,.26,.22,.3,.41,.02,.13,.03,.26,.07,.38,.03,.09,.11,.17,.17,.25,.15,.19,.12,.37-.04,.56-.03,.03-.06,.06-.09,.09-.08,.09-.17,.16-.29,.18-.06,.01-.11,.06-.16,.11-.12,.11-.25,.19-.41,.22-.17,.04-.32,0-.48-.04-.13-.03-.25-.09-.37-.13-.13-.04-.26-.09-.39-.13-.13-.03-.2-.12-.28-.21-.19-.2-.27-.46-.36-.7-.09-.23-.2-.45-.31-.68-.02-.03-.06-.07,0-.11,.05-.04,.08-.12,.17-.07,.1,.05,.21,.08,.3,.14,.08,.06,.15,.14,.22,.22,.13,.15,.25,.31,.38,.47,0,.01,.02,.02,.04,.03,.18,.05,.34,.14,.53,.12,.09-.01,.18-.04,.27-.06,.01,0,.02-.01,.03-.02,.04-.09,.08-.17,.07-.28,0-.13,0-.28,.04-.41,.02-.08,.11-.14,.16-.21,0,0,.01-.02,.03-.04-.05,0-.09,.02-.14,.01-.19,0-.39-.01-.58-.02-.09,0-.17-.02-.24-.09-.02-.02-.09-.01-.13,0-.24,.04-.48,0-.71-.06-.25-.06-.44-.21-.63-.38-.05-.05-.05-.08,0-.12,.01,0,.02-.02,.03-.04-.1,0-.21,0-.31,0-.1,.01-.15-.05-.2-.11,0,0,0-.04,0-.05,.07-.06,.14-.12,.21-.17,.13-.09,.28-.15,.41-.25,.1-.08,.18-.2,.19-.34,.01-.18,.12-.29,.25-.38,.06-.04,.11-.09,.19-.1,.09,0,.16,.02,.23,.07,.13,.1,.16,.24,.14,.39,0,.04-.02,.08,0,.12,.02,.07,0,.12-.03,.18-.06,.14-.1,.29-.23,.37-.16,.09-.32,.2-.51,.21-.08,0-.16,.03-.24,.04,0,0,0,.02,0,.02Z"/>
    <path class="cls-1" d="M5.26,13.98c.4,0,.69,.09,.96,.27,.13,.09,.22,.22,.3,.37,.09,.17,.11,.35,.14,.52,0,.05-.01,.1-.02,.15-.02,.23-.01,.46,0,.69,0,.11,.06,.2,.1,.29,0,.01,.02,.03,.03,.04,.19,.1,.31,.28,.43,.44,.04,.05,0,.1-.03,.13-.05,.05-.09,.1-.15,.15-.02,.02-.07,.03-.1,.03-.58-.05-1.11-.25-1.61-.55-.15-.09-.31-.15-.45-.24-.1-.06-.18-.13-.27-.21-.24-.21-.46-.45-.62-.73-.07-.12-.07-.25-.03-.4,.05-.18,.14-.32,.27-.45,.09-.09,.17-.18,.27-.27,.03-.02,.06-.04,.09-.05,.25-.12,.51-.18,.69-.18Z"/>
    <path class="cls-1" d="M14.38,8.16c-.07-.04-.12-.07-.17-.11-.09-.08-.2-.08-.3-.1-.18-.04-.37-.06-.55-.02-.1,.02-.19,.11-.29,.15-.22,.11-.43,.23-.66,.32-.22,.08-.45,.07-.68,.02-.19-.04-.32-.16-.47-.27-.18-.13-.22-.34-.28-.54,0,0,0-.01,0-.02,.04-.13,0-.23-.09-.32-.05-.05-.05-.12-.03-.18,.02-.04,.04-.09,.05-.14,.04-.22,.19-.34,.35-.47,.2-.16,.43-.23,.68-.24,.14-.01,.28-.03,.42-.02,.42,.01,.8,.14,1.13,.41,.2,.17,.39,.36,.52,.6,.09,.18,.16,.37,.21,.57,.02,.11,.06,.21,.13,.29,.01,.01,.02,.03,.04,.07Z"/>
    <path class="cls-1" d="M14.13,13.8c.26-.02,.44-.19,.62-.33,.2-.16,.36-.36,.48-.59,.04-.08,.08-.16,.12-.24,0-.01,0-.04-.02-.05-.05-.04-.04-.07,0-.11,.07-.06,.13-.13,.21-.18,.14-.09,.33-.11,.45,.05,.08,.09,.17,.18,.23,.28,.09,.15,.06,.3-.05,.42-.05,.05-.09,.1-.13,.16,.08-.06,.17-.09,.22-.19,.04-.08,.11-.16,.16-.23,.02-.02,.06-.04,.03-.08,0,0,.01-.03,.02-.04,.09-.11,.18-.22,.27-.33,.1-.12,.24-.16,.38-.19,.06-.02,.15,.02,.22,.05,.1,.04,.2,.08,.28,.14,.1,.08,.18,.19,.26,.29,.03,.04,.04,.11,.07,.16,.09,.16,.04,.31-.01,.46-.07,.18-.17,.34-.33,.45-.12,.09-.25,.15-.4,.16-.29,.01-.54,.11-.75,.3-.05,.05-.11,.07-.18,.07-.16,0-.32,.02-.48,.01-.29,0-.56-.06-.82-.2-.07-.04-.15-.09-.21-.14-.06-.05-.13-.04-.2-.04-.13,0-.26,0-.39,0,0,0-.01,0-.04-.03Z"/>
    <path class="cls-3" d="M8.98,16.59c-.02-.09-.05-.18-.05-.28,0-.13,.03-.24,.08-.36,.11-.29,.34-.48,.55-.69,.01-.01,.05-.02,.06,0,.09,.05,.19,.1,.27,.17,.16,.14,.13,.22,.07,.39-.02,.06-.06,.12-.08,.18-.05,.14,.09,.3,.24,.27,.07-.01,.14,0,.2-.03,.09-.03,.17-.07,.25-.12,.19-.11,.39-.17,.6-.21,.11-.02,.22-.05,.32-.08,.03,0,.16,.08,.15,.12,0,.01-.01,.03-.02,.04-.09,.1-.2,.16-.34,.17-.12,0-.22,.09-.31,.15-.16,.11-.3,.24-.45,.36-.1,.08-.19,.18-.29,.26-.18,.15-.39,.16-.6,.1-.16-.05-.31-.12-.47-.19-.04-.02-.07-.06-.1-.05-.03,0-.06,.05-.09,.08-.06,.07-.13,.11-.23,.11-.02,0-.04,0-.05,0-.05-.06-.11-.04-.17-.04-.24,0-.48-.02-.72-.1-.06-.02-.12-.07-.17-.11-.14-.12-.28-.24-.42-.37-.08-.08-.1-.2-.09-.31,.01-.2,.08-.39,.16-.57,.02-.04,.03-.09,.04-.13,.04-.2,.17-.3,.36-.36,.11-.04,.22-.03,.33,.01,.1,.04,.21,.08,.31,.13,.09,.04,.16,.11,.19,.21,.03,.1,.07,.2,.08,.3,.01,.11,0,.23-.01,.35,0,.07-.03,.14-.04,.21-.01,.06,.07,.2,.13,.23,.11,.05,.23,.07,.31,.18Z"/>
    <path class="cls-1" d="M10.84,11.31c-.1-.02-.2-.03-.3-.05-.02,0-.03-.01-.04-.02-.12-.11-.23-.22-.29-.38,0-.02-.01-.05,0-.07,.03-.11,.06-.22,.09-.32,0-.01,0-.03,0-.04-.08-.07-.17-.14-.26-.21-.01-.01-.03-.03-.04-.04-.05-.05-.1-.11-.14-.16,.05-.09,.09-.18,.15-.25,.11-.12,.22-.23,.35-.33,.12-.09,.26-.17,.4-.23,.09-.04,.19-.03,.29-.03,.42-.03,.82,.04,1.22,.13,.02,0,.04,0,.05,.02,.05,.07,.12,.06,.2,.06,.24,0,.47,0,.7,.06,.2,.06,.32,.2,.36,.4,.02,.09-.04,.16-.09,.23,0,0-.03,0-.05,0-.03-.02-.05-.04-.07-.06-.16-.13-.34-.09-.51-.05-.17,.05-.33,.12-.5,.18-.01,0-.04,.03-.03,.04,.07,.17-.05,.27-.13,.38-.07,.1-.16,.18-.24,.27-.05,.06-.13,.06-.19,.07-.06,0-.11,.02-.15,.07-.11,.15-.26,.24-.43,.29-.1,.03-.22,.04-.33,.05Z"/>
    <path class="cls-3" d="M12.63,17.77c-.02-.09,.04-.25,.1-.4,.03-.08,.13-.15,.2-.21,.01-.01,.07,.02,.1,.04,.07,.06,.13,.12,.19,.19,.03,.04,.03,.11,.05,.17,.03,.17,.05,.35,.1,.51,.06,.18,.16,.36,.25,.53,.03,.06,.07,.11,.1,.17,.08,.14,.22,.18,.35,.22,.09,.03,.18,.07,.28,.02,.03-.01,.06-.03,.08-.05,.02-.02,.04-.04,.06-.06,.11-.07,.18-.06,.29,.03,.09,.08,.11,.17,.12,.28,.03,.17-.04,.31-.11,.45-.04,.08-.12,.13-.18,.19-.11,.11-.24,.19-.37,.26-.19,.1-.38,.11-.59,.07-.19-.04-.31-.14-.43-.27-.11-.13-.23-.26-.32-.4-.06-.09-.09-.2-.12-.31-.05-.21-.09-.42-.1-.64,0-.24-.03-.47-.05-.79Z"/>
    <path class="cls-1" d="M10.37,5.27c.03-.08,.06-.18,.1-.26,.06-.16,.2-.26,.33-.35,.21-.14,.44-.2,.69-.21,.11,0,.21-.02,.32-.03,.17-.02,.33,.02,.49,.07,.11,.04,.23,.1,.32,.18,.15,.13,.28,.28,.4,.43,.09,.12,.14,.27,.22,.41,.02,.04,.05,.08,.07,.12,0,.02,.01,.04,.02,.06-.02,0-.04,0-.06-.01-.02-.01-.04-.03-.06-.04-.26-.2-.55-.24-.86-.16-.13,.03-.16,.13-.23,.22-.14,.18-.29,.37-.46,.53-.09,.08-.22,.11-.33,.16,0,0-.01,0-.02,0-.11-.05-.24-.06-.33-.16-.09-.1-.19-.19-.28-.29-.13-.14-.24-.3-.29-.49-.01-.05-.02-.11-.02-.17Z"/>
    <path class="cls-3" d="M9.29,18.67c-.26,0-.51-.06-.75-.17-.07-.03-.12-.1-.17-.16-.06-.08-.13-.17-.16-.27-.03-.13-.15-.21-.15-.35,0-.02,0-.04,0-.05,.07-.1,.14-.21,.23-.3,.04-.04,.12-.05,.18-.07,.01,0,.03,0,.04,0,.1-.04,.18-.03,.26,.03,.07,.06,.15,.11,.19,.21,0,.02,.04,.05,.06,.05,.09,0,.18,0,.27,0,.46-.05,.86-.25,1.24-.49,.32-.2,.62-.42,.93-.63,0,0,0,0,.01,0,.1-.07,.1-.07,.18,.02,.02,.02,.02,.06,.01,.08-.14,.33-.33,.63-.56,.91-.29,.35-.64,.63-.99,.9-.14,.1-.29,.18-.44,.23-.12,.04-.26,.05-.38,.07Z"/>
    <path class="cls-1" d="M5.32,17.25c.31,.01,.55,.14,.66,.41,.02,.05,.05,.09,.12,.09,.09,0,.17,.03,.26,.05,.03,0,.07,.03,.09,.05,.17,.16,.3,.34,.42,.54,.07,.12,.06,.18-.03,.28-.05,.05-.1,.1-.14,.16-.08,.1-.19,.13-.3,.17-.08,.02-.12-.04-.16-.07-.04-.03-.08-.06-.11-.09-.04-.06-.1-.06-.16-.07-.25-.04-.49-.03-.73,.02-.19,.04-.38,.01-.55-.06-.12-.05-.21-.17-.27-.3,0-.02-.01-.03-.02-.05-.07-.09-.07-.17-.01-.26,.09-.15,.19-.28,.34-.38,.03-.02,.04-.07,.06-.11,.07-.14,.17-.26,.32-.31,.09-.03,.18-.06,.23-.07Z"/>
    <path class="cls-3" d="M12.51,17.25c-.03,.3-.05,.6-.08,.89,0,.08-.02,.16-.03,.23-.05,.34-.27,.56-.53,.76-.1,.08-.22,.15-.33,.21-.18,.11-.27,.06-.42-.05-.15-.11-.17-.27-.15-.44,0-.04,0-.08,0-.12,0-.02,0-.03,.01-.05,.08-.19,.19-.35,.32-.51,.21-.27,.38-.58,.42-.92,.03-.23,.06-.46,.13-.68,.05-.17,.16-.31,.29-.42,.01,0,.05,0,.07,0,.14,.1,.23,.23,.24,.4,.02,.23,.05,.47,.07,.7Z"/>
    <path class="cls-1" d="M13.94,24.46c-.38-.03-.57-.36-.44-.7,.05-.12-.02-.2-.08-.28-.05-.07-.12-.14-.19-.2-.09-.08-.1-.18-.08-.28,.02-.12,.06-.24,.09-.36,.05-.17,.03-.34,0-.5-.02-.1-.05-.2-.08-.3,0-.03-.02-.05-.04-.07-.04-.05-.04-.16,0-.2,.01-.01,.03-.03,.04-.04,.03-.04,.07-.04,.1,0,.04,.05,.07,.1,.1,.15,.02,.03,.05,.05,.09,.07,.13,.07,.22,.18,.3,.3,.03,.04,.07,.09,.12,.11,.15,.05,.26,.16,.34,.29,.07,.09,.13,.19,.2,.28,.12,.17,.11,.35,.03,.53-.04,.08-.03,.13,.02,.19,.06,.08,.09,.17,.06,.27-.02,.07,0,.14-.02,.21-.05,.25-.23,.38-.43,.5-.04,.02-.09,.02-.13,.03Z"/>
    <path class="cls-1" d="M10.95,21.46s-.01-.05-.02-.08c-.02-.06-.02-.11,.02-.16,.05-.07,.09-.14,.13-.21,.09-.15,.22-.23,.39-.26,.09-.02,.17-.05,.27-.05,.14,0,.26-.07,.36-.17,.09-.08,.18-.15,.3-.17,.1-.02,.19,0,.27,.05,.14,.1,.26,.22,.39,.33,0,0,.03,0,.04,0,.04-.03,.07-.06,.11-.09,.16-.14,.35-.14,.55-.1,.18,.03,.27,.17,.38,.28,.01,.01,0,.09-.03,.11-.07,.08-.14,.16-.22,.21-.09,.06-.21,.05-.31,.01-.13-.06-.26-.12-.39-.19-.03-.01-.04-.02-.07,.02-.06,.08-.13,.14-.22,.18-.17,.1-.36,.09-.54,.12-.08,.01-.16,.09-.22,.16-.05,.05-.06,.14-.11,.2-.09,.1-.19,.19-.29,.27-.03,.03-.09,.02-.14,.02-.08,0-.16,.02-.24,.02-.05,0-.1-.01-.14-.04-.06-.03-.1-.08-.16-.12-.13-.09-.12-.23-.12-.36Z"/>
    <path class="cls-1" d="M4.2,17.18c-.32-.01-.62-.06-.92-.17-.02,0-.05-.02-.07-.04-.14-.14-.29-.28-.43-.43-.08-.09-.09-.22-.07-.33,.01-.08,.05-.17,.08-.25,0,0,0-.03,0-.03-.06-.05,0-.07,.02-.1,.05-.06,.11-.1,.16-.16,.07-.09,.17-.15,.28-.16,.07,0,.15,.01,.2,.05,.12,.09,.24,.19,.34,.31,.15,.18,.32,.35,.53,.46,.16,.09,.27,.23,.39,.36,.04,.05,.07,.12,0,.18-.09,.08-.17,.19-.27,.25-.07,.05-.17,.04-.26,.06Z"/>
    <path class="cls-1" d="M11.34,23.17c.02-.08,.05-.18,.07-.28,.03-.23,.16-.39,.32-.54,.05-.05,.13-.06,.2-.09,.02-.01,.05-.03,.06-.05,.02-.04,.04-.08,.06-.12,.04-.15,.16-.24,.27-.34,.09-.08,.19-.15,.28-.23,.1-.09,.29-.09,.38,0,.03,.03,.06,.05,.08,.08,.02,.04,.03,.09,.03,.13-.01,.12-.07,.21-.16,.28-.07,.06-.14,.14-.21,.2-.1,.09-.13,.28-.07,.39,.05,.08,.04,.21-.02,.29-.08,.11-.2,.16-.33,.19-.01,0-.03,.03-.03,.05,0,.06,0,.13,0,.19,0,.15-.12,.22-.2,.31-.11,.13-.23,.08-.35,.05-.2-.05-.37-.27-.37-.51Z"/>
    <path class="cls-1" d="M14.57,22.12c-.09,.01-.18,.02-.27,.04-.21,.04-.34-.05-.44-.21-.05-.09-.09-.19-.13-.28-.02-.05-.05-.08-.12-.1-.05-.01-.09-.08-.12-.13-.03-.05,.01-.08,.05-.11,.11-.09,.23-.14,.38-.08,.18,.07,.37,.11,.57,.11,.05,0,.1-.02,.15-.02,.04,0,.08,0,.12,.01,.01,0,.03,0,.04,0,.07-.06,.15-.06,.23-.03,.16,.05,.27,.14,.37,.27,.07,.09,.16,.16,.24,.25,.12,.12,.15,.36,.06,.51-.04,.07-.1,.14-.15,.21-.07,.08-.23,.1-.33,.06-.11-.05-.23-.09-.3-.2-.05-.07-.09-.13-.12-.2-.03-.05-.06-.07-.11-.07-.03,0-.06,0-.1-.01Z"/>
    <path class="cls-1" d="M16.13,14.4s.04,.02,.06,.03c.08,.03,.16,.06,.24,.09,.08,.02,.15,0,.21-.06,.04-.05,.09-.08,.13-.13,.07-.08,.17-.12,.26-.13,.06,0,.14,.04,.19,.08,.1,.1,.19,.22,.28,.33,.04,.05,.09,.11,.12,.16,.04,.06,.03,.11-.02,.16-.1,.12-.2,.25-.34,.33-.11,.06-.23,.07-.36,.09-.19,.02-.37-.05-.55-.09-.07-.01-.12-.08-.19-.12-.01,0-.03-.02-.04-.02-.09,.07-.14-.03-.19-.07-.09-.08-.17-.19-.25-.29-.01-.01,0-.06,0-.07,.08-.08,.15-.16,.24-.23,.05-.04,.12-.04,.19-.06Z"/>
    <path class="cls-3" d="M11.49,15.64s-.06-.01-.08-.02c-.12-.09-.23-.17-.34-.26-.03-.03-.04-.09-.04-.14-.03-.16-.07-.32-.07-.48,0-.14,.05-.29,.08-.43,0,0,0,0,0-.01,.13-.14,.25-.27,.38-.41,0,0,.01-.01,.02,0,.07,.05,.15-.02,.22,0,.13,.02,.18,.13,.27,.2,.1,.09,.03,.18-.02,.25-.06,.11-.13,.23-.21,.33-.11,.14-.13,.31-.15,.46-.01,.11,.04,.23,.08,.34,.01,.04,.01,.07-.02,.09-.04,.03-.08,.07-.11,.1Z"/>
    <path class="cls-3" d="M11.96,15.11c.02-.07,.07-.19,.11-.32,.05-.21,.21-.31,.37-.43,.09-.07,.18-.12,.28-.17,.03-.02,.09,0,.13,.02,.16,.09,.21,.24,.23,.41,0,.07-.04,.14-.05,.2-.04,.16-.14,.28-.26,.4-.15,.14-.3,.28-.45,.42-.04,.04-.08,.04-.12,0-.12-.13-.23-.27-.22-.53Z"/>
    <path class="cls-3" d="M8.63,14.81c.03-.1,.05-.21,.08-.31,0-.04,.02-.08,.03-.12,.03-.15,.11-.24,.24-.3,.06-.03,.12-.07,.19-.1,.08-.04,.16-.02,.23,.02,.12,.07,.22,.17,.29,.3,.04,.07,0,.13-.04,.17-.09,.12-.2,.22-.28,.34-.08,.12-.12,.26-.05,.41,.03,.07-.03,.21-.11,.22,0,0-.02,0-.02,0-.12-.07-.24-.14-.35-.23-.11-.08-.11-.21-.16-.32-.01-.03-.02-.06-.03-.09Z"/>
    <path class="cls-3" d="M9.96,14.95c0-.14,.01-.26,.11-.35,.1-.1,.2-.2,.3-.3,.06-.06,.12-.03,.17,.02,.05,.04,.09,.09,.13,.14,.01,.02,.02,.06,.01,.08-.1,.24-.03,.44,.08,.66,.09,.17,.24,.28,.37,.41,.02,.02,.08,.03,.03,.09-.08,.1-.1,.11-.16,.07-.02-.01-.05-.02-.06-.02-.15,.03-.29,0-.43-.05-.14-.03-.2-.14-.28-.23-.07-.08-.13-.17-.2-.25-.08-.09-.08-.19-.08-.28Z"/>
    <path class="cls-3" d="M10.14,13.8c.02-.11,.03-.23,.07-.34,.03-.08,.09-.15,.15-.21,.07-.08,.15-.14,.23-.21,.14-.11,.29-.1,.44-.04,.03,.01,.06,.04,.08,.06,.1,.1,.23,.18,.28,.33,0,.03,0,.07-.02,.1-.03,.05-.07,.09-.12,.12-.05,.03-.12,.06-.17,.05-.07-.01-.13,.01-.19,.03-.21,.07-.37,.21-.51,.38-.04,.05-.07,.04-.11,0-.09-.08-.1-.17-.11-.28Z"/>
    <path class="cls-3" d="M14.46,15.67c-.11-.03-.23-.05-.33-.09-.05-.02-.09-.08-.13-.12,0,0,0-.04,.01-.05,.06-.05,.12-.09,.18-.14,.03-.02,.06-.05,.07-.08,.03-.16,.15-.26,.26-.36,.09-.09,.24-.08,.33,.01,.09,.08,.17,.16,.26,.25,.03,.04,.06,.09,.08,.13,0,.01,0,.04-.01,.06-.06,.07-.12,.15-.19,.21-.08,.06-.18,.09-.27,.12-.08,.03-.16,.05-.25,.07Z"/>
    <path class="cls-1" d="M13.48,13.7c.07-.06,.14-.14,.21-.19,.13-.1,.2-.24,.27-.38,.04-.08,.12-.15,.18-.22,0,0,.02,0,.02,0,.05,.06,.08,0,.11-.03,.03-.03,.06-.06,.09-.07,.03-.01,.08-.02,.1,0,.09,.07,.19,.14,.22,.27,0,.02,0,.06,0,.08-.07,.09-.14,.17-.2,.25-.12,.15-.29,.23-.47,.26-.15,.03-.31,.03-.47,.05-.02,0-.03,0-.04,0Z"/>
    <path class="cls-1" d="M11.76,19.61s.03-.01,.04-.02c.16-.11,.33-.1,.46,.05,.04,.04,.07,.09,.11,.12,.07,.05,.05,.09,0,.13-.05,.04-.09,.08-.14,.11-.1,.05-.19,.12-.26,.21-.13,.17-.3,.15-.42,0-.01-.01-.03-.03-.04-.04-.1-.11-.11-.22-.01-.34,.06-.07,.13-.14,.2-.2,.02-.02,.04-.02,.07-.04,0,0,0,.01,0,.02Z"/>
  </g>
  <path class="cls-3" d="M3.24,3.99h.06s.07,.07,.13,.2c.06,.14,.09,.22,.09,.26,0,.07-.01,.14-.03,.22-.02,.07-.03,.13-.03,.16,.45-.09,.88-.17,1.27-.24,.39-.07,.85-.1,1.35-.1,.45,0,.81,.07,1.07,.2,.26,.13,.39,.34,.39,.62,0,.33-.06,.85-.17,1.56s-.27,1.35-.46,1.91c-.19,.56-.42,.84-.68,.84-.22,0-.44-.11-.67-.34-.23-.23-.42-.51-.58-.84,.19,.12,.37,.21,.52,.29,.16,.07,.31,.11,.44,.11,.12,0,.23-.13,.36-.4,.02-.03,.03-.07,.05-.11,.12-.28,.12-.47,.23-.73,.01-.04,.02-.09,.04-.13,.2-.76,.3-1.38,.3-1.84,0-.35-.05-.58-.16-.71s-.34-.19-.72-.19-.71,.03-1.02,.08c-.31,.06-.52,.13-.64,.23,.13,.06,.23,.12,.29,.19,.06,.07,.09,.18,.09,.34,.07-.05,.12-.11,.16-.16,.04-.05,.06-.09,.06-.12,0-.03-.01-.07-.04-.1-.03-.03-.06-.05-.09-.05v-.06c.09-.04,.2-.06,.34-.06,.12,0,.25,.02,.38,.07s.19,.09,.19,.15c0,.07-.13,.19-.39,.37-.26,.18-.47,.3-.64,.38-.02,.06-.03,.11-.03,.13,.27-.07,.46-.12,.56-.15,.1-.03,.17-.04,.19-.04,.11,0,.23,.04,.36,.11,.13,.07,.2,.13,.2,.17,0,.03-.03,.06-.08,.09-.06,.03-.12,.04-.2,.04-.18,0-.35,0-.52,.03-.17,.02-.35,.05-.54,.1l-.03,.5c.2,.05,.37,.09,.5,.12,.13,.03,.29,.09,.47,.16,.06,0,.13,.02,.19,.06,.02,.01,.04,.03,.06,.05,.16,.08,.29,.27,.42,.4,0,.06,0,.19-.06,.19-.32,.06-.58-.06-.89-.22-.09-.05-.18-.1-.25-.14-.22-.12-.37-.19-.44-.22,0,.75-.01,1.2-.03,1.36-.02,.16-.08,.24-.18,.24-.09,0-.17-.07-.27-.22-.09-.15-.14-.27-.14-.37,0-.07,.02-.19,.06-.37,.04-.18,.06-.48,.06-.91-.23,.27-.49,.5-.78,.69-.18,.12-.33,.2-.45,.24-.02,0-.05,.02-.07,.02-.23-.03-.49,.1-.75-.03,.32,0,.52-.19,.75-.32,.03-.02,.05-.04,.08-.06,.08-.07,.16-.14,.25-.22,.28-.26,.49-.49,.63-.7-.06,0-.23,.06-.5,.17-.28,.11-.43,.17-.46,.17-.06,0-.12-.07-.19-.2-.07-.14-.1-.24-.1-.3l.03-.03c.06,.06,.14,.1,.22,.1s.23-.05,.44-.14c.21-.09,.53-.27,.96-.52v-.14c0-.17,0-.31-.03-.4-.02-.1-.06-.19-.12-.26-.4,.13-.72,.28-.97,.44-.25,.16-.47,.31-.69,.46-.07,0-.12-.06-.16-.19-.04-.13-.06-.24-.06-.35,0-.02,.05-.06,.16-.12,.11-.07,.19-.14,.24-.22,.16-.16,.3-.35,.42-.57,.12-.22,.2-.41,.23-.58Zm2.34-1.72c.12,0,.24,.02,.36,.06,.12,.04,.18,.08,.18,.13s-.01,.1-.04,.16c-.03,.06-.06,.12-.09,.18,.18,0,.32,0,.41-.02,.09-.01,.19-.02,.28-.04,.11,0,.24,.04,.39,.12,.03,.02,.06,.03,.09,.05,.17,.09,.42,.22,.29,.42-.06,.06-.26,0-.47-.02-.03,0-.06,0-.09-.01-.09-.01-.21-.03-.35-.05-.37-.05-.6-.08-.7-.08-.27,.33-.53,.58-.76,.76-.23,.17-.47,.28-.71,.31,.09-.06,.22-.21,.41-.45,.19-.23,.31-.43,.37-.58-.06,0-.21,.03-.47,.09-.25,.06-.46,.1-.63,.14,0,.52-.07,.78-.22,.78-.09,0-.16-.06-.22-.18-.06-.12-.11-.26-.15-.42-.11,.05-.23,.11-.36,.16-.13,.06-.25,.08-.36,.08-.09,0-.19-.05-.29-.16-.1-.11-.19-.22-.24-.33l.03-.03s.08,.04,.17,.06c.09,.02,.16,.03,.21,.03,.07,0,.2-.03,.39-.08,.18-.05,.32-.1,.4-.15l-.03-.66,.03-.03c.13,.09,.24,.19,.33,.3,.09,.12,.16,.22,.2,.3l.28-.41c-.05,.14-.09,.26-.1,.34,.1-.02,.31-.06,.64-.11,.32-.05,.5-.08,.52-.08,.05-.05,.09-.11,.13-.2s.06-.14,.06-.18c0-.02-.02-.05-.06-.08-.04-.03-.09-.04-.13-.04v-.06s.1-.03,.24-.03h.07Zm-1.66,3.16l-.22,.5c-.04,.11-.1,.2-.16,.26-.06,.06-.11,.09-.15,.09-.05,0-.09-.03-.13-.1-.04-.07-.06-.15-.06-.24,0-.12,.04-.27,.13-.44h.06s.03,.04,.06,.08,.06,.08,.09,.11c.02,0,.06-.02,.13-.07,.07-.05,.15-.11,.25-.18Z"/>
</svg>