<?xml version="1.0" encoding="UTF-8"?>
<svg id="_图层_1" data-name="图层 1" xmlns="http://www.w3.org/2000/svg" viewBox="0 0 19 26">
  <defs>
    <style>
      .cls-1 {
        fill: #005529;
      }

      .cls-2 {
        fill: #93989c;
      }

      .cls-3 {
        fill: #881c21;
      }

      .cls-4 {
        fill: #f5f6f7;
      }
    </style>
  </defs>
  <g>
    <rect class="cls-4" x=".12" y=".12" width="18.75" height="25.75" rx="1.88" ry="1.88"/>
    <path class="cls-2" d="M17,.25c.96,0,1.75,.79,1.75,1.75V24c0,.96-.79,1.75-1.75,1.75H2c-.96,0-1.75-.79-1.75-1.75V2C.25,1.04,1.04,.25,2,.25h15M17,0H2C.9,0,0,.9,0,2V24C0,25.1,.9,26,2,26h15c1.1,0,2-.9,2-2V2C19,.9,18.1,0,17,0h0Z"/>
  </g>
  <g>
    <path class="cls-3" d="M.96,19.04c.04-.06,.06-.13,.11-.17,.15-.13,.32-.23,.53-.25,.03,0,.07-.01,.12-.02-.04-.04-.07-.09-.12-.12-.14-.1-.19-.26-.23-.41-.01-.04-.02-.08-.04-.13-.05-.14,0-.27,.06-.4,.09-.17,.17-.34,.24-.52,.02-.04,.03-.09,0-.14-.09-.14-.03-.35,.12-.42,.1-.05,.21-.04,.31,0,.19,.07,.38,.12,.57,.2,.2,.08,.37,.2,.5,.38,.07,.09,.14,.18,.19,.28,.06,.11,.1,.24,.15,.36,0,0-.01,0-.02,.01-.02-.03-.05-.05-.07-.08-.16-.2-.39-.3-.62-.39-.19-.07-.38-.13-.58-.16-.05,0-.1-.01-.16-.01,0,0-.01,.02-.01,.03,0,.08,.03,.16,.03,.24,0,.1-.03,.2-.06,.3-.03,.12-.06,.25-.01,.37,.03,.06,.06,.13,.11,.18,.09,.08,.19,.17,.29,.23,.36,.21,.76,.33,1.17,.44-.09,.01-.17,.03-.25,.03-.14,.01-.27,.02-.41,.02-.23,0-.46-.02-.69-.08-.06-.02-.1,.02-.15,.04-.1,.06-.2,.11-.29,.16,.1,.08,.21,.14,.29,.24,.11,.13,.25,.25,.27,.43,0,.06,0,.14-.03,.2-.03,.07-.07,.14-.12,.2-.03,.04-.08,.07-.12,.11,0,0,0,.01,.01,.02,.1,0,.19,.02,.29,.03,.13,0,.26,0,.39,0,.04,0,.09-.01,.13-.04,.15-.11,.3-.23,.44-.35-.03-.01-.07-.03-.1-.05-.09-.07-.13-.17-.09-.28,.04-.14,.07-.29,.19-.38,.13-.1,.28-.18,.45-.19,.13,0,.26,0,.39,0,.02,0,.04,0,.07,.01-.09,.1-.17,.18-.25,.27-.12,.14-.27,.26-.35,.44-.04,.09-.14,.16-.2,.24-.18,.22-.33,.46-.41,.74-.05,.21-.04,.41,.12,.58,.09,.09,.17,.18,.27,.25,.08,.05,.17,.09,.26,.11,.08,.02,.13-.04,.14-.16,0-.04,0-.09-.02-.13-.03-.11-.05-.23,0-.34,.05-.1,.08-.21,.13-.31,.07-.12,.2-.14,.32-.17,.04,0,.07-.02,.12-.03-.07-.05-.12-.09-.18-.12-.21-.11-.3-.29-.32-.52,0-.06,.02-.15,.06-.19,.1-.11,.21-.2,.32-.29,.05-.04,.13-.06,.19-.06,.23,0,.47,.03,.7,.05-.23,.14-.48,.23-.65,.44,.12,.09,.25,.17,.35,.26,.11,.1,.21,.22,.29,.34,.09,.13,.09,.28-.04,.43-.02,.03-.04,.05-.06,.08-.09,.12-.24,.12-.37,.16-.05,.02-.11,0-.16,.01-.08,.02-.11,.06-.09,.13,.08,.23,0,.44-.04,.66-.02,.11-.09,.17-.18,.22-.09,.05-.17,.1-.26,.15-.12,.06-.24,.03-.35,0-.14-.04-.28-.09-.42-.14-.01,0-.03,0-.04-.02-.13-.13-.27-.25-.39-.39-.08-.1-.17-.21-.19-.35-.03-.19-.09-.38,.02-.57,0,0,0,0-.01-.01-.14,.04-.28,.08-.42,.12-.09,.03-.18,.06-.28,.07-.06,0-.14,0-.2-.03-.07-.03-.14-.07-.21-.11-.11-.07-.11-.2-.14-.31-.05-.17,0-.34,.04-.51,.03-.11,.08-.21,.11-.32,0,0-.02-.03-.03-.04-.1-.07-.2-.13-.29-.2-.08-.06-.12-.14-.14-.24,0,0-.01,0-.02-.01v-.09Z"/>
    <path class="cls-1" d="M9.21,17.48c.05-.29,.11-.58,.16-.87,.05-.24,.1-.48,.15-.72,.07-.32,.15-.63,.23-.95,.07-.29,.16-.57,.25-.85,.1-.3,.2-.6,.31-.89,.07-.17,.15-.34,.23-.51,.17-.39,.37-.76,.62-1.1,.13-.18,.28-.36,.43-.53,.28-.3,.55-.6,.8-.93,.25-.33,.48-.68,.67-1.05,.18-.34,.3-.7,.37-1.08,.02-.1,.02-.21,.03-.31,0-.14,.01-.28,.01-.42,0-.12-.01-.24-.02-.36,0-.05,0-.11,0-.16,0-.12,0-.24,0-.36-.03-.17-.07-.33-.11-.5-.07-.25-.18-.48-.31-.7-.15-.26-.34-.49-.55-.7-.13-.13-.27-.26-.4-.39-.16-.16-.3-.33-.47-.49-.22-.21-.46-.41-.7-.6-.25-.21-.51-.41-.77-.61-.11-.08-.22-.16-.33-.24,0,0-.01-.01-.03-.04,.14,.04,.27,.07,.4,.11,.33,.11,.65,.21,.98,.33,.17,.06,.34,.15,.51,.23,.28,.14,.57,.28,.84,.43,.14,.08,.28,.18,.41,.29,.14,.11,.27,.23,.4,.36,.33,.31,.6,.65,.84,1.03,.16,.25,.29,.5,.38,.78,.07,.22,.11,.44,.16,.66,.02,.11,.04,.23,.05,.34,0,.12,0,.24,0,.36,0,.06,.01,.13,.01,.19,0,.14,0,.27-.01,.41-.01,.14-.04,.28-.06,.42-.05,.31-.15,.59-.27,.88-.13,.32-.29,.62-.49,.9-.16,.23-.34,.46-.52,.68-.14,.17-.29,.33-.44,.5-.03,.03-.05,.06-.07,.09-.25,.23-.5,.45-.74,.69-.13,.13-.24,.28-.34,.43-.15,.24-.28,.5-.41,.76-.16,.32-.31,.64-.47,.97-.13,.28-.26,.56-.4,.83-.23,.47-.46,.95-.69,1.42-.09,.19-.19,.38-.28,.57-.11,.22-.21,.45-.32,.67,0,.02-.02,.03-.03,.05h0Z"/>
    <path class="cls-1" d="M9.31,22.59c-.05-.29-.11-.56-.15-.84-.04-.24-.07-.49-.09-.74-.02-.24-.03-.49-.02-.74,0-.21,.03-.42,.06-.63,.05-.42,.15-.84,.29-1.24,.12-.34,.28-.67,.46-.98,.21-.35,.44-.68,.7-.99,.19-.22,.4-.44,.61-.64,.13-.12,.29-.21,.43-.31,.45-.31,.89-.63,1.34-.95,.37-.27,.74-.56,1.11-.84,.22-.18,.44-.36,.65-.55,.23-.2,.45-.41,.67-.61,.14-.13,.28-.27,.41-.41,.28-.3,.55-.61,.74-.97,.12-.24,.22-.49,.32-.74,.14-.33,.22-.68,.29-1.03,.03-.16,.04-.33,.05-.49,.01-.19,.02-.38,.01-.57-.02-.25-.05-.51-.08-.76-.06-.39-.18-.75-.31-1.12,.05,.06,.09,.13,.14,.19,.04,.07,.09,.13,.13,.2,.13,.23,.26,.45,.37,.69,.15,.32,.25,.66,.33,1.01,.07,.35,.1,.7,.08,1.05-.01,.23-.04,.46-.09,.69-.05,.24-.12,.47-.19,.7-.12,.38-.32,.73-.56,1.05-.18,.25-.37,.49-.58,.7-.2,.21-.4,.42-.61,.62-.16,.16-.33,.31-.5,.45-.27,.22-.54,.44-.81,.66-.29,.23-.59,.46-.89,.69-.24,.18-.48,.35-.72,.52-.35,.24-.7,.47-1.04,.72-.11,.08-.2,.19-.3,.29-.08,.08-.16,.17-.24,.25-.26,.29-.5,.6-.69,.93-.13,.23-.26,.45-.37,.69-.26,.54-.47,1.1-.62,1.68-.07,.31-.14,.62-.2,.93-.03,.18-.05,.36-.07,.54-.02,.28-.04,.57-.05,.85,0,0,0,0-.02,.02Z"/>
    <path class="cls-1" d="M14.77,20.4c.2-.12,.39-.21,.57-.33,.25-.17,.5-.35,.74-.53,.14-.1,.26-.23,.38-.35,.14-.14,.27-.29,.36-.48,.04-.09,.06-.18,.08-.28,.01-.07,0-.14,.01-.21,.02-.18-.06-.33-.15-.48-.06-.12-.12-.23-.2-.34-.06-.08-.14-.14-.22-.21-.17-.13-.37-.22-.58-.26-.11-.02-.23,0-.35,0-.18,0-.34,.04-.5,.1-.16,.05-.32,.11-.47,.18-.31,.14-.61,.3-.88,.49-.27,.19-.53,.38-.78,.59-.27,.23-.53,.47-.8,.71-.42,.36-.72,.82-.94,1.32-.2,.46-.36,.94-.47,1.42-.06,.25-.11,.51-.14,.77-.04,.28-.06,.55-.09,.83-.01,.16-.02,.33-.03,.49,0,.22,0,.45,0,.67,0,0-.01,0-.02,0-.05-.18-.1-.35-.14-.53-.06-.29-.12-.57-.18-.86-.03-.15-.04-.31-.05-.46-.02-.25-.04-.51-.04-.76,0-.25,.04-.49,.06-.74,.03-.33,.11-.64,.2-.95,.04-.13,.09-.26,.15-.39,.1-.2,.2-.39,.32-.58,.27-.45,.64-.81,1.02-1.17,.16-.16,.34-.31,.51-.46,.42-.36,.86-.69,1.33-.98,.3-.19,.62-.36,.95-.48,.26-.1,.54-.17,.82-.21,.23-.03,.46-.04,.69-.04,.16,0,.33,.05,.49,.09,.35,.08,.65,.27,.93,.48,.13,.11,.26,.22,.39,.34,.15,.14,.28,.48,.3,.76,.04,.29-.02,.49-.05,.64-.06,.3-.23,.54-.41,.77-.1,.12-.19,.25-.31,.35-.13,.12-.27,.23-.42,.33-.15,.1-.32,.19-.48,.27-.27,.14-.55,.23-.84,.3-.23,.06-.47,.11-.7,.16-.01,0-.03,0-.05,0Z"/>
    <path class="cls-3" d="M4.21,17.22c-.24-.04-.31-.1-.37-.34-.03-.12,.05-.26,.2-.36-.13-.04-.27-.07-.4-.11-.2-.07-.39-.17-.52-.34-.01-.02-.03-.04-.05-.05-.12-.09-.12-.23-.16-.35-.07-.23-.1-.46-.11-.7,0-.21,.05-.41,.17-.58,.1-.14,.25-.25,.44-.27,.03,0,.07-.02,.09-.05,.11-.11,.26-.15,.41-.18,.04,0,.08-.01,.12-.02,.04,0,.06-.03,.07-.07,.07-.27,.22-.49,.41-.7,.27-.3,.58-.52,.95-.68,.15-.07,.31-.13,.46-.16,.21-.04,.43-.01,.61,.13,0,0,0,.04,0,.06-.09,.17-.24,.28-.4,.36-.18,.09-.37,.16-.56,.25-.27,.13-.51,.31-.68,.56-.14,.21-.26,.43-.28,.69-.02,.18-.02,.36,.05,.52,.08,.21,.19,.4,.33,.58,.1,.12,.21,.24,.32,.35,.16,.15,.33,.28,.49,.42-.07-.03-.15-.05-.22-.08-.22-.11-.45-.21-.67-.33-.19-.11-.36-.25-.5-.41-.19-.22-.34-.46-.38-.76,0-.07-.03-.11-.11-.13-.13-.04-.25-.11-.39-.18-.03,.2-.07,.41-.09,.62-.02,.21,0,.42,.07,.62,.07,.2,.17,.38,.38,.47,.26,.11,.5,.24,.76,.34,.22,.08,.45,.13,.69,.2-.1,.04-.19,.08-.29,.12-.06,.03-.13,.06-.19,.08-.04,.02-.04,.04,0,.07,.06,.06,.13,.12,.19,.18,.08-.19,.22-.34,.39-.45,.06-.04,.15-.04,.23-.05,.09,0,.18,0,.27,0,0,0,0,.02,0,.02-.02,.02-.04,.04-.05,.06-.07,.14-.15,.27-.22,.41-.03,.06-.03,.14-.05,.2-.06,.23-.26,.27-.44,.2-.04-.02-.07-.07-.11-.1,0,0-.04,0-.05,0-.11,.23-.32,.37-.52,.5,0,0-.01,0-.02,.01,0,0,0,0-.01,.02,.02,0,.04,0,.05,0,.12,0,.25,0,.37,0,.18,0,.36,.02,.54,.04,.04,0,.05-.01,.07-.04,.08-.1,.15-.21,.23-.31,.07-.09,.16-.1,.26-.11,.15,0,.3,0,.46,0,.04,0,.06,0,.06-.05,0-.02,0-.04,.01-.05,.09-.06,.05-.13,.03-.21-.04-.2-.16-.36-.23-.54,0-.02-.02-.04-.03-.07,.03,0,.06-.02,.1-.03-.06-.04-.12-.08-.2-.13,.09,.01,.16,.02,.23,.03,.12,.01,.23,.03,.35,.04,.1,0,.2,.02,.3,.01,.19-.01,.39-.03,.58-.05,.11-.01,.21-.05,.31-.08,.15-.04,.27-.14,.38-.24,.15-.13,.3-.27,.43-.42,.11-.13,.21-.27,.24-.44,.02-.08,0-.11-.08-.13-.24-.06-.47-.11-.72-.12-.27-.01-.53,0-.79,.05-.4,.07-.76,.23-1.14,.41,.06-.06,.11-.11,.16-.16,.05-.05,.1-.1,.16-.14,.12-.1,.24-.2,.37-.28,.26-.17,.54-.3,.84-.37,.24-.06,.48-.08,.72-.07,.1,0,.21,.03,.31,.05,.07,.02,.15,.03,.22,0,.16-.06,.29,.04,.37,.14,.14,.17,.19,.37,.22,.57,0,.06-.03,.13-.04,.19-.05,.28-.19,.51-.38,.72-.23,.25-.47,.48-.75,.68-.09,.06-.21,.08-.32,.11-.21,.07-.43,.08-.65,.06-.12,0-.24-.05-.37-.08-.02,0-.04-.01-.07-.02,.01,.04,.02,.08,.04,.11,.05,.12,.02,.22-.07,.32-.01,.01-.01,.04,0,.07,0,.07,.02,.15,.03,.22,0,.1-.08,.15-.15,.21-.04,.03-.06,.06-.07,.11-.03,.15-.16,.21-.3,.22-.11,0-.22,0-.34,0-.06,0-.1,.02-.13,.07-.08,.12-.15,.25-.25,.35-.05,.05-.15,.08-.23,.07-.2,0-.4-.04-.6-.06-.16-.01-.32-.01-.47-.01-.11,0-.23,.02-.34,.02-.06,0-.13-.02-.19-.05-.2-.1-.32-.27-.34-.49,0-.09,.05-.18,.09-.26,.09-.17,.22-.32,.4-.4,.01,0,.03-.02,.05-.04Z"/>
    <path class="cls-1" d="M9.1,13.39c-.01-.1-.02-.19-.03-.28-.05-.46-.07-.93-.05-1.39,.01-.29,.05-.58,.11-.87,.04-.24,.11-.48,.19-.72,.05-.17,.14-.32,.22-.48,.16-.3,.33-.6,.47-.91,.05-.11,.05-.24,.07-.36,.01-.08,.02-.16,.01-.25,0-.11-.03-.22-.05-.33-.02-.1-.04-.21-.09-.3-.06-.12-.13-.24-.22-.34-.14-.18-.34-.31-.52-.45-.11-.09-.21-.19-.33-.26-.1-.07-.21-.12-.32-.16-.17-.07-.35-.12-.54-.18,.27-.05,.54-.11,.8-.16,.17-.03,.34-.06,.5-.1,.2-.05,.39-.02,.59,.01,.34,.06,.61,.24,.88,.44,.17,.13,.29,.32,.4,.51,.16,.26,.23,.56,.27,.85,.02,.14,.04,.27,.04,.41,0,.22-.06,.44-.14,.65-.09,.23-.22,.45-.38,.64-.14,.15-.26,.32-.42,.45-.27,.22-.4,.53-.54,.84-.16,.37-.31,.74-.44,1.12-.17,.53-.32,1.07-.47,1.6,0,0,0,0-.01,.03Z"/>
    <path class="cls-1" d="M14.35,20.13c-.38,.15-.72,.37-1.06,.59-.24,.15-.46,.34-.68,.51-.15,.12-.3,.25-.44,.39-.18,.19-.36,.38-.53,.58-.23,.28-.45,.57-.67,.86-.1,.14-.19,.28-.3,.42,.02-.1,.03-.19,.05-.28,.08-.32,.17-.64,.27-.95,.15-.48,.4-.91,.71-1.31,.18-.23,.38-.43,.62-.6,.28-.2,.6-.31,.93-.37,.23-.04,.47-.02,.69,.04,.13,.04,.26,.07,.39,.11Z"/>
    <path class="cls-1" d="M8.28,23.24c-.2,.04-.39,.07-.58,.11-.12,.02-.24,.03-.36,.05-.1,.01-.2,.02-.3,.02-.1,0-.21,0-.31-.01-.17-.02-.33-.05-.5-.09-.2-.04-.38-.12-.55-.22-.05-.03-.1-.05-.14-.09-.24-.2-.38-.45-.44-.76-.02-.11-.03-.21,.01-.31,.08-.23,.15-.35,.25-.43,.06,.24,.23,.42,.4,.58,.13,.13,.3,.23,.46,.33,.42,.23,.86,.4,1.31,.56,.24,.09,.49,.17,.74,.26Z"/>
    <path class="cls-1" d="M8.08,17.61c-.25,1.06-.4,2.11-.11,3.19-.2-.25-.39-.5-.5-.8-.07-.19-.15-.39-.19-.59-.07-.31-.06-.62,.04-.93,.06-.19,.14-.37,.27-.51,.13-.14,.29-.26,.47-.34,0,0,.01,0,.03-.01Z"/>
    <path class="cls-1" d="M6.61,19.18c0,.1,0,.2,.02,.31,.02,.18,.04,.37,.06,.55,.02,.12,.03,.25,.06,.36,.04,.13,.1,.25,.15,.38,.11,.27,.25,.52,.4,.77-.11-.07-.23-.12-.34-.2-.16-.11-.32-.22-.46-.37-.12-.13-.2-.29-.29-.45-.1-.17-.13-.36-.13-.55,0-.12,.05-.23,.08-.35,.05-.17,.28-.4,.45-.46Z"/>
    <path class="cls-3" d="M6.72,14.73c.07-.09,.13-.17,.19-.25,.11-.14,.18-.31,.19-.48,0-.11-.05-.23-.09-.34-.05-.12-.15-.22-.26-.3-.11-.08-.16-.2-.17-.33,0-.13,0-.26,.01-.39,0,0,.02,0,.03,0,.04,.09,.07,.18,.11,.27,.06,.13,.14,.23,.26,.31,.09,.05,.18,.13,.24,.22,.11,.14,.21,.3,.24,.49,.02,.14,0,.26-.08,.37-.05,.07-.11,.14-.17,.2-.08,.07-.17,.14-.27,.19-.06,.03-.13,.03-.22,.05Z"/>
  </g>
  <path class="cls-3" d="M3.53,3.84s.13,.03,.24,.1c.11,.07,.16,.12,.16,.15,0,.07-.01,.18-.04,.35-.03,.16-.06,.31-.08,.45,.03,0,.05-.01,.09-.02,.03-.01,.05-.02,.07-.04-.06,.23-.25,.49-.57,.79-.32,.3-.55,.45-.66,.45-.03,0-.06-.01-.11-.04-.05-.03-.09-.06-.13-.08l-.03,1.05c0,.36,0,.65,.02,.88,.01,.23,.03,.36,.05,.38,0,.15-.01,.32-.04,.51-.03,.19-.07,.29-.14,.29-.1,0-.21-.09-.32-.26-.12-.18-.17-.31-.17-.41,.05-.48,.1-.95,.15-1.39,.05-.45,.07-.76,.07-.94,0-.6-.01-1.01-.04-1.21-.03-.2-.08-.41-.15-.61l.03-.03c.2,0,.34,.05,.42,.14,.08,.09,.17,.22,.25,.39,.04,0,.14-.05,.32-.14,.18-.09,.33-.14,.45-.14,0-.18-.03-.28-.09-.28-.05,0-.16,.04-.32,.13-.16,.08-.27,.13-.32,.13-.02,0-.06-.04-.12-.11-.06-.07-.09-.12-.09-.15v-.06c.12,0,.32-.04,.61-.13s.46-.13,.53-.13Zm1.77-1.84c.18,.12,.43,.12,.61,.23,.04,.01,.08,.02,.11,.04,.09,.04,.13,.07,.13,.11,0,.03-.02,.07-.07,.14-.05,.07-.09,.12-.14,.17,.24-.04,.48-.08,.73-.13,.06,0,.18,.04,.38,.11,.2,.08,.29,.17,.29,.29,0,.05-.04,.09-.11,.12-.08,.03-.15,.04-.22,.04-.23-.02-.47-.03-.73-.04-.25-.01-.44-.02-.56-.02-.25,.25-.48,.43-.68,.54-.2,.11-.41,.17-.61,.17,.15-.14,.29-.27,.42-.41,.14-.14,.23-.25,.28-.33-.1,0-.28,.03-.55,.08-.27,.05-.55,.11-.83,.17-.02,.18-.04,.31-.08,.39s-.1,.13-.19,.13c-.06,0-.13-.04-.2-.13-.07-.1-.11-.17-.13-.2-.25,.13-.43,.19-.55,.19-.08,0-.17-.04-.25-.11-.08-.07-.2-.18-.37-.33l.03-.03,.34,.03c.06,0,.18-.02,.37-.06,.19-.04,.3-.06,.34-.06-.02-.05-.03-.12-.04-.22-.01-.1-.03-.23-.05-.4l.03-.02c.11,.05,.22,.14,.34,.25,.12,.14,.2,.23,.24,.27,.02-.02,.05-.08,.12-.18,.06-.1,.1-.17,.13-.19-.01,.05-.02,.11-.03,.18-.01,.08-.02,.14-.03,.18,.13-.01,.38-.05,.76-.12,.38-.07,.63-.11,.75-.13,.01-.03,.03-.05,.04-.09,.18-.19-.13-.44-.26-.57,0-.06,.13-.06,.2-.07,.02,0,.05,0,.07,.01Zm-1.95,2.82c-.23,.21-.37,.35-.42,.39-.05,.05-.12,.1-.2,.16,.04-.08,.08-.18,.14-.28,.06-.1,.08-.17,.08-.18h-.23c-.06-.02-.11-.03-.14-.03-.01,.09-.02,.21-.04,.34s-.02,.25-.02,.33c.06,0,.2-.04,.41-.13,.21-.08,.33-.15,.36-.21,.01-.04,.02-.11,.03-.2,.01-.09,.02-.16,.03-.2Zm3.31-1.32c.1,0,.25,.04,.44,.12,.2,.08,.29,.17,.29,.28-.03,.23-.06,.45-.08,.65-.02,.2-.04,.36-.04,.46,0,.17,.01,.53,.03,1.08,.02,.55,.05,1.17,.07,1.87,.03,.69,.04,1.06,.04,1.1,0,.03,0,.07-.02,.11-.03,.23-.29,.48-.52,.25-.03-.01-.05-.02-.08-.04-.08-.04-.17-.1-.26-.17-.25-.19-.43-.39-.54-.61,.04,.03,.13,.06,.28,.09,.15,.04,.25,.06,.31,.06,.07,0,.12-.05,.15-.15,.02-.1,.04-.33,.04-.67,0-.1-.01-.45-.03-1.05-.02-.6-.03-1.11-.03-1.53-.1,0-.23,0-.4,.03-.17,.02-.29,.03-.36,.03-.03,0-.07-.01-.12-.04-.05-.03-.09-.06-.13-.11,0,.27-.06,.4-.18,.4-.03,0-.06-.02-.09-.07-.03-.05-.06-.1-.09-.15-.05,.04-.13,.08-.22,.12-.1,.04-.24,.1-.43,.16l-.02,.24c.09-.03,.21-.06,.37-.09,.15-.03,.27-.04,.33-.04,.14,0,.29,.04,.46,.13,.16,.09,.25,.21,.25,.36s-.1,.4-.31,.72c-.21,.32-.34,.48-.4,.48s-.12-.01-.19-.04-.13-.07-.17-.11h-.34v.13c.3,.12,.61,.23,.92,.34,.27,.13,.4,.3,.4,.52,0,.1-.05,.16-.16,.16-.09,0-.27-.1-.55-.29-.28-.19-.47-.3-.59-.32,0,.15,0,.29,0,.44s.01,.3,.02,.45c0,.14-.02,.25-.06,.32-.04,.07-.07,.11-.09,.11-.21,0-.39-.08-.54-.23-.15-.15-.32-.35-.5-.6,.16,.05,.3,.09,.4,.12,.1,.03,.19,.04,.24,.04,.01,0,.02-.06,.02-.18,0-.12,0-.34,0-.65-.25,.25-.5,.44-.75,.59-.25,.14-.47,.22-.67,.22-.08,0-.14-.02-.18-.06,.17-.05,.34-.15,.5-.31,.17-.16,.33-.31,.48-.46-.15-.05-.28-.29-.39-.71-.11-.42-.16-.72-.16-.9l.02-.02c.08,.02,.16,.05,.23,.09,.07,.04,.14,.1,.2,.19,.18-.06,.34-.12,.48-.16,.14-.04,.21-.07,.23-.09v-.21l-.43,.21s.09-.05,.15-.1c.06-.05,.12-.1,.16-.15-.08,0-.16,0-.26-.03-.09-.02-.2-.05-.33-.09v-.06c.08-.05,.2-.1,.37-.15,.17-.06,.28-.1,.33-.12,0-.12-.01-.24-.04-.35-.03-.11-.07-.21-.14-.29v-.06c.34,0,.55,.04,.62,.11,.07,.07,.11,.23,.11,.47,.05-.02,.1-.03,.15-.04,.04-.01,.09-.02,.13-.02,.06,0,.14,.01,.22,.03-.01-.03-.02-.05-.02-.08,0-.03,0-.05,0-.07,.03-.08,.05-.23,.07-.45,.02-.22,.03-.49,.03-.81l.03-.03c.09,.06,.17,.12,.23,.18,.06,.06,.12,.17,.2,.31,.05-.01,.13-.03,.24-.07,.11-.04,.22-.07,.32-.11,.05,0,.13,.02,.22,.06s.14,.08,.14,.12c0,.07-.08,.15-.24,.24-.16,.09-.33,.18-.52,.28l.21-.28c-.06,0-.12,0-.18,0-.06,0-.14-.01-.22-.03v.53l.61-.09s.12,.01,.22,.03c.1,.02,.17,.03,.18,.03v-.61c0-.18-.01-.31-.03-.37-.05-.08-.09-.13-.11-.15-.02-.02-.07-.04-.13-.04-.09,0-.19,.02-.31,.06-.12,.04-.24,.08-.36,.13-.04,0-.08-.02-.12-.05-.04-.03-.09-.11-.16-.23l-.03-.03c.13,0,.3-.02,.51-.06s.43-.08,.65-.13Zm-2.45,2.88s-.07,.03-.18,.06c-.11,.03-.18,.04-.22,.04,0,0-.03,0-.06-.02-.04-.01-.07-.02-.09-.02-.02,.02-.04,.04-.06,.06,.05,.14,.08,.25,.11,.34,.03,.08,.07,.21,.13,.37l.4-.18v-.13c-.14,0-.24-.01-.31-.04-.07-.02-.12-.05-.16-.09v-.06l.43-.18v-.16Zm1.05-.31s-.11,.02-.24,.06c-.13,.04-.24,.07-.35,.1v.13c.08-.02,.16-.04,.24-.06,.07,0,.13,0,.19,.03,.06,.02,.09,.06,.09,.12,0,.05-.07,.13-.21,.26-.14,.13-.24,.23-.31,.3h.34c.08-.11,.17-.26,.27-.46,.1-.2,.15-.32,.15-.37,0-.06-.06-.09-.18-.09Z"/>
</svg>