<?xml version="1.0" encoding="UTF-8"?>
<svg id="_图层_1" data-name="图层 1" xmlns="http://www.w3.org/2000/svg" viewBox="0 0 19 26">
  <defs>
    <style>
      .cls-1 {
        fill: #005529;
      }

      .cls-2 {
        fill: #93989c;
      }

      .cls-3 {
        fill: #881c21;
      }

      .cls-4 {
        fill: #f5f6f7;
      }
    </style>
  </defs>
  <g>
    <rect class="cls-4" x=".13" y=".12" width="18.75" height="25.75" rx="1.88" ry="1.88"/>
    <path class="cls-2" d="M17,.25c.96,0,1.75,.79,1.75,1.75V24c0,.96-.79,1.75-1.75,1.75H2c-.96,0-1.75-.79-1.75-1.75V2C.25,1.04,1.04,.25,2,.25h15M17,0H2C.9,0,0,.9,0,2V24C0,25.1,.9,26,2,26h15c1.1,0,2-.9,2-2V2C19,.9,18.1,0,17,0h0Z"/>
  </g>
  <g>
    <path class="cls-1" d="M16.65,1.81c-.03,.1-.06,.2-.09,.29-.21,.59-.42,1.17-.64,1.76-.14,.38-.3,.75-.47,1.11-.16,.35-.32,.7-.5,1.03-.23,.43-.48,.86-.73,1.28-.11,.18-.23,.36-.36,.53-.16,.23-.33,.45-.51,.67-.18,.22-.37,.43-.56,.64-.18,.2-.37,.4-.57,.58-.18,.17-.38,.31-.57,.47,0,0,0,0,0,.01,.02,.02,.03,.04,.05,.06,.16,.18,.22,.41,.29,.64,.06,.22,.12,.43,.16,.65,.05,.22,.08,.45,.12,.67,.03,.19,.06,.39,.09,.58,.02,.13-.01,.25-.13,.33-.05,.03-.12,.04-.18,.04-.2-.02-.24-.16-.26-.31-.03-.22-.06-.45-.1-.67-.05-.27-.1-.53-.15-.79-.02-.11-.02-.11-.18-.13-.3-.03-.59-.12-.86-.27-.25-.14-.44-.36-.59-.6-.08-.13-.07-.29,.07-.39,.06-.04,.14-.06,.22-.05,.14,.02,.2,.12,.26,.23,.14,.28,.35,.5,.59,.69,.13,.1,.27,.2,.41,.29,0,0,.02,0,.04,.02-.06-.15-.11-.29-.16-.43-.05-.12-.14-.21-.21-.32-.03-.05-.05-.12-.05-.18,0-.15,.09-.23,.24-.25,.1-.01,.18-.07,.25-.13,.16-.11,.31-.23,.45-.35,.12-.1,.23-.2,.34-.32,.18-.19,.36-.39,.53-.59,.18-.21,.36-.43,.53-.65,.2-.28,.38-.57,.56-.85,.07-.11,.13-.22,.2-.33,.02-.03,.02-.05-.02-.07-.12-.07-.25-.14-.35-.23-.14-.12-.24-.28-.31-.45-.05-.13,0-.24,.07-.33,.2-.26,.56-.25,.79-.09,.12,.08,.21,.19,.28,.32,.02-.04,.04-.07,.06-.11,.26-.52,.53-1.04,.79-1.57,.13-.25,.25-.51,.37-.76,.16-.34,.32-.68,.48-1.02,.1-.22,.2-.45,.31-.67h.01Z"/>
    <path class="cls-1" d="M2.27,24.04c.03-.12,.06-.25,.1-.37,.01-.03,.04-.07,.06-.09,.15-.17,.34-.3,.55-.38,.1-.04,.22-.06,.33-.08,.1-.01,.2-.01,.31-.01,.2,0,.39,.05,.57,.13,.07,.03,.09,.11,.04,.18-.08,.13-.16,.27-.24,.39-.11,.17-.22,.33-.33,.49-.12,.17-.26,.32-.44,.43-.04,.02-.09,.03-.13,.04-.02,0-.04,0-.06,.01h-.02c-.14-.02-.28-.06-.4-.14-.13-.08-.23-.18-.29-.32-.02-.05-.02-.1-.03-.15v-.14Z"/>
    <path class="cls-1" d="M16.7,4.59c-.03,.09-.04,.18-.08,.26-.06,.12-.15,.2-.29,.25-.11,.04-.22,.03-.32-.02-.12-.06-.2-.15-.25-.28-.07-.18-.05-.35,.02-.52,.06-.14,.16-.24,.3-.29,.12-.04,.23-.03,.33,.02,.13,.07,.22,.18,.25,.34,0,.05,.02,.09,.03,.13v.1Z"/>
    <path class="cls-3" d="M8.43,13.62s.01-.05,.02-.07c.09-.23,.25-.41,.44-.55,.11-.08,.21-.17,.33-.24,.13-.07,.27-.13,.42-.19,.26-.1,.53-.17,.81-.21,.17-.02,.34,0,.5,0,.16,0,.3,.04,.45,.08,.01,0,.02,0,.03,.01,.16,.15,.32,.3,.36,.53,.02,.1,.05,.21,.06,.31,0,.05-.01,.11-.02,.16,0,.04-.01,.08-.02,.13,.04-.02,.07-.04,.1-.06,.15-.1,.34-.13,.51-.17,.17-.04,.35-.06,.53-.08,.1-.01,.21-.02,.31-.02,.31,0,.61,.04,.9,.15,.1,.03,.18,.1,.26,.16,.09,.07,.17,.16,.25,.24,.1,.12,.2,.24,.26,.39,.04,.1,.06,.2,.09,.3,.08,.29-.02,.56-.13,.83-.1,.25-.26,.45-.46,.63-.15,.14-.33,.24-.53,.29-.17,.04-.33,.09-.5,.13-.31,.07-.62,.09-.94,.07-.14,0-.27-.02-.42-.03,.04,.09,.08,.16,.1,.25,.04,.15,.07,.3,.11,.44,.04,.16-.02,.3-.05,.45-.05,.22-.18,.4-.32,.58-.26,.32-.57,.59-.93,.79-.21,.12-.42,.23-.64,.3-.22,.07-.44,.13-.67,.16-.24,.03-.46,0-.68-.07-.05-.02-.1-.03-.15-.05-.14-.06-.29-.11-.41-.2-.2-.14-.39-.31-.5-.54-.02-.04-.03-.05-.08-.03-.19,.06-.38,.12-.57,.16-.1,.02-.21,0-.32-.01-.11,0-.22-.04-.33-.04-.3,0-.59-.08-.87-.19-.17-.07-.3-.18-.44-.29-.02-.02-.04-.04-.06-.05-.12-.09-.13-.22-.17-.35-.08-.28-.02-.54,.08-.8,.04-.1,.08-.2,.14-.3,.06-.1,.14-.19,.22-.28,.11-.13,.27-.2,.42-.26,.16-.07,.32-.13,.48-.19-.09-.07-.18-.15-.26-.22-.17-.16-.29-.34-.41-.54-.08-.14-.1-.3-.14-.45-.02-.08,.01-.17,.02-.25,.02-.16,.09-.31,.17-.44,.03-.06,.09-.1,.14-.15,.13-.11,.26-.21,.41-.28,.15-.08,.31-.12,.48-.14,.21-.02,.41-.04,.62-.05,.25-.01,.48,.05,.71,.14,.09,.04,.18,.08,.28,.13Zm-1.51,2.43c-.07-.02-.13-.02-.18,.02-.02,.02-.05,.02-.07,.03-.23,.1-.46,.19-.68,.29-.07,.03-.14,.07-.18,.13-.07,.12-.13,.26-.18,.39-.03,.08-.04,.18-.04,.27,0,.08,.01,.17,.03,.25,.01,.06,.04,.12,.08,.16,.09,.08,.19,.15,.31,.2,.19,.07,.37,.13,.57,.12,.14-.01,.28-.04,.42-.07,.24-.06,.48-.07,.72-.03,.04,0,.06,0,.07-.04,.04-.22,.09-.44,.17-.65,0,0,0-.02,0-.03-.07-.03-.07-.1-.1-.16-.03-.05-.02-.1,0-.15,0-.02,.02-.04,.02-.06,.04-.09,.2-.16,.29-.12,.04,.02,.07,.04,.11,.05,.02,0,.04,0,.06-.01,.09-.07,.17-.14,.26-.2,.23-.16,.47-.29,.73-.39,.26-.1,.53-.2,.8-.28,.22-.07,.45-.11,.67-.17,0,0,0-.01-.01-.02-.13-.12-.17-.27-.17-.44,0-.1,0-.19,.02-.29,.02-.17,.08-.34,.17-.49,.11-.19,.27-.32,.43-.46,.02-.02,.05-.04,.06-.06,.06-.13,.12-.27,.14-.42,0-.08,.02-.17,0-.24-.03-.09-.08-.18-.14-.26-.04-.06-.09-.1-.16-.11-.07,0-.14-.02-.2-.02-.18,0-.36,0-.53,.03-.41,.06-.79,.21-1.13,.44-.14,.09-.24,.22-.34,.35-.1,.13-.06,.34,.04,.43,.04,.04,.08,.08,.12,.12,.08,.06,.07,.2,.02,.26-.11,.12-.23,.11-.31,.04-.19-.17-.4-.32-.62-.44-.21-.12-.43-.17-.67-.18-.09,0-.19,0-.28,.01-.08,0-.17,.02-.25,.03-.15,.02-.29,.07-.43,.15-.13,.08-.26,.17-.34,.31-.07,.12-.11,.25-.05,.38,.06,.13,.13,.25,.2,.38,.06,.1,.14,.19,.24,.25,.19,.12,.38,.24,.57,.37,.05,.03,.1,.06,.14,.1,0-.03,0-.05-.02-.06-.03-.08-.07-.15-.02-.24,.01-.03,.03-.06,.04-.09,.02-.05,.17-.16,.22-.14,.06,.01,.12,.04,.18,.08,.03,.02,.04,.06,.06,.1,.01,.02,.02,.05,.03,.08,.01,.02,.03,.04,.06,.05,.15,.02,.29,.06,.42,.11,.12,.05,.25,.09,.33,.21,.03,.04,.06,.08,.08,.13,0,0,0,.01-.01,.02-.07-.01-.15-.02-.21-.05-.14-.07-.26-.15-.4-.22-.09-.05-.17-.1-.26-.14-.06,.08-.04,.19-.15,.23-.09,.04-.18,.08-.27,0,.03,.06,.07,.11,.09,.16,.02,.04,.03,.05,.07,.04,.18-.05,.35-.07,.53-.01,.09,.03,.14,.09,.17,.18-.06,0-.11,.02-.15,.02-.17-.03-.34-.06-.52-.09-.05,0-.08,0-.1,.06-.06,.19-.24,.28-.4,.21-.05-.02-.12-.05-.15-.09-.05-.09-.11-.19-.04-.3Zm1.44,1.76c0,.24,.08,.45,.27,.6,.14,.11,.29,.19,.45,.24,.17,.05,.35,.08,.53,.05,.11-.02,.22-.03,.31-.07,.31-.12,.62-.25,.9-.43,.15-.1,.31-.2,.44-.32,.15-.13,.26-.3,.35-.47,.05-.1,.11-.2,.1-.32,0-.14-.02-.28-.06-.41-.03-.1-.1-.19-.19-.24-.19-.12-.39-.2-.6-.25-.07-.02-.15-.03-.21-.07-.09-.07-.17-.09-.29-.05-.24,.09-.5,.16-.73,.27-.22,.11-.43,.25-.64,.38-.18,.11-.34,.26-.46,.44-.13,.2-.19,.43-.18,.67Zm3.94-2.05c.19-.02,.37-.05,.56-.07,.3-.04,.6-.09,.88-.23,.08-.04,.15-.1,.2-.16,.11-.12,.18-.28,.24-.43,.06-.13,.07-.26,0-.39-.06-.11-.12-.23-.2-.32-.06-.07-.14-.14-.25-.17-.14-.03-.28-.07-.42-.09-.17-.02-.34-.04-.51-.04-.13,0-.26,.01-.39,.02-.18,.01-.36,.03-.53,.11-.25,.12-.49,.26-.66,.49-.09,.11-.14,.24-.18,.37-.03,.11-.02,.24-.03,.36,0,.08,.03,.14,.09,.17,.1,.07,.2,.12,.31,.18,.03,.02,.06,.05,.1,.06,.05,.03,.09,.06,.14,.07,.21,.03,.42,.05,.63,.07Z"/>
    <path class="cls-1" d="M8.08,23.46c.15-.2,.31-.4,.46-.6,.19-.23,.37-.47,.56-.7,.14-.17,.29-.33,.44-.5,.12-.14,.25-.27,.38-.4,.13-.13,.25-.26,.38-.38,.11-.1,.23-.18,.35-.27,.04-.03,.08-.07,.12-.11,.18-.18,.37-.37,.55-.55,.13-.13,.26-.25,.4-.38,.2-.18,.41-.36,.61-.54,.2-.17,.4-.34,.6-.51,.07-.06,.14-.11,.21-.16,.03-.02,.03-.04,.01-.07-.12-.18-.2-.38-.23-.59-.01-.1,0-.2,.02-.29,.04-.16,.09-.31,.14-.47,.03-.1,.13-.12,.21-.16,0,0,.02,0,.03,.01,.04,.07,.11,.14,.07,.24-.05,.11,0,.2,.06,.28,.09,.13,.18,.26,.26,.39,.03,.05,.08,.07,.13,.08,.13,.01,.26,.02,.38,.04,.14,.01,.25,.06,.3,.21,0,.01,.02,.03,.03,.04,.14,.12,.15,.23,.09,.4-.04,.12-.12,.21-.18,.33-.02,.04-.03,.08-.03,.13,0,.11-.05,.24-.18,.27-.15,.03-.31,.06-.46,.09-.01,0-.03,0-.03,.01-.08,.11-.21,.12-.32,.17-.03,.01-.06,.03-.09,.05,.09,.11,.18,.21,.27,.31,.15,.17,.31,.33,.47,.5,.04,.05,.09,.07,.15,.08,.1,.02,.17,.08,.23,.17,.06,.08,.14,.14,.22,.2,.14,.09,.28,.18,.44,.23,.1,.03,.2,.04,.29,.06,.08,.02,.16,.03,.23,.06,.05,.02,.09,.07,.13,.11,.06,.05,.11,.11,.11,.2,0,.07,0,.15-.06,.2-.06,.07-.13,.13-.2,.2-.02,.02-.04,.04-.01,.08,.03,.04,.06,.09,.08,.15,.06,.13,.02,.24-.06,.36-.12,.18-.29,.28-.5,.32-.08,.02-.16,0-.21-.06-.06-.06-.11-.13-.15-.2-.06-.11-.15-.17-.25-.23-.41-.26-.87-.4-1.34-.5-.26-.06-.52-.1-.77-.16-.21-.05-.41-.12-.62-.18-.05-.01-.09-.04-.13-.07-.03-.02-.04,0-.06,.01-.1,.16-.2,.32-.29,.48-.11,.19-.21,.38-.32,.56-.03,.05-.02,.1,0,.15,.07,.21-.12,.38-.32,.35-.08-.01-.17,.01-.25,.02-.35,.05-.67,.2-1,.3-.25,.07-.5,.14-.76,.16-.11,0-.22,.02-.33,0-.1,0-.17,.03-.24,.1-.01,.01-.03,.03-.05,.04,0,0,0,0-.01-.01Zm5.81-2.47c0-.05-.02-.1-.01-.14,0-.05,0-.08-.03-.11-.1-.1-.21-.21-.3-.32-.13-.17-.21-.38-.27-.59-.02-.08-.04-.16-.06-.25-.38,.21-1.29,1.17-1.36,1.43,.04,0,.07-.02,.11-.02,.18,0,.36,.01,.54-.03,.12-.03,.25-.03,.37-.05,.08,0,.16-.01,.23-.01,.09,0,.17,.01,.26,.02,.09,0,.18,.02,.27,.03,.08,0,.16,.02,.24,.03Z"/>
    <path class="cls-1" d="M9.72,20.69c-.13,.06-.24,.12-.36,.15-.25,.08-.51,.14-.76,.22-.03,0-.06,.03-.08,.05-.07,.08-.13,.18-.21,.26-.25,.26-.51,.51-.76,.77-.09,.09-.22,.13-.35,.04-.12-.08-.17-.2-.22-.32-.05-.12-.09-.25-.12-.38,0-.03-.02-.04-.05-.03-.41,.14-.82,.28-1.23,.43-.47,.18-.93,.4-1.38,.63-.15,.08-.3,.16-.45,.24-.12,.07-.25,.09-.38,.02-.13-.06-.2-.24-.16-.38,.03-.11,.11-.19,.2-.24,.19-.1,.37-.2,.57-.29,.42-.19,.85-.37,1.28-.54,.24-.1,.49-.18,.74-.26,.29-.09,.58-.17,.87-.25,.02,0,.03-.02,.04-.03,.06-.09,.11-.19,.18-.28,.04-.06,.1-.12,.16-.16,.15-.09,.3-.19,.46-.25,.11-.05,.25-.05,.37-.06,.12-.01,.24,.01,.35,.07,.11,.06,.22,.13,.24,.27,0,.02,0,.03,0,.05,0,.08,0,.08,.09,.09,.09,0,.18,.01,.27,0,.13,0,.25,.04,.38,.08,.1,.03,.21,.06,.32,.1Z"/>
    <path class="cls-1" d="M14.49,7.77c.19,0,.36,.05,.51,.16,.24,.19,.32,.4,.25,.68-.04,.2-.19,.34-.38,.43-.16,.07-.32,.12-.49,.12-.29,0-.46-.14-.57-.41-.04-.09-.08-.18-.12-.28-.07-.16-.04-.31,.07-.44,.1-.12,.24-.16,.38-.2,.11-.03,.23-.04,.34-.06Z"/>
    <path class="cls-1" d="M5.99,22.04c-.11,.14-.22,.26-.31,.4-.08,.12-.15,.25-.21,.37-.02,.04-.02,.08-.02,.12-.01,.07-.02,.13-.04,.2-.05,.14-.14,.22-.28,.26-.18,.05-.34-.04-.43-.18-.05-.08-.08-.17-.05-.27,.05-.18,.13-.34,.27-.47,.1-.1,.2-.2,.34-.27,.16-.08,.33-.12,.51-.14,.07,0,.15-.02,.23-.02Z"/>
    <path class="cls-1" d="M5.07,21.12c-.14,0-.24-.08-.34-.16-.07-.06-.12-.12-.14-.21-.03-.13,.05-.26,.14-.31,.15-.08,.3-.14,.47-.15,.13,0,.26,0,.38,.07,.11,.06,.2,.15,.22,.28,.01,.12-.04,.21-.13,.27-.15,.1-.31,.16-.49,.19-.03,0-.07,.01-.1,.01Z"/>
    <path class="cls-3" d="M8.93,15.82c-.11-.06-.19-.15-.28-.24-.12-.13-.24-.25-.37-.38-.04-.04-.09-.08-.14-.13-.02,.03-.03,.07-.04,.1-.05,.11-.19,.16-.3,.12-.15-.04-.19-.17-.2-.28,0-.08,.04-.16,.08-.24,.01-.03,.06-.04,.09-.06,.1-.07,.21-.02,.28,.04,.05,.05,.08,.14,.09,.22,0,.06,.02,.09,.08,.11,.28,.1,.49,.3,.68,.52,.04,.04,.03,.13,.04,.2,0,0-.01,0-.02,0Z"/>
    <path class="cls-3" d="M9.95,15.55c-.04-.09-.08-.15-.1-.22,0-.06,.02-.12,.04-.18,.04-.14,.1-.28,.18-.4,.02-.03,.03-.06-.02-.07-.01,0-.02-.02-.03-.03,0,0,0-.02-.01-.03-.08-.11-.05-.22,.01-.33,0-.02,.04-.02,.05-.04,.12-.09,.23-.04,.34,.01,.01,0,.02,.02,.02,.04,0,0,0,.02,.01,.03,.08,.11,.03,.22-.02,.32,0,0-.01,.02-.02,.02-.05,.02-.11,.05-.17,.07-.02,0-.05,0-.09,0-.03,.16-.07,.32-.09,.48-.01,.12-.08,.21-.14,.33Z"/>
    <path class="cls-3" d="M9.7,15.43c-.06-.09-.16-.15-.15-.28,.01-.15,.02-.3,.02-.45,0-.04,0-.07-.05-.08,0,0,0,0,0,0-.13-.02-.15-.12-.18-.22,0-.02,0-.04,0-.06,0-.03,.03-.06,.04-.09,.02-.05,.05-.08,.1-.11,.12-.07,.22-.03,.32,.03,.03,.02,.04,.08,.06,.11,.06,.1-.01,.18-.05,.27-.01,.03-.07,.04-.11,.05-.03,.01-.04,.03-.03,.07,.04,.18,.08,.35,.11,.53,0,.07-.03,.15-.05,.22,0,0-.01,0-.02,0Z"/>
    <path class="cls-3" d="M7.57,16.55c.11,.07,.14,.2,.12,.31-.03,.14-.14,.18-.24,.19-.07,0-.16-.04-.21-.09-.09-.09-.08-.25,0-.36,.02-.02,.05-.03,.08-.04,.06-.03,.13-.07,.2-.02,.01,0,.05,0,.06-.02,.12-.09,.26-.13,.41-.13,.04,0,.14,.07,.15,.11,0,0,0,.02-.01,.03-.06,.07-.13,.07-.21,.06-.11-.01-.22-.02-.33-.04Z"/>
    <path class="cls-3" d="M8.7,14.92s-.03,0-.04,.01c-.1,.07-.21,.06-.31,0-.03-.02-.05-.04-.07-.07-.05-.08-.06-.16-.02-.26,.04-.08,.1-.1,.16-.13,.11-.05,.25,.03,.31,.14,.07,.12,0,.21-.04,.31h0Z"/>
    <path class="cls-3" d="M9.05,14.54c.06,.1,.13,.19,.19,.3,.08,.16,.16,.32,.23,.48,0,0,0,.01,0,.02-.02,.07-.03,.14-.05,.2,0,0-.01,0-.02,0-.06-.09-.13-.16-.16-.26-.08-.23-.13-.47-.2-.7,0-.01,0-.02,0-.04,0,0,0,0,.01,0Z"/>
    <path class="cls-3" d="M8.7,14.92c.21,.17,.38,.38,.51,.61,0,0,.01,.02,0,.03-.01,.06-.03,.11-.04,.18-.1-.1-.2-.18-.24-.31-.06-.15-.14-.29-.21-.44-.01-.02-.02-.04-.03-.07h0Z"/>
    <path class="cls-3" d="M10.63,14.82c-.05,.11-.11,.22-.15,.33-.03,.08-.07,.15-.14,.2-.03,.02-.07,.02-.1,.03-.01-.05-.05-.11-.03-.13,.11-.17,.24-.32,.42-.43Z"/>
  </g>
  <path class="cls-3" d="M3.68,2.57c0,.08-.02,.31-.05,.7-.03,.39-.06,.62-.08,.69l.13-.03c.14,0,.28,.01,.41,.04,.14,.03,.2,.08,.2,.17,0,.06-.11,.15-.34,.29-.23,.13-.39,.21-.5,.23l-.02,.77s.13-.12,.27-.27c.13-.15,.22-.26,.28-.34-.03,.12-.11,.35-.26,.68-.14,.33-.24,.53-.29,.6,0,.71,.01,1.25,.03,1.6,.02,.32,.04,.64,.07,.98,0,.04,0,.07,0,.11-.06,.31-.06,.73-.34,.66-.21-.07-.28-.56-.37-.86,0-.03,0-.06,0-.1,.02-.16,.04-.36,.06-.6,.02-.29,.03-.63,.03-1.04-.05,.05-.19,.19-.42,.44s-.38,.37-.47,.37c-.1,0-.18-.07-.24-.21-.06-.14-.1-.26-.1-.37,.24-.32,.48-.69,.72-1.09,.24-.4,.42-.8,.53-1.18-.09,.05-.19,.08-.32,.1-.12,.02-.23,.03-.33,.03-.06,0-.19-.03-.37-.1-.18-.06-.29-.1-.31-.1v-.07c.12-.02,.36-.1,.72-.23,.37-.13,.58-.22,.63-.29,0-.66,0-1.11-.02-1.34,0-.04,0-.08-.01-.11,0-.04-.01-.07-.02-.11-.01-.11-.07-.18-.12-.25-.02-.02-.04-.04-.05-.06-.06,.02-.06-.05-.06-.12,.07-.07,.14-.07,.21-.06,.03,.01,.07,.03,.1,.05,.1,.06,.21,.15,.31,.16,.04,.02,.08,.03,.11,.05,.15,.07,.23,.14,.23,.21Zm3.47,1.8c.3,0,.52,.1,.67,.3,.14,.2,.21,.39,.21,.57v.13c0,.1,0,.21-.03,.33,.13-.01,.28-.03,.45-.05,.17-.02,.3-.03,.4-.03,.09,0,.19,.03,.3,.09,.03,.01,.06,.03,.09,.05,.14,.19,.63,.26,.49,.54-.07,.14-.42-.07-.7-.07-.04,0-.09-.01-.14-.02-.05,0-.1-.01-.15-.02-.41-.06-.66-.09-.76-.09-.02,.2-.07,.48-.15,.84-.08,.36-.18,.71-.3,1.05,.05,.02,.11,.06,.17,.1,.06,.04,.11,.09,.17,.14,.01-.09,.02-.18,.02-.27,0-.08,0-.13,0-.17,.14,.28,.28,.56,.42,.83,.02,.04,.03,.08,.05,.11,.01,.04,.03,.07,.04,.1,0,.11,.15,.25,.08,.39-.07,.14-.21,.14-.38,.03-.03-.02-.06-.04-.09-.07-.03-.03-.07-.06-.11-.1-.16-.16-.33-.32-.51-.5-.09,.26-.18,.47-.27,.63-.1,.17-.18,.25-.25,.25-.13,0-.32-.11-.55-.34-.23-.23-.38-.44-.44-.64,.12,.08,.23,.14,.32,.18,.09,.04,.18,.06,.27,.06,.09,0,.16-.06,.22-.16,.06-.1,.11-.23,.16-.38-.37-.2-.72-.35-1.07-.46-.35-.11-.6-.16-.76-.16-.02,0-.09,.01-.21,.03-.12,.02-.21,.03-.27,.03-.03,0-.06-.03-.09-.09-.03-.06-.04-.12-.04-.18,0-.08,.05-.2,.16-.37,.1-.17,.17-.27,.18-.32-.01,0-.1,.03-.26,.09-.16,.06-.26,.09-.29,.09-.13,0-.27-.05-.4-.15-.14-.1-.22-.19-.24-.26v-.07c.31,0,.58-.02,.8-.07,.22-.04,.44-.11,.66-.2,.11-.25,.2-.48,.27-.68,.07-.21,.1-.33,.1-.37,0-.02-.01-.05-.04-.07-.03-.03-.07-.05-.13-.07v-.06c.44-.13,.84-.25,1.19-.34,.35-.09,.61-.14,.79-.14Zm-1.53-2.24c.09,.05,.17,.14,.24,.28,.07,.14,.1,.27,.1,.4,0,.1-.01,.21-.03,.33-.02,.12-.05,.23-.1,.35,.21-.08,.51-.18,.92-.31,.1-.03,.19-.06,.27-.09,.08-.02,.15-.04,.2-.06,.07,0,.13-.01,.2-.02,.07,0,.13-.01,.2,0,.14-.06,.42,.08,.35,.29-.07,.14-.28,.21-.39,.25-.09,.03-.19,.07-.3,.11-.46,.16-.91,.31-1.35,.46,.06-.04,.12-.09,.19-.16,.07-.07,.11-.12,.12-.15-.05,0-.19,.07-.43,.2-.23,.13-.46,.27-.69,.42-.06,0-.14-.06-.22-.17-.08-.12-.13-.21-.13-.27,.21-.34,.4-.66,.57-.98,.17-.32,.25-.59,.25-.82l.03-.03Zm.44,4.11c-.13,.02-.25,.04-.34,.07s-.2,.06-.3,.1c-.08,.11-.14,.2-.17,.27-.03,.07-.11,.23-.23,.48l.56,.1c.09-.13,.17-.29,.26-.47,.08-.18,.16-.36,.24-.55Zm.95-1.6c-.08,0-.3,.08-.66,.24-.36,.16-.57,.24-.63,.24,.05,.12,.06,.23,.05,.34,0,.04-.03,.12-.09,.23-.05,.12-.1,.22-.14,.3,.08,0,.18-.01,.32-.03,.14-.02,.24-.04,.3-.06,.03-.12,.07-.24,.11-.37,.04-.13,.06-.21,.06-.25,0-.02-.01-.05-.04-.1-.03-.05-.05-.08-.07-.1v-.07c.2,0,.37,.04,.52,.13,.15,.08,.23,.17,.23,.25,0,.05-.02,.12-.05,.21-.03,.09-.06,.17-.08,.23,.03,0,.1,0,.23-.03,.12-.02,.21-.03,.28-.03,.01-.06,.02-.14,.03-.23,0-.1,0-.23,0-.39,0-.15-.03-.27-.09-.37-.06-.1-.15-.14-.29-.14Zm.33,1.48c-.16,0-.29,0-.39,.01-.1,0-.17,.02-.21,.04-.11,.22-.22,.43-.34,.63-.12,.2-.25,.39-.4,.57,.1,.02,.24,.06,.41,.13,.18,.07,.37,.14,.57,.22,.09-.29,.17-.58,.24-.87,.07-.29,.11-.54,.13-.73Z"/>
</svg>