<?xml version="1.0" encoding="UTF-8"?>
<svg id="_图层_1" data-name="图层 1" xmlns="http://www.w3.org/2000/svg" viewBox="0 0 19 26">
  <defs>
    <style>
      .cls-1 {
        fill: #005529;
      }

      .cls-2 {
        fill: #93989c;
      }

      .cls-3 {
        fill: #881c21;
      }

      .cls-4 {
        fill: #f5f6f7;
      }

      .cls-5 {
        fill: none;
      }
    </style>
  </defs>
  <g>
    <rect class="cls-4" x=".12" y=".12" width="18.75" height="25.75" rx="1.88" ry="1.88"/>
    <path class="cls-2" d="M17,.25c.96,0,1.75,.79,1.75,1.75V24c0,.96-.79,1.75-1.75,1.75H2c-.96,0-1.75-.79-1.75-1.75V2C.25,1.04,1.04,.25,2,.25h15M17,0H2C.9,0,0,.9,0,2V24C0,25.1,.9,26,2,26h15c1.1,0,2-.9,2-2V2C19,.9,18.1,0,17,0h0Z"/>
  </g>
  <g>
    <path class="cls-1" d="M16.84,17.5c-.12,0-.25,0-.37,0-.18,.01-.35,.03-.53,.06-.24,.04-.48,.1-.71,.19-.23,.08-.46,.16-.69,.24-.17,.05-.35,.08-.51,.15-.27,.11-.53,.22-.78,.36-.26,.14-.51,.29-.76,.46-.29,.2-.57,.42-.79,.7-.13,.16-.24,.34-.33,.53-.05,.1-.09,.2-.13,.31,0,0,0-.02,0-.02,0-.35-.01-.71-.03-1.06,0-.19-.03-.37-.06-.56-.03-.23-.07-.46-.12-.69,0-.03,0-.04,.03-.05,.16-.03,.32-.09,.47-.16,.01,0,.03,0,.04,0,.17,.09,.35,.16,.55,.19,.13,.02,.27,.04,.4,.04,.13,0,.26-.01,.4-.03,.19-.02,.38-.04,.57-.08,.3-.06,.58-.17,.83-.35,.18-.13,.34-.29,.47-.47,.1-.15,.19-.32,.29-.48,.03-.04,.06-.08,.12-.09,.07,0,.13-.03,.2-.04,.16-.05,.33-.09,.49-.14,.14-.05,.29-.09,.43-.16,.11-.05,.2-.13,.29-.21,.06-.05,.1-.13,.15-.2,0,0,0,0-.01-.01-.02,.01-.04,.02-.06,.03-.21,.13-.45,.15-.69,.15-.18,0-.36-.03-.54-.04-.21-.02-.41-.04-.62-.07-.27-.04-.53-.12-.78-.24-.24-.11-.47-.23-.72-.33-.38-.16-.78-.27-1.2-.26-.02,0-.04,0-.06-.01-.07-.02-.14-.05-.21-.07-.28-.09-.58-.13-.88-.14-.22,0-.44,0-.66,.02-.12,0-.24,.04-.36,.06-.17,.03-.29,.14-.4,.27-.02,0-.03-.01-.05-.02-.14-.05-.27-.12-.42-.13-.22-.01-.45-.04-.67-.05-.08,0-.16,0-.24,0-.15,.01-.3,.02-.43,.1-.1,.06-.2,.12-.27,.21-.16,.2-.19,.44-.16,.68,0,.03,.02,.07,.03,.1,.09-.09,.18-.17,.26-.25,.16-.14,.33-.25,.55-.29,.2-.04,.39-.05,.58-.02,.19,.03,.38,.08,.57,.13,.12,.03,.24,.07,.35,.13,.15,.09,.31,.16,.47,.23,.1,.04,.19-.05,.17-.14-.03-.16-.11-.29-.23-.4-.03-.03-.07-.06-.1-.09,.02-.01,.04-.03,.06-.03,.15-.03,.3-.07,.45-.08,.33-.02,.67,0,1,.07,.27,.05,.53,.11,.79,.17,.17,.04,.34,.11,.51,.17,.02,0,.05,0,.06,0,.03-.02,.05-.05,.06-.08,0-.03-.02-.06-.03-.11,.23,.11,.47,.23,.7,.34,.21,.1,.41,.23,.64,.28,.23,.05,.45,.11,.68,.16,.12,.03,.25,.04,.38,.05-.04,.05-.07,.1-.1,.15-.04,.07-.1,.1-.17,.13-.16,.06-.32,.11-.48,.16-.44,.15-.87,.32-1.31,.47-.36,.12-.72,.23-1.1,.3-.07,.01-.15,.02-.23,.03,.08-.14,.18-.25,.29-.36,.02-.02,.04-.04,.04-.06,.03-.08,.05-.15,.07-.23,0-.03,0-.07,0-.11,0-.05-.02-.1-.03-.16,0-.1-.1-.24-.19-.27-.06-.02-.12-.04-.18-.06-.01,0-.03,0-.04,0-.13,.06-.28,.08-.4,.19-.08,.07-.16,.14-.23,.22-.14,.15-.27,.3-.49,.32-.08,0-.16,.01-.24,.01-.08,0-.17-.01-.25-.02-.07,0-.15,0-.22,0-.3-.05-.57-.18-.83-.34-.17-.11-.32-.24-.5-.31-.17-.07-.34-.1-.53-.1-.07,0-.14,0-.22,.02-.08,.01-.15,.03-.23,.04,.06,.03,.13,.04,.19,.06,.19,.08,.33,.21,.46,.37,.12,.14,.24,.29,.37,.43,.02,.02,.04,.04,.07,.06-.06,0-.1,0-.15,0-.09,0-.16-.03-.2-.13,0-.02-.02-.03-.03-.05-.02-.05-.06-.07-.11-.09-.06-.02-.12-.03-.17-.06-.07-.05-.16-.03-.17,.07,0,.11-.02,.22-.02,.33,0,.18,.08,.33,.19,.46,.01,.02,.03,.03,.05,.04,.12,.05,.23,.09,.35,.14-.03,.19-.06,.38-.09,.57-.04,.27-.07,.54-.1,.81-.02,.23-.04,.45-.06,.68,0,.02-.01,.03-.02,.05,0-.02-.02-.03-.02-.05,0-.15,0-.31-.02-.46-.01-.19-.04-.39-.06-.58-.03-.29-.08-.57-.15-.85-.11-.45-.28-.89-.48-1.31-.13-.27-.27-.52-.45-.76-.12-.17-.24-.36-.38-.52-.15-.18-.32-.34-.49-.5-.18-.17-.37-.33-.57-.48-.36-.28-.75-.53-1.15-.74-.23-.12-.45-.26-.65-.41-.14-.11-.29-.19-.48-.12-.15,.05-.23,.14-.24,.3,0,.15-.04,.28-.14,.4-.18,.22-.36,.45-.54,.68-.19,.24-.32,.5-.4,.79-.07,.25-.07,.49-.05,.75,0,.04,.02,.08,.02,.12,.02-.02,.03-.03,.03-.05,.03-.12,.09-.23,.17-.33,.14-.18,.28-.35,.44-.52,.19-.2,.39-.39,.59-.58,.15-.15,.32-.28,.51-.37,.15-.07,.31-.07,.46,0,.17,.08,.34,.18,.5,.28,.36,.22,.68,.49,.97,.8,.19,.21,.36,.42,.52,.66,.13,.2,.24,.4,.36,.6,.07,.13,.15,.27,.19,.41,.09,.29,.18,.59,.25,.89,.1,.43,.19,.87,.28,1.3,.01,.06,.02,.13,.02,.19-.07-.06-.12-.13-.17-.19-.11-.13-.22-.26-.33-.38-.13-.15-.27-.3-.41-.44-.15-.15-.31-.29-.47-.42-.18-.15-.36-.29-.56-.42-.19-.12-.39-.22-.59-.32-.31-.16-.65-.26-1-.28-.2-.01-.4,0-.59,.04-.19,.04-.37,.1-.56,.16-.05,.01-.09,.04-.14,.06,.02,.01,.03,.01,.05,.01,.09,0,.18-.02,.26-.02,.15,0,.29,.01,.44,.04,.5,.08,.96,.27,1.37,.56,.36,.25,.69,.53,.98,.86,.15,.17,.3,.34,.44,.52,.27,.34,.51,.7,.73,1.07,.1,.16,.19,.33,.3,.48,.07,.1,.14,.19,.27,.22,.04,0,.07,.03,.11,.05-.02,0-.03,0-.05,0-.15-.01-.3-.01-.45-.03-.14-.02-.29-.04-.43-.08-.2-.07-.4-.14-.61-.16-.18-.01-.35-.03-.53-.03-.2,0-.38-.05-.55-.16-.19-.13-.35-.3-.49-.48-.02-.02-.04-.04-.06-.07,0,0,0,0-.01,0,0,.07,0,.14,.01,.2,.06,.29,.19,.53,.43,.69,.22,.15,.45,.29,.74,.29,.12,0,.24,.02,.36,.04,.24,.04,.48,.07,.71,.12,.23,.05,.46,.1,.7,.11,.16,.01,.32,.02,.48,.03,.17,0,.34,.01,.51,.02,.15,0,.29,0,.44,0,.23,0,.47,0,.7,0,.12,0,.24,0,.35,0,.21,0,.42,0,.63,.02,.21,.02,.41,.04,.62,.07,.25,.04,.49,.08,.74,.13,.29,.06,.57,.12,.86,.18,.16,.04,.33,.08,.49,.12-.14,0-.28,0-.42-.01-.23,0-.46-.01-.68-.02-.21,0-.42-.01-.63-.02-.17,0-.34-.01-.52-.02-.18,0-.37-.01-.55-.02-.15,0-.29-.01-.44-.02-.24,0-.49-.02-.73-.03-.09,0-.18,0-.26,0-.27,0-.54,0-.81-.05-.18-.03-.37-.07-.55-.13-.19-.06-.37-.13-.56-.19-.34-.11-.68-.15-1.03-.13-.19,0-.37,.03-.56,.05-.07,0-.14,.02-.2,.04,.06,.01,.12,.02,.18,.02,.12,.01,.25,.02,.37,.04,.21,.04,.42,.09,.63,.14,.24,.06,.46,.15,.67,.28,.28,.18,.58,.31,.9,.38,.21,.05,.42,.08,.63,.11,.21,.03,.41,.04,.62,.06,.09,0,.19,.01,.28,.02,.27,.02,.54,.04,.82,.05,.16,0,.32,0,.48,0,.24,0,.48-.01,.72-.02,.14,0,.27-.01,.41-.02,.19,0,.38-.02,.57-.03,.18,0,.36-.02,.54-.03,.21,0,.43,0,.64,0,.26,.01,.51,.03,.77,.05,.14,.01,.27,.03,.39,.1,.15,.09,.31,.18,.39,.35,.02,.05,0,.06-.03,.08-.02,0-.04,0-.05,.01-.14,.02-.29,.04-.43,.07-.18,.04-.36,.09-.54,.12-.27,.05-.55,.08-.82,.12-.22,.03-.44,.04-.67,.06-.07,0-.15,0-.22,.01-.1,0-.2,.02-.29,.01-.12-.02-.24-.06-.37-.09-.04-.01-.08-.03-.12-.05,0,0,0,.01,0,.02,.11,.05,.21,.12,.33,.16,.16,.06,.32,.11,.48,.15,.28,.07,.57,.12,.86,.15,.19,.01,.38,.03,.57,.05,.13,.01,.25,.02,.38,.05,.3,.06,.59,.1,.89,.07,.26-.03,.5-.11,.72-.26,.06-.04,.12-.08,.18-.13s.13-.08,.15-.16c0-.03,.02-.06,.04-.09,.02-.05,.05-.1,.05-.14,0-.13-.06-.25-.14-.36-.13-.2-.33-.32-.54-.42-.25-.11-.5-.19-.77-.24-.22-.04-.44-.08-.67-.11-.16-.02-.32,0-.48-.01-.12,0-.24,0-.36-.01-.02,0-.03,0-.05-.01-.11-.05-.21-.11-.32-.15-.24-.1-.49-.21-.74-.3-.42-.15-.85-.26-1.29-.33-.23-.04-.47-.06-.7-.09-.21-.03-.42-.06-.63-.09-.2-.02-.39-.04-.59-.06-.06,0-.13-.01-.2-.02,.02-.04,.03-.07,.04-.11,.13,.01,.25,0,.37,.04,.08,.02,.14,.02,.22,.02,.12,0,.23,.02,.35,.03,.14,.01,.29,.03,.43,.04,.11,0,.21,.01,.32,.02,.21,.01,.42,.03,.62,.04,.06,0,.08,.02,.1,.07,.01,.03,.03,.08,.05,.09,.12,.06,.23,.13,.38,.11,.13-.02,.22-.07,.28-.17,.01-.02,.03-.06,.02-.08-.03-.1,.02-.18,.07-.26,.08-.13,.21-.22,.34-.29,.22-.13,.47-.19,.71-.27,.21-.07,.43-.13,.64-.19,.16-.04,.31-.09,.47-.13,.12-.04,.26-.06,.37-.12,.22-.11,.43-.25,.65-.38,.39-.23,.76-.49,1.08-.83,.04-.05,.08-.1,.13-.15-.02,0-.04,0-.06,0-.37,.14-.74,.28-1.11,.41-.22,.08-.43,.14-.66,.2-.21,.05-.42,.07-.63,.11-.24,.05-.47,.13-.7,.22-.11,.04-.22,.09-.33,.14,.1-.08,.2-.16,.3-.23,.26-.17,.51-.34,.78-.49,.31-.17,.64-.33,.96-.49,.13-.06,.25-.13,.38-.2,.18-.1,.36-.2,.55-.29,.14-.07,.3-.12,.45-.17,.23-.07,.45-.14,.68-.21,.22-.06,.44-.1,.66-.15,.11-.02,.22-.04,.33-.05-.13-.03-.26-.05-.39-.07-.22-.02-.45-.05-.67-.06Zm-8.65,3.15s.03-.02,.06-.04c0,.09,0,.16,0,.23,0,.01-.02,.03-.03,.03-.03,0-.05,0-.08,0,.02-.08,.03-.15,.05-.22Zm-.5,.69c.05-.02,.11-.04,.16-.07,.03-.02,.07-.04,.1-.07,.04-.05,.08-.05,.13-.05,.02,0,.05,0,.07,0,.06,0,.12,0,.13,.09,0,.03,.05,.06,.08,.09h-.66Zm1.41-.45s-.02,.02-.03,.02c-.08,0-.17-.01-.25-.02-.03,0-.04,0-.03-.04,0-.06,.01-.12,.01-.18,0-.04,.02-.06,.06-.05,.03,0,.07,0,.1,0,.04,0,.08,0,.12,0,.01,0,.03,.02,.03,.03,0,.08,0,.16,0,.25Zm.21-2.2c-.03,.18-.05,.37-.07,.55-.02,.17-.04,.34-.06,.51-.01,.13-.03,.27-.04,.4,0,.03-.01,.04-.04,.04-.09,0-.19,0-.29,0,0-.68-.02-1.37-.12-2.07,.14,.04,.27,.03,.39,0,.12-.04,.24-.1,.35-.15-.04,.23-.09,.48-.12,.72Zm.63,2.26c-.12,0-.24-.01-.36-.02,.01-.09,.03-.18,.04-.27,0-.01,.03-.03,.04-.03,.08,0,.17,0,.25,0,.01,0,.03,.02,.03,.03,0,.09,0,.18,0,.28Zm.24-2.88c-.03,.17-.06,.34-.08,.52-.02,.14-.04,.27-.05,.41-.02,.2-.04,.4-.06,.61,0,.12-.01,.23-.02,.35,0,.07,0,.14-.01,.21,0,.01-.02,.03-.03,.03-.08,0-.16,0-.24-.01,0,0-.02-.03-.02-.04,0-.08,0-.16,0-.25,0-.31,0-.62,0-.93,0-.19-.02-.37-.04-.56-.01-.15-.03-.3-.04-.46,0-.03,0-.05-.01-.09,.05,.02,.1,.03,.14,.04,.14,.04,.28,.08,.42,.11,.03,0,.04,.02,.03,.04Zm.29,2.9s-.03-.03-.03-.04c0-.07,0-.14,.02-.22,0-.01,.03-.03,.04-.02,.06,0,.12,0,.17,.02,.01,0,.03,.02,.03,.03,0,.08,.01,.16,.02,.24-.09,0-.17,0-.26,0Zm.24-2.49c0,.05,0,.11-.01,.16,0,.1,0,.21,0,.31,0,.33,0,.66,0,.98,0,.1,0,.21,0,.31,0,.02,0,.03,0,.05-.07-.02-.13-.03-.19-.05,0,0-.01-.02-.01-.03,0-.11,0-.22,.02-.33,0-.07,0-.14,.01-.21,0-.11,0-.22,0-.32,0-.26,0-.53,0-.79,0-.16,0-.32,0-.48,.05,0,.12,0,.18,.02,0,0,.02,.02,.02,.03,0,.11-.02,.23-.03,.34Z"/>
    <path class="cls-3" d="M12.2,13.56c-.16-.11-.34-.19-.53-.25-.07-.02-.15-.04-.23-.07,.03-.03,.06-.05,.09-.08,.05-.05,.11-.1,.15-.16,.09-.13,.16-.27,.2-.42,.03-.1,.08-.19,.11-.29,.08-.27,.1-.54,.11-.82,0-.06,.02-.09,.08-.1,.19-.05,.38-.1,.57-.15-.01,0-.01-.01-.02-.02-.15-.08-.3-.13-.47-.12-.14,0-.28,.01-.41,.03-.23,.03-.46,.06-.69,.11-.11,.02-.21,.09-.3,.14-.25,.14-.48,.29-.68,.49,0,0-.02,.02-.03,.03-.15-.82-.59-1.48-1.08-2.12,0,.03,0,.06,0,.09,.03,.23,.06,.46,.1,.69,.06,.32,.13,.63,.21,.94,.05,.23,.09,.45,.1,.68,.01,.2,.03,.41,.04,.61,0,.11,0,.23,0,.34-.01,.2-.07,.4-.17,.57-.08,.13-.17,.25-.26,.37-.05,.07-.06,.19-.01,.26,.04,.06,.15,.1,.23,.07,.08-.03,.16-.05,.18-.15,.01-.05,.04-.1,.07-.14,.13-.15,.29-.25,.47-.32,.21-.08,.42-.13,.64-.16,.07-.01,.13-.03,.2-.03,.11,0,.21,.01,.31,.04,.1,.02,.19,.07,.27,.15,.07,.08,.13,.16,.23,.21,0,0,.02,0,.04,.02-.67,.11-1.32,.16-1.99,.16,.01,0,.02,.01,.04,.01,.1,.03,.2,.06,.3,.09,.38,.12,.76,.18,1.16,.2,.16,0,.33,.02,.48-.04,.13-.05,.27-.08,.4-.13,.04-.01,.06-.02,.1,0,.22,.11,.44,.22,.66,.33,.04,.02,.09,.03,.13,.05,0,0,0,0,.01-.01-.05-.13-.2-.43-.24-.5-.15-.24-.33-.45-.56-.61Zm-.86-1.11c-.16,.19-.33,.36-.53,.51-.21,.16-.44,.27-.67,.38-.05,.02-.11,.05-.16,.08,.03-.09,.06-.18,.08-.27,.03-.14,.06-.29,.07-.43,0-.07,.06-.09,.09-.12,.19-.16,.38-.32,.59-.46,.31-.22,.62-.44,.97-.61,.06-.03,.12-.05,.19-.08-.08,.11-.15,.21-.22,.31-.1,.15-.19,.31-.25,.49-.03,.08-.1,.15-.15,.22Z"/>
    <path class="cls-3" d="M15.98,12.68c-.03-.1-.07-.19-.18-.22-.07-.02-.13-.05-.21-.01-.1,.05-.2,.07-.29,.12-.12,.08-.23,.18-.34,.27-.07,.05-.13,.12-.2,.16-.13,.07-.27,.12-.4,.18-.02,0-.04,.02-.05,.04-.09,.11-.19,.2-.31,.27-.38,.23-.75,.46-1.13,.69-.03,.02-.04,.05-.05,.07,.02,0,.04,0,.06,0,.15-.02,.3-.03,.45-.05,.25-.04,.5-.08,.75-.13,.22-.05,.44-.1,.65-.17,.23-.08,.45-.18,.64-.33,.12-.09,.23-.2,.34-.32,.07-.07,.11-.17,.16-.26,.03-.06,.06-.12,.09-.18,.01-.04,.03-.08,.02-.12Z"/>
    <path class="cls-1" d="M5.03,22.11c-.06,0-.12,0-.16-.05-.11-.13-.26-.22-.41-.3-.31-.16-.65-.27-.99-.34-.26-.05-.52-.12-.79-.08-.21,.03-.41,.07-.58,.2-.14,.1-.27,.21-.35,.36-.05,.08-.09,.17-.11,.25-.03,.11-.05,.22-.03,.34,0,.05,0,.1,.02,.15,.01,.05,.03,.1,.05,.14,.01,.03,.02,.08,.05,.1,.09,.06,.18,.12,.29,.15,.23,.06,.46,.08,.7,.08,.1,0,.2,0,.29-.02,.11-.02,.21-.04,.31-.08,.12-.05,.23-.11,.33-.18,.2-.14,.43-.19,.66-.23,.14-.02,.27-.03,.41-.04,.16-.02,.33-.03,.49-.05,.12-.01,.25-.02,.37-.03,.2-.02,.39-.03,.59-.05,.08,0,.16,0,.25-.02-.03,0-.04-.01-.05-.02-.44-.13-.88-.24-1.33-.28Zm-.69-.04s-.07,0-.1,0c-.15,0-.3,0-.45,0-.08,0-.15,0-.23,.01-.22,.01-.44,.05-.65,.12-.1,.03-.2,.07-.29,.11-.01,0-.02,0-.04,0,0-.01,0-.03,.01-.04,.09-.14,.24-.2,.39-.27,.16-.07,.33-.08,.5-.08,.41,0,.81,.05,1.19,.18,.01,0,.03,0,.04,.01,0,0,0,0,0,0-.13,0-.25-.02-.38-.03Z"/>
    <path class="cls-1" d="M10.03,23.39c-.21-.04-.43-.06-.65-.08-.29-.03-.57,.05-.85,.07-.18,.01-.36,.03-.54,.05-.09,0-.17,0-.26,.01-.21,.02-.42,.01-.61-.08-.02-.01-.05-.02-.08-.03,0,0,0,0,0,0,0,0,.01,.01,.02,.02,.31,.18,.65,.3,1.01,.36,.2,.04,.41,.05,.62,.08,.2,.02,.4,.02,.6-.01,.16-.02,.33-.04,.49-.06,.16-.02,.31-.03,.47-.05,.15-.02,.29-.03,.44-.05,.09,0,.19-.02,.29-.03-.02,0-.03-.01-.04-.02-.3-.07-.6-.15-.9-.21Z"/>
    <path class="cls-3" d="M16,14.41c.01-.06-.05-.24-.1-.27,0,0-.01,0-.02,0-.04-.02-.08-.03-.11-.05-.03-.01-.07-.03-.09-.02-.14,.05-.29,.08-.41,.15-.21,.13-.43,.25-.67,.31-.07,.02-.13,.05-.2,.09-.05,.03-.09,.13-.08,.17,.03,.09,.13,.17,.23,.18,.13,0,.26,.02,.44,.03,.1-.01,.24-.02,.39-.05,.21-.04,.4-.12,.52-.33,.04-.07,.09-.12,.11-.2Z"/>
    <path class="cls-1" d="M10.83,15.89c.07,0,.13,0,.2,.01,.12,0,.23,.04,.32,.11,.1,.07,.19,.15,.31,.18,.07,.02,.15,.04,.22,.03,.11,0,.18-.07,.21-.18,.01-.05,.02-.08,0-.13-.05-.07-.09-.14-.14-.21,0,0,0,0-.01-.01-.18-.07-.36-.15-.56-.15-.02,0-.05,0-.07,.01-.09,.02-.19,.03-.28,.05-.08,.02-.16,.07-.23,.1-.04,.02-.08,.05-.07,.1,0,.06,.05,.07,.1,.08Z"/>
    <path class="cls-3" d="M15.57,15.17c-.21,.09-.43,.12-.66,.13-.08,0-.16,.01-.24,.02-.06,0-.1,.03-.11,.08,0,.04,.02,.08,.08,.1,.11,.03,.21,.06,.32,.09,.21,.05,.42,.1,.63,.07,.12-.02,.24-.15,.25-.28-.02-.06-.03-.13-.07-.17-.05-.05-.13-.08-.21-.04Z"/>
    <g>
      <path class="cls-5" d="M5.72,12.92c-.14-.02-.29-.04-.43-.05-.12,0-.25,0-.33,0,.05,.02,.14,.04,.23,.07,.26,.1,.47,.26,.64,.49,.08,.11,.16,.23,.26,.32,.13,.12,.31,.17,.48,.19,.16,.02,.33,.04,.49,.07,.14,.02,.28,.05,.43,.07-.05-.08-.09-.15-.14-.22-.12-.15-.24-.3-.4-.41-.18-.12-.35-.25-.54-.35-.21-.11-.45-.15-.68-.18Z"/>
      <path class="cls-1" d="M9.31,2.85c-.3,.19-.56,.41-.79,.68-.17,.21-.32,.43-.44,.67-.1,.2-.18,.4-.27,.6-.17,.41-.28,.83-.34,1.27-.05,.37-.09,.74-.13,1.11-.02,.18-.03,.36-.03,.54,0,.34,.01,.67,.02,1.01,0,.04,0,.08,0,.13-.16-.24-.31-.47-.46-.69-.16-.23-.31-.45-.48-.67-.19-.25-.38-.49-.58-.74-.11-.14-.23-.28-.35-.42-.08-.09-.18-.17-.26-.26-.14-.16-.27-.32-.4-.49-.05-.07-.09-.11-.19-.05-.07,.04-.15,.07-.23,.1-.07,.02-.14,.03-.21,.04-.05,0-.08,.03-.11,.07-.14,.23-.28,.46-.41,.69-.12,.21-.25,.42-.35,.65-.12,.26-.27,.5-.47,.71-.17,.19-.36,.35-.56,.5-.35,.26-.73,.49-1.12,.69-.02,0-.03,.02-.05,.03,.02,0,.03,0,.05,0,.16-.05,.32-.1,.48-.16,.35-.13,.68-.28,1-.47,.36-.22,.71-.46,1.03-.74,.26-.23,.52-.47,.78-.7,.08-.08,.16-.16,.25-.24,.01-.01,.04-.01,.05,0,.13,.1,.25,.19,.37,.3,.05,.05,.08,.11,.13,.17,.21,.27,.42,.53,.62,.8,.23,.31,.46,.62,.68,.94,.16,.23,.31,.46,.45,.69,.17,.28,.33,.56,.49,.85,.08,.14,.23,.54,.32,.84,.05,.03,.25,.18,.3,.22,.04-.06,.13-.18,.23-.3-.03-.24-.08-.72-.1-.87-.02-.23-.04-.47-.06-.7-.02-.22-.03-.44-.04-.66,0-.17-.02-.35-.02-.52,0-.47,0-.94,0-1.4,0-.18,.02-.36,.03-.54,.01-.2,.03-.39,.05-.58,.02-.23,.05-.46,.09-.69,.06-.34,.14-.68,.24-1.01,.1-.31,.22-.61,.39-.88,.1-.15,.2-.3,.33-.42,.03-.03,.06-.06,.09-.09-.01,0-.03,0-.04,.02Z"/>
      <path class="cls-3" d="M7.79,11.29s0,0,0,0c-.25-.16-.52-.27-.8-.35-.25-.07-.5-.12-.76-.14-.1,0-.2-.02-.3-.02-.15,0-.3,0-.46,0,.3,.11,.59,.22,.88,.32-.21,.48-.26,.95,.01,1.42-.02,0-.03,0-.04,0-.23-.05-.47-.08-.71-.06-.1,0-.2,.01-.3,.04-.15,.04-.3,.09-.45,.14-.13,.04-.25,.1-.34,.21,0,0-.02,.01-.02,.01-.07,0-.14,0-.21,0-.09,0-.19,0-.28,0,.12,.03,.25,.05,.37,.07,.35,.07,.62,.27,.84,.54,.1,.12,.18,.25,.27,.38,.1,.15,.23,.26,.39,.34,.2,.11,.42,.18,.65,.23,.34,.07,.68,.15,1.02,.22,.15,.03,.28-.02,.37-.13,.04-.05,.07-.06,.13-.05,.1,.02,.19-.07,.17-.15-.02-.09-.06-.18-.13-.25-.11-.11-.21-.23-.3-.35-.16-.2-.31-.41-.46-.62-.02-.03-.04-.05-.06-.08-.02-.04-.03-.08-.05-.12-.08-.14-.17-.28-.24-.43-.16-.32-.28-.66-.38-1.01-.02-.08-.04-.16-.07-.26,.03,0,.04,.01,.06,.02,.2,.09,.39,.18,.59,.28,.3,.15,.57,.35,.8,.59,.02,.03,.03,.05,.02,.08-.02,.1-.04,.2-.06,.31-.01,.1-.02,.2-.02,.29,0,.13,0,.27,0,.4,0,.05,0,.1,.02,.15,.06,.21,.12,.41,.2,.61,.06,.17,.14,.33,.31,.43,.11,.06,.2,.06,.29,0,.12-.07,.14-.11,.06-.23-.14-.22-.25-.45-.31-.7-.06-.27-.1-.55-.08-.83,.02-.26,.04-.53,.08-.79,.05-.35,.14-.7,.26-1.04,.01-.04,.03-.08,.05-.12,0,0-.01,0-.02-.01-.1,.12-.31,.36-.47,.57-.1,.13-.19,.24-.23,.3-.05-.04-.25-.19-.3-.22Zm-.84,2.16c.16,.11,.29,.26,.4,.41,.05,.07,.09,.14,.14,.22-.15-.03-.29-.05-.43-.07-.16-.02-.33-.04-.49-.07-.18-.03-.35-.08-.48-.19-.1-.09-.18-.21-.26-.32-.16-.23-.37-.39-.64-.49-.09-.03-.18-.06-.23-.07,.08,0,.2,0,.33,0,.14,0,.29,.03,.43,.05,.23,.03,.47,.07,.68,.18,.19,.1,.37,.23,.54,.35Z"/>
    </g>
  </g>
  <path class="cls-3" d="M11.3,7.3l-.15-.02v-.37l.07-.15c.17-.03,.32-.06,.45-.1,.13-.04,.24-.1,.33-.17-.01-.4,.03-.78,.11-1.15,.08-.37,.22-.7,.42-1l.02,.07,.02,.13c.25-.21,.46-.36,.64-.46,.18-.1,.34-.18,.5-.24,.15-.06,.29-.1,.39-.13,.11-.03,.25-.05,.44-.08,.07,.02,.15,.05,.22,.09,.22,.16,.42,.3,.52,.56-.08,.1-.12,.19-.13,.26,.01,.41,.02,.85,.03,1.3-.02,.12-.06,.23-.11,.33-.05,.1-.12,.19-.21,.27h-.14c-.03-.05-.05-.1-.06-.14-.02-.04-.03-.09-.05-.15-.01-.06-.03-.11-.04-.16-.01-.05-.02-.09-.03-.13l-.02-.43c-.16,0-.33,.03-.51,.06-.18,.04-.35,.09-.51,.14-.16,.06-.36,.13-.59,.22-.23,.09-.4,.15-.5,.18l-.02,.34c.12-.03,.24-.06,.37-.09,.13-.04,.29-.09,.47-.16,.18-.07,.33-.11,.45-.14,.12-.03,.23-.04,.33-.03,.14,.03,.25,.1,.32,.2-.07,.09-.19,.15-.37,.19l-.17,.08c-.05,.08-.12,.17-.2,.28-.08,.11-.15,.18-.19,.23-.04,.05-.08,.1-.11,.16-.03,.06-.04,.11-.03,.17,.09,.03,.18,.07,.26,.11,.08,.05,.17,.1,.27,.15,.1,.06,.18,.1,.25,.14,.07,.04,.14,.07,.22,.09,.09-.22,.16-.46,.2-.73l-.13-.27c.03-.08,.1-.13,.2-.14,.03,.04,.06,.07,.11,.09,.05,.02,.1,.04,.17,.05,.07,.01,.13,.03,.19,.05,.05,.02,.1,.05,.15,.09,.02,.05,.02,.09,0,.12-.01,.04-.03,.07-.05,.09-.02,.03-.05,.06-.08,.1-.04,.04-.07,.08-.1,.11-.03,.04-.07,.1-.12,.19-.05,.09-.12,.23-.2,.41,.09,.08,.18,.14,.28,.19,.09,.05,.18,.09,.26,.13,.08,.04,.16,.07,.23,.09,.07,.03,.14,.05,.2,.08,.06,.03,.13,.06,.22,.1,.09,.04,.19,.09,.33,.14,.18,.06,.36,.13,.53,.2,.17,.07,.34,.15,.5,.24l-.04,.04c-.16,.09-.35,.16-.57,.2-.22,.05-.44,.07-.66,.06-.26-.11-.53-.25-.81-.42-.28-.17-.53-.35-.74-.53-.28,.2-.5,.35-.66,.44-.16,.09-.31,.16-.46,.21-.15,.05-.3,.07-.47,.06-.17,0-.36-.03-.59-.08l-.07-.04c.39-.06,.74-.16,1.04-.31,.3-.14,.57-.34,.81-.6-.06-.04-.12-.08-.17-.13-.06-.05-.12-.12-.2-.2-.08-.08-.15-.15-.21-.21s-.12-.11-.19-.16c-.16,.23-.31,.42-.44,.59-.13,.16-.29,.34-.47,.52-.18,.18-.4,.33-.64,.46-.24,.13-.55,.22-.94,.28l-.07-.02c.53-.37,1-.76,1.42-1.19,.42-.42,.76-.89,1.04-1.4-.28,.05-.57,.13-.87,.24-.3,.11-.59,.24-.88,.41Zm3.87-5.03c.06,0,.13,0,.21,0s.15,0,.22,.02c.3,.04,.58,.14,.6,.46,.03,.28-.34,.37-.59,.34-.08-.01-.17-.03-.25-.04-.09-.01-.17-.03-.26-.04-.61-.17-1.12,.23-1.61,.55-.06,.04-.12,.08-.18,.13-.18,.13-.37,.28-.56,.43h-.04c.15-.18,.28-.34,.39-.49,.04-.05,.07-.1,.1-.15,0-.1,.16-.16,.16-.27-.17,.03-.31,.08-.48,.14-.08,.02-.15,.04-.23,.06-.22,.06-.42,.12-.61,.18-.17-.03-.36-.08-.58-.16l.05-.02c.41-.15,.78-.28,1.11-.39,.06-.02,.13-.04,.19-.06,.72-.2,1.39-.54,2.15-.67,.07,0,.13-.01,.21-.01Zm-2.47,3h-.17s-.06,.38-.06,.38c.1-.03,.22-.07,.34-.12,.13-.05,.29-.11,.47-.18,.19-.07,.34-.13,.47-.16,.13-.03,.25-.05,.35-.05l.42,.07v-.45c-.36,.02-.69,.07-.98,.14s-.58,.2-.85,.37Zm-.14-.33s.07-.02,.16-.05c.08-.03,.21-.08,.37-.15,.16-.07,.3-.12,.42-.17,.12-.05,.22-.07,.31-.08,.17,0,.31,0,.43,.01,.12,.01,.22,.05,.3,.12,0-.12,0-.21,0-.29,0-.08-.02-.14-.04-.19-.02-.05-.05-.08-.1-.11-.05-.02-.11-.03-.2-.03-.35,.04-.7,.15-1.05,.36-.34,.2-.54,.39-.6,.58Z"/>
</svg>