<?xml version="1.0" encoding="UTF-8"?>
<svg id="_图层_1" data-name="图层 1" xmlns="http://www.w3.org/2000/svg" viewBox="0 0 19 26">
  <defs>
    <style>
      .cls-1 {
        fill: #005529;
      }

      .cls-2 {
        fill: #93989c;
      }

      .cls-3 {
        fill: #881c21;
      }

      .cls-4 {
        fill: #f5f6f7;
      }
    </style>
  </defs>
  <g>
    <rect class="cls-4" x=".12" y=".12" width="18.75" height="25.75" rx="1.88" ry="1.88"/>
    <path class="cls-2" d="M17,.25c.96,0,1.75,.79,1.75,1.75V24c0,.96-.79,1.75-1.75,1.75H2c-.96,0-1.75-.79-1.75-1.75V2C.25,1.04,1.04,.25,2,.25h15M17,0H2C.9,0,0,.9,0,2V24C0,25.1,.9,26,2,26h15c1.1,0,2-.9,2-2V2C19,.9,18.1,0,17,0h0Z"/>
  </g>
  <g>
    <path class="cls-1" d="M14.35,2.28s.08,.06,.12,.08c.08,.04,.13,.09,.16,.17,.03,.06,.06,.12,.09,.19,.02,.05,.03,.1,0,.16-.03,.09-.08,.16-.16,.21-.04,.02-.04,.07-.05,.11-.05,.29-.1,.57-.15,.86-.03,.19-.07,.38-.1,.58-.02,.16-.04,.33-.06,.5-.02,.17-.05,.35-.07,.52-.01,.1-.02,.2-.03,.3,0,.35-.01,.71-.01,1.06,0,.17,.03,.33,.05,.5,0,.04,0,.09,.01,.13,0,.04,.02,.08,.04,.11,.06,.09,.06,.17,0,.26-.05,.07-.12,.11-.19,.13-.07,.02-.13,.05-.2,.07-.05,.01-.1,.02-.15,.03-.11,0-.21,.02-.32,.02-.08,0-.16-.02-.23-.02-.12,0-.18-.1-.26-.16-.08-.05-.1-.12-.09-.21,0-.15,0-.3,.01-.46,0-.16,.02-.31,.04-.47,.02-.22,.05-.45,.07-.67,.03-.25,.06-.49,.1-.74,.05-.31,.11-.62,.17-.93,.03-.18,.06-.36,.09-.54,.03-.18,.05-.36,.07-.54,0-.06,0-.12,.01-.18,0-.01,0-.03,0-.04,.08-.09-.01-.17,0-.25,0-.1-.01-.2,.01-.29,.02-.06,.09-.12,.15-.16,.14-.08,.29-.15,.45-.22,.09-.04,.19-.04,.28-.06,.03,0,.06-.02,.09-.03h.06Z"/>
    <path class="cls-1" d="M.72,19.35s.07-.1,.1-.15c.16-.27,.33-.53,.52-.78,.18-.25,.4-.45,.61-.68,.15-.16,.34-.23,.54-.28,.04,0,.08,.02,.12,.03,.04,.01,.07,.03,.11,.04,.04,0,.04,.03,.03,.05-.02,.07-.03,.14-.05,.2,0,.02-.02,.04-.03,.06-.05,.07-.11,.13-.16,.2-.09,.11-.22,.19-.33,.28-.23,.17-.46,.35-.69,.52-.25,.18-.5,.35-.75,.52,0,0-.01,0-.02,0H.72Z"/>
    <path class="cls-1" d="M7.79,23.85c0-.15,.01-.3,0-.45-.03-.26-.07-.53-.11-.79-.05-.34-.16-.67-.29-.99-.1-.25-.21-.49-.33-.74-.09-.19-.21-.36-.3-.55-.07-.17-.12-.35-.16-.53-.03-.11-.04-.23-.04-.34,0-.15,.01-.31,.05-.45,.02-.06,.02-.13,.05-.18,.03-.08,.09-.14,.17-.17,.11-.05,.21-.01,.31,.02,.17,.05,.34,.1,.51,.16,.17,.07,.33,.15,.43,.31,.1,.16,.16,.34,.19,.53,.05,.29,.11,.58,.17,.86,.06,.3,.13,.6,.2,.89,.06,.24,.13,.48,.2,.72,.08,.26,.17,.51,.26,.77,.09,.24,.2,.47,.34,.68,.03,.05,.05,.1,.08,.15,.05,.09,.03,.18,0,.27-.02,.05-.07,.08-.1,.12-.06,.06-.12,.1-.18,.16-.08,.09-.18,.15-.29,.19-.1,.04-.2,.09-.3,.12-.08,.02-.17,.03-.26,.04-.06,0-.11,.02-.17,.02-.13,0-.26,0-.36-.11-.05-.06-.07-.14-.07-.21,0-.16,0-.33,0-.49h0Z"/>
    <path class="cls-1" d="M5.61,13.24c.19,.01,.3,.1,.34,.31,0,.01,0,.02,0,.04-.01,.1-.04,.2-.04,.3,0,.2,.03,.39,.07,.59,.09,.39,.22,.77,.38,1.14,.13,.31,.27,.63,.41,.93,.14,.29,.3,.57,.49,.83,.04,.06,.1,.12,.14,.18,.05,.08,.07,.17,.06,.27-.03,.17-.12,.31-.19,.45-.05,.1-.15,.13-.25,.16-.12,.03-.24,.06-.36,.08-.06,.01-.13,0-.19,0-.08-.01-.16-.03-.24-.05-.11-.02-.17-.09-.2-.2-.02-.07-.01-.14,0-.21,0-.06,0-.13,0-.19-.02-.23-.1-.45-.17-.67-.08-.21-.17-.42-.26-.63-.13-.29-.26-.58-.4-.87-.15-.31-.32-.62-.48-.93-.1-.19-.21-.39-.31-.58-.03-.05-.06-.1-.09-.14-.06-.08-.1-.18-.11-.28,0-.06,.02-.13,.06-.19,.05-.08,.14-.13,.22-.18,.1-.06,.2-.08,.31-.1,.1-.01,.2,0,.3-.02,.16-.01,.33-.02,.49-.04,.01,0,.02,0,.03,0Z"/>
    <path class="cls-1" d="M11.75,20.49c0-.11,0-.21,0-.3,0-.06,0-.11-.02-.17-.02-.06-.04-.13-.07-.19-.04-.12,0-.22,.05-.32,.02-.04,.01-.11,.01-.16,0-.14,0-.28,0-.42,0-.02,0-.04,0-.06,0-.11,0-.23,0-.34,0-.24,0-.48,.01-.72,0-.02,0-.04,0-.05-.06-.1-.02-.2-.01-.29,0-.05,0-.11,.01-.16,0-.11,0-.22,.01-.33,0-.13,.02-.26,.01-.39,0-.19,0-.38-.06-.56-.01-.03-.03-.07-.05-.09-.08-.09-.15-.17-.19-.29-.01-.04,0-.06,0-.1,.02-.09,.07-.14,.16-.16,.12-.03,.25-.07,.37-.1,.14-.03,.28-.03,.42-.05,.12-.02,.23,.02,.34,.04,.08,.01,.15,.04,.23,.07,.04,.01,.07,.04,.1,.07,.09,.09,.21,.17,.24,.31,0,.03,.01,.06,0,.09-.08,.17-.11,.35-.13,.54-.01,.17-.03,.33-.05,.5-.01,.17-.03,.35-.04,.52,0,.15-.02,.3-.03,.45,0,.02,0,.04-.01,.05-.05,.12-.05,.25-.04,.38,0,.12,.03,.23,.05,.35,.01,.09,.02,.17,.03,.26,.01,.18,.03,.37,.02,.55,0,.08-.04,.15-.07,.23-.02,.04-.18,.08-.22,.06-.05-.03-.12-.02-.14-.09,0,0-.03,0-.04,0-.05,.04-.11,.08-.15,.13-.21,.2-.42,.4-.62,.6-.05,.04-.09,.09-.14,.15Z"/>
    <path class="cls-1" d="M12.95,8.57c.2-.02,.39-.03,.59-.05,.08,0,.17-.03,.25-.06,.06-.02,.1,0,.12,.05,.04,.1,.08,.2,.1,.31,0,.05-.02,.11-.05,.16-.04,.06-.06,.12-.07,.19-.03,.2-.06,.4-.09,.6-.02,.15-.03,.29-.05,.44-.02,.17-.04,.34-.06,.52-.01,.13-.02,.25-.03,.38,0,.09-.02,.18-.02,.28,0,.05-.03,.07-.07,.09-.31,.19-.62,.38-.92,.58-.15,.09-.29,.2-.44,.3-.05,.03-.1,0-.1-.05,0-.08,0-.17,.01-.25,0-.06,.02-.11,.02-.17,.02-.15,.03-.3,.05-.46,.02-.16,.03-.32,.05-.47,.02-.16,.05-.32,.07-.48,.02-.16,.05-.32,.08-.49,0-.04,.02-.08,.02-.12,.01-.09,.01-.19,.03-.29,.02-.15,.04-.31,.06-.46,.01-.1,.02-.21,.02-.31,0-.13,.11-.24,.26-.25,.06,0,.11,0,.17,0,0,0,0,0,0,0Z"/>
    <path class="cls-1" d="M15.2,25.04c-.04-.12-.07-.24-.12-.35-.12-.32-.23-.64-.36-.95-.13-.31-.27-.61-.41-.91-.09-.18-.19-.36-.3-.53-.03-.05-.09-.08-.14-.11-.23-.16-.46-.33-.7-.48-.19-.12-.31-.29-.42-.47-.04-.06-.05-.14-.03-.22,.02-.06,.03-.12,.07-.17,.01-.01,0-.04,0-.06-.01-.03-.03-.06-.05-.08-.04-.05-.04-.05,.02-.08,.15-.09,.32-.12,.49-.14,.08-.01,.17,.04,.26,.05,.22,.04,.4,.16,.56,.3,.11,.09,.2,.21,.29,.32,.16,.2,.28,.42,.39,.64,.14,.29,.24,.61,.31,.93,.04,.19,.08,.39,.11,.59,.02,.14,.02,.29,.04,.43,.04,.35,.02,.69,.02,1.04,0,.09,0,.18-.02,.27,0,0,0,0,0,0Z"/>
    <path class="cls-1" d="M12.65,14.96c-.15,0-.27-.02-.39-.03,0,0-.02,0-.03-.01-.1-.07-.2-.15-.3-.23-.02-.01-.03-.05-.03-.07-.01-.05-.02-.11-.03-.16-.02-.12,0-.19,.1-.25,.02-.01,.04-.04,.05-.06,.02-.15,.03-.31,.05-.46,.02-.14,.04-.29,.06-.43,0-.08,.02-.15,.03-.23,0-.05,.02-.09,.06-.12,.18-.14,.35-.28,.53-.42,.14-.11,.29-.21,.43-.31,.11-.07,.21-.15,.32-.22,.01,0,.04-.01,.05,0,.02,.02,.05,.05,.05,.08-.01,.16-.04,.31-.06,.47-.02,.19-.04,.38-.06,.57,0,.07,0,.14-.01,.22,0,.12-.01,.25-.01,.37,0,.2,.02,.4,.03,.6,0,0,0,0,0,.01-.03,.05,0,.09,.02,.14,.03,.06,.01,.12-.04,.16-.08,.07-.16,.12-.24,.18-.04,.03-.08,.05-.11,.08-.06,.04-.12,.07-.19,.08-.1,.01-.21,.03-.28,.04Z"/>
    <path class="cls-1" d="M17.33,22.62c-.1-.09-.19-.18-.29-.27-.15-.13-.29-.26-.44-.39-.12-.11-.24-.22-.36-.32-.17-.14-.33-.28-.5-.42-.13-.11-.27-.22-.41-.32-.21-.16-.44-.26-.67-.36,0,0,0,0,0,0-.08-.07-.17-.06-.26-.03-.12,.04-.31-.05-.38-.15-.1-.14-.09-.29-.04-.45,.05-.21,.19-.32,.39-.36,.1-.02,.2-.03,.31,0,.07,.02,.15,0,.22-.03,.12-.03,.23-.03,.34,.01,.06,.02,.12,.07,.17,.12,.12,.12,.22,.26,.34,.38,.06,.06,.12,.11,.18,.17,.26,.27,.47,.57,.67,.88,.19,.3,.34,.61,.49,.92,.09,.2,.17,.4,.26,.6,0,0,0,0-.01,0Z"/>
    <path class="cls-1" d="M17.08,10.12c-.15,.05-.3,.1-.45,.16-.27,.1-.54,.21-.8,.32-.28,.12-.55,.25-.83,.39-.45,.21-.88,.46-1.29,.73-.24,.15-.47,.3-.7,.46-.27,.19-.53,.39-.78,.59-.18,.14-.36,.3-.53,.45-.23,.22-.46,.44-.68,.67-.18,.19-.35,.39-.52,.59-.13,.16-.27,.33-.38,.51-.19,.29-.37,.6-.55,.9-.15,.25-.29,.51-.44,.76-.09,.16-.17,.31-.25,.47-.14,.26-.27,.52-.4,.78-.03,.06-.05,.14-.05,.21,0,.12,.01,.24,.02,.36,0,.01,0,.03-.02,.04-.07,.07-.13,.14-.2,.21-.02,.02-.03,.02-.05,0-.07-.07-.14-.14-.2-.21-.03-.03-.03-.09-.04-.13-.02-.12-.02-.24,.01-.36,.02-.07,.05-.13,.08-.19,.18-.3,.36-.59,.54-.89,.13-.21,.26-.43,.4-.64,.2-.31,.41-.63,.62-.93,.17-.25,.36-.5,.54-.75,.11-.15,.24-.29,.37-.43,.14-.15,.28-.3,.42-.45,.15-.16,.31-.33,.47-.48,.25-.24,.51-.47,.78-.69,.22-.19,.46-.36,.69-.53,.33-.24,.67-.45,1.02-.65,.15-.08,.29-.17,.45-.24,.32-.15,.65-.3,.98-.44,.25-.1,.5-.2,.75-.28,.33-.11,.67-.21,1.01-.31,0,0,0,.01,0,.02Z"/>
    <path class="cls-1" d="M10.45,24.5c0-.07-.02-.14-.02-.21-.01-.2-.03-.4-.04-.6,0-.21-.02-.43-.01-.64,.01-.32,.06-.63,.13-.93,.05-.2,.11-.41,.2-.59,.12-.25,.28-.48,.49-.66,.09-.07,.19-.12,.31-.13,.08,0,.16-.02,.24-.04,.09-.02,.16,0,.24,.05,.06,.04,.12,.08,.18,.12,.03,.02,.07,.05,.09,.09,.05,.06,.04,.08,0,.14-.06,.08-.12,.16-.18,.23-.07,.09-.14,.19-.22,.27-.19,.19-.33,.41-.45,.65-.18,.37-.35,.74-.5,1.12-.14,.38-.28,.76-.42,1.14,0,0,0,0-.02,.01Z"/>
    <path class="cls-1" d="M18.19,13.4c-.14-.06-.27-.11-.4-.16-.31-.12-.62-.24-.93-.36-.29-.11-.58-.23-.88-.33-.27-.09-.53-.18-.8-.27-.16-.05-.32-.1-.46-.19-.09-.05-.17-.12-.25-.18,0,0-.01-.02-.02-.02-.07-.06-.08-.06-.04-.16,.07-.18,.18-.31,.38-.36,.11-.03,.21-.06,.32-.07,.06,0,.12,.01,.17,.02,.11,.02,.22,.04,.33,.07,.11,.03,.21,.07,.31,.12,.29,.13,.56,.3,.81,.49,.16,.13,.33,.25,.48,.39,.24,.23,.48,.47,.71,.7,.09,.1,.18,.2,.28,.32Z"/>
    <path class="cls-1" d="M2.58,9.77c.07,.06,.15,.13,.22,.19,.2,.19,.41,.37,.6,.57,.17,.17,.33,.35,.49,.53,.07,.08,.14,.16,.21,.25,.06,.08,.11,.18,.17,.26,.06,.08,.14,.16,.21,.23,.06,.06,.13,.11,.2,.15,.07,.04,.15,.08,.23,.11,.12,.05,.21,.12,.23,.26,.02,.08,.05,.16,.05,.25,0,.06-.01,.13-.04,.18-.07,.11-.15,.22-.23,.33-.04,.06-.1,.07-.16,.08-.15,.03-.3,.07-.46,.07-.13,0-.23-.05-.3-.16-.03-.05-.04-.12-.04-.18,0-.07,.02-.14,.08-.18,.03-.02,.03-.04,.02-.08-.04-.15-.09-.29-.2-.4,0,0-.01-.01-.02-.02-.04-.12-.08-.23-.13-.35-.03-.09-.07-.17-.12-.25-.13-.24-.27-.47-.4-.7-.14-.25-.28-.5-.43-.75-.07-.13-.14-.26-.22-.39,0,0,0,0,0,0Z"/>
    <path class="cls-1" d="M7.88,15.17c.05-.12,.08-.23,.13-.33,.11-.25,.22-.51,.35-.75,.1-.19,.23-.37,.36-.55,.08-.11,.16-.22,.26-.32,.12-.11,.24-.21,.38-.31,.15-.11,.32-.18,.5-.21,.06,0,.12,0,.18,.02,.12,.03,.25,.06,.35,.13,.1,.07,.14,.2,.12,.31-.02,.14-.13,.2-.22,.28-.16,.14-.35,.22-.53,.34-.2,.13-.4,.27-.59,.41-.3,.22-.59,.44-.88,.67-.13,.1-.26,.21-.41,.32Z"/>
    <path class="cls-1" d="M1.94,20.04c.19-.42,.4-.83,.64-1.21,.05-.08,.08-.17,.12-.26,.09-.22,.19-.44,.33-.63,.14-.19,.3-.36,.51-.49,.06-.04,.11-.07,.18-.09,.08-.02,.15,0,.22,.03,.04,.01,.08,.02,.12,0,.13-.05,.28-.07,.42-.05,.09,0,.17,.05,.25,.08,0,0,0,.02,0,.03-.16,.18-.33,.36-.53,.51-.18,.14-.36,.27-.54,.41-.18,.15-.35,.31-.52,.46-.38,.33-.71,.7-1.06,1.06-.05,.05-.09,.1-.13,.15Z"/>
    <path class="cls-1" d="M4.58,21.55c0-.1,.01-.21,.01-.31,0-.15,0-.29,0-.44,0-.05-.01-.1-.01-.15,0-.14-.02-.29-.02-.43,0-.24-.02-.48-.01-.71,0-.16,.03-.32,.06-.48,.01-.1,.03-.19,.05-.29,0-.03,.02-.07,.03-.1,.03-.06,.06-.13,.09-.19,.05-.1,.11-.18,.22-.2,.05-.01,.11-.03,.16-.05,.01,0,.03,0,.04,.01,.09,.12,.17,.25,.17,.41,0,.06,.02,.11,.02,.17,0,.1-.02,.21-.04,.31-.08,.36-.17,.73-.27,1.08-.09,.3-.2,.59-.3,.89-.06,.16-.11,.32-.17,.49,0,0-.01,0-.02,0Z"/>
    <path class="cls-1" d="M8.42,12.27c.07-.03,.12-.05,.17-.08,.23-.12,.46-.21,.71-.29,.14-.04,.28-.09,.42-.12,.12-.03,.24-.03,.37-.04,.07,0,.15-.02,.22-.01,.15,0,.29,.03,.44,.08,.01,0,.02,.01,.03,.02,.08,.09,.16,.18,.24,.27,.07,.08,.06,.26-.02,.33-.06,.05-.11,.08-.19,.08-.16,0-.32-.01-.48-.06-.08-.02-.16-.02-.25-.03-.13-.01-.25-.03-.38-.04-.11-.01-.23-.02-.34-.03-.13-.01-.27-.03-.4-.04-.12-.01-.24-.02-.36-.03-.05,0-.11-.01-.18-.02Z"/>
    <path class="cls-1" d="M14.01,12.54c.06,0,.11,0,.17,.01,.17,.02,.34,.05,.51,.07,.02,0,.03,0,.05,.01,.24,.11,.46,.26,.67,.42,.08,.06,.13,.16,.15,.27,.04,.19-.05,.33-.15,.47-.06,.09-.14,.11-.24,.1-.08,0-.17,0-.24-.03-.07-.03-.14-.08-.19-.14-.15-.2-.29-.41-.43-.62-.03-.05-.06-.11-.09-.16-.07-.13-.13-.27-.2-.41Z"/>
    <path class="cls-1" d="M9.36,22.03c.14-.35,.29-.7,.5-1.02,.13-.21,.29-.4,.47-.58,.15-.15,.33-.23,.53-.29,.12-.04,.21,.02,.3,.05,.08,.03,.07,.03,.03,.1-.1,.15-.24,.26-.38,.37-.15,.12-.3,.24-.44,.36-.21,.19-.41,.39-.61,.58-.12,.12-.23,.25-.35,.38-.01,.01-.03,.03-.04,.04Z"/>
  </g>
  <path class="cls-3" d="M2.49,2.9c.13,.07,.33,.14,.46,.29,.03,.02,.05,.04,.08,.06,.12,.11,.17,.23,.17,.37s-.15,.62-.44,1.45c.05-.05,.16-.12,.33-.23,.17-.1,.3-.15,.39-.15s.19,0,.29,.03c.1,.02,.15,.04,.15,.07,0,.08-.08,.35-.24,.81-.16,.46-.24,.76-.24,.89,0,.09,.01,.17,.03,.23,.02,.06,.04,.09,.06,.09,.08-.11,.2-.37,.35-.8,.15-.43,.25-.66,.28-.71-.13,.7-.22,1.24-.29,1.64-.06,.39-.09,.69-.09,.89,0,.09-.03,.18-.09,.27-.06,.09-.12,.13-.19,.13-.1,0-.22-.11-.36-.34-.14-.23-.21-.55-.21-.98,0-.11,.04-.37,.11-.77,.08-.4,.11-.66,.11-.77-.09,.02-.29,.19-.58,.52-.3,.33-.49,.49-.58,.49-.07,0-.13-.04-.19-.13-.06-.09-.09-.21-.09-.37,0-.04,.08-.19,.23-.45,.15-.26,.23-.4,.25-.43,.05,0,.13-.22,.24-.67,.11-.45,.17-.77,.17-.96,0-.03,0-.07,0-.09-.11-.08-.05-.21-.12-.25v-.1Zm2.51-.64c.41,.19,.74,.38,1.03,.69,.01,.02,.02,.04,.02,.07,0,.02,0,.05,0,.07,0,.17-.19,.64-.56,1.41,.08-.03,.42-.11,1.02-.25,.6-.14,.96-.21,1.06-.21,.09,0,.24,.04,.43,.12,.03,.01,.06,.03,.09,.04,.03,.01,.05,.03,.07,.04,.03,.1,.16,.1,.16,.17,0,.19-.19,.19-.3,.19-.02,0-.05,0-.07,0-.18,.02-.42,.03-.73,.03-.13,0-.28,.03-.43,.08s-.3,.11-.46,.17c0-.04,.03-.09,.1-.15-.09,.03-.23,.07-.41,.1-.19,.04-.36,.05-.51,.05-.04,0-.08,0-.12,0-.04,0-.08,0-.1,0-.13,.2-.27,.36-.42,.48-.15,.11-.34,.17-.58,.17,.26-.36,.5-.8,.72-1.33,.13-.31,.21-.58,.27-.81,0-.03,.01-.07,.02-.1,.17-.36-.15-.62-.29-.94,0-.03-.01-.07-.01-.07Zm1.26,2.78c.16,.24,.29,.47,.42,.71,.12,.23,.18,.54,.18,.93,0,.45-.06,.96-.17,1.55-.02,.09-.04,.17-.06,.25,0,.03-.01,.05-.02,.07-.09,.39-.35,.98-.87,.91,0-.19,0-.39-.2-.48-.03-.02-.07-.05-.11-.08s-.07-.06-.11-.09c-.29-.25-.51-.53-.67-.85,.18,.11,.36,.2,.55,.29,.19,.08,.39,.12,.58,.12,.13,0,.24-.24,.32-.71,.08-.47,.12-.86,.12-1.18,0-.08-.03-.23-.08-.47-.05-.24-.08-.39-.08-.45,0-.08,0-.17,.02-.26,.02-.09,.05-.18,.1-.27h.06Z"/>
</svg>